%TF.GenerationSoftware,KiCad,Pcbnew,(6.0.2)*%
%TF.CreationDate,2022-08-07T22:17:39-07:00*%
%TF.ProjectId,LightDrum,4c696768-7444-4727-956d-2e6b69636164,rev?*%
%TF.SameCoordinates,Original*%
%TF.FileFunction,Paste,Bot*%
%TF.FilePolarity,Positive*%
%FSLAX46Y46*%
G04 Gerber Fmt 4.6, Leading zero omitted, Abs format (unit mm)*
G04 Created by KiCad (PCBNEW (6.0.2)) date 2022-08-07 22:17:39*
%MOMM*%
%LPD*%
G01*
G04 APERTURE LIST*
G04 Aperture macros list*
%AMRoundRect*
0 Rectangle with rounded corners*
0 $1 Rounding radius*
0 $2 $3 $4 $5 $6 $7 $8 $9 X,Y pos of 4 corners*
0 Add a 4 corners polygon primitive as box body*
4,1,4,$2,$3,$4,$5,$6,$7,$8,$9,$2,$3,0*
0 Add four circle primitives for the rounded corners*
1,1,$1+$1,$2,$3*
1,1,$1+$1,$4,$5*
1,1,$1+$1,$6,$7*
1,1,$1+$1,$8,$9*
0 Add four rect primitives between the rounded corners*
20,1,$1+$1,$2,$3,$4,$5,0*
20,1,$1+$1,$4,$5,$6,$7,0*
20,1,$1+$1,$6,$7,$8,$9,0*
20,1,$1+$1,$8,$9,$2,$3,0*%
G04 Aperture macros list end*
%ADD10RoundRect,0.250000X0.450000X-0.262500X0.450000X0.262500X-0.450000X0.262500X-0.450000X-0.262500X0*%
%ADD11RoundRect,0.250000X0.262500X0.450000X-0.262500X0.450000X-0.262500X-0.450000X0.262500X-0.450000X0*%
%ADD12RoundRect,0.150000X0.150000X-0.587500X0.150000X0.587500X-0.150000X0.587500X-0.150000X-0.587500X0*%
%ADD13RoundRect,0.225000X-0.225000X-0.250000X0.225000X-0.250000X0.225000X0.250000X-0.225000X0.250000X0*%
%ADD14RoundRect,0.250000X-0.262500X-0.450000X0.262500X-0.450000X0.262500X0.450000X-0.262500X0.450000X0*%
%ADD15RoundRect,0.150000X0.587500X0.150000X-0.587500X0.150000X-0.587500X-0.150000X0.587500X-0.150000X0*%
%ADD16RoundRect,0.250000X1.100000X-0.325000X1.100000X0.325000X-1.100000X0.325000X-1.100000X-0.325000X0*%
%ADD17RoundRect,0.250000X-0.550000X1.050000X-0.550000X-1.050000X0.550000X-1.050000X0.550000X1.050000X0*%
%ADD18R,1.000000X1.000000*%
%ADD19RoundRect,0.225000X0.225000X0.250000X-0.225000X0.250000X-0.225000X-0.250000X0.225000X-0.250000X0*%
%ADD20RoundRect,0.250000X-0.450000X0.262500X-0.450000X-0.262500X0.450000X-0.262500X0.450000X0.262500X0*%
%ADD21RoundRect,0.100000X0.637500X0.100000X-0.637500X0.100000X-0.637500X-0.100000X0.637500X-0.100000X0*%
%ADD22R,0.400000X1.100000*%
%ADD23RoundRect,0.250000X-0.250000X-0.475000X0.250000X-0.475000X0.250000X0.475000X-0.250000X0.475000X0*%
%ADD24R,3.500000X2.300000*%
G04 APERTURE END LIST*
D10*
X166600000Y-54112500D03*
X166600000Y-52287500D03*
D11*
X154412500Y-62300000D03*
X152587500Y-62300000D03*
D10*
X148000000Y-55879500D03*
X148000000Y-54054500D03*
D12*
X119959000Y-60184500D03*
X118059000Y-60184500D03*
X119009000Y-58309500D03*
X157959000Y-50184500D03*
X156059000Y-50184500D03*
X157009000Y-48309500D03*
D13*
X63325000Y-70100000D03*
X64875000Y-70100000D03*
D14*
X73787500Y-58100000D03*
X75612500Y-58100000D03*
D12*
X136050000Y-60184500D03*
X134150000Y-60184500D03*
X135100000Y-58309500D03*
D15*
X165337500Y-82050000D03*
X165337500Y-83950000D03*
X163462500Y-83000000D03*
D16*
X162000000Y-106475000D03*
X162000000Y-103525000D03*
D11*
X144921500Y-62247000D03*
X143096500Y-62247000D03*
D17*
X167000000Y-102800000D03*
X167000000Y-106400000D03*
D10*
X146800000Y-62012500D03*
X146800000Y-60187500D03*
D11*
X150921500Y-62247000D03*
X149096500Y-62247000D03*
X138921500Y-52247000D03*
X137096500Y-52247000D03*
D10*
X128800000Y-66212500D03*
X128800000Y-64387500D03*
D11*
X163912500Y-62300000D03*
X162087500Y-62300000D03*
D18*
X131350000Y-81700000D03*
X133850000Y-81700000D03*
D11*
X123796500Y-52247000D03*
X121971500Y-52247000D03*
D10*
X141500000Y-54012500D03*
X141500000Y-52187500D03*
D19*
X70575000Y-70100000D03*
X69025000Y-70100000D03*
D13*
X63225000Y-97700000D03*
X64775000Y-97700000D03*
D12*
X144959000Y-60184500D03*
X143059000Y-60184500D03*
X144009000Y-58309500D03*
D10*
X169600000Y-83912500D03*
X169600000Y-82087500D03*
X119900000Y-66012500D03*
X119900000Y-64187500D03*
D11*
X128112500Y-62247000D03*
X126287500Y-62247000D03*
X119921500Y-62247000D03*
X118096500Y-62247000D03*
X136012500Y-62247000D03*
X134187500Y-62247000D03*
D12*
X150959000Y-60184500D03*
X149059000Y-60184500D03*
X150009000Y-58309500D03*
D13*
X55725000Y-70000000D03*
X57275000Y-70000000D03*
X57625000Y-97700000D03*
X59175000Y-97700000D03*
D11*
X160412500Y-62300000D03*
X158587500Y-62300000D03*
D20*
X167500000Y-82087500D03*
X167500000Y-83912500D03*
D11*
X132921500Y-52247000D03*
X131096500Y-52247000D03*
D10*
X158100000Y-56006500D03*
X158100000Y-54181500D03*
D12*
X160450000Y-60237500D03*
X158550000Y-60237500D03*
X159500000Y-58362500D03*
D11*
X147921500Y-52247000D03*
X146096500Y-52247000D03*
D10*
X123900000Y-56006500D03*
X123900000Y-54181500D03*
D12*
X163959000Y-50184500D03*
X162059000Y-50184500D03*
X163009000Y-48309500D03*
X123834000Y-50189500D03*
X121934000Y-50189500D03*
X122884000Y-48314500D03*
D11*
X157959500Y-52300000D03*
X156134500Y-52300000D03*
D12*
X128150000Y-60184500D03*
X126250000Y-60184500D03*
X127200000Y-58309500D03*
D10*
X133800000Y-56412500D03*
X133800000Y-54587500D03*
D21*
X112862500Y-57075000D03*
X112862500Y-57725000D03*
X112862500Y-58375000D03*
X112862500Y-59025000D03*
X112862500Y-59675000D03*
X112862500Y-60325000D03*
X112862500Y-60975000D03*
X112862500Y-61625000D03*
X112862500Y-62275000D03*
X112862500Y-62925000D03*
X107137500Y-62925000D03*
X107137500Y-62275000D03*
X107137500Y-61625000D03*
X107137500Y-60975000D03*
X107137500Y-60325000D03*
X107137500Y-59675000D03*
X107137500Y-59025000D03*
X107137500Y-58375000D03*
X107137500Y-57725000D03*
X107137500Y-57075000D03*
D12*
X138959000Y-50184500D03*
X137059000Y-50184500D03*
X138009000Y-48309500D03*
X147959000Y-50184500D03*
X146059000Y-50184500D03*
X147009000Y-48309500D03*
D21*
X108771500Y-49075000D03*
X108771500Y-49725000D03*
X108771500Y-50375000D03*
X108771500Y-51025000D03*
X108771500Y-51675000D03*
X108771500Y-52325000D03*
X108771500Y-52975000D03*
X108771500Y-53625000D03*
X108771500Y-54275000D03*
X108771500Y-54925000D03*
X103046500Y-54925000D03*
X103046500Y-54275000D03*
X103046500Y-53625000D03*
X103046500Y-52975000D03*
X103046500Y-52325000D03*
X103046500Y-51675000D03*
X103046500Y-51025000D03*
X103046500Y-50375000D03*
X103046500Y-49725000D03*
X103046500Y-49075000D03*
D22*
X176825000Y-86450000D03*
X177475000Y-86450000D03*
X178125000Y-86450000D03*
X178775000Y-86450000D03*
X178775000Y-90750000D03*
X178125000Y-90750000D03*
X177475000Y-90750000D03*
X176825000Y-90750000D03*
D23*
X87494000Y-51349000D03*
X89394000Y-51349000D03*
D16*
X158000000Y-106475000D03*
X158000000Y-103525000D03*
D19*
X70375000Y-97700000D03*
X68825000Y-97700000D03*
D24*
X154100000Y-83000000D03*
X159500000Y-83000000D03*
D10*
X136000000Y-65912500D03*
X136000000Y-64087500D03*
D11*
X163928500Y-52300000D03*
X162103500Y-52300000D03*
D12*
X132959000Y-50189500D03*
X131059000Y-50189500D03*
X132009000Y-48314500D03*
M02*
