M48
; DRILL file {KiCad (6.0.2)} date Sun Aug  7 22:18:16 2022
; FORMAT={-:-/ absolute / metric / decimal}
; #@! TF.CreationDate,2022-08-07T22:18:16-07:00
; #@! TF.GenerationSoftware,Kicad,Pcbnew,(6.0.2)
; #@! TF.FileFunction,Plated,1,4,PTH
FMAT,2
METRIC
; #@! TA.AperFunction,Plated,PTH,ComponentDrill
T1C0.200
; #@! TA.AperFunction,Plated,PTH,ViaDrill
T2C0.400
; #@! TA.AperFunction,Plated,PTH,ComponentDrill
T3C0.800
; #@! TA.AperFunction,Plated,PTH,ComponentDrill
T4C1.000
; #@! TA.AperFunction,Plated,PTH,ComponentDrill
T5C1.190
; #@! TA.AperFunction,Plated,PTH,ComponentDrill
T6C1.300
; #@! TA.AperFunction,Plated,PTH,ComponentDrill
T7C1.600
; #@! TA.AperFunction,Plated,PTH,ComponentDrill
T8C2.100
; #@! TA.AperFunction,Plated,PTH,ComponentDrill
T9C2.500
; #@! TA.AperFunction,Plated,PTH,ComponentDrill
T10C3.200
%
G90
G05
T1
X149.35Y-103.0
X149.35Y-104.0
X149.35Y-105.0
X150.65Y-103.0
X150.65Y-104.0
X150.65Y-105.0
T2
X41.5Y-64.6
X41.5Y-68.8
X41.5Y-82.6
X41.5Y-86.8
X45.7Y-62.5
X45.7Y-64.6
X45.7Y-66.7
X45.7Y-68.8
X45.7Y-70.9
X45.7Y-80.5
X45.7Y-82.6
X45.7Y-84.7
X45.7Y-86.8
X45.7Y-88.9
X46.5Y-52.0
X46.5Y-54.0
X47.5Y-55.5
X49.6Y-63.7
X50.0Y-68.5
X50.0Y-70.5
X50.0Y-72.5
X50.0Y-74.5
X50.0Y-76.5
X50.0Y-78.5
X50.5Y-52.0
X50.5Y-54.0
X51.0Y-35.5
X51.0Y-37.5
X51.0Y-41.5
X51.0Y-43.5
X52.5Y-68.1
X52.5Y-83.5
X52.8Y-69.6
X53.0Y-92.2
X53.0Y-94.5
X53.0Y-96.5
X53.0Y-98.5
X53.0Y-100.5
X53.0Y-103.1
X53.8Y-80.7
X53.85Y-71.35
X54.3Y-56.1
X54.5Y-52.0
X54.5Y-54.0
X54.9Y-35.0
X55.0Y-96.5
X55.0Y-98.5
X55.1Y-84.2
X55.1Y-111.2
X55.9Y-68.7
X56.0Y-71.4
X56.1Y-97.7
X56.4Y-56.7
X57.2Y-68.7
X57.2Y-71.5
X57.2Y-84.2
X57.2Y-111.2
X57.4Y-55.2
X58.2Y-54.4
X58.4Y-96.2
X58.4Y-99.2
X59.6Y-65.7
X59.9Y-57.5
X60.0Y-47.5
X60.0Y-49.5
X60.0Y-62.9
X60.0Y-111.5
X60.2Y-43.8
X60.5Y-98.0
X60.6Y-96.4
X61.0Y-82.5
X61.2Y-47.0
X61.2Y-100.6
X61.4Y-80.3
X61.4Y-84.3
X61.4Y-111.2
X62.0Y-39.0
X62.0Y-43.0
X62.0Y-98.0
X62.3Y-35.0
X62.3Y-36.5
X62.3Y-54.05
X62.9Y-55.9
X63.0Y-81.0
X63.5Y-68.6
X63.5Y-84.3
X63.5Y-111.2
X63.7Y-71.6
X63.8Y-65.2
X64.0Y-47.5
X64.0Y-49.5
X64.0Y-96.2
X64.0Y-99.2
X64.2Y-55.0
X64.5Y-35.0
X64.5Y-41.0
X64.8Y-68.7
X64.8Y-71.5
X65.1Y-56.6
X65.6Y-84.3
X65.6Y-111.2
X66.0Y-96.7
X66.0Y-98.7
X67.0Y-35.0
X67.0Y-39.0
X67.0Y-43.0
X67.0Y-70.1
X67.1Y-55.6
X67.2Y-56.6
X67.7Y-84.2
X67.7Y-111.2
X68.0Y-47.5
X68.0Y-49.5
X68.1Y-55.6
X69.137Y-96.546
X69.155Y-98.845
X69.5Y-35.0
X69.5Y-41.0
X69.5Y-109.0
X69.6Y-68.7
X69.6Y-71.5
X70.0Y-84.5
X71.175Y-57.825
X71.5Y-81.5
X71.5Y-86.5
X72.0Y-35.0
X72.0Y-39.0
X72.0Y-43.0
X72.0Y-70.0
X72.0Y-84.5
X72.0Y-96.5
X72.0Y-98.5
X72.2Y-105.8
X73.5Y-81.5
X73.5Y-86.5
X73.7Y-56.3
X73.9Y-52.9
X74.0Y-70.0
X74.0Y-96.5
X74.0Y-98.5
X74.5Y-35.0
X74.5Y-41.0
X75.612Y-55.287
X76.0Y-62.0
X76.0Y-82.0
X76.0Y-86.5
X76.0Y-92.5
X76.0Y-94.5
X76.0Y-96.5
X76.0Y-98.5
X76.0Y-100.5
X76.0Y-102.5
X76.5Y-65.0
X76.5Y-90.0
X77.0Y-35.0
X77.0Y-39.0
X77.0Y-45.5
X77.0Y-66.5
X77.0Y-68.5
X77.0Y-70.5
X77.0Y-72.5
X77.0Y-74.5
X77.0Y-76.5
X77.0Y-78.5
X77.5Y-60.0
X77.5Y-63.0
X78.5Y-93.1
X78.5Y-95.5
X79.0Y-54.1
X79.0Y-61.5
X79.0Y-88.0
X79.5Y-35.0
X79.5Y-39.0
X79.5Y-43.5
X79.5Y-97.5
X80.0Y-46.5
X80.0Y-63.5
X80.0Y-65.5
X80.0Y-67.5
X80.0Y-69.5
X80.0Y-71.5
X80.0Y-73.5
X80.0Y-75.5
X80.0Y-77.5
X80.6Y-92.7
X81.0Y-78.5
X81.1Y-53.4
X81.8Y-93.4
X81.8Y-95.7
X82.0Y-35.0
X82.0Y-50.0
X82.0Y-97.5
X82.3Y-53.4
X82.5Y-39.5
X82.5Y-41.5
X82.5Y-44.5
X84.0Y-47.5
X84.2Y-49.4
X84.5Y-35.0
X84.5Y-97.5
X85.0Y-39.5
X85.0Y-41.5
X85.0Y-44.0
X85.0Y-80.5
X85.0Y-82.5
X85.0Y-84.5
X85.0Y-86.5
X85.2Y-89.4
X85.2Y-91.8
X85.4Y-105.1
X85.9Y-46.8
X86.1Y-49.6
X86.9Y-56.0
X86.9Y-93.5
X86.9Y-95.6
X87.0Y-35.0
X87.0Y-97.5
X87.3Y-38.3
X87.5Y-40.5
X88.4Y-103.5
X89.2Y-75.8
X89.2Y-77.9
X89.4Y-39.5
X90.3Y-53.1
X90.3Y-79.55
X91.1Y-93.5
X91.1Y-95.6
X93.0Y-105.2
X93.0Y-106.8
X93.1Y-49.0
X94.0Y-47.5
X94.3Y-35.0
X94.6Y-89.6
X95.4Y-44.4
X95.95Y-59.0
X96.0Y-62.0
X96.9Y-84.25
X97.0Y-60.5
X97.0Y-63.0
X97.3Y-69.9
X97.45Y-73.9
X97.45Y-75.9
X98.0Y-64.0
X98.15Y-78.8
X99.0Y-65.0
X99.0Y-67.05
X99.5Y-72.2
X99.9Y-68.2
X100.0Y-66.0
X100.1Y-53.0
X100.3Y-51.725
X100.8Y-49.9
X100.8Y-84.3
X101.2Y-53.5
X101.25Y-48.9
X101.371Y-51.725
X101.9Y-82.3
X102.0Y-73.9
X102.0Y-75.9
X102.9Y-98.2
X103.4Y-72.9
X103.6Y-42.8
X103.675Y-79.325
X104.2Y-38.3
X104.4Y-51.7
X104.4Y-59.625
X104.5Y-49.1
X104.75Y-54.15
X104.9Y-56.75
X104.9Y-58.1
X105.1Y-62.0
X105.1Y-76.9
X105.471Y-59.625
X105.5Y-51.7
X106.3Y-66.7
X106.4Y-47.4
X106.5Y-72.7
X106.6Y-95.4
X106.6Y-96.5
X107.1Y-54.15
X107.1Y-56.2
X107.1Y-97.8
X107.1Y-99.1
X107.15Y-77.0
X107.15Y-79.4
X107.2Y-51.6
X108.0Y-72.5
X108.0Y-74.9
X108.4Y-102.5
X108.6Y-59.7
X108.8Y-48.0
X108.8Y-56.2
X109.35Y-70.55
X109.4Y-80.2
X109.5Y-78.5
X109.55Y-62.95
X109.6Y-59.7
X110.25Y-79.45
X110.4Y-51.7
X111.0Y-48.55
X111.0Y-49.6
X111.0Y-53.7
X111.0Y-81.05
X111.2Y-62.9
X111.4Y-59.7
X111.5Y-51.7
X111.6Y-107.4
X111.65Y-45.5
X111.7Y-82.4
X112.0Y-92.1
X112.3Y-84.0
X112.35Y-70.3
X112.35Y-72.05
X112.4Y-81.65
X112.9Y-56.2
X112.9Y-74.8
X113.15Y-71.15
X113.9Y-102.3
X113.9Y-103.2
X113.9Y-107.4
X114.0Y-98.2
X114.1Y-83.1
X114.4Y-99.3
X114.525Y-59.675
X114.6Y-73.1
X115.0Y-96.0
X115.15Y-62.8
X115.2Y-56.4
X115.4Y-58.2
X115.4Y-61.2
X115.5Y-74.9
X115.6Y-59.7
X116.0Y-97.5
X116.1Y-78.0
X116.2Y-107.4
X116.4Y-83.6
X116.6Y-56.4
X116.6Y-72.5
X117.0Y-96.0
X117.1Y-79.0
X117.1Y-82.5
X117.4Y-48.1
X117.4Y-50.5
X118.0Y-72.5
X118.0Y-74.9
X118.0Y-97.55
X118.0Y-110.7
X118.0Y-114.1
X118.75Y-98.35
X119.1Y-78.2
X119.4Y-110.7
X119.45Y-72.6
X119.5Y-97.55
X119.9Y-90.7
X120.05Y-74.7
X120.2Y-79.3
X120.2Y-82.7
X120.25Y-98.35
X120.4Y-87.0
X120.9Y-54.409
X120.9Y-56.0
X121.0Y-97.55
X121.3Y-47.7
X121.7Y-98.35
X121.8Y-83.6
X121.9Y-86.91
X122.45Y-97.55
X122.5Y-63.9
X122.9Y-89.8
X122.9Y-90.85
X122.9Y-91.85
X122.9Y-107.4
X123.0Y-66.9
X123.2Y-72.7
X123.25Y-98.35
X123.4Y-80.15
X123.8Y-87.7
X123.8Y-93.4
X123.85Y-70.7
X123.9Y-89.1
X124.0Y-73.9
X124.0Y-75.9
X124.5Y-61.1
X124.8Y-62.6
X125.1Y-65.7
X125.1Y-72.9
X125.4Y-85.55
X125.5Y-80.15
X125.6Y-100.1
X126.0Y-65.7
X126.05Y-70.5
X126.462Y-54.579
X126.9Y-65.7
X127.4Y-92.05
X127.4Y-93.55
X127.6Y-85.7
X127.65Y-96.45
X127.8Y-98.2
X127.9Y-99.6
X127.9Y-101.9
X128.2Y-92.8
X128.2Y-94.3
X128.5Y-97.35
X128.6Y-79.7
X128.9Y-56.3
X129.25Y-69.999
X129.3Y-50.9
X129.4Y-48.0
X129.4Y-111.2
X129.45Y-74.95
X129.5Y-82.7
X130.1Y-55.6
X130.2Y-103.9
X130.25Y-72.3
X130.25Y-84.6
X130.9Y-89.1
X131.0Y-55.6
X131.35Y-80.6
X131.35Y-82.8
X131.5Y-72.5
X131.5Y-74.9
X131.7Y-88.1
X131.9Y-55.6
X132.4Y-63.9
X132.6Y-103.8
X133.0Y-60.8
X133.3Y-68.6
X133.8Y-46.8
X134.0Y-72.5
X134.0Y-74.9
X135.0Y-82.25
X135.3Y-103.1
X135.6Y-87.6
X135.7Y-72.8
X135.95Y-54.7
X136.0Y-46.8
X136.3Y-81.55
X136.6Y-74.9
X137.7Y-65.1
X137.9Y-63.7
X138.1Y-55.6
X138.4Y-95.9
X138.4Y-98.1
X139.0Y-55.6
X139.6Y-81.4
X139.9Y-55.6
X140.1Y-65.7
X140.15Y-72.7
X140.15Y-51.0
X141.0Y-61.3
X141.0Y-65.7
X141.0Y-73.9
X141.0Y-75.9
X141.45Y-72.0
X141.9Y-65.7
X142.1Y-83.4
X142.25Y-72.7
X142.3Y-48.5
X142.425Y-74.625
X142.65Y-69.7
X142.7Y-80.3
X143.9Y-64.2
X144.7Y-79.5
X144.9Y-54.409
X145.2Y-100.4
X145.6Y-55.9
X145.95Y-69.95
X146.0Y-71.4
X146.1Y-75.3
X148.4Y-64.1
X148.5Y-47.9
X149.2Y-113.1
X149.2Y-115.2
X150.4Y-65.7
X150.9Y-54.5
X151.2Y-56.0
X151.4Y-58.2
X151.7Y-65.7
X151.9Y-83.0
X151.9Y-110.4
X151.9Y-114.25
X152.6Y-65.7
X153.5Y-65.7
X153.6Y-48.2
X154.1Y-55.6
X154.2Y-103.4
X154.3Y-58.4
X154.6Y-51.2
X154.8Y-105.0
X155.0Y-55.6
X155.2Y-103.4
X155.6Y-105.7
X155.9Y-55.6
X156.3Y-83.0
X157.5Y-63.9
X157.6Y-65.3
X157.6Y-112.9
X157.6Y-113.75
X157.6Y-114.6
X158.3Y-48.5
X158.45Y-111.65
X159.3Y-111.65
X160.15Y-111.65
X160.9Y-54.6
X161.0Y-48.8
X161.0Y-111.65
X161.85Y-111.65
X162.0Y-60.2
X162.6Y-67.1
X162.7Y-111.65
X162.9Y-63.7
X163.1Y-55.6
X163.55Y-111.65
X163.9Y-58.1
X164.0Y-55.6
X164.0Y-67.1
X164.4Y-112.9
X164.4Y-113.75
X164.4Y-114.6
X164.7Y-46.8
X164.9Y-55.6
X165.0Y-48.0
X165.1Y-51.4
X165.1Y-65.7
X165.5Y-105.8
X165.5Y-107.1
X166.0Y-62.8
X166.0Y-65.7
X166.9Y-65.7
X167.5Y-46.8
X167.6Y-49.9
X168.7Y-85.35
X169.0Y-109.4
X169.0Y-110.3
X171.5Y-83.9
X173.0Y-104.4
X173.0Y-105.3
X175.95Y-90.75
X178.5Y-84.3
X179.7Y-86.45
T3
X86.92Y-63.0
X86.92Y-70.0
X89.46Y-63.0
X89.46Y-70.0
X92.0Y-63.0
X92.0Y-70.0
T4
X36.218Y-63.46
X36.218Y-66.0
X36.218Y-68.54
X36.218Y-81.46
X36.218Y-84.0
X36.218Y-86.54
X38.718Y-63.5
X38.718Y-68.5
X38.718Y-81.5
X38.718Y-86.5
X72.7Y-111.46
X72.7Y-114.0
X75.24Y-111.46
X75.24Y-114.0
X77.78Y-111.46
X77.78Y-114.0
X80.32Y-111.46
X80.32Y-114.0
X82.86Y-111.46
X82.86Y-114.0
X85.4Y-111.46
X85.4Y-114.0
X87.94Y-111.46
X87.94Y-114.0
X90.48Y-111.46
X90.48Y-114.0
X93.02Y-111.46
X93.02Y-114.0
X95.56Y-111.46
X95.56Y-114.0
X98.1Y-111.46
X98.1Y-114.0
X100.64Y-111.46
X100.64Y-114.0
X103.18Y-111.46
X103.18Y-114.0
X105.72Y-111.46
X105.72Y-114.0
X108.26Y-111.46
X108.26Y-114.0
X110.8Y-111.46
X110.8Y-114.0
X113.34Y-111.46
X113.34Y-114.0
T5
X114.07Y-44.42
X115.455Y-41.58
X116.84Y-44.42
X118.225Y-41.58
X119.61Y-44.42
X120.995Y-41.58
X122.38Y-44.42
X123.765Y-41.58
X125.15Y-44.42
X126.535Y-41.58
X127.92Y-44.42
X129.305Y-41.58
X130.69Y-44.42
X132.075Y-41.58
X133.46Y-44.42
X134.845Y-41.58
X136.23Y-44.42
X137.615Y-41.58
X139.0Y-44.42
X140.385Y-41.58
X141.77Y-44.42
X143.155Y-41.58
X144.54Y-44.42
X145.925Y-41.58
X147.31Y-44.42
X148.695Y-41.58
X150.08Y-44.42
X151.465Y-41.58
X152.85Y-44.42
X154.235Y-41.58
X155.62Y-44.42
X157.005Y-41.58
X158.39Y-44.42
X159.775Y-41.58
X161.16Y-44.42
X162.545Y-41.58
X163.93Y-44.42
T6
X71.0Y-50.0
X75.0Y-50.0
X79.0Y-50.0
X147.99Y-71.92
X147.99Y-87.16
X155.61Y-69.38
X155.61Y-77.0
X155.61Y-87.16
X158.99Y-71.92
X158.99Y-87.16
X166.61Y-69.38
X166.61Y-77.0
X166.61Y-87.16
T7
X159.05Y-91.0
X159.05Y-94.4
X172.55Y-91.0
X172.55Y-94.4
T9
X39.0Y-55.0
X39.0Y-95.0
X179.0Y-55.0
X179.0Y-95.0
T10
X107.25Y-43.0
X170.75Y-43.0
T4
X174.0Y-65.957G85X174.0Y-63.957
G05
X174.0Y-80.957G85X174.0Y-78.957
G05
X178.0Y-60.258G85X176.0Y-60.258
G05
X178.0Y-75.257G85X176.0Y-75.257
G05
X180.0Y-65.957G85X180.0Y-63.957
G05
X180.0Y-80.957G85X180.0Y-78.957
G05
T8
X39.868Y-60.6G85X39.568Y-60.6
G05
X39.868Y-71.4G85X39.568Y-71.4
G05
X39.868Y-78.6G85X39.568Y-78.6
G05
X39.868Y-89.4G85X39.568Y-89.4
G05
T0
M30
