%TF.GenerationSoftware,KiCad,Pcbnew,(6.0.2)*%
%TF.CreationDate,2022-08-07T22:15:26-07:00*%
%TF.ProjectId,LightDrum,4c696768-7444-4727-956d-2e6b69636164,rev?*%
%TF.SameCoordinates,Original*%
%TF.FileFunction,Profile,NP*%
%FSLAX46Y46*%
G04 Gerber Fmt 4.6, Leading zero omitted, Abs format (unit mm)*
G04 Created by KiCad (PCBNEW (6.0.2)) date 2022-08-07 22:15:26*
%MOMM*%
%LPD*%
G01*
G04 APERTURE LIST*
%TA.AperFunction,Profile*%
%ADD10C,0.100000*%
%TD*%
G04 APERTURE END LIST*
D10*
X181000000Y-107500000D02*
G75*
G03*
X175500000Y-113000000I1J-5500001D01*
G01*
X184500000Y-44000000D02*
G75*
G03*
X183000000Y-42500000I-1500001J-1D01*
G01*
X33500000Y-106000000D02*
X33500000Y-44000000D01*
X175500000Y-37000000D02*
G75*
G03*
X181000000Y-42500000I5500001J1D01*
G01*
X175500000Y-35000000D02*
G75*
G03*
X174000000Y-33500000I-1500001J-1D01*
G01*
X35000000Y-107500000D02*
X37000000Y-107500000D01*
X35000000Y-42500000D02*
G75*
G03*
X33500000Y-44000000I1J-1500001D01*
G01*
X174000000Y-116500000D02*
G75*
G03*
X175500000Y-115000000I-1J1500001D01*
G01*
X183000000Y-42500000D02*
X181000000Y-42500000D01*
X42500000Y-115000000D02*
X42500000Y-113000000D01*
X42500000Y-113000000D02*
G75*
G03*
X37000000Y-107500000I-5500001J-1D01*
G01*
X175500000Y-113000000D02*
X175500000Y-115000000D01*
X44000000Y-33500000D02*
G75*
G03*
X42500000Y-35000000I1J-1500001D01*
G01*
X175500000Y-35000000D02*
X175500000Y-37000000D01*
X183000000Y-107500000D02*
X181000000Y-107500000D01*
X184500000Y-44000000D02*
X184500000Y-106000000D01*
X183000000Y-107500000D02*
G75*
G03*
X184500000Y-106000000I-1J1500001D01*
G01*
X42500000Y-115000000D02*
G75*
G03*
X44000000Y-116500000I1500001J1D01*
G01*
X42500000Y-35000000D02*
X42500000Y-37000000D01*
X174000000Y-116500000D02*
X44000000Y-116500000D01*
X35000000Y-42500000D02*
X37000000Y-42500000D01*
X44000000Y-33500000D02*
X174000000Y-33500000D01*
X33500000Y-106000000D02*
G75*
G03*
X35000000Y-107500000I1500001J1D01*
G01*
X37000000Y-42500000D02*
G75*
G03*
X42500000Y-37000000I-1J5500001D01*
G01*
M02*
