M48
; DRILL file {KiCad (6.0.2)} date Sun Aug  7 22:21:46 2022
; FORMAT={-:-/ absolute / metric / decimal}
; #@! TF.CreationDate,2022-08-07T22:21:46-07:00
; #@! TF.GenerationSoftware,Kicad,Pcbnew,(6.0.2)
; #@! TF.FileFunction,Plated,1,2,PTH
FMAT,2
METRIC
; #@! TA.AperFunction,Plated,PTH,ViaDrill
T1C0.400
; #@! TA.AperFunction,Plated,PTH,ComponentDrill
T2C0.800
; #@! TA.AperFunction,Plated,PTH,ComponentDrill
T3C0.914
; #@! TA.AperFunction,Plated,PTH,ComponentDrill
T4C1.000
; #@! TA.AperFunction,Plated,PTH,ComponentDrill
T5C1.100
; #@! TA.AperFunction,Plated,PTH,ComponentDrill
T6C1.200
; #@! TA.AperFunction,Plated,PTH,ComponentDrill
T7C1.400
; #@! TA.AperFunction,Plated,PTH,ComponentDrill
T8C1.800
; #@! TA.AperFunction,Plated,PTH,ComponentDrill
T9C2.500
%
G90
G05
T1
X40.5Y-60.25
X42.25Y-69.5
X44.0Y-60.25
X44.9Y-78.4
X50.9Y-109.0
X51.19Y-78.0
X52.8Y-107.3
X56.19Y-76.0
X56.69Y-99.75
X57.69Y-79.75
X59.44Y-81.75
X60.94Y-76.0
X61.44Y-98.0
X63.705Y-82.515
X63.9Y-99.7
X64.1Y-83.5
X65.1Y-36.6
X65.4Y-107.7
X66.19Y-73.25
X66.6Y-68.8
X66.9Y-38.9
X66.94Y-34.25
X67.6Y-104.2
X68.3Y-66.3
X68.69Y-81.5
X68.9Y-96.5
X69.1Y-110.6
X69.19Y-72.0
X69.3Y-95.2
X69.44Y-62.75
X71.09Y-73.91
X71.5Y-110.6
X72.69Y-66.0
X72.69Y-71.75
X72.69Y-78.25
X73.1Y-86.5
X73.1Y-97.9
X74.0Y-110.6
X75.9Y-67.7
X75.9Y-70.8
X75.9Y-74.6
X76.5Y-110.6
X76.7Y-101.7
X77.0Y-66.2
X78.1Y-102.9
X78.2Y-70.8
X78.2Y-86.5
X78.2Y-97.4
X79.1Y-110.6
X81.6Y-110.6
X84.2Y-110.6
X84.8Y-74.0
X84.8Y-94.0
X84.9Y-70.8
X85.0Y-67.5
X85.0Y-101.9
X86.0Y-66.2
X86.44Y-68.75
X86.69Y-81.25
X86.69Y-88.0
X86.7Y-110.6
X86.8Y-94.0
X86.9Y-78.0
X87.5Y-102.1
X87.69Y-62.75
X87.8Y-67.6
X87.8Y-70.8
X89.1Y-79.0
X89.19Y-68.75
X89.2Y-110.6
X90.69Y-75.75
X91.8Y-110.6
X92.0Y-102.0
X92.7Y-93.6
X92.94Y-85.5
X94.3Y-110.6
X96.6Y-103.2
X96.7Y-97.9
X96.9Y-110.6
X96.94Y-81.25
X97.1Y-102.2
X97.4Y-101.1
X98.0Y-97.9
X99.3Y-93.6
X99.4Y-110.6
X101.44Y-61.75
X102.0Y-101.5
X102.2Y-89.3
X102.7Y-67.5
X102.7Y-70.7
X103.0Y-101.5
X104.0Y-101.5
X105.44Y-92.5
X106.8Y-103.8
X106.9Y-96.6
X107.0Y-105.0
X107.6Y-102.8
X107.94Y-84.5
X107.94Y-100.1
X108.44Y-81.5
X108.8Y-102.3
X109.0Y-98.8
X109.1Y-92.3
X109.7Y-101.2
X110.0Y-109.0
X110.1Y-105.8
X111.2Y-102.2
X111.5Y-109.2
X112.7Y-106.7
X113.1Y-70.6
X113.4Y-102.2
X114.0Y-107.0
X114.0Y-109.6
X114.1Y-96.4
X115.1Y-105.8
X115.44Y-92.5
X116.2Y-67.8
X116.2Y-101.0
X116.5Y-99.0
X116.8Y-97.5
X118.19Y-88.0
X118.3Y-75.9
X118.3Y-92.1
X119.4Y-96.4
X121.5Y-94.3
X122.0Y-73.5
X122.1Y-76.8
X122.2Y-102.2
X122.2Y-105.7
X132.7Y-105.7
X134.1Y-102.3
X136.6Y-109.6
X139.3Y-107.4
X141.0Y-75.5
X146.3Y-46.2
X148.1Y-44.4
X149.9Y-46.2
X156.0Y-41.9
X156.0Y-44.2
X157.2Y-57.4
X158.4Y-55.4
X158.44Y-63.25
X158.44Y-67.75
X158.44Y-79.0
X158.44Y-83.75
X158.44Y-86.75
X158.44Y-91.5
X158.44Y-96.0
X158.44Y-100.75
X158.44Y-102.5
X158.44Y-107.0
X159.6Y-57.5
X160.0Y-49.6
X160.9Y-41.9
X160.9Y-44.2
X161.2Y-53.6
X161.7Y-47.4
X163.5Y-45.6
X165.3Y-47.4
X165.3Y-55.0
X167.19Y-65.5
X167.19Y-73.4
X172.865Y-74.075
X174.44Y-78.0
T2
X148.12Y-46.235
X148.12Y-48.775
X155.74Y-46.235
X155.74Y-48.775
T3
X46.237Y-80.677
X46.237Y-83.218
X46.237Y-85.757
X46.237Y-88.297
X46.237Y-90.837
X46.237Y-93.377
X46.237Y-95.917
X46.237Y-98.457
X46.237Y-100.998
X46.237Y-103.537
X53.857Y-80.677
X53.857Y-83.218
X53.857Y-85.757
X53.857Y-88.297
X53.857Y-90.837
X53.857Y-93.377
X53.857Y-95.917
X53.857Y-98.457
X53.857Y-100.998
X53.857Y-103.537
T4
X42.25Y-60.25
X42.25Y-62.75
X42.25Y-65.25
X42.25Y-74.75
X42.25Y-77.25
X42.25Y-79.75
X63.65Y-78.25
X66.19Y-78.25
X67.64Y-106.46
X67.64Y-109.0
X68.73Y-78.25
X70.18Y-106.46
X70.18Y-109.0
X72.72Y-106.46
X72.72Y-109.0
X75.26Y-106.46
X75.26Y-109.0
X77.8Y-106.46
X77.8Y-109.0
X80.34Y-106.46
X80.34Y-109.0
X82.88Y-106.46
X82.88Y-109.0
X85.42Y-106.46
X85.42Y-109.0
X87.96Y-106.46
X87.96Y-109.0
X90.5Y-106.46
X90.5Y-109.0
X93.04Y-106.46
X93.04Y-109.0
X95.58Y-106.46
X95.58Y-109.0
X98.12Y-106.46
X98.12Y-109.0
X100.66Y-106.46
X100.66Y-109.0
X103.2Y-106.46
X103.2Y-109.0
X105.74Y-106.46
X105.74Y-109.0
X108.28Y-106.46
X108.28Y-109.0
X163.5Y-47.38
X163.5Y-49.92
X163.5Y-52.46
X163.5Y-55.0
T5
X89.04Y-99.0
X89.44Y-96.5
X89.44Y-101.5
X90.04Y-88.0
X90.44Y-85.5
X90.44Y-90.5
X94.44Y-96.5
X94.44Y-101.5
X94.84Y-99.0
X95.44Y-85.5
X95.44Y-90.5
X95.84Y-88.0
X100.04Y-78.0
X100.04Y-88.0
X100.04Y-98.0
X100.44Y-75.5
X100.44Y-80.5
X100.44Y-85.5
X100.44Y-90.5
X100.44Y-95.5
X100.44Y-100.5
X105.44Y-75.5
X105.44Y-80.5
X105.44Y-85.5
X105.44Y-90.5
X105.44Y-95.5
X105.44Y-100.5
X105.84Y-78.0
X105.84Y-88.0
X105.84Y-98.0
X110.04Y-88.0
X110.44Y-85.5
X110.44Y-90.5
X115.44Y-85.5
X115.44Y-90.5
X115.84Y-88.0
T6
X66.94Y-36.642
X69.48Y-36.642
X72.02Y-36.642
X74.56Y-36.642
X77.1Y-36.642
X79.64Y-36.642
X82.18Y-36.642
X84.72Y-36.642
X87.26Y-36.642
X89.8Y-36.642
X92.34Y-36.642
X94.88Y-36.642
X97.42Y-36.642
X99.96Y-36.642
X102.5Y-36.642
X105.04Y-36.642
T7
X150.94Y-40.5
X153.44Y-43.0
X155.94Y-31.0
X158.44Y-40.5
X160.94Y-31.0
X163.44Y-43.0
X165.94Y-40.5
T9
X33.94Y-50.0
X33.94Y-90.0
X61.441Y-36.642
X61.441Y-67.643
X136.439Y-67.643
X136.44Y-36.642
X173.94Y-50.0
X173.94Y-90.0
T8
X35.05Y-57.45G85X35.45Y-57.45
G05
X35.05Y-68.05G85X35.45Y-68.05
G05
X35.05Y-71.95G85X35.45Y-71.95
G05
X35.05Y-82.55G85X35.45Y-82.55
G05
T0
M30
