G04 #@! TF.GenerationSoftware,KiCad,Pcbnew,(6.0.2)*
G04 #@! TF.CreationDate,2022-08-07T22:21:35-07:00*
G04 #@! TF.ProjectId,LightDrumInterface,4c696768-7444-4727-956d-496e74657266,rev?*
G04 #@! TF.SameCoordinates,Original*
G04 #@! TF.FileFunction,Legend,Top*
G04 #@! TF.FilePolarity,Positive*
%FSLAX46Y46*%
G04 Gerber Fmt 4.6, Leading zero omitted, Abs format (unit mm)*
G04 Created by KiCad (PCBNEW (6.0.2)) date 2022-08-07 22:21:35*
%MOMM*%
%LPD*%
G01*
G04 APERTURE LIST*
G04 Aperture macros list*
%AMRoundRect*
0 Rectangle with rounded corners*
0 $1 Rounding radius*
0 $2 $3 $4 $5 $6 $7 $8 $9 X,Y pos of 4 corners*
0 Add a 4 corners polygon primitive as box body*
4,1,4,$2,$3,$4,$5,$6,$7,$8,$9,$2,$3,0*
0 Add four circle primitives for the rounded corners*
1,1,$1+$1,$2,$3*
1,1,$1+$1,$4,$5*
1,1,$1+$1,$6,$7*
1,1,$1+$1,$8,$9*
0 Add four rect primitives between the rounded corners*
20,1,$1+$1,$2,$3,$4,$5,0*
20,1,$1+$1,$4,$5,$6,$7,0*
20,1,$1+$1,$6,$7,$8,$9,0*
20,1,$1+$1,$8,$9,$2,$3,0*%
G04 Aperture macros list end*
%ADD10C,0.200000*%
%ADD11C,0.250000*%
%ADD12C,0.150000*%
%ADD13C,0.120000*%
%ADD14C,0.675000*%
%ADD15C,0.400000*%
%ADD16C,0.300000*%
%ADD17C,0.254000*%
%ADD18C,2.200000*%
%ADD19R,1.500000X2.600000*%
%ADD20RoundRect,0.250000X-0.262500X-0.450000X0.262500X-0.450000X0.262500X0.450000X-0.262500X0.450000X0*%
%ADD21RoundRect,0.250000X0.475000X-0.250000X0.475000X0.250000X-0.475000X0.250000X-0.475000X-0.250000X0*%
%ADD22C,5.000000*%
%ADD23RoundRect,0.150000X-0.875000X-0.150000X0.875000X-0.150000X0.875000X0.150000X-0.875000X0.150000X0*%
%ADD24R,1.000000X1.000000*%
%ADD25R,2.032000X2.032000*%
%ADD26C,2.032000*%
%ADD27C,1.850000*%
%ADD28R,1.600000X1.600000*%
%ADD29O,1.600000X1.600000*%
%ADD30R,1.700000X1.700000*%
%ADD31O,1.700000X1.700000*%
%ADD32RoundRect,0.250000X0.450000X-0.262500X0.450000X0.262500X-0.450000X0.262500X-0.450000X-0.262500X0*%
%ADD33RoundRect,0.165000X0.385000X-0.710000X0.385000X0.710000X-0.385000X0.710000X-0.385000X-0.710000X0*%
%ADD34R,0.400000X0.900000*%
%ADD35O,3.000000X2.700000*%
%ADD36C,1.800000*%
%ADD37RoundRect,0.250000X0.262500X0.450000X-0.262500X0.450000X-0.262500X-0.450000X0.262500X-0.450000X0*%
%ADD38C,3.000000*%
%ADD39R,1.800000X2.600000*%
%ADD40O,1.800000X2.600000*%
G04 APERTURE END LIST*
D10*
X162940000Y-107000000D02*
X162940000Y-95500000D01*
D11*
X167900000Y-47900000D02*
X167900000Y-46900000D01*
D10*
X162940000Y-95500000D02*
X156440000Y-95500000D01*
X140940000Y-62500000D02*
X140940000Y-75500000D01*
X140940000Y-75500000D02*
X162940000Y-75500000D01*
X144440000Y-107000000D02*
X162940000Y-107000000D01*
X144440000Y-95500000D02*
X144440000Y-107000000D01*
D11*
X167500000Y-47400000D02*
X167500000Y-46600000D01*
D10*
X164900000Y-47400000D02*
X167500000Y-47400000D01*
D11*
X168300000Y-47500000D02*
X168300000Y-47300000D01*
D10*
X162940000Y-75500000D02*
X162940000Y-62500000D01*
D11*
X167500000Y-47400000D02*
X167500000Y-48200000D01*
D10*
X162940000Y-62500000D02*
X152940000Y-62500000D01*
D12*
X30816547Y-55414285D02*
X30721309Y-55509523D01*
X30435595Y-55604761D01*
X30245119Y-55604761D01*
X29959404Y-55509523D01*
X29768928Y-55319047D01*
X29673690Y-55128571D01*
X29578452Y-54747619D01*
X29578452Y-54461904D01*
X29673690Y-54080952D01*
X29768928Y-53890476D01*
X29959404Y-53700000D01*
X30245119Y-53604761D01*
X30435595Y-53604761D01*
X30721309Y-53700000D01*
X30816547Y-53795238D01*
X32054642Y-53604761D02*
X32435595Y-53604761D01*
X32626071Y-53700000D01*
X32816547Y-53890476D01*
X32911785Y-54271428D01*
X32911785Y-54938095D01*
X32816547Y-55319047D01*
X32626071Y-55509523D01*
X32435595Y-55604761D01*
X32054642Y-55604761D01*
X31864166Y-55509523D01*
X31673690Y-55319047D01*
X31578452Y-54938095D01*
X31578452Y-54271428D01*
X31673690Y-53890476D01*
X31864166Y-53700000D01*
X32054642Y-53604761D01*
X33768928Y-55604761D02*
X33768928Y-53604761D01*
X34911785Y-55604761D01*
X34911785Y-53604761D01*
X35578452Y-53604761D02*
X36721309Y-53604761D01*
X36149880Y-55604761D02*
X36149880Y-53604761D01*
X38530833Y-55604761D02*
X37864166Y-54652380D01*
X37387976Y-55604761D02*
X37387976Y-53604761D01*
X38149880Y-53604761D01*
X38340357Y-53700000D01*
X38435595Y-53795238D01*
X38530833Y-53985714D01*
X38530833Y-54271428D01*
X38435595Y-54461904D01*
X38340357Y-54557142D01*
X38149880Y-54652380D01*
X37387976Y-54652380D01*
X39292738Y-55033333D02*
X40245119Y-55033333D01*
X39102261Y-55604761D02*
X39768928Y-53604761D01*
X40435595Y-55604761D01*
X41007023Y-55509523D02*
X41292738Y-55604761D01*
X41768928Y-55604761D01*
X41959404Y-55509523D01*
X42054642Y-55414285D01*
X42149880Y-55223809D01*
X42149880Y-55033333D01*
X42054642Y-54842857D01*
X41959404Y-54747619D01*
X41768928Y-54652380D01*
X41387976Y-54557142D01*
X41197500Y-54461904D01*
X41102261Y-54366666D01*
X41007023Y-54176190D01*
X41007023Y-53985714D01*
X41102261Y-53795238D01*
X41197500Y-53700000D01*
X41387976Y-53604761D01*
X41864166Y-53604761D01*
X42149880Y-53700000D01*
X42721309Y-53604761D02*
X43864166Y-53604761D01*
X43292738Y-55604761D02*
X43292738Y-53604761D01*
D11*
X166238095Y-53052380D02*
X166238095Y-52052380D01*
X166619047Y-52052380D01*
X166714285Y-52100000D01*
X166761904Y-52147619D01*
X166809523Y-52242857D01*
X166809523Y-52385714D01*
X166761904Y-52480952D01*
X166714285Y-52528571D01*
X166619047Y-52576190D01*
X166238095Y-52576190D01*
X167428571Y-52052380D02*
X167619047Y-52052380D01*
X167714285Y-52100000D01*
X167809523Y-52195238D01*
X167857142Y-52385714D01*
X167857142Y-52719047D01*
X167809523Y-52909523D01*
X167714285Y-53004761D01*
X167619047Y-53052380D01*
X167428571Y-53052380D01*
X167333333Y-53004761D01*
X167238095Y-52909523D01*
X167190476Y-52719047D01*
X167190476Y-52385714D01*
X167238095Y-52195238D01*
X167333333Y-52100000D01*
X167428571Y-52052380D01*
X168238095Y-53004761D02*
X168380952Y-53052380D01*
X168619047Y-53052380D01*
X168714285Y-53004761D01*
X168761904Y-52957142D01*
X168809523Y-52861904D01*
X168809523Y-52766666D01*
X168761904Y-52671428D01*
X168714285Y-52623809D01*
X168619047Y-52576190D01*
X168428571Y-52528571D01*
X168333333Y-52480952D01*
X168285714Y-52433333D01*
X168238095Y-52338095D01*
X168238095Y-52242857D01*
X168285714Y-52147619D01*
X168333333Y-52100000D01*
X168428571Y-52052380D01*
X168666666Y-52052380D01*
X168809523Y-52100000D01*
D13*
X172184523Y-70365476D02*
X171767857Y-69770238D01*
X171470238Y-70365476D02*
X171470238Y-69115476D01*
X171946428Y-69115476D01*
X172065476Y-69175000D01*
X172125000Y-69234523D01*
X172184523Y-69353571D01*
X172184523Y-69532142D01*
X172125000Y-69651190D01*
X172065476Y-69710714D01*
X171946428Y-69770238D01*
X171470238Y-69770238D01*
X172720238Y-69710714D02*
X173136904Y-69710714D01*
X173315476Y-70365476D02*
X172720238Y-70365476D01*
X172720238Y-69115476D01*
X173315476Y-69115476D01*
X173791666Y-70305952D02*
X173970238Y-70365476D01*
X174267857Y-70365476D01*
X174386904Y-70305952D01*
X174446428Y-70246428D01*
X174505952Y-70127380D01*
X174505952Y-70008333D01*
X174446428Y-69889285D01*
X174386904Y-69829761D01*
X174267857Y-69770238D01*
X174029761Y-69710714D01*
X173910714Y-69651190D01*
X173851190Y-69591666D01*
X173791666Y-69472619D01*
X173791666Y-69353571D01*
X173851190Y-69234523D01*
X173910714Y-69175000D01*
X174029761Y-69115476D01*
X174327380Y-69115476D01*
X174505952Y-69175000D01*
X175041666Y-69710714D02*
X175458333Y-69710714D01*
X175636904Y-70365476D02*
X175041666Y-70365476D01*
X175041666Y-69115476D01*
X175636904Y-69115476D01*
X175994047Y-69115476D02*
X176708333Y-69115476D01*
X176351190Y-70365476D02*
X176351190Y-69115476D01*
D14*
X148044107Y-64021428D02*
X148944107Y-66721428D01*
X149844107Y-64021428D01*
X152286964Y-66464285D02*
X152158392Y-66592857D01*
X151772678Y-66721428D01*
X151515535Y-66721428D01*
X151129821Y-66592857D01*
X150872678Y-66335714D01*
X150744107Y-66078571D01*
X150615535Y-65564285D01*
X150615535Y-65178571D01*
X150744107Y-64664285D01*
X150872678Y-64407142D01*
X151129821Y-64150000D01*
X151515535Y-64021428D01*
X151772678Y-64021428D01*
X152158392Y-64150000D01*
X152286964Y-64278571D01*
X154986964Y-66464285D02*
X154858392Y-66592857D01*
X154472678Y-66721428D01*
X154215535Y-66721428D01*
X153829821Y-66592857D01*
X153572678Y-66335714D01*
X153444107Y-66078571D01*
X153315535Y-65564285D01*
X153315535Y-65178571D01*
X153444107Y-64664285D01*
X153572678Y-64407142D01*
X153829821Y-64150000D01*
X154215535Y-64021428D01*
X154472678Y-64021428D01*
X154858392Y-64150000D01*
X154986964Y-64278571D01*
D12*
X160952380Y-57423571D02*
X161285714Y-57423571D01*
X161428571Y-57947380D02*
X160952380Y-57947380D01*
X160952380Y-56947380D01*
X161428571Y-56947380D01*
X161761904Y-56947380D02*
X162428571Y-57947380D01*
X162428571Y-56947380D02*
X161761904Y-57947380D01*
X162666666Y-56947380D02*
X163238095Y-56947380D01*
X162952380Y-57947380D02*
X162952380Y-56947380D01*
X163571428Y-57423571D02*
X163904761Y-57423571D01*
X164047619Y-57947380D02*
X163571428Y-57947380D01*
X163571428Y-56947380D01*
X164047619Y-56947380D01*
X165047619Y-57947380D02*
X164714285Y-57471190D01*
X164476190Y-57947380D02*
X164476190Y-56947380D01*
X164857142Y-56947380D01*
X164952380Y-56995000D01*
X165000000Y-57042619D01*
X165047619Y-57137857D01*
X165047619Y-57280714D01*
X165000000Y-57375952D01*
X164952380Y-57423571D01*
X164857142Y-57471190D01*
X164476190Y-57471190D01*
X165476190Y-57947380D02*
X165476190Y-56947380D01*
X166047619Y-57947380D01*
X166047619Y-56947380D01*
X162190476Y-59557380D02*
X162190476Y-58557380D01*
X162523809Y-59271666D01*
X162857142Y-58557380D01*
X162857142Y-59557380D01*
X163333333Y-59557380D02*
X163333333Y-58557380D01*
X163809523Y-59557380D02*
X163809523Y-58557380D01*
X164047619Y-58557380D01*
X164190476Y-58605000D01*
X164285714Y-58700238D01*
X164333333Y-58795476D01*
X164380952Y-58985952D01*
X164380952Y-59128809D01*
X164333333Y-59319285D01*
X164285714Y-59414523D01*
X164190476Y-59509761D01*
X164047619Y-59557380D01*
X163809523Y-59557380D01*
X164809523Y-59557380D02*
X164809523Y-58557380D01*
D15*
X135013333Y-81633333D02*
X135965714Y-81633333D01*
X134822857Y-82204761D02*
X135489523Y-80204761D01*
X136156190Y-82204761D01*
X136822857Y-80204761D02*
X136822857Y-81823809D01*
X136918095Y-82014285D01*
X137013333Y-82109523D01*
X137203809Y-82204761D01*
X137584761Y-82204761D01*
X137775238Y-82109523D01*
X137870476Y-82014285D01*
X137965714Y-81823809D01*
X137965714Y-80204761D01*
X138918095Y-82204761D02*
X138918095Y-80204761D01*
X139394285Y-80204761D01*
X139680000Y-80300000D01*
X139870476Y-80490476D01*
X139965714Y-80680952D01*
X140060952Y-81061904D01*
X140060952Y-81347619D01*
X139965714Y-81728571D01*
X139870476Y-81919047D01*
X139680000Y-82109523D01*
X139394285Y-82204761D01*
X138918095Y-82204761D01*
X140918095Y-82204761D02*
X140918095Y-80204761D01*
X142251428Y-80204761D02*
X142632380Y-80204761D01*
X142822857Y-80300000D01*
X143013333Y-80490476D01*
X143108571Y-80871428D01*
X143108571Y-81538095D01*
X143013333Y-81919047D01*
X142822857Y-82109523D01*
X142632380Y-82204761D01*
X142251428Y-82204761D01*
X142060952Y-82109523D01*
X141870476Y-81919047D01*
X141775238Y-81538095D01*
X141775238Y-80871428D01*
X141870476Y-80490476D01*
X142060952Y-80300000D01*
X142251428Y-80204761D01*
X145394285Y-82109523D02*
X145680000Y-82204761D01*
X146156190Y-82204761D01*
X146346666Y-82109523D01*
X146441904Y-82014285D01*
X146537142Y-81823809D01*
X146537142Y-81633333D01*
X146441904Y-81442857D01*
X146346666Y-81347619D01*
X146156190Y-81252380D01*
X145775238Y-81157142D01*
X145584761Y-81061904D01*
X145489523Y-80966666D01*
X145394285Y-80776190D01*
X145394285Y-80585714D01*
X145489523Y-80395238D01*
X145584761Y-80300000D01*
X145775238Y-80204761D01*
X146251428Y-80204761D01*
X146537142Y-80300000D01*
X147394285Y-81157142D02*
X148060952Y-81157142D01*
X148346666Y-82204761D02*
X147394285Y-82204761D01*
X147394285Y-80204761D01*
X148346666Y-80204761D01*
X150156190Y-82204761D02*
X149203809Y-82204761D01*
X149203809Y-80204761D01*
X150822857Y-81157142D02*
X151489523Y-81157142D01*
X151775238Y-82204761D02*
X150822857Y-82204761D01*
X150822857Y-80204761D01*
X151775238Y-80204761D01*
X153775238Y-82014285D02*
X153680000Y-82109523D01*
X153394285Y-82204761D01*
X153203809Y-82204761D01*
X152918095Y-82109523D01*
X152727619Y-81919047D01*
X152632380Y-81728571D01*
X152537142Y-81347619D01*
X152537142Y-81061904D01*
X152632380Y-80680952D01*
X152727619Y-80490476D01*
X152918095Y-80300000D01*
X153203809Y-80204761D01*
X153394285Y-80204761D01*
X153680000Y-80300000D01*
X153775238Y-80395238D01*
X154346666Y-80204761D02*
X155489523Y-80204761D01*
X154918095Y-82204761D02*
X154918095Y-80204761D01*
D16*
X91511428Y-83928571D02*
X90797142Y-83928571D01*
X90797142Y-82428571D01*
X92011428Y-83142857D02*
X92511428Y-83142857D01*
X92725714Y-83928571D02*
X92011428Y-83928571D01*
X92011428Y-82428571D01*
X92725714Y-82428571D01*
X93868571Y-83142857D02*
X93368571Y-83142857D01*
X93368571Y-83928571D02*
X93368571Y-82428571D01*
X94082857Y-82428571D01*
X94440000Y-82428571D02*
X95297142Y-82428571D01*
X94868571Y-83928571D02*
X94868571Y-82428571D01*
D12*
X30454642Y-85192857D02*
X30668928Y-85264285D01*
X30740357Y-85335714D01*
X30811785Y-85478571D01*
X30811785Y-85692857D01*
X30740357Y-85835714D01*
X30668928Y-85907142D01*
X30526071Y-85978571D01*
X29954642Y-85978571D01*
X29954642Y-84478571D01*
X30454642Y-84478571D01*
X30597500Y-84550000D01*
X30668928Y-84621428D01*
X30740357Y-84764285D01*
X30740357Y-84907142D01*
X30668928Y-85050000D01*
X30597500Y-85121428D01*
X30454642Y-85192857D01*
X29954642Y-85192857D01*
X32311785Y-85978571D02*
X31811785Y-85264285D01*
X31454642Y-85978571D02*
X31454642Y-84478571D01*
X32026071Y-84478571D01*
X32168928Y-84550000D01*
X32240357Y-84621428D01*
X32311785Y-84764285D01*
X32311785Y-84978571D01*
X32240357Y-85121428D01*
X32168928Y-85192857D01*
X32026071Y-85264285D01*
X31454642Y-85264285D01*
X32954642Y-85978571D02*
X32954642Y-84478571D01*
X34454642Y-84550000D02*
X34311785Y-84478571D01*
X34097500Y-84478571D01*
X33883214Y-84550000D01*
X33740357Y-84692857D01*
X33668928Y-84835714D01*
X33597500Y-85121428D01*
X33597500Y-85335714D01*
X33668928Y-85621428D01*
X33740357Y-85764285D01*
X33883214Y-85907142D01*
X34097500Y-85978571D01*
X34240357Y-85978571D01*
X34454642Y-85907142D01*
X34526071Y-85835714D01*
X34526071Y-85335714D01*
X34240357Y-85335714D01*
X35168928Y-85978571D02*
X35168928Y-84478571D01*
X35168928Y-85192857D02*
X36026071Y-85192857D01*
X36026071Y-85978571D02*
X36026071Y-84478571D01*
X36526071Y-84478571D02*
X37383214Y-84478571D01*
X36954642Y-85978571D02*
X36954642Y-84478571D01*
X37883214Y-85978571D02*
X37883214Y-84478571D01*
X38740357Y-85978571D01*
X38740357Y-84478571D01*
X39454642Y-85192857D02*
X39954642Y-85192857D01*
X40168928Y-85978571D02*
X39454642Y-85978571D01*
X39454642Y-84478571D01*
X40168928Y-84478571D01*
X40740357Y-85907142D02*
X40954642Y-85978571D01*
X41311785Y-85978571D01*
X41454642Y-85907142D01*
X41526071Y-85835714D01*
X41597500Y-85692857D01*
X41597500Y-85550000D01*
X41526071Y-85407142D01*
X41454642Y-85335714D01*
X41311785Y-85264285D01*
X41026071Y-85192857D01*
X40883214Y-85121428D01*
X40811785Y-85050000D01*
X40740357Y-84907142D01*
X40740357Y-84764285D01*
X40811785Y-84621428D01*
X40883214Y-84550000D01*
X41026071Y-84478571D01*
X41383214Y-84478571D01*
X41597500Y-84550000D01*
X42168928Y-85907142D02*
X42383214Y-85978571D01*
X42740357Y-85978571D01*
X42883214Y-85907142D01*
X42954642Y-85835714D01*
X43026071Y-85692857D01*
X43026071Y-85550000D01*
X42954642Y-85407142D01*
X42883214Y-85335714D01*
X42740357Y-85264285D01*
X42454642Y-85192857D01*
X42311785Y-85121428D01*
X42240357Y-85050000D01*
X42168928Y-84907142D01*
X42168928Y-84764285D01*
X42240357Y-84621428D01*
X42311785Y-84550000D01*
X42454642Y-84478571D01*
X42811785Y-84478571D01*
X43026071Y-84550000D01*
X70704761Y-78752380D02*
X70704761Y-77752380D01*
X70942857Y-77752380D01*
X71085714Y-77800000D01*
X71180952Y-77895238D01*
X71228571Y-77990476D01*
X71276190Y-78180952D01*
X71276190Y-78323809D01*
X71228571Y-78514285D01*
X71180952Y-78609523D01*
X71085714Y-78704761D01*
X70942857Y-78752380D01*
X70704761Y-78752380D01*
X71704761Y-78752380D02*
X71704761Y-77752380D01*
X72180952Y-78752380D02*
X72180952Y-77752380D01*
X72514285Y-78466666D01*
X72847619Y-77752380D01*
X72847619Y-78752380D01*
X73323809Y-78752380D02*
X73323809Y-77752380D01*
X73657142Y-78466666D01*
X73990476Y-77752380D01*
X73990476Y-78752380D01*
X74466666Y-78228571D02*
X74800000Y-78228571D01*
X74942857Y-78752380D02*
X74466666Y-78752380D01*
X74466666Y-77752380D01*
X74942857Y-77752380D01*
X75942857Y-78752380D02*
X75609523Y-78276190D01*
X75371428Y-78752380D02*
X75371428Y-77752380D01*
X75752380Y-77752380D01*
X75847619Y-77800000D01*
X75895238Y-77847619D01*
X75942857Y-77942857D01*
X75942857Y-78085714D01*
X75895238Y-78180952D01*
X75847619Y-78228571D01*
X75752380Y-78276190D01*
X75371428Y-78276190D01*
X60904761Y-80442857D02*
X61019047Y-80480952D01*
X61057142Y-80519047D01*
X61095238Y-80595238D01*
X61095238Y-80709523D01*
X61057142Y-80785714D01*
X61019047Y-80823809D01*
X60942857Y-80861904D01*
X60638095Y-80861904D01*
X60638095Y-80061904D01*
X60904761Y-80061904D01*
X60980952Y-80100000D01*
X61019047Y-80138095D01*
X61057142Y-80214285D01*
X61057142Y-80290476D01*
X61019047Y-80366666D01*
X60980952Y-80404761D01*
X60904761Y-80442857D01*
X60638095Y-80442857D01*
X61400000Y-80633333D02*
X61780952Y-80633333D01*
X61323809Y-80861904D02*
X61590476Y-80061904D01*
X61857142Y-80861904D01*
X62580952Y-80785714D02*
X62542857Y-80823809D01*
X62428571Y-80861904D01*
X62352380Y-80861904D01*
X62238095Y-80823809D01*
X62161904Y-80747619D01*
X62123809Y-80671428D01*
X62085714Y-80519047D01*
X62085714Y-80404761D01*
X62123809Y-80252380D01*
X62161904Y-80176190D01*
X62238095Y-80100000D01*
X62352380Y-80061904D01*
X62428571Y-80061904D01*
X62542857Y-80100000D01*
X62580952Y-80138095D01*
X62923809Y-80861904D02*
X62923809Y-80061904D01*
X63380952Y-80861904D02*
X63038095Y-80404761D01*
X63380952Y-80061904D02*
X62923809Y-80519047D01*
X64104761Y-80861904D02*
X63723809Y-80861904D01*
X63723809Y-80061904D01*
X64371428Y-80861904D02*
X64371428Y-80061904D01*
X65171428Y-80100000D02*
X65095238Y-80061904D01*
X64980952Y-80061904D01*
X64866666Y-80100000D01*
X64790476Y-80176190D01*
X64752380Y-80252380D01*
X64714285Y-80404761D01*
X64714285Y-80519047D01*
X64752380Y-80671428D01*
X64790476Y-80747619D01*
X64866666Y-80823809D01*
X64980952Y-80861904D01*
X65057142Y-80861904D01*
X65171428Y-80823809D01*
X65209523Y-80785714D01*
X65209523Y-80519047D01*
X65057142Y-80519047D01*
X65552380Y-80861904D02*
X65552380Y-80061904D01*
X65552380Y-80442857D02*
X66009523Y-80442857D01*
X66009523Y-80861904D02*
X66009523Y-80061904D01*
X66276190Y-80061904D02*
X66733333Y-80061904D01*
X66504761Y-80861904D02*
X66504761Y-80061904D01*
X67609523Y-80861904D02*
X67609523Y-80061904D01*
X67800000Y-80061904D01*
X67914285Y-80100000D01*
X67990476Y-80176190D01*
X68028571Y-80252380D01*
X68066666Y-80404761D01*
X68066666Y-80519047D01*
X68028571Y-80671428D01*
X67990476Y-80747619D01*
X67914285Y-80823809D01*
X67800000Y-80861904D01*
X67609523Y-80861904D01*
X68409523Y-80861904D02*
X68409523Y-80061904D01*
X68790476Y-80861904D02*
X68790476Y-80061904D01*
X69057142Y-80633333D01*
X69323809Y-80061904D01*
X69323809Y-80861904D01*
X69704761Y-80861904D02*
X69704761Y-80061904D01*
X69971428Y-80633333D01*
X70238095Y-80061904D01*
X70238095Y-80861904D01*
X70619047Y-80442857D02*
X70885714Y-80442857D01*
X71000000Y-80861904D02*
X70619047Y-80861904D01*
X70619047Y-80061904D01*
X71000000Y-80061904D01*
X71800000Y-80861904D02*
X71533333Y-80480952D01*
X71342857Y-80861904D02*
X71342857Y-80061904D01*
X71647619Y-80061904D01*
X71723809Y-80100000D01*
X71761904Y-80138095D01*
X71800000Y-80214285D01*
X71800000Y-80328571D01*
X71761904Y-80404761D01*
X71723809Y-80442857D01*
X71647619Y-80480952D01*
X71342857Y-80480952D01*
D16*
X102011428Y-72428571D02*
X102011428Y-73642857D01*
X102082857Y-73785714D01*
X102154285Y-73857142D01*
X102297142Y-73928571D01*
X102582857Y-73928571D01*
X102725714Y-73857142D01*
X102797142Y-73785714D01*
X102868571Y-73642857D01*
X102868571Y-72428571D01*
X103582857Y-73928571D02*
X103582857Y-72428571D01*
X104154285Y-72428571D01*
X104297142Y-72500000D01*
X104368571Y-72571428D01*
X104440000Y-72714285D01*
X104440000Y-72928571D01*
X104368571Y-73071428D01*
X104297142Y-73142857D01*
X104154285Y-73214285D01*
X103582857Y-73214285D01*
D14*
X142001250Y-71921428D02*
X142901250Y-74621428D01*
X143801250Y-71921428D01*
X144701250Y-74621428D02*
X144701250Y-71921428D01*
X145344107Y-71921428D01*
X145729821Y-72050000D01*
X145986964Y-72307142D01*
X146115535Y-72564285D01*
X146244107Y-73078571D01*
X146244107Y-73464285D01*
X146115535Y-73978571D01*
X145986964Y-74235714D01*
X145729821Y-74492857D01*
X145344107Y-74621428D01*
X144701250Y-74621428D01*
X148944107Y-74621428D02*
X148044107Y-73335714D01*
X147401250Y-74621428D02*
X147401250Y-71921428D01*
X148429821Y-71921428D01*
X148686964Y-72050000D01*
X148815535Y-72178571D01*
X148944107Y-72435714D01*
X148944107Y-72821428D01*
X148815535Y-73078571D01*
X148686964Y-73207142D01*
X148429821Y-73335714D01*
X147401250Y-73335714D01*
X150101250Y-74621428D02*
X150101250Y-71921428D01*
X151001250Y-71921428D02*
X151901250Y-74621428D01*
X152801250Y-71921428D01*
X153701250Y-73207142D02*
X154601250Y-73207142D01*
X154986964Y-74621428D02*
X153701250Y-74621428D01*
X153701250Y-71921428D01*
X154986964Y-71921428D01*
D16*
X99832857Y-83142857D02*
X100332857Y-83142857D01*
X100547142Y-83928571D02*
X99832857Y-83928571D01*
X99832857Y-82428571D01*
X100547142Y-82428571D01*
X101190000Y-83928571D02*
X101190000Y-82428571D01*
X102047142Y-83928571D01*
X102047142Y-82428571D01*
X102547142Y-82428571D02*
X103404285Y-82428571D01*
X102975714Y-83928571D02*
X102975714Y-82428571D01*
X103904285Y-83142857D02*
X104404285Y-83142857D01*
X104618571Y-83928571D02*
X103904285Y-83928571D01*
X103904285Y-82428571D01*
X104618571Y-82428571D01*
X106118571Y-83928571D02*
X105618571Y-83214285D01*
X105261428Y-83928571D02*
X105261428Y-82428571D01*
X105832857Y-82428571D01*
X105975714Y-82500000D01*
X106047142Y-82571428D01*
X106118571Y-82714285D01*
X106118571Y-82928571D01*
X106047142Y-83071428D01*
X105975714Y-83142857D01*
X105832857Y-83214285D01*
X105261428Y-83214285D01*
D15*
X145394285Y-99309523D02*
X145680000Y-99404761D01*
X146156190Y-99404761D01*
X146346666Y-99309523D01*
X146441904Y-99214285D01*
X146537142Y-99023809D01*
X146537142Y-98833333D01*
X146441904Y-98642857D01*
X146346666Y-98547619D01*
X146156190Y-98452380D01*
X145775238Y-98357142D01*
X145584761Y-98261904D01*
X145489523Y-98166666D01*
X145394285Y-97976190D01*
X145394285Y-97785714D01*
X145489523Y-97595238D01*
X145584761Y-97500000D01*
X145775238Y-97404761D01*
X146251428Y-97404761D01*
X146537142Y-97500000D01*
X147108571Y-97404761D02*
X148251428Y-97404761D01*
X147680000Y-99404761D02*
X147680000Y-97404761D01*
X148822857Y-98833333D02*
X149775238Y-98833333D01*
X148632380Y-99404761D02*
X149299047Y-97404761D01*
X149965714Y-99404761D01*
X150346666Y-97404761D02*
X151489523Y-97404761D01*
X150918095Y-99404761D02*
X150918095Y-97404761D01*
X152156190Y-97404761D02*
X152156190Y-99023809D01*
X152251428Y-99214285D01*
X152346666Y-99309523D01*
X152537142Y-99404761D01*
X152918095Y-99404761D01*
X153108571Y-99309523D01*
X153203809Y-99214285D01*
X153299047Y-99023809D01*
X153299047Y-97404761D01*
X154156190Y-99309523D02*
X154441904Y-99404761D01*
X154918095Y-99404761D01*
X155108571Y-99309523D01*
X155203809Y-99214285D01*
X155299047Y-99023809D01*
X155299047Y-98833333D01*
X155203809Y-98642857D01*
X155108571Y-98547619D01*
X154918095Y-98452380D01*
X154537142Y-98357142D01*
X154346666Y-98261904D01*
X154251428Y-98166666D01*
X154156190Y-97976190D01*
X154156190Y-97785714D01*
X154251428Y-97595238D01*
X154346666Y-97500000D01*
X154537142Y-97404761D01*
X155013333Y-97404761D01*
X155299047Y-97500000D01*
D16*
X89904285Y-103892857D02*
X90118571Y-103964285D01*
X90190000Y-104035714D01*
X90261428Y-104178571D01*
X90261428Y-104392857D01*
X90190000Y-104535714D01*
X90118571Y-104607142D01*
X89975714Y-104678571D01*
X89404285Y-104678571D01*
X89404285Y-103178571D01*
X89904285Y-103178571D01*
X90047142Y-103250000D01*
X90118571Y-103321428D01*
X90190000Y-103464285D01*
X90190000Y-103607142D01*
X90118571Y-103750000D01*
X90047142Y-103821428D01*
X89904285Y-103892857D01*
X89404285Y-103892857D01*
X90832857Y-104250000D02*
X91547142Y-104250000D01*
X90690000Y-104678571D02*
X91190000Y-103178571D01*
X91690000Y-104678571D01*
X93047142Y-104535714D02*
X92975714Y-104607142D01*
X92761428Y-104678571D01*
X92618571Y-104678571D01*
X92404285Y-104607142D01*
X92261428Y-104464285D01*
X92190000Y-104321428D01*
X92118571Y-104035714D01*
X92118571Y-103821428D01*
X92190000Y-103535714D01*
X92261428Y-103392857D01*
X92404285Y-103250000D01*
X92618571Y-103178571D01*
X92761428Y-103178571D01*
X92975714Y-103250000D01*
X93047142Y-103321428D01*
X93690000Y-104678571D02*
X93690000Y-103178571D01*
X94547142Y-104678571D02*
X93904285Y-103821428D01*
X94547142Y-103178571D02*
X93690000Y-104035714D01*
X110940000Y-83928571D02*
X110440000Y-83214285D01*
X110082857Y-83928571D02*
X110082857Y-82428571D01*
X110654285Y-82428571D01*
X110797142Y-82500000D01*
X110868571Y-82571428D01*
X110940000Y-82714285D01*
X110940000Y-82928571D01*
X110868571Y-83071428D01*
X110797142Y-83142857D01*
X110654285Y-83214285D01*
X110082857Y-83214285D01*
X111582857Y-83928571D02*
X111582857Y-82428571D01*
X113082857Y-82500000D02*
X112940000Y-82428571D01*
X112725714Y-82428571D01*
X112511428Y-82500000D01*
X112368571Y-82642857D01*
X112297142Y-82785714D01*
X112225714Y-83071428D01*
X112225714Y-83285714D01*
X112297142Y-83571428D01*
X112368571Y-83714285D01*
X112511428Y-83857142D01*
X112725714Y-83928571D01*
X112868571Y-83928571D01*
X113082857Y-83857142D01*
X113154285Y-83785714D01*
X113154285Y-83285714D01*
X112868571Y-83285714D01*
X113797142Y-83928571D02*
X113797142Y-82428571D01*
X113797142Y-83142857D02*
X114654285Y-83142857D01*
X114654285Y-83928571D02*
X114654285Y-82428571D01*
X115154285Y-82428571D02*
X116011428Y-82428571D01*
X115582857Y-83928571D02*
X115582857Y-82428571D01*
X100118571Y-103678571D02*
X100118571Y-102178571D01*
X100475714Y-102178571D01*
X100690000Y-102250000D01*
X100832857Y-102392857D01*
X100904285Y-102535714D01*
X100975714Y-102821428D01*
X100975714Y-103035714D01*
X100904285Y-103321428D01*
X100832857Y-103464285D01*
X100690000Y-103607142D01*
X100475714Y-103678571D01*
X100118571Y-103678571D01*
X101904285Y-102178571D02*
X102190000Y-102178571D01*
X102332857Y-102250000D01*
X102475714Y-102392857D01*
X102547142Y-102678571D01*
X102547142Y-103178571D01*
X102475714Y-103464285D01*
X102332857Y-103607142D01*
X102190000Y-103678571D01*
X101904285Y-103678571D01*
X101761428Y-103607142D01*
X101618571Y-103464285D01*
X101547142Y-103178571D01*
X101547142Y-102678571D01*
X101618571Y-102392857D01*
X101761428Y-102250000D01*
X101904285Y-102178571D01*
X103047142Y-102178571D02*
X103404285Y-103678571D01*
X103690000Y-102607142D01*
X103975714Y-103678571D01*
X104332857Y-102178571D01*
X104904285Y-103678571D02*
X104904285Y-102178571D01*
X105761428Y-103678571D01*
X105761428Y-102178571D01*
D12*
X57747619Y-78704761D02*
X57890476Y-78752380D01*
X58128571Y-78752380D01*
X58223809Y-78704761D01*
X58271428Y-78657142D01*
X58319047Y-78561904D01*
X58319047Y-78466666D01*
X58271428Y-78371428D01*
X58223809Y-78323809D01*
X58128571Y-78276190D01*
X57938095Y-78228571D01*
X57842857Y-78180952D01*
X57795238Y-78133333D01*
X57747619Y-78038095D01*
X57747619Y-77942857D01*
X57795238Y-77847619D01*
X57842857Y-77800000D01*
X57938095Y-77752380D01*
X58176190Y-77752380D01*
X58319047Y-77800000D01*
X58938095Y-77752380D02*
X59128571Y-77752380D01*
X59223809Y-77800000D01*
X59319047Y-77895238D01*
X59366666Y-78085714D01*
X59366666Y-78419047D01*
X59319047Y-78609523D01*
X59223809Y-78704761D01*
X59128571Y-78752380D01*
X58938095Y-78752380D01*
X58842857Y-78704761D01*
X58747619Y-78609523D01*
X58700000Y-78419047D01*
X58700000Y-78085714D01*
X58747619Y-77895238D01*
X58842857Y-77800000D01*
X58938095Y-77752380D01*
X60271428Y-78752380D02*
X59795238Y-78752380D01*
X59795238Y-77752380D01*
X60604761Y-78752380D02*
X60604761Y-77752380D01*
X61080952Y-78752380D02*
X61080952Y-77752380D01*
X61319047Y-77752380D01*
X61461904Y-77800000D01*
X61557142Y-77895238D01*
X61604761Y-77990476D01*
X61652380Y-78180952D01*
X61652380Y-78323809D01*
X61604761Y-78514285D01*
X61557142Y-78609523D01*
X61461904Y-78704761D01*
X61319047Y-78752380D01*
X61080952Y-78752380D01*
D15*
X145299047Y-90104761D02*
X144346666Y-90104761D01*
X144346666Y-88104761D01*
X145965714Y-89057142D02*
X146632380Y-89057142D01*
X146918095Y-90104761D02*
X145965714Y-90104761D01*
X145965714Y-88104761D01*
X146918095Y-88104761D01*
X147775238Y-90104761D02*
X147775238Y-88104761D01*
X148251428Y-88104761D01*
X148537142Y-88200000D01*
X148727619Y-88390476D01*
X148822857Y-88580952D01*
X148918095Y-88961904D01*
X148918095Y-89247619D01*
X148822857Y-89628571D01*
X148727619Y-89819047D01*
X148537142Y-90009523D01*
X148251428Y-90104761D01*
X147775238Y-90104761D01*
X149775238Y-89342857D02*
X151299047Y-89342857D01*
X152251428Y-89057142D02*
X152918095Y-89057142D01*
X153203809Y-90104761D02*
X152251428Y-90104761D01*
X152251428Y-88104761D01*
X153203809Y-88104761D01*
X154060952Y-90104761D02*
X154060952Y-88104761D01*
X155203809Y-90104761D01*
X155203809Y-88104761D01*
X146251428Y-104857142D02*
X146918095Y-104857142D01*
X147203809Y-105904761D02*
X146251428Y-105904761D01*
X146251428Y-103904761D01*
X147203809Y-103904761D01*
X149203809Y-105904761D02*
X148537142Y-104952380D01*
X148060952Y-105904761D02*
X148060952Y-103904761D01*
X148822857Y-103904761D01*
X149013333Y-104000000D01*
X149108571Y-104095238D01*
X149203809Y-104285714D01*
X149203809Y-104571428D01*
X149108571Y-104761904D01*
X149013333Y-104857142D01*
X148822857Y-104952380D01*
X148060952Y-104952380D01*
X151203809Y-105904761D02*
X150537142Y-104952380D01*
X150060952Y-105904761D02*
X150060952Y-103904761D01*
X150822857Y-103904761D01*
X151013333Y-104000000D01*
X151108571Y-104095238D01*
X151203809Y-104285714D01*
X151203809Y-104571428D01*
X151108571Y-104761904D01*
X151013333Y-104857142D01*
X150822857Y-104952380D01*
X150060952Y-104952380D01*
X152441904Y-103904761D02*
X152822857Y-103904761D01*
X153013333Y-104000000D01*
X153203809Y-104190476D01*
X153299047Y-104571428D01*
X153299047Y-105238095D01*
X153203809Y-105619047D01*
X153013333Y-105809523D01*
X152822857Y-105904761D01*
X152441904Y-105904761D01*
X152251428Y-105809523D01*
X152060952Y-105619047D01*
X151965714Y-105238095D01*
X151965714Y-104571428D01*
X152060952Y-104190476D01*
X152251428Y-104000000D01*
X152441904Y-103904761D01*
X155299047Y-105904761D02*
X154632380Y-104952380D01*
X154156190Y-105904761D02*
X154156190Y-103904761D01*
X154918095Y-103904761D01*
X155108571Y-104000000D01*
X155203809Y-104095238D01*
X155299047Y-104285714D01*
X155299047Y-104571428D01*
X155203809Y-104761904D01*
X155108571Y-104857142D01*
X154918095Y-104952380D01*
X154156190Y-104952380D01*
D11*
X166166666Y-54452380D02*
X166500000Y-55452380D01*
X166833333Y-54452380D01*
X167738095Y-55357142D02*
X167690476Y-55404761D01*
X167547619Y-55452380D01*
X167452380Y-55452380D01*
X167309523Y-55404761D01*
X167214285Y-55309523D01*
X167166666Y-55214285D01*
X167119047Y-55023809D01*
X167119047Y-54880952D01*
X167166666Y-54690476D01*
X167214285Y-54595238D01*
X167309523Y-54500000D01*
X167452380Y-54452380D01*
X167547619Y-54452380D01*
X167690476Y-54500000D01*
X167738095Y-54547619D01*
X168738095Y-55357142D02*
X168690476Y-55404761D01*
X168547619Y-55452380D01*
X168452380Y-55452380D01*
X168309523Y-55404761D01*
X168214285Y-55309523D01*
X168166666Y-55214285D01*
X168119047Y-55023809D01*
X168119047Y-54880952D01*
X168166666Y-54690476D01*
X168214285Y-54595238D01*
X168309523Y-54500000D01*
X168452380Y-54452380D01*
X168547619Y-54452380D01*
X168690476Y-54500000D01*
X168738095Y-54547619D01*
X166261904Y-50252380D02*
X166261904Y-49252380D01*
X166833333Y-50252380D01*
X166833333Y-49252380D01*
X167309523Y-49728571D02*
X167642857Y-49728571D01*
X167785714Y-50252380D02*
X167309523Y-50252380D01*
X167309523Y-49252380D01*
X167785714Y-49252380D01*
X168738095Y-49300000D02*
X168642857Y-49252380D01*
X168500000Y-49252380D01*
X168357142Y-49300000D01*
X168261904Y-49395238D01*
X168214285Y-49490476D01*
X168166666Y-49680952D01*
X168166666Y-49823809D01*
X168214285Y-50014285D01*
X168261904Y-50109523D01*
X168357142Y-50204761D01*
X168500000Y-50252380D01*
X168595238Y-50252380D01*
X168738095Y-50204761D01*
X168785714Y-50157142D01*
X168785714Y-49823809D01*
X168595238Y-49823809D01*
D12*
X147606666Y-39952380D02*
X147606666Y-40666666D01*
X147559047Y-40809523D01*
X147463809Y-40904761D01*
X147320952Y-40952380D01*
X147225714Y-40952380D01*
X148606666Y-40952380D02*
X148035238Y-40952380D01*
X148320952Y-40952380D02*
X148320952Y-39952380D01*
X148225714Y-40095238D01*
X148130476Y-40190476D01*
X148035238Y-40238095D01*
X168157142Y-73852380D02*
X167823809Y-73376190D01*
X167585714Y-73852380D02*
X167585714Y-72852380D01*
X167966666Y-72852380D01*
X168061904Y-72900000D01*
X168109523Y-72947619D01*
X168157142Y-73042857D01*
X168157142Y-73185714D01*
X168109523Y-73280952D01*
X168061904Y-73328571D01*
X167966666Y-73376190D01*
X167585714Y-73376190D01*
X169109523Y-73852380D02*
X168538095Y-73852380D01*
X168823809Y-73852380D02*
X168823809Y-72852380D01*
X168728571Y-72995238D01*
X168633333Y-73090476D01*
X168538095Y-73138095D01*
X169490476Y-72947619D02*
X169538095Y-72900000D01*
X169633333Y-72852380D01*
X169871428Y-72852380D01*
X169966666Y-72900000D01*
X170014285Y-72947619D01*
X170061904Y-73042857D01*
X170061904Y-73138095D01*
X170014285Y-73280952D01*
X169442857Y-73852380D01*
X170061904Y-73852380D01*
X172257142Y-83066666D02*
X172304761Y-83114285D01*
X172352380Y-83257142D01*
X172352380Y-83352380D01*
X172304761Y-83495238D01*
X172209523Y-83590476D01*
X172114285Y-83638095D01*
X171923809Y-83685714D01*
X171780952Y-83685714D01*
X171590476Y-83638095D01*
X171495238Y-83590476D01*
X171400000Y-83495238D01*
X171352380Y-83352380D01*
X171352380Y-83257142D01*
X171400000Y-83114285D01*
X171447619Y-83066666D01*
X171352380Y-82733333D02*
X171352380Y-82114285D01*
X171733333Y-82447619D01*
X171733333Y-82304761D01*
X171780952Y-82209523D01*
X171828571Y-82161904D01*
X171923809Y-82114285D01*
X172161904Y-82114285D01*
X172257142Y-82161904D01*
X172304761Y-82209523D01*
X172352380Y-82304761D01*
X172352380Y-82590476D01*
X172304761Y-82685714D01*
X172257142Y-82733333D01*
X25606666Y-16452380D02*
X25273333Y-15976190D01*
X25035238Y-16452380D02*
X25035238Y-15452380D01*
X25416190Y-15452380D01*
X25511428Y-15500000D01*
X25559047Y-15547619D01*
X25606666Y-15642857D01*
X25606666Y-15785714D01*
X25559047Y-15880952D01*
X25511428Y-15928571D01*
X25416190Y-15976190D01*
X25035238Y-15976190D01*
X26035238Y-15928571D02*
X26368571Y-15928571D01*
X26511428Y-16452380D02*
X26035238Y-16452380D01*
X26035238Y-15452380D01*
X26511428Y-15452380D01*
X27273333Y-15928571D02*
X26940000Y-15928571D01*
X26940000Y-16452380D02*
X26940000Y-15452380D01*
X27416190Y-15452380D01*
X27940000Y-15452380D02*
X27940000Y-15690476D01*
X27701904Y-15595238D02*
X27940000Y-15690476D01*
X28178095Y-15595238D01*
X27797142Y-15880952D02*
X27940000Y-15690476D01*
X28082857Y-15880952D01*
X28701904Y-15452380D02*
X28701904Y-15690476D01*
X28463809Y-15595238D02*
X28701904Y-15690476D01*
X28940000Y-15595238D01*
X28559047Y-15880952D02*
X28701904Y-15690476D01*
X28844761Y-15880952D01*
X59352380Y-83561904D02*
X60161904Y-83561904D01*
X60257142Y-83514285D01*
X60304761Y-83466666D01*
X60352380Y-83371428D01*
X60352380Y-83180952D01*
X60304761Y-83085714D01*
X60257142Y-83038095D01*
X60161904Y-82990476D01*
X59352380Y-82990476D01*
X60352380Y-81990476D02*
X60352380Y-82561904D01*
X60352380Y-82276190D02*
X59352380Y-82276190D01*
X59495238Y-82371428D01*
X59590476Y-82466666D01*
X59638095Y-82561904D01*
X156252380Y-43738095D02*
X155252380Y-43738095D01*
X155252380Y-43500000D01*
X155300000Y-43357142D01*
X155395238Y-43261904D01*
X155490476Y-43214285D01*
X155680952Y-43166666D01*
X155823809Y-43166666D01*
X156014285Y-43214285D01*
X156109523Y-43261904D01*
X156204761Y-43357142D01*
X156252380Y-43500000D01*
X156252380Y-43738095D01*
X156252380Y-42214285D02*
X156252380Y-42785714D01*
X156252380Y-42500000D02*
X155252380Y-42500000D01*
X155395238Y-42595238D01*
X155490476Y-42690476D01*
X155538095Y-42785714D01*
X64523333Y-73802380D02*
X64190000Y-73326190D01*
X63951904Y-73802380D02*
X63951904Y-72802380D01*
X64332857Y-72802380D01*
X64428095Y-72850000D01*
X64475714Y-72897619D01*
X64523333Y-72992857D01*
X64523333Y-73135714D01*
X64475714Y-73230952D01*
X64428095Y-73278571D01*
X64332857Y-73326190D01*
X63951904Y-73326190D01*
X65475714Y-73802380D02*
X64904285Y-73802380D01*
X65190000Y-73802380D02*
X65190000Y-72802380D01*
X65094761Y-72945238D01*
X64999523Y-73040476D01*
X64904285Y-73088095D01*
X46533333Y-78952380D02*
X46533333Y-77952380D01*
X46771428Y-77952380D01*
X46914285Y-78000000D01*
X47009523Y-78095238D01*
X47057142Y-78190476D01*
X47104761Y-78380952D01*
X47104761Y-78523809D01*
X47057142Y-78714285D01*
X47009523Y-78809523D01*
X46914285Y-78904761D01*
X46771428Y-78952380D01*
X46533333Y-78952380D01*
X47485714Y-78666666D02*
X47961904Y-78666666D01*
X47390476Y-78952380D02*
X47723809Y-77952380D01*
X48057142Y-78952380D01*
X48914285Y-78952380D02*
X48342857Y-78952380D01*
X48628571Y-78952380D02*
X48628571Y-77952380D01*
X48533333Y-78095238D01*
X48438095Y-78190476D01*
X48342857Y-78238095D01*
X152938095Y-50557380D02*
X152938095Y-51366904D01*
X152985714Y-51462142D01*
X153033333Y-51509761D01*
X153128571Y-51557380D01*
X153319047Y-51557380D01*
X153414285Y-51509761D01*
X153461904Y-51462142D01*
X153509523Y-51366904D01*
X153509523Y-50557380D01*
X153890476Y-50557380D02*
X154509523Y-50557380D01*
X154176190Y-50938333D01*
X154319047Y-50938333D01*
X154414285Y-50985952D01*
X154461904Y-51033571D01*
X154509523Y-51128809D01*
X154509523Y-51366904D01*
X154461904Y-51462142D01*
X154414285Y-51509761D01*
X154319047Y-51557380D01*
X154033333Y-51557380D01*
X153938095Y-51509761D01*
X153890476Y-51462142D01*
X167433333Y-98952380D02*
X167100000Y-98476190D01*
X166861904Y-98952380D02*
X166861904Y-97952380D01*
X167242857Y-97952380D01*
X167338095Y-98000000D01*
X167385714Y-98047619D01*
X167433333Y-98142857D01*
X167433333Y-98285714D01*
X167385714Y-98380952D01*
X167338095Y-98428571D01*
X167242857Y-98476190D01*
X166861904Y-98476190D01*
X167909523Y-98952380D02*
X168100000Y-98952380D01*
X168195238Y-98904761D01*
X168242857Y-98857142D01*
X168338095Y-98714285D01*
X168385714Y-98523809D01*
X168385714Y-98142857D01*
X168338095Y-98047619D01*
X168290476Y-98000000D01*
X168195238Y-97952380D01*
X168004761Y-97952380D01*
X167909523Y-98000000D01*
X167861904Y-98047619D01*
X167814285Y-98142857D01*
X167814285Y-98380952D01*
X167861904Y-98476190D01*
X167909523Y-98523809D01*
X168004761Y-98571428D01*
X168195238Y-98571428D01*
X168290476Y-98523809D01*
X168338095Y-98476190D01*
X168385714Y-98380952D01*
X56052380Y-76633333D02*
X56766666Y-76633333D01*
X56909523Y-76680952D01*
X57004761Y-76776190D01*
X57052380Y-76919047D01*
X57052380Y-77014285D01*
X57052380Y-76157142D02*
X56052380Y-76157142D01*
X56052380Y-75776190D01*
X56100000Y-75680952D01*
X56147619Y-75633333D01*
X56242857Y-75585714D01*
X56385714Y-75585714D01*
X56480952Y-75633333D01*
X56528571Y-75680952D01*
X56576190Y-75776190D01*
X56576190Y-76157142D01*
X57052380Y-74633333D02*
X57052380Y-75204761D01*
X57052380Y-74919047D02*
X56052380Y-74919047D01*
X56195238Y-75014285D01*
X56290476Y-75109523D01*
X56338095Y-75204761D01*
X167433333Y-89652380D02*
X167100000Y-89176190D01*
X166861904Y-89652380D02*
X166861904Y-88652380D01*
X167242857Y-88652380D01*
X167338095Y-88700000D01*
X167385714Y-88747619D01*
X167433333Y-88842857D01*
X167433333Y-88985714D01*
X167385714Y-89080952D01*
X167338095Y-89128571D01*
X167242857Y-89176190D01*
X166861904Y-89176190D01*
X168004761Y-89080952D02*
X167909523Y-89033333D01*
X167861904Y-88985714D01*
X167814285Y-88890476D01*
X167814285Y-88842857D01*
X167861904Y-88747619D01*
X167909523Y-88700000D01*
X168004761Y-88652380D01*
X168195238Y-88652380D01*
X168290476Y-88700000D01*
X168338095Y-88747619D01*
X168385714Y-88842857D01*
X168385714Y-88890476D01*
X168338095Y-88985714D01*
X168290476Y-89033333D01*
X168195238Y-89080952D01*
X168004761Y-89080952D01*
X167909523Y-89128571D01*
X167861904Y-89176190D01*
X167814285Y-89271428D01*
X167814285Y-89461904D01*
X167861904Y-89557142D01*
X167909523Y-89604761D01*
X168004761Y-89652380D01*
X168195238Y-89652380D01*
X168290476Y-89604761D01*
X168338095Y-89557142D01*
X168385714Y-89461904D01*
X168385714Y-89271428D01*
X168338095Y-89176190D01*
X168290476Y-89128571D01*
X168195238Y-89080952D01*
X174952380Y-84042857D02*
X174476190Y-84376190D01*
X174952380Y-84614285D02*
X173952380Y-84614285D01*
X173952380Y-84233333D01*
X174000000Y-84138095D01*
X174047619Y-84090476D01*
X174142857Y-84042857D01*
X174285714Y-84042857D01*
X174380952Y-84090476D01*
X174428571Y-84138095D01*
X174476190Y-84233333D01*
X174476190Y-84614285D01*
X174952380Y-83090476D02*
X174952380Y-83661904D01*
X174952380Y-83376190D02*
X173952380Y-83376190D01*
X174095238Y-83471428D01*
X174190476Y-83566666D01*
X174238095Y-83661904D01*
X173952380Y-82185714D02*
X173952380Y-82661904D01*
X174428571Y-82709523D01*
X174380952Y-82661904D01*
X174333333Y-82566666D01*
X174333333Y-82328571D01*
X174380952Y-82233333D01*
X174428571Y-82185714D01*
X174523809Y-82138095D01*
X174761904Y-82138095D01*
X174857142Y-82185714D01*
X174904761Y-82233333D01*
X174952380Y-82328571D01*
X174952380Y-82566666D01*
X174904761Y-82661904D01*
X174857142Y-82709523D01*
X167433333Y-81752380D02*
X167100000Y-81276190D01*
X166861904Y-81752380D02*
X166861904Y-80752380D01*
X167242857Y-80752380D01*
X167338095Y-80800000D01*
X167385714Y-80847619D01*
X167433333Y-80942857D01*
X167433333Y-81085714D01*
X167385714Y-81180952D01*
X167338095Y-81228571D01*
X167242857Y-81276190D01*
X166861904Y-81276190D01*
X167766666Y-80752380D02*
X168433333Y-80752380D01*
X168004761Y-81752380D01*
X160466666Y-54852380D02*
X160466666Y-55566666D01*
X160419047Y-55709523D01*
X160323809Y-55804761D01*
X160180952Y-55852380D01*
X160085714Y-55852380D01*
X160847619Y-54852380D02*
X161466666Y-54852380D01*
X161133333Y-55233333D01*
X161276190Y-55233333D01*
X161371428Y-55280952D01*
X161419047Y-55328571D01*
X161466666Y-55423809D01*
X161466666Y-55661904D01*
X161419047Y-55757142D01*
X161371428Y-55804761D01*
X161276190Y-55852380D01*
X160990476Y-55852380D01*
X160895238Y-55804761D01*
X160847619Y-55757142D01*
X176904761Y-75333333D02*
X176952380Y-75190476D01*
X176952380Y-74952380D01*
X176904761Y-74857142D01*
X176857142Y-74809523D01*
X176761904Y-74761904D01*
X176666666Y-74761904D01*
X176571428Y-74809523D01*
X176523809Y-74857142D01*
X176476190Y-74952380D01*
X176428571Y-75142857D01*
X176380952Y-75238095D01*
X176333333Y-75285714D01*
X176238095Y-75333333D01*
X176142857Y-75333333D01*
X176047619Y-75285714D01*
X176000000Y-75238095D01*
X175952380Y-75142857D01*
X175952380Y-74904761D01*
X176000000Y-74761904D01*
X175952380Y-74428571D02*
X176952380Y-74190476D01*
X176238095Y-74000000D01*
X176952380Y-73809523D01*
X175952380Y-73571428D01*
X176952380Y-72666666D02*
X176952380Y-73238095D01*
X176952380Y-72952380D02*
X175952380Y-72952380D01*
X176095238Y-73047619D01*
X176190476Y-73142857D01*
X176238095Y-73238095D01*
X70142380Y-75261904D02*
X70951904Y-75261904D01*
X71047142Y-75214285D01*
X71094761Y-75166666D01*
X71142380Y-75071428D01*
X71142380Y-74880952D01*
X71094761Y-74785714D01*
X71047142Y-74738095D01*
X70951904Y-74690476D01*
X70142380Y-74690476D01*
X70237619Y-74261904D02*
X70190000Y-74214285D01*
X70142380Y-74119047D01*
X70142380Y-73880952D01*
X70190000Y-73785714D01*
X70237619Y-73738095D01*
X70332857Y-73690476D01*
X70428095Y-73690476D01*
X70570952Y-73738095D01*
X71142380Y-74309523D01*
X71142380Y-73690476D01*
X44552380Y-77845238D02*
X44076190Y-78178571D01*
X44552380Y-78416666D02*
X43552380Y-78416666D01*
X43552380Y-78035714D01*
X43600000Y-77940476D01*
X43647619Y-77892857D01*
X43742857Y-77845238D01*
X43885714Y-77845238D01*
X43980952Y-77892857D01*
X44028571Y-77940476D01*
X44076190Y-78035714D01*
X44076190Y-78416666D01*
X43552380Y-77559523D02*
X44552380Y-77226190D01*
X43552380Y-76892857D01*
X43647619Y-76607142D02*
X43600000Y-76559523D01*
X43552380Y-76464285D01*
X43552380Y-76226190D01*
X43600000Y-76130952D01*
X43647619Y-76083333D01*
X43742857Y-76035714D01*
X43838095Y-76035714D01*
X43980952Y-76083333D01*
X44552380Y-76654761D01*
X44552380Y-76035714D01*
X167457142Y-105452380D02*
X167123809Y-104976190D01*
X166885714Y-105452380D02*
X166885714Y-104452380D01*
X167266666Y-104452380D01*
X167361904Y-104500000D01*
X167409523Y-104547619D01*
X167457142Y-104642857D01*
X167457142Y-104785714D01*
X167409523Y-104880952D01*
X167361904Y-104928571D01*
X167266666Y-104976190D01*
X166885714Y-104976190D01*
X168409523Y-105452380D02*
X167838095Y-105452380D01*
X168123809Y-105452380D02*
X168123809Y-104452380D01*
X168028571Y-104595238D01*
X167933333Y-104690476D01*
X167838095Y-104738095D01*
X169028571Y-104452380D02*
X169123809Y-104452380D01*
X169219047Y-104500000D01*
X169266666Y-104547619D01*
X169314285Y-104642857D01*
X169361904Y-104833333D01*
X169361904Y-105071428D01*
X169314285Y-105261904D01*
X169266666Y-105357142D01*
X169219047Y-105404761D01*
X169123809Y-105452380D01*
X169028571Y-105452380D01*
X168933333Y-105404761D01*
X168885714Y-105357142D01*
X168838095Y-105261904D01*
X168790476Y-105071428D01*
X168790476Y-104833333D01*
X168838095Y-104642857D01*
X168885714Y-104547619D01*
X168933333Y-104500000D01*
X169028571Y-104452380D01*
X158297142Y-48352380D02*
X157963809Y-47876190D01*
X157725714Y-48352380D02*
X157725714Y-47352380D01*
X158106666Y-47352380D01*
X158201904Y-47400000D01*
X158249523Y-47447619D01*
X158297142Y-47542857D01*
X158297142Y-47685714D01*
X158249523Y-47780952D01*
X158201904Y-47828571D01*
X158106666Y-47876190D01*
X157725714Y-47876190D01*
X159249523Y-48352380D02*
X158678095Y-48352380D01*
X158963809Y-48352380D02*
X158963809Y-47352380D01*
X158868571Y-47495238D01*
X158773333Y-47590476D01*
X158678095Y-47638095D01*
X159582857Y-47352380D02*
X160201904Y-47352380D01*
X159868571Y-47733333D01*
X160011428Y-47733333D01*
X160106666Y-47780952D01*
X160154285Y-47828571D01*
X160201904Y-47923809D01*
X160201904Y-48161904D01*
X160154285Y-48257142D01*
X160106666Y-48304761D01*
X160011428Y-48352380D01*
X159725714Y-48352380D01*
X159630476Y-48304761D01*
X159582857Y-48257142D01*
X59905714Y-33284880D02*
X59905714Y-32284880D01*
X60143809Y-32284880D01*
X60286666Y-32332500D01*
X60381904Y-32427738D01*
X60429523Y-32522976D01*
X60477142Y-32713452D01*
X60477142Y-32856309D01*
X60429523Y-33046785D01*
X60381904Y-33142023D01*
X60286666Y-33237261D01*
X60143809Y-33284880D01*
X59905714Y-33284880D01*
X60858095Y-33237261D02*
X61000952Y-33284880D01*
X61239047Y-33284880D01*
X61334285Y-33237261D01*
X61381904Y-33189642D01*
X61429523Y-33094404D01*
X61429523Y-32999166D01*
X61381904Y-32903928D01*
X61334285Y-32856309D01*
X61239047Y-32808690D01*
X61048571Y-32761071D01*
X60953333Y-32713452D01*
X60905714Y-32665833D01*
X60858095Y-32570595D01*
X60858095Y-32475357D01*
X60905714Y-32380119D01*
X60953333Y-32332500D01*
X61048571Y-32284880D01*
X61286666Y-32284880D01*
X61429523Y-32332500D01*
X62381904Y-33284880D02*
X61810476Y-33284880D01*
X62096190Y-33284880D02*
X62096190Y-32284880D01*
X62000952Y-32427738D01*
X61905714Y-32522976D01*
X61810476Y-32570595D01*
X44552380Y-63395238D02*
X44076190Y-63728571D01*
X44552380Y-63966666D02*
X43552380Y-63966666D01*
X43552380Y-63585714D01*
X43600000Y-63490476D01*
X43647619Y-63442857D01*
X43742857Y-63395238D01*
X43885714Y-63395238D01*
X43980952Y-63442857D01*
X44028571Y-63490476D01*
X44076190Y-63585714D01*
X44076190Y-63966666D01*
X43552380Y-63109523D02*
X44552380Y-62776190D01*
X43552380Y-62442857D01*
X44552380Y-61585714D02*
X44552380Y-62157142D01*
X44552380Y-61871428D02*
X43552380Y-61871428D01*
X43695238Y-61966666D01*
X43790476Y-62061904D01*
X43838095Y-62157142D01*
X168157142Y-65952380D02*
X167823809Y-65476190D01*
X167585714Y-65952380D02*
X167585714Y-64952380D01*
X167966666Y-64952380D01*
X168061904Y-65000000D01*
X168109523Y-65047619D01*
X168157142Y-65142857D01*
X168157142Y-65285714D01*
X168109523Y-65380952D01*
X168061904Y-65428571D01*
X167966666Y-65476190D01*
X167585714Y-65476190D01*
X169109523Y-65952380D02*
X168538095Y-65952380D01*
X168823809Y-65952380D02*
X168823809Y-64952380D01*
X168728571Y-65095238D01*
X168633333Y-65190476D01*
X168538095Y-65238095D01*
X170061904Y-65952380D02*
X169490476Y-65952380D01*
X169776190Y-65952380D02*
X169776190Y-64952380D01*
X169680952Y-65095238D01*
X169585714Y-65190476D01*
X169490476Y-65238095D01*
X148297142Y-53652380D02*
X147963809Y-53176190D01*
X147725714Y-53652380D02*
X147725714Y-52652380D01*
X148106666Y-52652380D01*
X148201904Y-52700000D01*
X148249523Y-52747619D01*
X148297142Y-52842857D01*
X148297142Y-52985714D01*
X148249523Y-53080952D01*
X148201904Y-53128571D01*
X148106666Y-53176190D01*
X147725714Y-53176190D01*
X149249523Y-53652380D02*
X148678095Y-53652380D01*
X148963809Y-53652380D02*
X148963809Y-52652380D01*
X148868571Y-52795238D01*
X148773333Y-52890476D01*
X148678095Y-52938095D01*
X150106666Y-52985714D02*
X150106666Y-53652380D01*
X149868571Y-52604761D02*
X149630476Y-53319047D01*
X150249523Y-53319047D01*
D13*
X167540000Y-41600000D02*
X167540000Y-30100000D01*
X149340000Y-30100000D02*
X149340000Y-41700000D01*
X149340000Y-41700000D02*
X152240000Y-41700000D01*
X164640000Y-41600000D02*
X167540000Y-41600000D01*
D11*
X149565000Y-40500000D02*
G75*
G03*
X149565000Y-40500000I-125000J0D01*
G01*
D13*
X162340000Y-75000000D02*
X162340000Y-74200000D01*
X157690000Y-71800000D02*
X162340000Y-71800000D01*
X157690000Y-75000000D02*
X162340000Y-75000000D01*
X164800436Y-72665000D02*
X165254564Y-72665000D01*
X164800436Y-74135000D02*
X165254564Y-74135000D01*
X171205000Y-80511252D02*
X171205000Y-79988748D01*
X172675000Y-80511252D02*
X172675000Y-79988748D01*
X70300000Y-97310000D02*
X70300000Y-97045000D01*
X66440000Y-81690000D02*
X62580000Y-81690000D01*
X66440000Y-97310000D02*
X70300000Y-97310000D01*
X70300000Y-81690000D02*
X70300000Y-81955000D01*
X62580000Y-81955000D02*
X60765000Y-81955000D01*
X62580000Y-97310000D02*
X62580000Y-97045000D01*
X66440000Y-81690000D02*
X70300000Y-81690000D01*
X62580000Y-81690000D02*
X62580000Y-81955000D01*
X66440000Y-97310000D02*
X62580000Y-97310000D01*
X156540000Y-42150000D02*
X156540000Y-43850000D01*
X156540000Y-43850000D02*
X159690000Y-43850000D01*
X156540000Y-42150000D02*
X159690000Y-42150000D01*
G36*
X146565686Y-93163103D02*
G01*
X146776538Y-93278705D01*
X146863037Y-93386167D01*
X146930404Y-93535962D01*
X146973755Y-93734603D01*
X146988205Y-93988603D01*
X146974365Y-94233240D01*
X146932846Y-94429846D01*
X146867921Y-94583304D01*
X146783865Y-94698500D01*
X146574641Y-94832013D01*
X146340179Y-94869462D01*
X146097577Y-94869462D01*
X146097577Y-93133795D01*
X146336923Y-93133795D01*
X146565686Y-93163103D01*
G37*
G36*
X150526091Y-93148245D02*
G01*
X150660622Y-93206250D01*
X150745492Y-93309845D01*
X150773782Y-93465949D01*
X150748138Y-93628566D01*
X150671205Y-93738673D01*
X150545833Y-93801562D01*
X150374872Y-93822526D01*
X150042718Y-93822526D01*
X150042718Y-93128910D01*
X150348821Y-93128910D01*
X150526091Y-93148245D01*
G37*
G36*
X145246026Y-92572878D02*
G01*
X155633974Y-92572878D01*
X156490247Y-95427122D01*
X144389753Y-95427122D01*
X144481340Y-95121833D01*
X145775192Y-95121833D01*
X146304359Y-95121833D01*
X147864179Y-95121833D01*
X149196051Y-95121833D01*
X149720333Y-95121833D01*
X150345564Y-95121833D01*
X150503296Y-95113896D01*
X150657365Y-95090083D01*
X150802276Y-95047954D01*
X150932532Y-94985064D01*
X151042843Y-94899176D01*
X151127917Y-94788051D01*
X151182258Y-94648840D01*
X151200372Y-94478692D01*
X151190345Y-94390769D01*
X151600910Y-94390769D01*
X151623095Y-94605285D01*
X151689647Y-94792936D01*
X151798534Y-94948022D01*
X151947718Y-95064846D01*
X152134147Y-95138115D01*
X152354769Y-95162538D01*
X152574373Y-95138115D01*
X152761006Y-95064846D01*
X152911615Y-94948022D01*
X153023147Y-94792936D01*
X153092143Y-94605285D01*
X153115141Y-94390769D01*
X153115141Y-93998372D01*
X153471718Y-93998372D01*
X153486677Y-94270893D01*
X153531554Y-94507186D01*
X153606350Y-94707252D01*
X153711064Y-94871090D01*
X153889805Y-95033006D01*
X154106899Y-95130155D01*
X154362346Y-95162538D01*
X154584393Y-95148292D01*
X154775096Y-95105551D01*
X154945040Y-95041237D01*
X155104808Y-94962269D01*
X155104808Y-93884397D01*
X154334667Y-93884397D01*
X154372115Y-94141654D01*
X154787308Y-94141654D01*
X154787308Y-94797821D01*
X154593144Y-94874753D01*
X154385141Y-94900397D01*
X154212551Y-94876969D01*
X154070355Y-94806685D01*
X153958551Y-94689545D01*
X153878046Y-94519036D01*
X153829742Y-94288645D01*
X153813641Y-93998372D01*
X153823410Y-93790142D01*
X153852718Y-93612668D01*
X153901564Y-93465949D01*
X154002920Y-93297022D01*
X154131141Y-93184269D01*
X154277272Y-93120769D01*
X154432359Y-93099603D01*
X154598436Y-93120226D01*
X154751487Y-93182098D01*
X154891513Y-93285218D01*
X155080385Y-93089833D01*
X154944226Y-92981965D01*
X154799519Y-92902590D01*
X154632018Y-92853744D01*
X154427474Y-92837462D01*
X154244098Y-92855575D01*
X154068455Y-92909917D01*
X153906042Y-93000689D01*
X153762353Y-93128096D01*
X153642069Y-93291731D01*
X153549872Y-93491186D01*
X153491256Y-93726665D01*
X153471718Y-93998372D01*
X153115141Y-93998372D01*
X153115141Y-92878167D01*
X152789500Y-92878167D01*
X152789500Y-94366346D01*
X152762329Y-94597144D01*
X152680817Y-94762000D01*
X152544964Y-94860913D01*
X152354769Y-94893885D01*
X152165999Y-94860913D01*
X152031163Y-94762000D01*
X151950262Y-94597144D01*
X151923295Y-94366346D01*
X151923295Y-92878167D01*
X151600910Y-92878167D01*
X151600910Y-94390769D01*
X151190345Y-94390769D01*
X151181037Y-94309155D01*
X151123032Y-94178288D01*
X151035516Y-94080596D01*
X150927647Y-94010583D01*
X150687487Y-93933244D01*
X150889385Y-93847763D01*
X151043250Y-93686571D01*
X151102679Y-93444782D01*
X151085787Y-93293970D01*
X151035109Y-93170429D01*
X150851936Y-92996212D01*
X150729413Y-92941260D01*
X150593051Y-92905032D01*
X150447734Y-92884883D01*
X150298346Y-92878167D01*
X149720333Y-92878167D01*
X149720333Y-95121833D01*
X149196051Y-95121833D01*
X149196051Y-94869462D01*
X148188192Y-94869462D01*
X148188192Y-94109090D01*
X149012064Y-94109090D01*
X149012064Y-93853462D01*
X148188192Y-93853462D01*
X148188192Y-93132167D01*
X149134179Y-93132167D01*
X149171628Y-92878167D01*
X147864179Y-92878167D01*
X147864179Y-95121833D01*
X146304359Y-95121833D01*
X146485090Y-95110029D01*
X146665821Y-95074615D01*
X146839021Y-95008877D01*
X146997160Y-94906096D01*
X147132912Y-94759354D01*
X147238949Y-94561731D01*
X147289604Y-94398910D01*
X147319997Y-94207868D01*
X147330128Y-93988603D01*
X147320178Y-93769880D01*
X147290328Y-93580466D01*
X147240577Y-93420359D01*
X147135354Y-93227213D01*
X146998788Y-93084135D01*
X146837393Y-92984611D01*
X146657679Y-92922128D01*
X146465958Y-92889157D01*
X146268538Y-92878167D01*
X145775192Y-92878167D01*
X145775192Y-95121833D01*
X144481340Y-95121833D01*
X145246026Y-92572878D01*
G37*
G36*
X150631314Y-94110718D02*
G01*
X150799019Y-94233647D01*
X150846034Y-94340498D01*
X150861705Y-94483577D01*
X150843184Y-94623603D01*
X150787622Y-94724551D01*
X150603635Y-94834455D01*
X150384641Y-94862949D01*
X150042718Y-94862949D01*
X150042718Y-94076526D01*
X150399295Y-94076526D01*
X150631314Y-94110718D01*
G37*
X162340000Y-106600000D02*
X162340000Y-105800000D01*
X157690000Y-106600000D02*
X162340000Y-106600000D01*
X157690000Y-103400000D02*
X162340000Y-103400000D01*
X64462936Y-74265000D02*
X64917064Y-74265000D01*
X64462936Y-75735000D02*
X64917064Y-75735000D01*
X46237500Y-78977500D02*
X44537500Y-78977500D01*
X44827500Y-104947500D02*
X44827500Y-79267500D01*
X55267500Y-104947500D02*
X44827500Y-104947500D01*
X55267500Y-79267500D02*
X55267500Y-104947500D01*
X44537500Y-78977500D02*
X44537500Y-80677500D01*
X44827500Y-79267500D02*
X55267500Y-79267500D01*
X95940000Y-95250000D02*
X95940000Y-96250000D01*
X92190000Y-101500000D02*
X93190000Y-101500000D01*
X91940000Y-97500000D02*
X91940000Y-98000000D01*
X93940000Y-95250000D02*
X95940000Y-95250000D01*
X87940000Y-96250000D02*
X87940000Y-95250000D01*
D12*
X91690000Y-101250000D02*
X91690000Y-101750000D01*
X92190000Y-101500000D02*
X91690000Y-101250000D01*
D13*
X89940000Y-102750000D02*
X87940000Y-102750000D01*
D12*
X91690000Y-101750000D02*
X92190000Y-101500000D01*
D13*
X91940000Y-98000000D02*
X92440000Y-99800000D01*
X91940000Y-100000000D02*
X91940000Y-100500000D01*
X95940000Y-101750000D02*
X95940000Y-102750000D01*
D12*
X92190000Y-101250000D02*
X92190000Y-101750000D01*
D17*
X87840000Y-98750000D02*
X87840000Y-99250000D01*
D13*
X90690000Y-101500000D02*
X89940000Y-99000000D01*
X87940000Y-95250000D02*
X89940000Y-95250000D01*
X93190000Y-101500000D02*
X93940000Y-99000000D01*
X91690000Y-101500000D02*
X90690000Y-101500000D01*
X87940000Y-102750000D02*
X87940000Y-101750000D01*
X95940000Y-102750000D02*
X93940000Y-102750000D01*
X114940000Y-84250000D02*
X116940000Y-84250000D01*
X116940000Y-91750000D02*
X114940000Y-91750000D01*
X116940000Y-84250000D02*
X116940000Y-85250000D01*
X110940000Y-91750000D02*
X108940000Y-91750000D01*
D17*
X108840000Y-87750000D02*
X108840000Y-88250000D01*
D13*
X116940000Y-90750000D02*
X116940000Y-91750000D01*
D12*
X112690000Y-90250000D02*
X112690000Y-90750000D01*
D13*
X108940000Y-85250000D02*
X108940000Y-84250000D01*
X108940000Y-84250000D02*
X110940000Y-84250000D01*
D12*
X112690000Y-90750000D02*
X113190000Y-90500000D01*
D13*
X112940000Y-86500000D02*
X112940000Y-87000000D01*
D12*
X113190000Y-90250000D02*
X113190000Y-90750000D01*
D13*
X108940000Y-91750000D02*
X108940000Y-90750000D01*
X114190000Y-90500000D02*
X114940000Y-88000000D01*
D12*
X113190000Y-90500000D02*
X112690000Y-90250000D01*
D13*
X112940000Y-89000000D02*
X112940000Y-89500000D01*
X112690000Y-90500000D02*
X111690000Y-90500000D01*
X112940000Y-87000000D02*
X113440000Y-88800000D01*
X113190000Y-90500000D02*
X114190000Y-90500000D01*
X111690000Y-90500000D02*
X110940000Y-88000000D01*
G36*
X141735442Y-59572878D02*
G01*
X152144558Y-59572878D01*
X153000831Y-62427122D01*
X140879169Y-62427122D01*
X140970756Y-62121833D01*
X142264609Y-62121833D01*
X142588622Y-62121833D01*
X142588622Y-61302846D01*
X142868673Y-61302846D01*
X143108426Y-61284529D01*
X143319686Y-61229577D01*
X143495329Y-61134530D01*
X143619643Y-61004885D01*
X144008417Y-61004885D01*
X144018910Y-61227406D01*
X144050388Y-61430389D01*
X144102853Y-61613833D01*
X144220287Y-61845242D01*
X144383718Y-62018442D01*
X144592739Y-62126514D01*
X144846942Y-62162538D01*
X145101146Y-62125700D01*
X145310167Y-62015186D01*
X145473598Y-61839136D01*
X145591032Y-61605692D01*
X145643496Y-61422067D01*
X145674975Y-61220712D01*
X145685468Y-61001628D01*
X145674975Y-60778021D01*
X145643496Y-60573953D01*
X145591032Y-60389423D01*
X145473598Y-60156590D01*
X145310167Y-59982372D01*
X145109758Y-59878167D01*
X145835263Y-59878167D01*
X146138109Y-62121833D01*
X146548417Y-62121833D01*
X146794276Y-60443154D01*
X147036878Y-62121833D01*
X147437417Y-62121833D01*
X148168481Y-62121833D01*
X149500353Y-62121833D01*
X150039288Y-62121833D01*
X150363301Y-62121833D01*
X150363301Y-61175846D01*
X150641724Y-61175846D01*
X151232763Y-62121833D01*
X151615391Y-62121833D01*
X150962481Y-61133513D01*
X151169466Y-61051085D01*
X151341038Y-60921032D01*
X151456438Y-60742540D01*
X151494904Y-60514795D01*
X151470662Y-60321491D01*
X151397935Y-60162741D01*
X151276724Y-60038545D01*
X151108657Y-59949446D01*
X150895363Y-59895986D01*
X150636840Y-59878167D01*
X150039288Y-59878167D01*
X150039288Y-62121833D01*
X149500353Y-62121833D01*
X149500353Y-61869462D01*
X148492494Y-61869462D01*
X148492494Y-61109090D01*
X149316365Y-61109090D01*
X149316365Y-60853462D01*
X148492494Y-60853462D01*
X148492494Y-60132167D01*
X149438481Y-60132167D01*
X149475929Y-59878167D01*
X148168481Y-59878167D01*
X148168481Y-62121833D01*
X147437417Y-62121833D01*
X147766314Y-59878167D01*
X147471609Y-59878167D01*
X147229006Y-61788051D01*
X146986404Y-60138679D01*
X146621686Y-60138679D01*
X146366058Y-61788051D01*
X146152763Y-59878167D01*
X145835263Y-59878167D01*
X145109758Y-59878167D01*
X145101146Y-59873689D01*
X144846942Y-59837462D01*
X144592739Y-59874707D01*
X144383718Y-59986442D01*
X144220287Y-60163917D01*
X144102853Y-60398378D01*
X144050388Y-60582637D01*
X144018910Y-60784806D01*
X144008417Y-61004885D01*
X143619643Y-61004885D01*
X143628231Y-60995929D01*
X143711880Y-60810111D01*
X143739763Y-60573410D01*
X143713621Y-60357311D01*
X143635196Y-60182279D01*
X143504487Y-60048314D01*
X143328189Y-59953788D01*
X143112994Y-59897072D01*
X142858904Y-59878167D01*
X142264609Y-59878167D01*
X142264609Y-62121833D01*
X140970756Y-62121833D01*
X141735442Y-59572878D01*
G37*
G36*
X150880053Y-60148449D02*
G01*
X151031679Y-60216833D01*
X151121434Y-60336913D01*
X151151353Y-60514795D01*
X151119806Y-60707127D01*
X151025167Y-60834737D01*
X150872726Y-60906175D01*
X150667776Y-60929987D01*
X150363301Y-60929987D01*
X150363301Y-60125654D01*
X150664519Y-60125654D01*
X150880053Y-60148449D01*
G37*
G36*
X145077537Y-60156997D02*
G01*
X145232013Y-60329179D01*
X145296689Y-60505930D01*
X145335494Y-60730080D01*
X145348429Y-61001628D01*
X145335494Y-61272182D01*
X145296689Y-61495517D01*
X145232013Y-61671635D01*
X145077537Y-61843207D01*
X144846942Y-61900397D01*
X144620418Y-61843614D01*
X144465128Y-61673263D01*
X144398643Y-61498050D01*
X144358752Y-61275257D01*
X144345455Y-61004885D01*
X144358390Y-60733155D01*
X144397196Y-60508463D01*
X144461872Y-60330808D01*
X144616348Y-60157404D01*
X144846942Y-60099603D01*
X145077537Y-60156997D01*
G37*
G36*
X143092755Y-60152519D02*
G01*
X143255372Y-60228231D01*
X143362223Y-60365814D01*
X143397840Y-60576667D01*
X143381354Y-60739080D01*
X143331897Y-60861603D01*
X143150353Y-61006513D01*
X143026202Y-61038263D01*
X142884955Y-61048846D01*
X142588622Y-61048846D01*
X142588622Y-60127282D01*
X142889840Y-60127282D01*
X143092755Y-60152519D01*
G37*
X100940000Y-81750000D02*
X98940000Y-81750000D01*
X104190000Y-80500000D02*
X104940000Y-78000000D01*
X103190000Y-80500000D02*
X104190000Y-80500000D01*
D12*
X102690000Y-80250000D02*
X102690000Y-80750000D01*
D13*
X106940000Y-74250000D02*
X106940000Y-75250000D01*
X98940000Y-74250000D02*
X100940000Y-74250000D01*
X98940000Y-75250000D02*
X98940000Y-74250000D01*
D17*
X98840000Y-77750000D02*
X98840000Y-78250000D01*
D13*
X106940000Y-80750000D02*
X106940000Y-81750000D01*
X104940000Y-74250000D02*
X106940000Y-74250000D01*
D12*
X103190000Y-80500000D02*
X102690000Y-80250000D01*
D13*
X98940000Y-81750000D02*
X98940000Y-80750000D01*
X102940000Y-76500000D02*
X102940000Y-77000000D01*
X102940000Y-77000000D02*
X103440000Y-78800000D01*
X101690000Y-80500000D02*
X100940000Y-78000000D01*
D12*
X103190000Y-80250000D02*
X103190000Y-80750000D01*
D13*
X106940000Y-81750000D02*
X104940000Y-81750000D01*
D12*
X102690000Y-80750000D02*
X103190000Y-80500000D01*
D13*
X102690000Y-80500000D02*
X101690000Y-80500000D01*
X102940000Y-79000000D02*
X102940000Y-79500000D01*
X152930000Y-50105000D02*
X154580000Y-50105000D01*
X154580000Y-50105000D02*
X154580000Y-44905000D01*
X154580000Y-44905000D02*
X149280000Y-44905000D01*
X149280000Y-50105000D02*
X150930000Y-50105000D01*
X149280000Y-44905000D02*
X149280000Y-50105000D01*
X152930000Y-50105000D02*
G75*
G03*
X150930000Y-50105000I-1000000J0D01*
G01*
X164712936Y-97765000D02*
X165167064Y-97765000D01*
X164712936Y-99235000D02*
X165167064Y-99235000D01*
X157690000Y-79700000D02*
X162340000Y-79700000D01*
X162340000Y-82900000D02*
X162340000Y-82100000D01*
X157690000Y-82900000D02*
X162340000Y-82900000D01*
X62320000Y-79580000D02*
X62320000Y-78250000D01*
X63650000Y-79580000D02*
X62320000Y-79580000D01*
X70060000Y-79580000D02*
X70060000Y-76920000D01*
X64920000Y-76920000D02*
X70060000Y-76920000D01*
X64920000Y-79580000D02*
X64920000Y-76920000D01*
X64920000Y-79580000D02*
X70060000Y-79580000D01*
X164712936Y-88465000D02*
X165167064Y-88465000D01*
X164712936Y-89935000D02*
X165167064Y-89935000D01*
X173705000Y-80477064D02*
X173705000Y-80022936D01*
X175175000Y-80477064D02*
X175175000Y-80022936D01*
D12*
X102690000Y-100250000D02*
X102690000Y-100750000D01*
D17*
X98840000Y-97750000D02*
X98840000Y-98250000D01*
D13*
X102690000Y-100500000D02*
X101690000Y-100500000D01*
X104940000Y-94250000D02*
X106940000Y-94250000D01*
D12*
X103190000Y-100250000D02*
X103190000Y-100750000D01*
D13*
X102940000Y-97000000D02*
X103440000Y-98800000D01*
X106940000Y-94250000D02*
X106940000Y-95250000D01*
X98940000Y-95250000D02*
X98940000Y-94250000D01*
X101690000Y-100500000D02*
X100940000Y-98000000D01*
X102940000Y-96500000D02*
X102940000Y-97000000D01*
X100940000Y-101750000D02*
X98940000Y-101750000D01*
D12*
X102690000Y-100750000D02*
X103190000Y-100500000D01*
D13*
X104190000Y-100500000D02*
X104940000Y-98000000D01*
X106940000Y-100750000D02*
X106940000Y-101750000D01*
X103190000Y-100500000D02*
X104190000Y-100500000D01*
X98940000Y-101750000D02*
X98940000Y-100750000D01*
D12*
X103190000Y-100500000D02*
X102690000Y-100250000D01*
D13*
X106940000Y-101750000D02*
X104940000Y-101750000D01*
X98940000Y-94250000D02*
X100940000Y-94250000D01*
X102940000Y-99000000D02*
X102940000Y-99500000D01*
X164712936Y-82035000D02*
X165167064Y-82035000D01*
X164712936Y-80565000D02*
X165167064Y-80565000D01*
X157690000Y-63900000D02*
X162340000Y-63900000D01*
X157690000Y-67100000D02*
X162340000Y-67100000D01*
X162340000Y-67100000D02*
X162340000Y-66300000D01*
X162170000Y-53730000D02*
X162170000Y-46050000D01*
X164830000Y-53730000D02*
X162170000Y-53730000D01*
X164830000Y-56330000D02*
X163500000Y-56330000D01*
X164830000Y-55000000D02*
X164830000Y-56330000D01*
X164830000Y-46050000D02*
X162170000Y-46050000D01*
X164830000Y-53730000D02*
X164830000Y-46050000D01*
X157690000Y-90800000D02*
X162340000Y-90800000D01*
X162340000Y-90800000D02*
X162340000Y-90000000D01*
X157690000Y-87600000D02*
X162340000Y-87600000D01*
X172140000Y-76500000D02*
X172140000Y-71500000D01*
X175740000Y-71500000D02*
X175740000Y-76500000D01*
X172940000Y-77300000D02*
X174940000Y-77300000D01*
X172940000Y-70700000D02*
X174940000Y-70700000D01*
X67530000Y-73800000D02*
X67530000Y-75200000D01*
X69850000Y-75200000D02*
X69850000Y-73300000D01*
X96940000Y-84250000D02*
X96940000Y-85250000D01*
X88940000Y-91750000D02*
X88940000Y-90750000D01*
X93190000Y-90500000D02*
X94190000Y-90500000D01*
X92940000Y-87000000D02*
X93440000Y-88800000D01*
X92940000Y-89000000D02*
X92940000Y-89500000D01*
X90940000Y-91750000D02*
X88940000Y-91750000D01*
X91690000Y-90500000D02*
X90940000Y-88000000D01*
D12*
X93190000Y-90500000D02*
X92690000Y-90250000D01*
D17*
X88840000Y-87750000D02*
X88840000Y-88250000D01*
D13*
X88940000Y-85250000D02*
X88940000Y-84250000D01*
X94940000Y-84250000D02*
X96940000Y-84250000D01*
D12*
X92690000Y-90750000D02*
X93190000Y-90500000D01*
D13*
X92940000Y-86500000D02*
X92940000Y-87000000D01*
D12*
X93190000Y-90250000D02*
X93190000Y-90750000D01*
D13*
X88940000Y-84250000D02*
X90940000Y-84250000D01*
D12*
X92690000Y-90250000D02*
X92690000Y-90750000D01*
D13*
X96940000Y-90750000D02*
X96940000Y-91750000D01*
X96940000Y-91750000D02*
X94940000Y-91750000D01*
X94190000Y-90500000D02*
X94940000Y-88000000D01*
X92690000Y-90500000D02*
X91690000Y-90500000D01*
X41000000Y-81500000D02*
X41000000Y-82500000D01*
X40000000Y-72000000D02*
X41000000Y-72000000D01*
X41000000Y-82500000D02*
X40000000Y-82500000D01*
X30500000Y-82500000D02*
X29500000Y-82500000D01*
X29500000Y-73000000D02*
X29500000Y-72000000D01*
X41000000Y-72000000D02*
X41000000Y-73000000D01*
X29500000Y-72000000D02*
X30500000Y-72000000D01*
X29500000Y-82500000D02*
X29500000Y-81500000D01*
X38250000Y-77250000D02*
G75*
G03*
X38250000Y-77250000I-3000000J0D01*
G01*
X164712936Y-105735000D02*
X165167064Y-105735000D01*
X164712936Y-104265000D02*
X165167064Y-104265000D01*
D12*
X103190000Y-90250000D02*
X103190000Y-90750000D01*
D13*
X104190000Y-90500000D02*
X104940000Y-88000000D01*
X104940000Y-84250000D02*
X106940000Y-84250000D01*
X98940000Y-91750000D02*
X98940000Y-90750000D01*
X101690000Y-90500000D02*
X100940000Y-88000000D01*
X106940000Y-91750000D02*
X104940000Y-91750000D01*
X98940000Y-85250000D02*
X98940000Y-84250000D01*
D12*
X102690000Y-90250000D02*
X102690000Y-90750000D01*
D13*
X102940000Y-89000000D02*
X102940000Y-89500000D01*
X106940000Y-90750000D02*
X106940000Y-91750000D01*
D12*
X102690000Y-90750000D02*
X103190000Y-90500000D01*
D17*
X98840000Y-87750000D02*
X98840000Y-88250000D01*
D13*
X98940000Y-84250000D02*
X100940000Y-84250000D01*
X102940000Y-86500000D02*
X102940000Y-87000000D01*
X106940000Y-84250000D02*
X106940000Y-85250000D01*
X100940000Y-91750000D02*
X98940000Y-91750000D01*
X102940000Y-87000000D02*
X103440000Y-88800000D01*
X102690000Y-90500000D02*
X101690000Y-90500000D01*
X103190000Y-90500000D02*
X104190000Y-90500000D01*
D12*
X103190000Y-90500000D02*
X102690000Y-90250000D01*
D13*
X159167064Y-46985000D02*
X158712936Y-46985000D01*
X159167064Y-45515000D02*
X158712936Y-45515000D01*
X66640280Y-59141820D02*
X66640280Y-45142500D01*
X61940000Y-64642500D02*
X61940000Y-39642500D01*
X58800000Y-70282500D02*
X139080000Y-70282500D01*
X58800000Y-34002500D02*
X58800000Y-70282500D01*
X65440000Y-33642500D02*
X68440000Y-33642500D01*
X131140000Y-45142500D02*
X131140000Y-59142500D01*
X139080000Y-70282500D02*
X139080000Y-34002500D01*
X58810000Y-34002500D02*
X59600000Y-34002500D01*
X130640660Y-59642500D02*
X67140000Y-59642500D01*
X139080000Y-34002500D02*
X59600000Y-34002500D01*
X61940000Y-39642500D02*
X134940000Y-39642500D01*
X134940000Y-39642500D02*
X134940000Y-64642500D01*
X134940000Y-64642500D02*
X61940000Y-64642500D01*
X67140000Y-44642500D02*
X130640000Y-44642500D01*
X66640280Y-59141820D02*
G75*
G03*
X67140660Y-59642200I500380J0D01*
G01*
X131140000Y-45142500D02*
G75*
G03*
X130640000Y-44642500I-500001J-1D01*
G01*
X130640660Y-59642200D02*
G75*
G03*
X131141040Y-59141820I0J500380D01*
G01*
X67140660Y-44640960D02*
G75*
G03*
X66640280Y-45141340I0J-500380D01*
G01*
X157690000Y-96900000D02*
X162340000Y-96900000D01*
X162340000Y-100100000D02*
X162340000Y-99300000D01*
X157690000Y-100100000D02*
X162340000Y-100100000D01*
X41000000Y-68000000D02*
X40000000Y-68000000D01*
X29500000Y-57500000D02*
X30500000Y-57500000D01*
X41000000Y-67000000D02*
X41000000Y-68000000D01*
X40000000Y-57500000D02*
X41000000Y-57500000D01*
X29500000Y-58500000D02*
X29500000Y-57500000D01*
X29500000Y-68000000D02*
X29500000Y-67000000D01*
X41000000Y-57500000D02*
X41000000Y-58500000D01*
X30500000Y-68000000D02*
X29500000Y-68000000D01*
X38250000Y-62750000D02*
G75*
G03*
X38250000Y-62750000I-3000000J0D01*
G01*
X164712936Y-66235000D02*
X165167064Y-66235000D01*
X164712936Y-64765000D02*
X165167064Y-64765000D01*
X148712936Y-52235000D02*
X149167064Y-52235000D01*
X148712936Y-50765000D02*
X149167064Y-50765000D01*
%LPC*%
D18*
X150940000Y-40500000D03*
X158440000Y-40500000D03*
X165940000Y-40500000D03*
X153440000Y-43000000D03*
X163440000Y-43000000D03*
X155940000Y-31000000D03*
X160940000Y-31000000D03*
D19*
X161440000Y-73400000D03*
X158440000Y-73400000D03*
D20*
X164115000Y-73400000D03*
X165940000Y-73400000D03*
D21*
X171940000Y-81200000D03*
X171940000Y-79300000D03*
D22*
X33940000Y-90000000D03*
X33940000Y-50000000D03*
D23*
X61790000Y-82515000D03*
X61790000Y-83785000D03*
X61790000Y-85055000D03*
X61790000Y-86325000D03*
X61790000Y-87595000D03*
X61790000Y-88865000D03*
X61790000Y-90135000D03*
X61790000Y-91405000D03*
X61790000Y-92675000D03*
X61790000Y-93945000D03*
X61790000Y-95215000D03*
X61790000Y-96485000D03*
X71090000Y-96485000D03*
X71090000Y-95215000D03*
X71090000Y-93945000D03*
X71090000Y-92675000D03*
X71090000Y-91405000D03*
X71090000Y-90135000D03*
X71090000Y-88865000D03*
X71090000Y-87595000D03*
X71090000Y-86325000D03*
X71090000Y-85055000D03*
X71090000Y-83785000D03*
X71090000Y-82515000D03*
D24*
X157190000Y-43000000D03*
X159690000Y-43000000D03*
D19*
X161440000Y-105000000D03*
X158440000Y-105000000D03*
D20*
X63777500Y-75000000D03*
X65602500Y-75000000D03*
D25*
X46237500Y-80677500D03*
D26*
X46237500Y-83217500D03*
X46237500Y-85757500D03*
X46237500Y-88297500D03*
X46237500Y-90837500D03*
X46237500Y-93377500D03*
X46237500Y-95917500D03*
X46237500Y-98457500D03*
X46237500Y-100997500D03*
X46237500Y-103537500D03*
X53857500Y-103537500D03*
X53857500Y-100997500D03*
X53857500Y-98457500D03*
X53857500Y-95917500D03*
X53857500Y-93377500D03*
X53857500Y-90837500D03*
X53857500Y-88297500D03*
X53857500Y-85757500D03*
X53857500Y-83217500D03*
X53857500Y-80677500D03*
D27*
X89440000Y-96500000D03*
X94440000Y-96500000D03*
X89440000Y-101500000D03*
X94440000Y-101500000D03*
X89040000Y-99000000D03*
X94840000Y-99000000D03*
X110440000Y-85500000D03*
X115440000Y-85500000D03*
X110440000Y-90500000D03*
X115440000Y-90500000D03*
X110040000Y-88000000D03*
X115840000Y-88000000D03*
X100440000Y-75500000D03*
X105440000Y-75500000D03*
X100440000Y-80500000D03*
X105440000Y-80500000D03*
X100040000Y-78000000D03*
X105840000Y-78000000D03*
D28*
X155740000Y-48775000D03*
D29*
X155740000Y-46235000D03*
X148120000Y-46235000D03*
X148120000Y-48775000D03*
D20*
X164027500Y-98500000D03*
X165852500Y-98500000D03*
D19*
X161440000Y-81300000D03*
X158440000Y-81300000D03*
D30*
X63650000Y-78250000D03*
D31*
X66190000Y-78250000D03*
X68730000Y-78250000D03*
D20*
X164027500Y-89200000D03*
X165852500Y-89200000D03*
D22*
X173940000Y-90000000D03*
D32*
X174440000Y-81162500D03*
X174440000Y-79337500D03*
D27*
X100440000Y-95500000D03*
X105440000Y-95500000D03*
X100440000Y-100500000D03*
X105440000Y-100500000D03*
X100040000Y-98000000D03*
X105840000Y-98000000D03*
D20*
X164027500Y-81300000D03*
X165852500Y-81300000D03*
D22*
X173940000Y-50000000D03*
D19*
X161440000Y-65500000D03*
X158440000Y-65500000D03*
D30*
X163500000Y-55000000D03*
D31*
X163500000Y-52460000D03*
X163500000Y-49920000D03*
X163500000Y-47380000D03*
D19*
X161440000Y-89200000D03*
X158440000Y-89200000D03*
D33*
X172865000Y-76250000D03*
X172865000Y-71750000D03*
X175015000Y-76250000D03*
X175015000Y-71750000D03*
D34*
X69340000Y-73400000D03*
X68690000Y-73400000D03*
X68040000Y-73400000D03*
X68040000Y-75600000D03*
X68690000Y-75600000D03*
X69340000Y-75600000D03*
D27*
X90440000Y-85500000D03*
X95440000Y-85500000D03*
X90440000Y-90500000D03*
X95440000Y-90500000D03*
X90040000Y-88000000D03*
X95840000Y-88000000D03*
D35*
X35250000Y-82550000D03*
X35250000Y-71950000D03*
D36*
X42250000Y-79750000D03*
X42250000Y-77250000D03*
X42250000Y-74750000D03*
D20*
X164027500Y-105000000D03*
X165852500Y-105000000D03*
D27*
X100440000Y-85500000D03*
X105440000Y-85500000D03*
X100440000Y-90500000D03*
X105440000Y-90500000D03*
X100040000Y-88000000D03*
X105840000Y-88000000D03*
D37*
X159852500Y-46250000D03*
X158027500Y-46250000D03*
D38*
X61440900Y-36642500D03*
X136440000Y-36642500D03*
X136439480Y-67643200D03*
X61440900Y-67643200D03*
D39*
X66940000Y-36642500D03*
D40*
X69480000Y-36642500D03*
X72020000Y-36642500D03*
X74560000Y-36642500D03*
X77100000Y-36642500D03*
X79640000Y-36642500D03*
X82180000Y-36642500D03*
X84720000Y-36642500D03*
X87260000Y-36642500D03*
X89800000Y-36642500D03*
X92340000Y-36642500D03*
X94880000Y-36642500D03*
X97420000Y-36642500D03*
X99960000Y-36642500D03*
X102500000Y-36642500D03*
X105040000Y-36642500D03*
D19*
X161440000Y-98500000D03*
X158440000Y-98500000D03*
D35*
X35250000Y-68050000D03*
X35250000Y-57450000D03*
D36*
X42250000Y-65250000D03*
X42250000Y-62750000D03*
X42250000Y-60250000D03*
D20*
X164027500Y-65500000D03*
X165852500Y-65500000D03*
X148027500Y-51500000D03*
X149852500Y-51500000D03*
D30*
X67640000Y-109000000D03*
D31*
X67640000Y-106460000D03*
X70180000Y-109000000D03*
X70180000Y-106460000D03*
X72720000Y-109000000D03*
X72720000Y-106460000D03*
X75260000Y-109000000D03*
X75260000Y-106460000D03*
X77800000Y-109000000D03*
X77800000Y-106460000D03*
X80340000Y-109000000D03*
X80340000Y-106460000D03*
X82880000Y-109000000D03*
X82880000Y-106460000D03*
X85420000Y-109000000D03*
X85420000Y-106460000D03*
X87960000Y-109000000D03*
X87960000Y-106460000D03*
X90500000Y-109000000D03*
X90500000Y-106460000D03*
X93040000Y-109000000D03*
X93040000Y-106460000D03*
X95580000Y-109000000D03*
X95580000Y-106460000D03*
X98120000Y-109000000D03*
X98120000Y-106460000D03*
X100660000Y-109000000D03*
X100660000Y-106460000D03*
X103200000Y-109000000D03*
X103200000Y-106460000D03*
X105740000Y-109000000D03*
X105740000Y-106460000D03*
X108280000Y-109000000D03*
X108280000Y-106460000D03*
M02*
