%FSLAX45Y45*%
G04 Gerber Fmt 4.5, Leading zero omitted, Abs format (unit mm)*
G04 Created by KiCad (PCBNEW (6.0.2)) date 2022-08-07 22:21:47*
%MOMM*%
%LPD*%
G01*
G04 APERTURE LIST*
%TA.AperFunction,Profile*%
%ADD10C,0.100000*%
%TD*%
%ADD11C,0.200000*%
%ADD12C,0.040000*%
%ADD13C,0.080000*%
%ADD14C,0.091440*%
%ADD15C,0.100000*%
%ADD16C,0.110000*%
%ADD17C,0.120000*%
%ADD18C,0.140000*%
%ADD19C,0.180000*%
%ADD20C,0.250000*%
G04 APERTURE END LIST*
D10*
X2844000Y-10100000D02*
X2844000Y-3900000D01*
X16894000Y-11150000D02*
X3894000Y-11150000D01*
X3744000Y-11000000D02*
X3744000Y-10750000D01*
X3894000Y-2850000D02*
G75*
G03*
X3744000Y-3000000I0J-150000D01*
G01*
X17044000Y-10750000D02*
X17044000Y-11000000D01*
X17044000Y-3250000D02*
G75*
G03*
X17544000Y-3750000I500000J0D01*
G01*
X17544000Y-10250000D02*
G75*
G03*
X17044000Y-10750000I0J-500000D01*
G01*
X3744000Y-3000000D02*
X3744000Y-3250000D01*
X3244000Y-3750000D02*
G75*
G03*
X3744000Y-3250000I0J500000D01*
G01*
X2994000Y-3750000D02*
G75*
G03*
X2844000Y-3900000I0J-150000D01*
G01*
X17044000Y-3000000D02*
G75*
G03*
X16894000Y-2850000I-150000J0D01*
G01*
X3894000Y-2850000D02*
X16894000Y-2850000D01*
X17794000Y-10250000D02*
G75*
G03*
X17944000Y-10100000I0J150000D01*
G01*
X17544000Y-3750000D02*
X17794000Y-3750000D01*
X17794000Y-10250000D02*
X17544000Y-10250000D01*
X3744000Y-10750000D02*
G75*
G03*
X3244000Y-10250000I-500000J0D01*
G01*
X2844000Y-10100000D02*
G75*
G03*
X2994000Y-10250000I150000J0D01*
G01*
X17944000Y-3900000D02*
X17944000Y-10100000D01*
X3744000Y-11000000D02*
G75*
G03*
X3894000Y-11150000I150000J0D01*
G01*
X17944000Y-3900000D02*
G75*
G03*
X17794000Y-3750000I-150000J0D01*
G01*
X2994000Y-3750000D02*
X3244000Y-3750000D01*
X16894000Y-11150000D02*
G75*
G03*
X17044000Y-11000000I0J150000D01*
G01*
X2994000Y-10250000D02*
X3244000Y-10250000D01*
X17044000Y-3000000D02*
X17044000Y-3250000D01*
D11*
D12*
X4030000Y-6005000D02*
X4070000Y-6045000D01*
X4070000Y-6005000D02*
X4030000Y-6045000D01*
X4205000Y-6930000D02*
X4245000Y-6970000D01*
X4245000Y-6930000D02*
X4205000Y-6970000D01*
X4380000Y-6005000D02*
X4420000Y-6045000D01*
X4420000Y-6005000D02*
X4380000Y-6045000D01*
X4470000Y-7820000D02*
X4510000Y-7860000D01*
X4510000Y-7820000D02*
X4470000Y-7860000D01*
X5070000Y-10880000D02*
X5110000Y-10920000D01*
X5110000Y-10880000D02*
X5070000Y-10920000D01*
X5099000Y-7780000D02*
X5139000Y-7820000D01*
X5139000Y-7780000D02*
X5099000Y-7820000D01*
X5260000Y-10710000D02*
X5300000Y-10750000D01*
X5300000Y-10710000D02*
X5260000Y-10750000D01*
X5599000Y-7580000D02*
X5639000Y-7620000D01*
X5639000Y-7580000D02*
X5599000Y-7620000D01*
X5649000Y-9955000D02*
X5689000Y-9995000D01*
X5689000Y-9955000D02*
X5649000Y-9995000D01*
X5749000Y-7955000D02*
X5789000Y-7995000D01*
X5789000Y-7955000D02*
X5749000Y-7995000D01*
X5924000Y-8155000D02*
X5964000Y-8195000D01*
X5964000Y-8155000D02*
X5924000Y-8195000D01*
X6074000Y-7580000D02*
X6114000Y-7620000D01*
X6114000Y-7580000D02*
X6074000Y-7620000D01*
X6124000Y-9780000D02*
X6164000Y-9820000D01*
X6164000Y-9780000D02*
X6124000Y-9820000D01*
X6350500Y-8231500D02*
X6390500Y-8271500D01*
X6390500Y-8231500D02*
X6350500Y-8271500D01*
X6370000Y-9950000D02*
X6410000Y-9990000D01*
X6410000Y-9950000D02*
X6370000Y-9990000D01*
X6390000Y-8330000D02*
X6430000Y-8370000D01*
X6430000Y-8330000D02*
X6390000Y-8370000D01*
X6490000Y-3640000D02*
X6530000Y-3680000D01*
X6530000Y-3640000D02*
X6490000Y-3680000D01*
X6520000Y-10750000D02*
X6560000Y-10790000D01*
X6560000Y-10750000D02*
X6520000Y-10790000D01*
X6599000Y-7305000D02*
X6639000Y-7345000D01*
X6639000Y-7305000D02*
X6599000Y-7345000D01*
X6640000Y-6860000D02*
X6680000Y-6900000D01*
X6680000Y-6860000D02*
X6640000Y-6900000D01*
X6670000Y-3870000D02*
X6710000Y-3910000D01*
X6710000Y-3870000D02*
X6670000Y-3910000D01*
X6674000Y-3405000D02*
X6714000Y-3445000D01*
X6714000Y-3405000D02*
X6674000Y-3445000D01*
X6740000Y-10400000D02*
X6780000Y-10440000D01*
X6780000Y-10400000D02*
X6740000Y-10440000D01*
X6810000Y-6610000D02*
X6850000Y-6650000D01*
X6850000Y-6610000D02*
X6810000Y-6650000D01*
X6849000Y-8130000D02*
X6889000Y-8170000D01*
X6889000Y-8130000D02*
X6849000Y-8170000D01*
X6870000Y-9630000D02*
X6910000Y-9670000D01*
X6910000Y-9630000D02*
X6870000Y-9670000D01*
X6890000Y-11040000D02*
X6930000Y-11080000D01*
X6930000Y-11040000D02*
X6890000Y-11080000D01*
X6899000Y-7180000D02*
X6939000Y-7220000D01*
X6939000Y-7180000D02*
X6899000Y-7220000D01*
X6910000Y-9500000D02*
X6950000Y-9540000D01*
X6950000Y-9500000D02*
X6910000Y-9540000D01*
X6924000Y-6255000D02*
X6964000Y-6295000D01*
X6964000Y-6255000D02*
X6924000Y-6295000D01*
X7089000Y-7371000D02*
X7129000Y-7411000D01*
X7129000Y-7371000D02*
X7089000Y-7411000D01*
X7130000Y-11040000D02*
X7170000Y-11080000D01*
X7170000Y-11040000D02*
X7130000Y-11080000D01*
X7249000Y-6580000D02*
X7289000Y-6620000D01*
X7289000Y-6580000D02*
X7249000Y-6620000D01*
X7249000Y-7155000D02*
X7289000Y-7195000D01*
X7289000Y-7155000D02*
X7249000Y-7195000D01*
X7249000Y-7805000D02*
X7289000Y-7845000D01*
X7289000Y-7805000D02*
X7249000Y-7845000D01*
X7290000Y-8630000D02*
X7330000Y-8670000D01*
X7330000Y-8630000D02*
X7290000Y-8670000D01*
X7290000Y-9770000D02*
X7330000Y-9810000D01*
X7330000Y-9770000D02*
X7290000Y-9810000D01*
X7380000Y-11040000D02*
X7420000Y-11080000D01*
X7420000Y-11040000D02*
X7380000Y-11080000D01*
X7570000Y-6750000D02*
X7610000Y-6790000D01*
X7610000Y-6750000D02*
X7570000Y-6790000D01*
X7570000Y-7060000D02*
X7610000Y-7100000D01*
X7610000Y-7060000D02*
X7570000Y-7100000D01*
X7570000Y-7440000D02*
X7610000Y-7480000D01*
X7610000Y-7440000D02*
X7570000Y-7480000D01*
X7630000Y-11040000D02*
X7670000Y-11080000D01*
X7670000Y-11040000D02*
X7630000Y-11080000D01*
X7650000Y-10150000D02*
X7690000Y-10190000D01*
X7690000Y-10150000D02*
X7650000Y-10190000D01*
X7680000Y-6600000D02*
X7720000Y-6640000D01*
X7720000Y-6600000D02*
X7680000Y-6640000D01*
X7790000Y-10270000D02*
X7830000Y-10310000D01*
X7830000Y-10270000D02*
X7790000Y-10310000D01*
X7800000Y-7060000D02*
X7840000Y-7100000D01*
X7840000Y-7060000D02*
X7800000Y-7100000D01*
X7800000Y-8630000D02*
X7840000Y-8670000D01*
X7840000Y-8630000D02*
X7800000Y-8670000D01*
X7800000Y-9720000D02*
X7840000Y-9760000D01*
X7840000Y-9720000D02*
X7800000Y-9760000D01*
X7890000Y-11040000D02*
X7930000Y-11080000D01*
X7930000Y-11040000D02*
X7890000Y-11080000D01*
X8140000Y-11040000D02*
X8180000Y-11080000D01*
X8180000Y-11040000D02*
X8140000Y-11080000D01*
X8400000Y-11040000D02*
X8440000Y-11080000D01*
X8440000Y-11040000D02*
X8400000Y-11080000D01*
X8460000Y-7380000D02*
X8500000Y-7420000D01*
X8500000Y-7380000D02*
X8460000Y-7420000D01*
X8460000Y-9380000D02*
X8500000Y-9420000D01*
X8500000Y-9380000D02*
X8460000Y-9420000D01*
X8470000Y-7060000D02*
X8510000Y-7100000D01*
X8510000Y-7060000D02*
X8470000Y-7100000D01*
X8480000Y-6730000D02*
X8520000Y-6770000D01*
X8520000Y-6730000D02*
X8480000Y-6770000D01*
X8480000Y-10170000D02*
X8520000Y-10210000D01*
X8520000Y-10170000D02*
X8480000Y-10210000D01*
X8580000Y-6600000D02*
X8620000Y-6640000D01*
X8620000Y-6600000D02*
X8580000Y-6640000D01*
X8624000Y-6855000D02*
X8664000Y-6895000D01*
X8664000Y-6855000D02*
X8624000Y-6895000D01*
X8649000Y-8105000D02*
X8689000Y-8145000D01*
X8689000Y-8105000D02*
X8649000Y-8145000D01*
X8649000Y-8780000D02*
X8689000Y-8820000D01*
X8689000Y-8780000D02*
X8649000Y-8820000D01*
X8650000Y-11040000D02*
X8690000Y-11080000D01*
X8690000Y-11040000D02*
X8650000Y-11080000D01*
X8660000Y-9380000D02*
X8700000Y-9420000D01*
X8700000Y-9380000D02*
X8660000Y-9420000D01*
X8670000Y-7780000D02*
X8710000Y-7820000D01*
X8710000Y-7780000D02*
X8670000Y-7820000D01*
X8730000Y-10190000D02*
X8770000Y-10230000D01*
X8770000Y-10190000D02*
X8730000Y-10230000D01*
X8749000Y-6255000D02*
X8789000Y-6295000D01*
X8789000Y-6255000D02*
X8749000Y-6295000D01*
X8760000Y-6740000D02*
X8800000Y-6780000D01*
X8800000Y-6740000D02*
X8760000Y-6780000D01*
X8760000Y-7060000D02*
X8800000Y-7100000D01*
X8800000Y-7060000D02*
X8760000Y-7100000D01*
X8890000Y-7880000D02*
X8930000Y-7920000D01*
X8930000Y-7880000D02*
X8890000Y-7920000D01*
X8899000Y-6855000D02*
X8939000Y-6895000D01*
X8939000Y-6855000D02*
X8899000Y-6895000D01*
X8900000Y-11040000D02*
X8940000Y-11080000D01*
X8940000Y-11040000D02*
X8900000Y-11080000D01*
X9049000Y-7555000D02*
X9089000Y-7595000D01*
X9089000Y-7555000D02*
X9049000Y-7595000D01*
X9160000Y-11040000D02*
X9200000Y-11080000D01*
X9200000Y-11040000D02*
X9160000Y-11080000D01*
X9180000Y-10180000D02*
X9220000Y-10220000D01*
X9220000Y-10180000D02*
X9180000Y-10220000D01*
X9250000Y-9340000D02*
X9290000Y-9380000D01*
X9290000Y-9340000D02*
X9250000Y-9380000D01*
X9274000Y-8530000D02*
X9314000Y-8570000D01*
X9314000Y-8530000D02*
X9274000Y-8570000D01*
X9410000Y-11040000D02*
X9450000Y-11080000D01*
X9450000Y-11040000D02*
X9410000Y-11080000D01*
X9640000Y-10300000D02*
X9680000Y-10340000D01*
X9680000Y-10300000D02*
X9640000Y-10340000D01*
X9650000Y-9770000D02*
X9690000Y-9810000D01*
X9690000Y-9770000D02*
X9650000Y-9810000D01*
X9670000Y-11040000D02*
X9710000Y-11080000D01*
X9710000Y-11040000D02*
X9670000Y-11080000D01*
X9674000Y-8105000D02*
X9714000Y-8145000D01*
X9714000Y-8105000D02*
X9674000Y-8145000D01*
X9690000Y-10200000D02*
X9730000Y-10240000D01*
X9730000Y-10200000D02*
X9690000Y-10240000D01*
X9720000Y-10090000D02*
X9760000Y-10130000D01*
X9760000Y-10090000D02*
X9720000Y-10130000D01*
X9780000Y-9770000D02*
X9820000Y-9810000D01*
X9820000Y-9770000D02*
X9780000Y-9810000D01*
X9910000Y-9340000D02*
X9950000Y-9380000D01*
X9950000Y-9340000D02*
X9910000Y-9380000D01*
X9920000Y-11040000D02*
X9960000Y-11080000D01*
X9960000Y-11040000D02*
X9920000Y-11080000D01*
X10124000Y-6155000D02*
X10164000Y-6195000D01*
X10164000Y-6155000D02*
X10124000Y-6195000D01*
X10180000Y-10130000D02*
X10220000Y-10170000D01*
X10220000Y-10130000D02*
X10180000Y-10170000D01*
X10200000Y-8910000D02*
X10240000Y-8950000D01*
X10240000Y-8910000D02*
X10200000Y-8950000D01*
X10250000Y-6730000D02*
X10290000Y-6770000D01*
X10290000Y-6730000D02*
X10250000Y-6770000D01*
X10250000Y-7050000D02*
X10290000Y-7090000D01*
X10290000Y-7050000D02*
X10250000Y-7090000D01*
X10280000Y-10130000D02*
X10320000Y-10170000D01*
X10320000Y-10130000D02*
X10280000Y-10170000D01*
X10380000Y-10130000D02*
X10420000Y-10170000D01*
X10420000Y-10130000D02*
X10380000Y-10170000D01*
X10524000Y-9230000D02*
X10564000Y-9270000D01*
X10564000Y-9230000D02*
X10524000Y-9270000D01*
X10660000Y-10360000D02*
X10700000Y-10400000D01*
X10700000Y-10360000D02*
X10660000Y-10400000D01*
X10670000Y-9640000D02*
X10710000Y-9680000D01*
X10710000Y-9640000D02*
X10670000Y-9680000D01*
X10680000Y-10480000D02*
X10720000Y-10520000D01*
X10720000Y-10480000D02*
X10680000Y-10520000D01*
X10740000Y-10260000D02*
X10780000Y-10300000D01*
X10780000Y-10260000D02*
X10740000Y-10300000D01*
X10774000Y-8430000D02*
X10814000Y-8470000D01*
X10814000Y-8430000D02*
X10774000Y-8470000D01*
X10774000Y-9990000D02*
X10814000Y-10030000D01*
X10814000Y-9990000D02*
X10774000Y-10030000D01*
X10824000Y-8130000D02*
X10864000Y-8170000D01*
X10864000Y-8130000D02*
X10824000Y-8170000D01*
X10860000Y-10210000D02*
X10900000Y-10250000D01*
X10900000Y-10210000D02*
X10860000Y-10250000D01*
X10880000Y-9860000D02*
X10920000Y-9900000D01*
X10920000Y-9860000D02*
X10880000Y-9900000D01*
X10890000Y-9210000D02*
X10930000Y-9250000D01*
X10930000Y-9210000D02*
X10890000Y-9250000D01*
X10950000Y-10100000D02*
X10990000Y-10140000D01*
X10990000Y-10100000D02*
X10950000Y-10140000D01*
X10980000Y-10880000D02*
X11020000Y-10920000D01*
X11020000Y-10880000D02*
X10980000Y-10920000D01*
X10990000Y-10560000D02*
X11030000Y-10600000D01*
X11030000Y-10560000D02*
X10990000Y-10600000D01*
X11100000Y-10200000D02*
X11140000Y-10240000D01*
X11140000Y-10200000D02*
X11100000Y-10240000D01*
X11130000Y-10900000D02*
X11170000Y-10940000D01*
X11170000Y-10900000D02*
X11130000Y-10940000D01*
X11250000Y-10650000D02*
X11290000Y-10690000D01*
X11290000Y-10650000D02*
X11250000Y-10690000D01*
X11290000Y-7040000D02*
X11330000Y-7080000D01*
X11330000Y-7040000D02*
X11290000Y-7080000D01*
X11320000Y-10200000D02*
X11360000Y-10240000D01*
X11360000Y-10200000D02*
X11320000Y-10240000D01*
X11380000Y-10680000D02*
X11420000Y-10720000D01*
X11420000Y-10680000D02*
X11380000Y-10720000D01*
X11380000Y-10940000D02*
X11420000Y-10980000D01*
X11420000Y-10940000D02*
X11380000Y-10980000D01*
X11390000Y-9620000D02*
X11430000Y-9660000D01*
X11430000Y-9620000D02*
X11390000Y-9660000D01*
X11490000Y-10560000D02*
X11530000Y-10600000D01*
X11530000Y-10560000D02*
X11490000Y-10600000D01*
X11524000Y-9230000D02*
X11564000Y-9270000D01*
X11564000Y-9230000D02*
X11524000Y-9270000D01*
X11600000Y-6760000D02*
X11640000Y-6800000D01*
X11640000Y-6760000D02*
X11600000Y-6800000D01*
X11600000Y-10080000D02*
X11640000Y-10120000D01*
X11640000Y-10080000D02*
X11600000Y-10120000D01*
X11630000Y-9880000D02*
X11670000Y-9920000D01*
X11670000Y-9880000D02*
X11630000Y-9920000D01*
X11660000Y-9730000D02*
X11700000Y-9770000D01*
X11700000Y-9730000D02*
X11660000Y-9770000D01*
X11799000Y-8780000D02*
X11839000Y-8820000D01*
X11839000Y-8780000D02*
X11799000Y-8820000D01*
X11810000Y-7570000D02*
X11850000Y-7610000D01*
X11850000Y-7570000D02*
X11810000Y-7610000D01*
X11810000Y-9190000D02*
X11850000Y-9230000D01*
X11850000Y-9190000D02*
X11810000Y-9230000D01*
X11920000Y-9620000D02*
X11960000Y-9660000D01*
X11960000Y-9620000D02*
X11920000Y-9660000D01*
X12130000Y-9410000D02*
X12170000Y-9450000D01*
X12170000Y-9410000D02*
X12130000Y-9450000D01*
X12180000Y-7330000D02*
X12220000Y-7370000D01*
X12220000Y-7330000D02*
X12180000Y-7370000D01*
X12190000Y-7660000D02*
X12230000Y-7700000D01*
X12230000Y-7660000D02*
X12190000Y-7700000D01*
X12200000Y-10200000D02*
X12240000Y-10240000D01*
X12240000Y-10200000D02*
X12200000Y-10240000D01*
X12200000Y-10550000D02*
X12240000Y-10590000D01*
X12240000Y-10550000D02*
X12200000Y-10590000D01*
X13250000Y-10550000D02*
X13290000Y-10590000D01*
X13290000Y-10550000D02*
X13250000Y-10590000D01*
X13390000Y-10210000D02*
X13430000Y-10250000D01*
X13430000Y-10210000D02*
X13390000Y-10250000D01*
X13640000Y-10940000D02*
X13680000Y-10980000D01*
X13680000Y-10940000D02*
X13640000Y-10980000D01*
X13910000Y-10720000D02*
X13950000Y-10760000D01*
X13950000Y-10720000D02*
X13910000Y-10760000D01*
X14080000Y-7530000D02*
X14120000Y-7570000D01*
X14120000Y-7530000D02*
X14080000Y-7570000D01*
X14610000Y-4600000D02*
X14650000Y-4640000D01*
X14650000Y-4600000D02*
X14610000Y-4640000D01*
X14790000Y-4420000D02*
X14830000Y-4460000D01*
X14830000Y-4420000D02*
X14790000Y-4460000D01*
X14970000Y-4600000D02*
X15010000Y-4640000D01*
X15010000Y-4600000D02*
X14970000Y-4640000D01*
X15580000Y-4170000D02*
X15620000Y-4210000D01*
X15620000Y-4170000D02*
X15580000Y-4210000D01*
X15580000Y-4400000D02*
X15620000Y-4440000D01*
X15620000Y-4400000D02*
X15580000Y-4440000D01*
X15700000Y-5720000D02*
X15740000Y-5760000D01*
X15740000Y-5720000D02*
X15700000Y-5760000D01*
X15820000Y-5520000D02*
X15860000Y-5560000D01*
X15860000Y-5520000D02*
X15820000Y-5560000D01*
X15824000Y-6305000D02*
X15864000Y-6345000D01*
X15864000Y-6305000D02*
X15824000Y-6345000D01*
X15824000Y-6755000D02*
X15864000Y-6795000D01*
X15864000Y-6755000D02*
X15824000Y-6795000D01*
X15824000Y-7880000D02*
X15864000Y-7920000D01*
X15864000Y-7880000D02*
X15824000Y-7920000D01*
X15824000Y-8355000D02*
X15864000Y-8395000D01*
X15864000Y-8355000D02*
X15824000Y-8395000D01*
X15824000Y-8655000D02*
X15864000Y-8695000D01*
X15864000Y-8655000D02*
X15824000Y-8695000D01*
X15824000Y-9130000D02*
X15864000Y-9170000D01*
X15864000Y-9130000D02*
X15824000Y-9170000D01*
X15824000Y-9580000D02*
X15864000Y-9620000D01*
X15864000Y-9580000D02*
X15824000Y-9620000D01*
X15824000Y-10055000D02*
X15864000Y-10095000D01*
X15864000Y-10055000D02*
X15824000Y-10095000D01*
X15824000Y-10230000D02*
X15864000Y-10270000D01*
X15864000Y-10230000D02*
X15824000Y-10270000D01*
X15824000Y-10680000D02*
X15864000Y-10720000D01*
X15864000Y-10680000D02*
X15824000Y-10720000D01*
X15940000Y-5730000D02*
X15980000Y-5770000D01*
X15980000Y-5730000D02*
X15940000Y-5770000D01*
X15980000Y-4940000D02*
X16020000Y-4980000D01*
X16020000Y-4940000D02*
X15980000Y-4980000D01*
X16070000Y-4170000D02*
X16110000Y-4210000D01*
X16110000Y-4170000D02*
X16070000Y-4210000D01*
X16070000Y-4400000D02*
X16110000Y-4440000D01*
X16110000Y-4400000D02*
X16070000Y-4440000D01*
X16100000Y-5340000D02*
X16140000Y-5380000D01*
X16140000Y-5340000D02*
X16100000Y-5380000D01*
X16150000Y-4720000D02*
X16190000Y-4760000D01*
X16190000Y-4720000D02*
X16150000Y-4760000D01*
X16330000Y-4540000D02*
X16370000Y-4580000D01*
X16370000Y-4540000D02*
X16330000Y-4580000D01*
X16510000Y-4720000D02*
X16550000Y-4760000D01*
X16550000Y-4720000D02*
X16510000Y-4760000D01*
X16510000Y-5480000D02*
X16550000Y-5520000D01*
X16550000Y-5480000D02*
X16510000Y-5520000D01*
X16699000Y-6530000D02*
X16739000Y-6570000D01*
X16739000Y-6530000D02*
X16699000Y-6570000D01*
X16699000Y-7320000D02*
X16739000Y-7360000D01*
X16739000Y-7320000D02*
X16699000Y-7360000D01*
X17266500Y-7387500D02*
X17306500Y-7427500D01*
X17306500Y-7387500D02*
X17266500Y-7427500D01*
X17424000Y-7780000D02*
X17464000Y-7820000D01*
X17464000Y-7780000D02*
X17424000Y-7820000D01*
D13*
X14852000Y-4623500D02*
G75*
G03*
X14852000Y-4623500I-40000J0D01*
G01*
X14852000Y-4877500D02*
G75*
G03*
X14852000Y-4877500I-40000J0D01*
G01*
X15614000Y-4623500D02*
G75*
G03*
X15614000Y-4623500I-40000J0D01*
G01*
X15614000Y-4877500D02*
G75*
G03*
X15614000Y-4877500I-40000J0D01*
G01*
D14*
X4623750Y-8022030D02*
X4623750Y-8113470D01*
X4578030Y-8067750D02*
X4669470Y-8067750D01*
X4623750Y-8276030D02*
X4623750Y-8367470D01*
X4578030Y-8321750D02*
X4669470Y-8321750D01*
X4623750Y-8530030D02*
X4623750Y-8621470D01*
X4578030Y-8575750D02*
X4669470Y-8575750D01*
X4623750Y-8784030D02*
X4623750Y-8875470D01*
X4578030Y-8829750D02*
X4669470Y-8829750D01*
X4623750Y-9038030D02*
X4623750Y-9129470D01*
X4578030Y-9083750D02*
X4669470Y-9083750D01*
X4623750Y-9292030D02*
X4623750Y-9383470D01*
X4578030Y-9337750D02*
X4669470Y-9337750D01*
X4623750Y-9546030D02*
X4623750Y-9637470D01*
X4578030Y-9591750D02*
X4669470Y-9591750D01*
X4623750Y-9800030D02*
X4623750Y-9891470D01*
X4578030Y-9845750D02*
X4669470Y-9845750D01*
X4623750Y-10054030D02*
X4623750Y-10145470D01*
X4578030Y-10099750D02*
X4669470Y-10099750D01*
X4623750Y-10308030D02*
X4623750Y-10399470D01*
X4578030Y-10353750D02*
X4669470Y-10353750D01*
X5385750Y-8022030D02*
X5385750Y-8113470D01*
X5340030Y-8067750D02*
X5431470Y-8067750D01*
X5385750Y-8276030D02*
X5385750Y-8367470D01*
X5340030Y-8321750D02*
X5431470Y-8321750D01*
X5385750Y-8530030D02*
X5385750Y-8621470D01*
X5340030Y-8575750D02*
X5431470Y-8575750D01*
X5385750Y-8784030D02*
X5385750Y-8875470D01*
X5340030Y-8829750D02*
X5431470Y-8829750D01*
X5385750Y-9038030D02*
X5385750Y-9129470D01*
X5340030Y-9083750D02*
X5431470Y-9083750D01*
X5385750Y-9292030D02*
X5385750Y-9383470D01*
X5340030Y-9337750D02*
X5431470Y-9337750D01*
X5385750Y-9546030D02*
X5385750Y-9637470D01*
X5340030Y-9591750D02*
X5431470Y-9591750D01*
X5385750Y-9800030D02*
X5385750Y-9891470D01*
X5340030Y-9845750D02*
X5431470Y-9845750D01*
X5385750Y-10054030D02*
X5385750Y-10145470D01*
X5340030Y-10099750D02*
X5431470Y-10099750D01*
X5385750Y-10308030D02*
X5385750Y-10399470D01*
X5340030Y-10353750D02*
X5431470Y-10353750D01*
D15*
X4260356Y-6060356D02*
X4260356Y-5989644D01*
X4189644Y-5989644D01*
X4189644Y-6060356D01*
X4260356Y-6060356D01*
X4260356Y-6310356D02*
X4260356Y-6239644D01*
X4189644Y-6239644D01*
X4189644Y-6310356D01*
X4260356Y-6310356D01*
X4260356Y-6560356D02*
X4260356Y-6489644D01*
X4189644Y-6489644D01*
X4189644Y-6560356D01*
X4260356Y-6560356D01*
X4260356Y-7510356D02*
X4260356Y-7439644D01*
X4189644Y-7439644D01*
X4189644Y-7510356D01*
X4260356Y-7510356D01*
X4260356Y-7760356D02*
X4260356Y-7689644D01*
X4189644Y-7689644D01*
X4189644Y-7760356D01*
X4260356Y-7760356D01*
X4260356Y-8010356D02*
X4260356Y-7939644D01*
X4189644Y-7939644D01*
X4189644Y-8010356D01*
X4260356Y-8010356D01*
X6400356Y-7860356D02*
X6400356Y-7789644D01*
X6329644Y-7789644D01*
X6329644Y-7860356D01*
X6400356Y-7860356D01*
X6654356Y-7860356D02*
X6654356Y-7789644D01*
X6583644Y-7789644D01*
X6583644Y-7860356D01*
X6654356Y-7860356D01*
X6799356Y-10681356D02*
X6799356Y-10610644D01*
X6728644Y-10610644D01*
X6728644Y-10681356D01*
X6799356Y-10681356D01*
X6799356Y-10935356D02*
X6799356Y-10864644D01*
X6728644Y-10864644D01*
X6728644Y-10935356D01*
X6799356Y-10935356D01*
X6908356Y-7860356D02*
X6908356Y-7789644D01*
X6837644Y-7789644D01*
X6837644Y-7860356D01*
X6908356Y-7860356D01*
X7053356Y-10681356D02*
X7053356Y-10610644D01*
X6982644Y-10610644D01*
X6982644Y-10681356D01*
X7053356Y-10681356D01*
X7053356Y-10935356D02*
X7053356Y-10864644D01*
X6982644Y-10864644D01*
X6982644Y-10935356D01*
X7053356Y-10935356D01*
X7307356Y-10681356D02*
X7307356Y-10610644D01*
X7236644Y-10610644D01*
X7236644Y-10681356D01*
X7307356Y-10681356D01*
X7307356Y-10935356D02*
X7307356Y-10864644D01*
X7236644Y-10864644D01*
X7236644Y-10935356D01*
X7307356Y-10935356D01*
X7561356Y-10681356D02*
X7561356Y-10610644D01*
X7490644Y-10610644D01*
X7490644Y-10681356D01*
X7561356Y-10681356D01*
X7561356Y-10935356D02*
X7561356Y-10864644D01*
X7490644Y-10864644D01*
X7490644Y-10935356D01*
X7561356Y-10935356D01*
X7815356Y-10681356D02*
X7815356Y-10610644D01*
X7744644Y-10610644D01*
X7744644Y-10681356D01*
X7815356Y-10681356D01*
X7815356Y-10935356D02*
X7815356Y-10864644D01*
X7744644Y-10864644D01*
X7744644Y-10935356D01*
X7815356Y-10935356D01*
X8069356Y-10681356D02*
X8069356Y-10610644D01*
X7998644Y-10610644D01*
X7998644Y-10681356D01*
X8069356Y-10681356D01*
X8069356Y-10935356D02*
X8069356Y-10864644D01*
X7998644Y-10864644D01*
X7998644Y-10935356D01*
X8069356Y-10935356D01*
X8323356Y-10681356D02*
X8323356Y-10610644D01*
X8252644Y-10610644D01*
X8252644Y-10681356D01*
X8323356Y-10681356D01*
X8323356Y-10935356D02*
X8323356Y-10864644D01*
X8252644Y-10864644D01*
X8252644Y-10935356D01*
X8323356Y-10935356D01*
X8577356Y-10681356D02*
X8577356Y-10610644D01*
X8506644Y-10610644D01*
X8506644Y-10681356D01*
X8577356Y-10681356D01*
X8577356Y-10935356D02*
X8577356Y-10864644D01*
X8506644Y-10864644D01*
X8506644Y-10935356D01*
X8577356Y-10935356D01*
X8831356Y-10681356D02*
X8831356Y-10610644D01*
X8760644Y-10610644D01*
X8760644Y-10681356D01*
X8831356Y-10681356D01*
X8831356Y-10935356D02*
X8831356Y-10864644D01*
X8760644Y-10864644D01*
X8760644Y-10935356D01*
X8831356Y-10935356D01*
X9085356Y-10681356D02*
X9085356Y-10610644D01*
X9014644Y-10610644D01*
X9014644Y-10681356D01*
X9085356Y-10681356D01*
X9085356Y-10935356D02*
X9085356Y-10864644D01*
X9014644Y-10864644D01*
X9014644Y-10935356D01*
X9085356Y-10935356D01*
X9339356Y-10681356D02*
X9339356Y-10610644D01*
X9268644Y-10610644D01*
X9268644Y-10681356D01*
X9339356Y-10681356D01*
X9339356Y-10935356D02*
X9339356Y-10864644D01*
X9268644Y-10864644D01*
X9268644Y-10935356D01*
X9339356Y-10935356D01*
X9593356Y-10681356D02*
X9593356Y-10610644D01*
X9522644Y-10610644D01*
X9522644Y-10681356D01*
X9593356Y-10681356D01*
X9593356Y-10935356D02*
X9593356Y-10864644D01*
X9522644Y-10864644D01*
X9522644Y-10935356D01*
X9593356Y-10935356D01*
X9847356Y-10681356D02*
X9847356Y-10610644D01*
X9776644Y-10610644D01*
X9776644Y-10681356D01*
X9847356Y-10681356D01*
X9847356Y-10935356D02*
X9847356Y-10864644D01*
X9776644Y-10864644D01*
X9776644Y-10935356D01*
X9847356Y-10935356D01*
X10101356Y-10681356D02*
X10101356Y-10610644D01*
X10030644Y-10610644D01*
X10030644Y-10681356D01*
X10101356Y-10681356D01*
X10101356Y-10935356D02*
X10101356Y-10864644D01*
X10030644Y-10864644D01*
X10030644Y-10935356D01*
X10101356Y-10935356D01*
X10355356Y-10681356D02*
X10355356Y-10610644D01*
X10284644Y-10610644D01*
X10284644Y-10681356D01*
X10355356Y-10681356D01*
X10355356Y-10935356D02*
X10355356Y-10864644D01*
X10284644Y-10864644D01*
X10284644Y-10935356D01*
X10355356Y-10935356D01*
X10609356Y-10681356D02*
X10609356Y-10610644D01*
X10538644Y-10610644D01*
X10538644Y-10681356D01*
X10609356Y-10681356D01*
X10609356Y-10935356D02*
X10609356Y-10864644D01*
X10538644Y-10864644D01*
X10538644Y-10935356D01*
X10609356Y-10935356D01*
X10863356Y-10681356D02*
X10863356Y-10610644D01*
X10792644Y-10610644D01*
X10792644Y-10681356D01*
X10863356Y-10681356D01*
X10863356Y-10935356D02*
X10863356Y-10864644D01*
X10792644Y-10864644D01*
X10792644Y-10935356D01*
X10863356Y-10935356D01*
X16385356Y-4773356D02*
X16385356Y-4702644D01*
X16314644Y-4702644D01*
X16314644Y-4773356D01*
X16385356Y-4773356D01*
X16385356Y-5027356D02*
X16385356Y-4956644D01*
X16314644Y-4956644D01*
X16314644Y-5027356D01*
X16385356Y-5027356D01*
X16385356Y-5281356D02*
X16385356Y-5210644D01*
X16314644Y-5210644D01*
X16314644Y-5281356D01*
X16385356Y-5281356D01*
X16385356Y-5535356D02*
X16385356Y-5464644D01*
X16314644Y-5464644D01*
X16314644Y-5535356D01*
X16385356Y-5535356D01*
D16*
X8904000Y-9955000D02*
X8959000Y-9900000D01*
X8904000Y-9845000D01*
X8849000Y-9900000D01*
X8904000Y-9955000D01*
X8944000Y-9705000D02*
X8999000Y-9650000D01*
X8944000Y-9595000D01*
X8889000Y-9650000D01*
X8944000Y-9705000D01*
X8944000Y-10205000D02*
X8999000Y-10150000D01*
X8944000Y-10095000D01*
X8889000Y-10150000D01*
X8944000Y-10205000D01*
X9004000Y-8855000D02*
X9059000Y-8800000D01*
X9004000Y-8745000D01*
X8949000Y-8800000D01*
X9004000Y-8855000D01*
X9044000Y-8605000D02*
X9099000Y-8550000D01*
X9044000Y-8495000D01*
X8989000Y-8550000D01*
X9044000Y-8605000D01*
X9044000Y-9105000D02*
X9099000Y-9050000D01*
X9044000Y-8995000D01*
X8989000Y-9050000D01*
X9044000Y-9105000D01*
X9444000Y-9705000D02*
X9499000Y-9650000D01*
X9444000Y-9595000D01*
X9389000Y-9650000D01*
X9444000Y-9705000D01*
X9444000Y-10205000D02*
X9499000Y-10150000D01*
X9444000Y-10095000D01*
X9389000Y-10150000D01*
X9444000Y-10205000D01*
X9484000Y-9955000D02*
X9539000Y-9900000D01*
X9484000Y-9845000D01*
X9429000Y-9900000D01*
X9484000Y-9955000D01*
X9544000Y-8605000D02*
X9599000Y-8550000D01*
X9544000Y-8495000D01*
X9489000Y-8550000D01*
X9544000Y-8605000D01*
X9544000Y-9105000D02*
X9599000Y-9050000D01*
X9544000Y-8995000D01*
X9489000Y-9050000D01*
X9544000Y-9105000D01*
X9584000Y-8855000D02*
X9639000Y-8800000D01*
X9584000Y-8745000D01*
X9529000Y-8800000D01*
X9584000Y-8855000D01*
X10004000Y-7855000D02*
X10059000Y-7800000D01*
X10004000Y-7745000D01*
X9949000Y-7800000D01*
X10004000Y-7855000D01*
X10004000Y-8855000D02*
X10059000Y-8800000D01*
X10004000Y-8745000D01*
X9949000Y-8800000D01*
X10004000Y-8855000D01*
X10004000Y-9855000D02*
X10059000Y-9800000D01*
X10004000Y-9745000D01*
X9949000Y-9800000D01*
X10004000Y-9855000D01*
X10044000Y-7605000D02*
X10099000Y-7550000D01*
X10044000Y-7495000D01*
X9989000Y-7550000D01*
X10044000Y-7605000D01*
X10044000Y-8105000D02*
X10099000Y-8050000D01*
X10044000Y-7995000D01*
X9989000Y-8050000D01*
X10044000Y-8105000D01*
X10044000Y-8605000D02*
X10099000Y-8550000D01*
X10044000Y-8495000D01*
X9989000Y-8550000D01*
X10044000Y-8605000D01*
X10044000Y-9105000D02*
X10099000Y-9050000D01*
X10044000Y-8995000D01*
X9989000Y-9050000D01*
X10044000Y-9105000D01*
X10044000Y-9605000D02*
X10099000Y-9550000D01*
X10044000Y-9495000D01*
X9989000Y-9550000D01*
X10044000Y-9605000D01*
X10044000Y-10105000D02*
X10099000Y-10050000D01*
X10044000Y-9995000D01*
X9989000Y-10050000D01*
X10044000Y-10105000D01*
X10544000Y-7605000D02*
X10599000Y-7550000D01*
X10544000Y-7495000D01*
X10489000Y-7550000D01*
X10544000Y-7605000D01*
X10544000Y-8105000D02*
X10599000Y-8050000D01*
X10544000Y-7995000D01*
X10489000Y-8050000D01*
X10544000Y-8105000D01*
X10544000Y-8605000D02*
X10599000Y-8550000D01*
X10544000Y-8495000D01*
X10489000Y-8550000D01*
X10544000Y-8605000D01*
X10544000Y-9105000D02*
X10599000Y-9050000D01*
X10544000Y-8995000D01*
X10489000Y-9050000D01*
X10544000Y-9105000D01*
X10544000Y-9605000D02*
X10599000Y-9550000D01*
X10544000Y-9495000D01*
X10489000Y-9550000D01*
X10544000Y-9605000D01*
X10544000Y-10105000D02*
X10599000Y-10050000D01*
X10544000Y-9995000D01*
X10489000Y-10050000D01*
X10544000Y-10105000D01*
X10584000Y-7855000D02*
X10639000Y-7800000D01*
X10584000Y-7745000D01*
X10529000Y-7800000D01*
X10584000Y-7855000D01*
X10584000Y-8855000D02*
X10639000Y-8800000D01*
X10584000Y-8745000D01*
X10529000Y-8800000D01*
X10584000Y-8855000D01*
X10584000Y-9855000D02*
X10639000Y-9800000D01*
X10584000Y-9745000D01*
X10529000Y-9800000D01*
X10584000Y-9855000D01*
X11004000Y-8855000D02*
X11059000Y-8800000D01*
X11004000Y-8745000D01*
X10949000Y-8800000D01*
X11004000Y-8855000D01*
X11044000Y-8605000D02*
X11099000Y-8550000D01*
X11044000Y-8495000D01*
X10989000Y-8550000D01*
X11044000Y-8605000D01*
X11044000Y-9105000D02*
X11099000Y-9050000D01*
X11044000Y-8995000D01*
X10989000Y-9050000D01*
X11044000Y-9105000D01*
X11544000Y-8605000D02*
X11599000Y-8550000D01*
X11544000Y-8495000D01*
X11489000Y-8550000D01*
X11544000Y-8605000D01*
X11544000Y-9105000D02*
X11599000Y-9050000D01*
X11544000Y-8995000D01*
X11489000Y-9050000D01*
X11544000Y-9105000D01*
X11584000Y-8855000D02*
X11639000Y-8800000D01*
X11584000Y-8745000D01*
X11529000Y-8800000D01*
X11584000Y-8855000D01*
D17*
X6634000Y-3604250D02*
X6754000Y-3724250D01*
X6754000Y-3604250D02*
X6634000Y-3724250D01*
X6754000Y-3664250D02*
G75*
G03*
X6754000Y-3664250I-60000J0D01*
G01*
X6888000Y-3604250D02*
X7008000Y-3724250D01*
X7008000Y-3604250D02*
X6888000Y-3724250D01*
X7008000Y-3664250D02*
G75*
G03*
X7008000Y-3664250I-60000J0D01*
G01*
X7142000Y-3604250D02*
X7262000Y-3724250D01*
X7262000Y-3604250D02*
X7142000Y-3724250D01*
X7262000Y-3664250D02*
G75*
G03*
X7262000Y-3664250I-60000J0D01*
G01*
X7396000Y-3604250D02*
X7516000Y-3724250D01*
X7516000Y-3604250D02*
X7396000Y-3724250D01*
X7516000Y-3664250D02*
G75*
G03*
X7516000Y-3664250I-60000J0D01*
G01*
X7650000Y-3604250D02*
X7770000Y-3724250D01*
X7770000Y-3604250D02*
X7650000Y-3724250D01*
X7770000Y-3664250D02*
G75*
G03*
X7770000Y-3664250I-60000J0D01*
G01*
X7904000Y-3604250D02*
X8024000Y-3724250D01*
X8024000Y-3604250D02*
X7904000Y-3724250D01*
X8024000Y-3664250D02*
G75*
G03*
X8024000Y-3664250I-60000J0D01*
G01*
X8158000Y-3604250D02*
X8278000Y-3724250D01*
X8278000Y-3604250D02*
X8158000Y-3724250D01*
X8278000Y-3664250D02*
G75*
G03*
X8278000Y-3664250I-60000J0D01*
G01*
X8412000Y-3604250D02*
X8532000Y-3724250D01*
X8532000Y-3604250D02*
X8412000Y-3724250D01*
X8532000Y-3664250D02*
G75*
G03*
X8532000Y-3664250I-60000J0D01*
G01*
X8666000Y-3604250D02*
X8786000Y-3724250D01*
X8786000Y-3604250D02*
X8666000Y-3724250D01*
X8786000Y-3664250D02*
G75*
G03*
X8786000Y-3664250I-60000J0D01*
G01*
X8920000Y-3604250D02*
X9040000Y-3724250D01*
X9040000Y-3604250D02*
X8920000Y-3724250D01*
X9040000Y-3664250D02*
G75*
G03*
X9040000Y-3664250I-60000J0D01*
G01*
X9174000Y-3604250D02*
X9294000Y-3724250D01*
X9294000Y-3604250D02*
X9174000Y-3724250D01*
X9294000Y-3664250D02*
G75*
G03*
X9294000Y-3664250I-60000J0D01*
G01*
X9428000Y-3604250D02*
X9548000Y-3724250D01*
X9548000Y-3604250D02*
X9428000Y-3724250D01*
X9548000Y-3664250D02*
G75*
G03*
X9548000Y-3664250I-60000J0D01*
G01*
X9682000Y-3604250D02*
X9802000Y-3724250D01*
X9802000Y-3604250D02*
X9682000Y-3724250D01*
X9802000Y-3664250D02*
G75*
G03*
X9802000Y-3664250I-60000J0D01*
G01*
X9936000Y-3604250D02*
X10056000Y-3724250D01*
X10056000Y-3604250D02*
X9936000Y-3724250D01*
X10056000Y-3664250D02*
G75*
G03*
X10056000Y-3664250I-60000J0D01*
G01*
X10190000Y-3604250D02*
X10310000Y-3724250D01*
X10310000Y-3604250D02*
X10190000Y-3724250D01*
X10310000Y-3664250D02*
G75*
G03*
X10310000Y-3664250I-60000J0D01*
G01*
X10444000Y-3604250D02*
X10564000Y-3724250D01*
X10564000Y-3604250D02*
X10444000Y-3724250D01*
X10564000Y-3664250D02*
G75*
G03*
X10564000Y-3664250I-60000J0D01*
G01*
D18*
X15024000Y-3980000D02*
X15164000Y-4120000D01*
X15164000Y-3980000D02*
X15024000Y-4120000D01*
X15094000Y-3980000D02*
X15094000Y-4120000D01*
X15024000Y-4050000D02*
X15164000Y-4050000D01*
X15274000Y-4230000D02*
X15414000Y-4370000D01*
X15414000Y-4230000D02*
X15274000Y-4370000D01*
X15344000Y-4230000D02*
X15344000Y-4370000D01*
X15274000Y-4300000D02*
X15414000Y-4300000D01*
X15524000Y-3030000D02*
X15664000Y-3170000D01*
X15664000Y-3030000D02*
X15524000Y-3170000D01*
X15594000Y-3030000D02*
X15594000Y-3170000D01*
X15524000Y-3100000D02*
X15664000Y-3100000D01*
X15774000Y-3980000D02*
X15914000Y-4120000D01*
X15914000Y-3980000D02*
X15774000Y-4120000D01*
X15844000Y-3980000D02*
X15844000Y-4120000D01*
X15774000Y-4050000D02*
X15914000Y-4050000D01*
X16024000Y-3030000D02*
X16164000Y-3170000D01*
X16164000Y-3030000D02*
X16024000Y-3170000D01*
X16094000Y-3030000D02*
X16094000Y-3170000D01*
X16024000Y-3100000D02*
X16164000Y-3100000D01*
X16274000Y-4230000D02*
X16414000Y-4370000D01*
X16414000Y-4230000D02*
X16274000Y-4370000D01*
X16344000Y-4230000D02*
X16344000Y-4370000D01*
X16274000Y-4300000D02*
X16414000Y-4300000D01*
X16524000Y-3980000D02*
X16664000Y-4120000D01*
X16664000Y-3980000D02*
X16524000Y-4120000D01*
X16594000Y-3980000D02*
X16594000Y-4120000D01*
X16524000Y-4050000D02*
X16664000Y-4050000D01*
D19*
X3435000Y-5655000D02*
X3615000Y-5835000D01*
X3615000Y-5655000D02*
X3435000Y-5835000D01*
X3588640Y-5808640D02*
X3588640Y-5681360D01*
X3461360Y-5681360D01*
X3461360Y-5808640D01*
X3588640Y-5808640D01*
D11*
X3505000Y-5825000D02*
X3545000Y-5825000D01*
X3505000Y-5665000D02*
X3545000Y-5665000D01*
X3545000Y-5825000D02*
G75*
G03*
X3545000Y-5665000I0J80000D01*
G01*
X3505000Y-5665000D02*
G75*
G03*
X3505000Y-5825000I0J-80000D01*
G01*
D19*
X3435000Y-6715000D02*
X3615000Y-6895000D01*
X3615000Y-6715000D02*
X3435000Y-6895000D01*
X3588640Y-6868640D02*
X3588640Y-6741360D01*
X3461360Y-6741360D01*
X3461360Y-6868640D01*
X3588640Y-6868640D01*
D11*
X3505000Y-6885000D02*
X3545000Y-6885000D01*
X3505000Y-6725000D02*
X3545000Y-6725000D01*
X3545000Y-6885000D02*
G75*
G03*
X3545000Y-6725000I0J80000D01*
G01*
X3505000Y-6725000D02*
G75*
G03*
X3505000Y-6885000I0J-80000D01*
G01*
D19*
X3435000Y-7105000D02*
X3615000Y-7285000D01*
X3615000Y-7105000D02*
X3435000Y-7285000D01*
X3588640Y-7258640D02*
X3588640Y-7131360D01*
X3461360Y-7131360D01*
X3461360Y-7258640D01*
X3588640Y-7258640D01*
D11*
X3505000Y-7275000D02*
X3545000Y-7275000D01*
X3505000Y-7115000D02*
X3545000Y-7115000D01*
X3545000Y-7275000D02*
G75*
G03*
X3545000Y-7115000I0J80000D01*
G01*
X3505000Y-7115000D02*
G75*
G03*
X3505000Y-7275000I0J-80000D01*
G01*
D19*
X3435000Y-8165000D02*
X3615000Y-8345000D01*
X3615000Y-8165000D02*
X3435000Y-8345000D01*
X3588640Y-8318640D02*
X3588640Y-8191360D01*
X3461360Y-8191360D01*
X3461360Y-8318640D01*
X3588640Y-8318640D01*
D11*
X3505000Y-8335000D02*
X3545000Y-8335000D01*
X3505000Y-8175000D02*
X3545000Y-8175000D01*
X3545000Y-8335000D02*
G75*
G03*
X3545000Y-8175000I0J80000D01*
G01*
X3505000Y-8175000D02*
G75*
G03*
X3505000Y-8335000I0J-80000D01*
G01*
D20*
X3269000Y-4875000D02*
X3519000Y-5125000D01*
X3519000Y-4875000D02*
X3269000Y-5125000D01*
X3394000Y-5125000D02*
X3519000Y-5000000D01*
X3394000Y-4875000D01*
X3269000Y-5000000D01*
X3394000Y-5125000D01*
X3269000Y-8875000D02*
X3519000Y-9125000D01*
X3519000Y-8875000D02*
X3269000Y-9125000D01*
X3394000Y-9125000D02*
X3519000Y-9000000D01*
X3394000Y-8875000D01*
X3269000Y-9000000D01*
X3394000Y-9125000D01*
X6019090Y-3539250D02*
X6269090Y-3789250D01*
X6269090Y-3539250D02*
X6019090Y-3789250D01*
X6144090Y-3789250D02*
X6269090Y-3664250D01*
X6144090Y-3539250D01*
X6019090Y-3664250D01*
X6144090Y-3789250D01*
X6019090Y-6639320D02*
X6269090Y-6889320D01*
X6269090Y-6639320D02*
X6019090Y-6889320D01*
X6144090Y-6889320D02*
X6269090Y-6764320D01*
X6144090Y-6639320D01*
X6019090Y-6764320D01*
X6144090Y-6889320D01*
X13518948Y-6639320D02*
X13768948Y-6889320D01*
X13768948Y-6639320D02*
X13518948Y-6889320D01*
X13643948Y-6889320D02*
X13768948Y-6764320D01*
X13643948Y-6639320D01*
X13518948Y-6764320D01*
X13643948Y-6889320D01*
X13519000Y-3539250D02*
X13769000Y-3789250D01*
X13769000Y-3539250D02*
X13519000Y-3789250D01*
X13644000Y-3789250D02*
X13769000Y-3664250D01*
X13644000Y-3539250D01*
X13519000Y-3664250D01*
X13644000Y-3789250D01*
X17269000Y-4875000D02*
X17519000Y-5125000D01*
X17519000Y-4875000D02*
X17269000Y-5125000D01*
X17394000Y-5125000D02*
X17519000Y-5000000D01*
X17394000Y-4875000D01*
X17269000Y-5000000D01*
X17394000Y-5125000D01*
X17269000Y-8875000D02*
X17519000Y-9125000D01*
X17519000Y-8875000D02*
X17269000Y-9125000D01*
X17394000Y-9125000D02*
X17519000Y-9000000D01*
X17394000Y-8875000D01*
X17269000Y-9000000D01*
X17394000Y-9125000D01*
D11*
X3096619Y-11465476D02*
X3096619Y-11265476D01*
X3144238Y-11265476D01*
X3172809Y-11275000D01*
X3191857Y-11294048D01*
X3201381Y-11313095D01*
X3210905Y-11351190D01*
X3210905Y-11379762D01*
X3201381Y-11417857D01*
X3191857Y-11436905D01*
X3172809Y-11455952D01*
X3144238Y-11465476D01*
X3096619Y-11465476D01*
X3296619Y-11465476D02*
X3296619Y-11332143D01*
X3296619Y-11370238D02*
X3306143Y-11351190D01*
X3315667Y-11341667D01*
X3334714Y-11332143D01*
X3353762Y-11332143D01*
X3420428Y-11465476D02*
X3420428Y-11332143D01*
X3420428Y-11265476D02*
X3410905Y-11275000D01*
X3420428Y-11284524D01*
X3429952Y-11275000D01*
X3420428Y-11265476D01*
X3420428Y-11284524D01*
X3544238Y-11465476D02*
X3525190Y-11455952D01*
X3515667Y-11436905D01*
X3515667Y-11265476D01*
X3649000Y-11465476D02*
X3629952Y-11455952D01*
X3620428Y-11436905D01*
X3620428Y-11265476D01*
X3877571Y-11465476D02*
X3877571Y-11265476D01*
X3944238Y-11408333D01*
X4010905Y-11265476D01*
X4010905Y-11465476D01*
X4191857Y-11465476D02*
X4191857Y-11360714D01*
X4182333Y-11341667D01*
X4163286Y-11332143D01*
X4125190Y-11332143D01*
X4106143Y-11341667D01*
X4191857Y-11455952D02*
X4172809Y-11465476D01*
X4125190Y-11465476D01*
X4106143Y-11455952D01*
X4096619Y-11436905D01*
X4096619Y-11417857D01*
X4106143Y-11398809D01*
X4125190Y-11389286D01*
X4172809Y-11389286D01*
X4191857Y-11379762D01*
X4287095Y-11332143D02*
X4287095Y-11532143D01*
X4287095Y-11341667D02*
X4306143Y-11332143D01*
X4344238Y-11332143D01*
X4363286Y-11341667D01*
X4372810Y-11351190D01*
X4382333Y-11370238D01*
X4382333Y-11427381D01*
X4372810Y-11446428D01*
X4363286Y-11455952D01*
X4344238Y-11465476D01*
X4306143Y-11465476D01*
X4287095Y-11455952D01*
X4468048Y-11446428D02*
X4477571Y-11455952D01*
X4468048Y-11465476D01*
X4458524Y-11455952D01*
X4468048Y-11446428D01*
X4468048Y-11465476D01*
X4468048Y-11341667D02*
X4477571Y-11351190D01*
X4468048Y-11360714D01*
X4458524Y-11351190D01*
X4468048Y-11341667D01*
X4468048Y-11360714D01*
D12*
X2799000Y-11775000D02*
X2839000Y-11815000D01*
X2839000Y-11775000D02*
X2799000Y-11815000D01*
D11*
X3134714Y-11685476D02*
X3153762Y-11685476D01*
X3172809Y-11695000D01*
X3182333Y-11704524D01*
X3191857Y-11723571D01*
X3201381Y-11761667D01*
X3201381Y-11809286D01*
X3191857Y-11847381D01*
X3182333Y-11866428D01*
X3172809Y-11875952D01*
X3153762Y-11885476D01*
X3134714Y-11885476D01*
X3115667Y-11875952D01*
X3106143Y-11866428D01*
X3096619Y-11847381D01*
X3087095Y-11809286D01*
X3087095Y-11761667D01*
X3096619Y-11723571D01*
X3106143Y-11704524D01*
X3115667Y-11695000D01*
X3134714Y-11685476D01*
X3287095Y-11866428D02*
X3296619Y-11875952D01*
X3287095Y-11885476D01*
X3277571Y-11875952D01*
X3287095Y-11866428D01*
X3287095Y-11885476D01*
X3468048Y-11752143D02*
X3468048Y-11885476D01*
X3420428Y-11675952D02*
X3372809Y-11818809D01*
X3496619Y-11818809D01*
X3610905Y-11685476D02*
X3629952Y-11685476D01*
X3649000Y-11695000D01*
X3658524Y-11704524D01*
X3668048Y-11723571D01*
X3677571Y-11761667D01*
X3677571Y-11809286D01*
X3668048Y-11847381D01*
X3658524Y-11866428D01*
X3649000Y-11875952D01*
X3629952Y-11885476D01*
X3610905Y-11885476D01*
X3591857Y-11875952D01*
X3582333Y-11866428D01*
X3572809Y-11847381D01*
X3563286Y-11809286D01*
X3563286Y-11761667D01*
X3572809Y-11723571D01*
X3582333Y-11704524D01*
X3591857Y-11695000D01*
X3610905Y-11685476D01*
X3801381Y-11685476D02*
X3820428Y-11685476D01*
X3839476Y-11695000D01*
X3849000Y-11704524D01*
X3858524Y-11723571D01*
X3868048Y-11761667D01*
X3868048Y-11809286D01*
X3858524Y-11847381D01*
X3849000Y-11866428D01*
X3839476Y-11875952D01*
X3820428Y-11885476D01*
X3801381Y-11885476D01*
X3782333Y-11875952D01*
X3772809Y-11866428D01*
X3763286Y-11847381D01*
X3753762Y-11809286D01*
X3753762Y-11761667D01*
X3763286Y-11723571D01*
X3772809Y-11704524D01*
X3782333Y-11695000D01*
X3801381Y-11685476D01*
X3953762Y-11885476D02*
X3953762Y-11752143D01*
X3953762Y-11771190D02*
X3963286Y-11761667D01*
X3982333Y-11752143D01*
X4010905Y-11752143D01*
X4029952Y-11761667D01*
X4039476Y-11780714D01*
X4039476Y-11885476D01*
X4039476Y-11780714D02*
X4049000Y-11761667D01*
X4068048Y-11752143D01*
X4096619Y-11752143D01*
X4115667Y-11761667D01*
X4125190Y-11780714D01*
X4125190Y-11885476D01*
X4220429Y-11885476D02*
X4220429Y-11752143D01*
X4220429Y-11771190D02*
X4229952Y-11761667D01*
X4249000Y-11752143D01*
X4277571Y-11752143D01*
X4296619Y-11761667D01*
X4306143Y-11780714D01*
X4306143Y-11885476D01*
X4306143Y-11780714D02*
X4315667Y-11761667D01*
X4334714Y-11752143D01*
X4363286Y-11752143D01*
X4382333Y-11761667D01*
X4391857Y-11780714D01*
X4391857Y-11885476D01*
X4782333Y-11675952D02*
X4610905Y-11933095D01*
X5039476Y-11685476D02*
X5058524Y-11685476D01*
X5077571Y-11695000D01*
X5087095Y-11704524D01*
X5096619Y-11723571D01*
X5106143Y-11761667D01*
X5106143Y-11809286D01*
X5096619Y-11847381D01*
X5087095Y-11866428D01*
X5077571Y-11875952D01*
X5058524Y-11885476D01*
X5039476Y-11885476D01*
X5020429Y-11875952D01*
X5010905Y-11866428D01*
X5001381Y-11847381D01*
X4991857Y-11809286D01*
X4991857Y-11761667D01*
X5001381Y-11723571D01*
X5010905Y-11704524D01*
X5020429Y-11695000D01*
X5039476Y-11685476D01*
X5191857Y-11866428D02*
X5201381Y-11875952D01*
X5191857Y-11885476D01*
X5182333Y-11875952D01*
X5191857Y-11866428D01*
X5191857Y-11885476D01*
X5325190Y-11685476D02*
X5344238Y-11685476D01*
X5363286Y-11695000D01*
X5372810Y-11704524D01*
X5382333Y-11723571D01*
X5391857Y-11761667D01*
X5391857Y-11809286D01*
X5382333Y-11847381D01*
X5372810Y-11866428D01*
X5363286Y-11875952D01*
X5344238Y-11885476D01*
X5325190Y-11885476D01*
X5306143Y-11875952D01*
X5296619Y-11866428D01*
X5287095Y-11847381D01*
X5277571Y-11809286D01*
X5277571Y-11761667D01*
X5287095Y-11723571D01*
X5296619Y-11704524D01*
X5306143Y-11695000D01*
X5325190Y-11685476D01*
X5582333Y-11885476D02*
X5468048Y-11885476D01*
X5525190Y-11885476D02*
X5525190Y-11685476D01*
X5506143Y-11714048D01*
X5487095Y-11733095D01*
X5468048Y-11742619D01*
X5763286Y-11685476D02*
X5668048Y-11685476D01*
X5658524Y-11780714D01*
X5668048Y-11771190D01*
X5687095Y-11761667D01*
X5734714Y-11761667D01*
X5753762Y-11771190D01*
X5763286Y-11780714D01*
X5772809Y-11799762D01*
X5772809Y-11847381D01*
X5763286Y-11866428D01*
X5753762Y-11875952D01*
X5734714Y-11885476D01*
X5687095Y-11885476D01*
X5668048Y-11875952D01*
X5658524Y-11866428D01*
X5839476Y-11685476D02*
X5972809Y-11685476D01*
X5887095Y-11885476D01*
X6039476Y-11685476D02*
X6039476Y-11723571D01*
X6115667Y-11685476D02*
X6115667Y-11723571D01*
X6410905Y-11961667D02*
X6401381Y-11952143D01*
X6382333Y-11923571D01*
X6372809Y-11904524D01*
X6363286Y-11875952D01*
X6353762Y-11828333D01*
X6353762Y-11790238D01*
X6363286Y-11742619D01*
X6372809Y-11714048D01*
X6382333Y-11695000D01*
X6401381Y-11666428D01*
X6410905Y-11656905D01*
X6591857Y-11885476D02*
X6477571Y-11885476D01*
X6534714Y-11885476D02*
X6534714Y-11685476D01*
X6515667Y-11714048D01*
X6496619Y-11733095D01*
X6477571Y-11742619D01*
X6763286Y-11685476D02*
X6725190Y-11685476D01*
X6706143Y-11695000D01*
X6696619Y-11704524D01*
X6677571Y-11733095D01*
X6668048Y-11771190D01*
X6668048Y-11847381D01*
X6677571Y-11866428D01*
X6687095Y-11875952D01*
X6706143Y-11885476D01*
X6744238Y-11885476D01*
X6763286Y-11875952D01*
X6772809Y-11866428D01*
X6782333Y-11847381D01*
X6782333Y-11799762D01*
X6772809Y-11780714D01*
X6763286Y-11771190D01*
X6744238Y-11761667D01*
X6706143Y-11761667D01*
X6687095Y-11771190D01*
X6677571Y-11780714D01*
X6668048Y-11799762D01*
X6953762Y-11752143D02*
X6953762Y-11885476D01*
X6906143Y-11675952D02*
X6858524Y-11818809D01*
X6982333Y-11818809D01*
X7210905Y-11885476D02*
X7210905Y-11685476D01*
X7296619Y-11885476D02*
X7296619Y-11780714D01*
X7287095Y-11761667D01*
X7268048Y-11752143D01*
X7239476Y-11752143D01*
X7220428Y-11761667D01*
X7210905Y-11771190D01*
X7420428Y-11885476D02*
X7401381Y-11875952D01*
X7391857Y-11866428D01*
X7382333Y-11847381D01*
X7382333Y-11790238D01*
X7391857Y-11771190D01*
X7401381Y-11761667D01*
X7420428Y-11752143D01*
X7449000Y-11752143D01*
X7468048Y-11761667D01*
X7477571Y-11771190D01*
X7487095Y-11790238D01*
X7487095Y-11847381D01*
X7477571Y-11866428D01*
X7468048Y-11875952D01*
X7449000Y-11885476D01*
X7420428Y-11885476D01*
X7601381Y-11885476D02*
X7582333Y-11875952D01*
X7572809Y-11856905D01*
X7572809Y-11685476D01*
X7753762Y-11875952D02*
X7734714Y-11885476D01*
X7696619Y-11885476D01*
X7677571Y-11875952D01*
X7668048Y-11856905D01*
X7668048Y-11780714D01*
X7677571Y-11761667D01*
X7696619Y-11752143D01*
X7734714Y-11752143D01*
X7753762Y-11761667D01*
X7763286Y-11780714D01*
X7763286Y-11799762D01*
X7668048Y-11818809D01*
X7839476Y-11875952D02*
X7858524Y-11885476D01*
X7896619Y-11885476D01*
X7915667Y-11875952D01*
X7925190Y-11856905D01*
X7925190Y-11847381D01*
X7915667Y-11828333D01*
X7896619Y-11818809D01*
X7868048Y-11818809D01*
X7849000Y-11809286D01*
X7839476Y-11790238D01*
X7839476Y-11780714D01*
X7849000Y-11761667D01*
X7868048Y-11752143D01*
X7896619Y-11752143D01*
X7915667Y-11761667D01*
X7991857Y-11961667D02*
X8001381Y-11952143D01*
X8020428Y-11923571D01*
X8029952Y-11904524D01*
X8039476Y-11875952D01*
X8049000Y-11828333D01*
X8049000Y-11790238D01*
X8039476Y-11742619D01*
X8029952Y-11714048D01*
X8020428Y-11695000D01*
X8001381Y-11666428D01*
X7991857Y-11656905D01*
D13*
X2839000Y-12059000D02*
G75*
G03*
X2839000Y-12059000I-40000J0D01*
G01*
D11*
X3134714Y-11949476D02*
X3153762Y-11949476D01*
X3172809Y-11959000D01*
X3182333Y-11968524D01*
X3191857Y-11987571D01*
X3201381Y-12025667D01*
X3201381Y-12073286D01*
X3191857Y-12111381D01*
X3182333Y-12130428D01*
X3172809Y-12139952D01*
X3153762Y-12149476D01*
X3134714Y-12149476D01*
X3115667Y-12139952D01*
X3106143Y-12130428D01*
X3096619Y-12111381D01*
X3087095Y-12073286D01*
X3087095Y-12025667D01*
X3096619Y-11987571D01*
X3106143Y-11968524D01*
X3115667Y-11959000D01*
X3134714Y-11949476D01*
X3287095Y-12130428D02*
X3296619Y-12139952D01*
X3287095Y-12149476D01*
X3277571Y-12139952D01*
X3287095Y-12130428D01*
X3287095Y-12149476D01*
X3410905Y-12035190D02*
X3391857Y-12025667D01*
X3382333Y-12016143D01*
X3372809Y-11997095D01*
X3372809Y-11987571D01*
X3382333Y-11968524D01*
X3391857Y-11959000D01*
X3410905Y-11949476D01*
X3449000Y-11949476D01*
X3468048Y-11959000D01*
X3477571Y-11968524D01*
X3487095Y-11987571D01*
X3487095Y-11997095D01*
X3477571Y-12016143D01*
X3468048Y-12025667D01*
X3449000Y-12035190D01*
X3410905Y-12035190D01*
X3391857Y-12044714D01*
X3382333Y-12054238D01*
X3372809Y-12073286D01*
X3372809Y-12111381D01*
X3382333Y-12130428D01*
X3391857Y-12139952D01*
X3410905Y-12149476D01*
X3449000Y-12149476D01*
X3468048Y-12139952D01*
X3477571Y-12130428D01*
X3487095Y-12111381D01*
X3487095Y-12073286D01*
X3477571Y-12054238D01*
X3468048Y-12044714D01*
X3449000Y-12035190D01*
X3610905Y-11949476D02*
X3629952Y-11949476D01*
X3649000Y-11959000D01*
X3658524Y-11968524D01*
X3668048Y-11987571D01*
X3677571Y-12025667D01*
X3677571Y-12073286D01*
X3668048Y-12111381D01*
X3658524Y-12130428D01*
X3649000Y-12139952D01*
X3629952Y-12149476D01*
X3610905Y-12149476D01*
X3591857Y-12139952D01*
X3582333Y-12130428D01*
X3572809Y-12111381D01*
X3563286Y-12073286D01*
X3563286Y-12025667D01*
X3572809Y-11987571D01*
X3582333Y-11968524D01*
X3591857Y-11959000D01*
X3610905Y-11949476D01*
X3801381Y-11949476D02*
X3820428Y-11949476D01*
X3839476Y-11959000D01*
X3849000Y-11968524D01*
X3858524Y-11987571D01*
X3868048Y-12025667D01*
X3868048Y-12073286D01*
X3858524Y-12111381D01*
X3849000Y-12130428D01*
X3839476Y-12139952D01*
X3820428Y-12149476D01*
X3801381Y-12149476D01*
X3782333Y-12139952D01*
X3772809Y-12130428D01*
X3763286Y-12111381D01*
X3753762Y-12073286D01*
X3753762Y-12025667D01*
X3763286Y-11987571D01*
X3772809Y-11968524D01*
X3782333Y-11959000D01*
X3801381Y-11949476D01*
X3953762Y-12149476D02*
X3953762Y-12016143D01*
X3953762Y-12035190D02*
X3963286Y-12025667D01*
X3982333Y-12016143D01*
X4010905Y-12016143D01*
X4029952Y-12025667D01*
X4039476Y-12044714D01*
X4039476Y-12149476D01*
X4039476Y-12044714D02*
X4049000Y-12025667D01*
X4068048Y-12016143D01*
X4096619Y-12016143D01*
X4115667Y-12025667D01*
X4125190Y-12044714D01*
X4125190Y-12149476D01*
X4220429Y-12149476D02*
X4220429Y-12016143D01*
X4220429Y-12035190D02*
X4229952Y-12025667D01*
X4249000Y-12016143D01*
X4277571Y-12016143D01*
X4296619Y-12025667D01*
X4306143Y-12044714D01*
X4306143Y-12149476D01*
X4306143Y-12044714D02*
X4315667Y-12025667D01*
X4334714Y-12016143D01*
X4363286Y-12016143D01*
X4382333Y-12025667D01*
X4391857Y-12044714D01*
X4391857Y-12149476D01*
X4782333Y-11939952D02*
X4610905Y-12197095D01*
X5039476Y-11949476D02*
X5058524Y-11949476D01*
X5077571Y-11959000D01*
X5087095Y-11968524D01*
X5096619Y-11987571D01*
X5106143Y-12025667D01*
X5106143Y-12073286D01*
X5096619Y-12111381D01*
X5087095Y-12130428D01*
X5077571Y-12139952D01*
X5058524Y-12149476D01*
X5039476Y-12149476D01*
X5020429Y-12139952D01*
X5010905Y-12130428D01*
X5001381Y-12111381D01*
X4991857Y-12073286D01*
X4991857Y-12025667D01*
X5001381Y-11987571D01*
X5010905Y-11968524D01*
X5020429Y-11959000D01*
X5039476Y-11949476D01*
X5191857Y-12130428D02*
X5201381Y-12139952D01*
X5191857Y-12149476D01*
X5182333Y-12139952D01*
X5191857Y-12130428D01*
X5191857Y-12149476D01*
X5325190Y-11949476D02*
X5344238Y-11949476D01*
X5363286Y-11959000D01*
X5372810Y-11968524D01*
X5382333Y-11987571D01*
X5391857Y-12025667D01*
X5391857Y-12073286D01*
X5382333Y-12111381D01*
X5372810Y-12130428D01*
X5363286Y-12139952D01*
X5344238Y-12149476D01*
X5325190Y-12149476D01*
X5306143Y-12139952D01*
X5296619Y-12130428D01*
X5287095Y-12111381D01*
X5277571Y-12073286D01*
X5277571Y-12025667D01*
X5287095Y-11987571D01*
X5296619Y-11968524D01*
X5306143Y-11959000D01*
X5325190Y-11949476D01*
X5458524Y-11949476D02*
X5582333Y-11949476D01*
X5515667Y-12025667D01*
X5544238Y-12025667D01*
X5563286Y-12035190D01*
X5572810Y-12044714D01*
X5582333Y-12063762D01*
X5582333Y-12111381D01*
X5572810Y-12130428D01*
X5563286Y-12139952D01*
X5544238Y-12149476D01*
X5487095Y-12149476D01*
X5468048Y-12139952D01*
X5458524Y-12130428D01*
X5772809Y-12149476D02*
X5658524Y-12149476D01*
X5715667Y-12149476D02*
X5715667Y-11949476D01*
X5696619Y-11978048D01*
X5677571Y-11997095D01*
X5658524Y-12006619D01*
X5953762Y-11949476D02*
X5858524Y-11949476D01*
X5849000Y-12044714D01*
X5858524Y-12035190D01*
X5877571Y-12025667D01*
X5925190Y-12025667D01*
X5944238Y-12035190D01*
X5953762Y-12044714D01*
X5963286Y-12063762D01*
X5963286Y-12111381D01*
X5953762Y-12130428D01*
X5944238Y-12139952D01*
X5925190Y-12149476D01*
X5877571Y-12149476D01*
X5858524Y-12139952D01*
X5849000Y-12130428D01*
X6039476Y-11949476D02*
X6039476Y-11987571D01*
X6115667Y-11949476D02*
X6115667Y-11987571D01*
X6410905Y-12225667D02*
X6401381Y-12216143D01*
X6382333Y-12187571D01*
X6372809Y-12168524D01*
X6363286Y-12139952D01*
X6353762Y-12092333D01*
X6353762Y-12054238D01*
X6363286Y-12006619D01*
X6372809Y-11978048D01*
X6382333Y-11959000D01*
X6401381Y-11930428D01*
X6410905Y-11920905D01*
X6572809Y-12016143D02*
X6572809Y-12149476D01*
X6525190Y-11939952D02*
X6477571Y-12082809D01*
X6601381Y-12082809D01*
X6829952Y-12149476D02*
X6829952Y-11949476D01*
X6915667Y-12149476D02*
X6915667Y-12044714D01*
X6906143Y-12025667D01*
X6887095Y-12016143D01*
X6858524Y-12016143D01*
X6839476Y-12025667D01*
X6829952Y-12035190D01*
X7039476Y-12149476D02*
X7020428Y-12139952D01*
X7010905Y-12130428D01*
X7001381Y-12111381D01*
X7001381Y-12054238D01*
X7010905Y-12035190D01*
X7020428Y-12025667D01*
X7039476Y-12016143D01*
X7068048Y-12016143D01*
X7087095Y-12025667D01*
X7096619Y-12035190D01*
X7106143Y-12054238D01*
X7106143Y-12111381D01*
X7096619Y-12130428D01*
X7087095Y-12139952D01*
X7068048Y-12149476D01*
X7039476Y-12149476D01*
X7220428Y-12149476D02*
X7201381Y-12139952D01*
X7191857Y-12120905D01*
X7191857Y-11949476D01*
X7372809Y-12139952D02*
X7353762Y-12149476D01*
X7315667Y-12149476D01*
X7296619Y-12139952D01*
X7287095Y-12120905D01*
X7287095Y-12044714D01*
X7296619Y-12025667D01*
X7315667Y-12016143D01*
X7353762Y-12016143D01*
X7372809Y-12025667D01*
X7382333Y-12044714D01*
X7382333Y-12063762D01*
X7287095Y-12082809D01*
X7458524Y-12139952D02*
X7477571Y-12149476D01*
X7515667Y-12149476D01*
X7534714Y-12139952D01*
X7544238Y-12120905D01*
X7544238Y-12111381D01*
X7534714Y-12092333D01*
X7515667Y-12082809D01*
X7487095Y-12082809D01*
X7468048Y-12073286D01*
X7458524Y-12054238D01*
X7458524Y-12044714D01*
X7468048Y-12025667D01*
X7487095Y-12016143D01*
X7515667Y-12016143D01*
X7534714Y-12025667D01*
X7610905Y-12225667D02*
X7620428Y-12216143D01*
X7639476Y-12187571D01*
X7649000Y-12168524D01*
X7658524Y-12139952D01*
X7668048Y-12092333D01*
X7668048Y-12054238D01*
X7658524Y-12006619D01*
X7649000Y-11978048D01*
X7639476Y-11959000D01*
X7620428Y-11930428D01*
X7610905Y-11920905D01*
D14*
X2793280Y-12277280D02*
X2793280Y-12368720D01*
X2747560Y-12323000D02*
X2839000Y-12323000D01*
D11*
X3134714Y-12213476D02*
X3153762Y-12213476D01*
X3172809Y-12223000D01*
X3182333Y-12232524D01*
X3191857Y-12251571D01*
X3201381Y-12289667D01*
X3201381Y-12337286D01*
X3191857Y-12375381D01*
X3182333Y-12394428D01*
X3172809Y-12403952D01*
X3153762Y-12413476D01*
X3134714Y-12413476D01*
X3115667Y-12403952D01*
X3106143Y-12394428D01*
X3096619Y-12375381D01*
X3087095Y-12337286D01*
X3087095Y-12289667D01*
X3096619Y-12251571D01*
X3106143Y-12232524D01*
X3115667Y-12223000D01*
X3134714Y-12213476D01*
X3287095Y-12394428D02*
X3296619Y-12403952D01*
X3287095Y-12413476D01*
X3277571Y-12403952D01*
X3287095Y-12394428D01*
X3287095Y-12413476D01*
X3391857Y-12413476D02*
X3429952Y-12413476D01*
X3449000Y-12403952D01*
X3458524Y-12394428D01*
X3477571Y-12365857D01*
X3487095Y-12327762D01*
X3487095Y-12251571D01*
X3477571Y-12232524D01*
X3468048Y-12223000D01*
X3449000Y-12213476D01*
X3410905Y-12213476D01*
X3391857Y-12223000D01*
X3382333Y-12232524D01*
X3372809Y-12251571D01*
X3372809Y-12299190D01*
X3382333Y-12318238D01*
X3391857Y-12327762D01*
X3410905Y-12337286D01*
X3449000Y-12337286D01*
X3468048Y-12327762D01*
X3477571Y-12318238D01*
X3487095Y-12299190D01*
X3677571Y-12413476D02*
X3563286Y-12413476D01*
X3620428Y-12413476D02*
X3620428Y-12213476D01*
X3601381Y-12242048D01*
X3582333Y-12261095D01*
X3563286Y-12270619D01*
X3849000Y-12280143D02*
X3849000Y-12413476D01*
X3801381Y-12203952D02*
X3753762Y-12346809D01*
X3877571Y-12346809D01*
X3953762Y-12413476D02*
X3953762Y-12280143D01*
X3953762Y-12299190D02*
X3963286Y-12289667D01*
X3982333Y-12280143D01*
X4010905Y-12280143D01*
X4029952Y-12289667D01*
X4039476Y-12308714D01*
X4039476Y-12413476D01*
X4039476Y-12308714D02*
X4049000Y-12289667D01*
X4068048Y-12280143D01*
X4096619Y-12280143D01*
X4115667Y-12289667D01*
X4125190Y-12308714D01*
X4125190Y-12413476D01*
X4220429Y-12413476D02*
X4220429Y-12280143D01*
X4220429Y-12299190D02*
X4229952Y-12289667D01*
X4249000Y-12280143D01*
X4277571Y-12280143D01*
X4296619Y-12289667D01*
X4306143Y-12308714D01*
X4306143Y-12413476D01*
X4306143Y-12308714D02*
X4315667Y-12289667D01*
X4334714Y-12280143D01*
X4363286Y-12280143D01*
X4382333Y-12289667D01*
X4391857Y-12308714D01*
X4391857Y-12413476D01*
X4782333Y-12203952D02*
X4610905Y-12461095D01*
X5039476Y-12213476D02*
X5058524Y-12213476D01*
X5077571Y-12223000D01*
X5087095Y-12232524D01*
X5096619Y-12251571D01*
X5106143Y-12289667D01*
X5106143Y-12337286D01*
X5096619Y-12375381D01*
X5087095Y-12394428D01*
X5077571Y-12403952D01*
X5058524Y-12413476D01*
X5039476Y-12413476D01*
X5020429Y-12403952D01*
X5010905Y-12394428D01*
X5001381Y-12375381D01*
X4991857Y-12337286D01*
X4991857Y-12289667D01*
X5001381Y-12251571D01*
X5010905Y-12232524D01*
X5020429Y-12223000D01*
X5039476Y-12213476D01*
X5191857Y-12394428D02*
X5201381Y-12403952D01*
X5191857Y-12413476D01*
X5182333Y-12403952D01*
X5191857Y-12394428D01*
X5191857Y-12413476D01*
X5325190Y-12213476D02*
X5344238Y-12213476D01*
X5363286Y-12223000D01*
X5372810Y-12232524D01*
X5382333Y-12251571D01*
X5391857Y-12289667D01*
X5391857Y-12337286D01*
X5382333Y-12375381D01*
X5372810Y-12394428D01*
X5363286Y-12403952D01*
X5344238Y-12413476D01*
X5325190Y-12413476D01*
X5306143Y-12403952D01*
X5296619Y-12394428D01*
X5287095Y-12375381D01*
X5277571Y-12337286D01*
X5277571Y-12289667D01*
X5287095Y-12251571D01*
X5296619Y-12232524D01*
X5306143Y-12223000D01*
X5325190Y-12213476D01*
X5458524Y-12213476D02*
X5582333Y-12213476D01*
X5515667Y-12289667D01*
X5544238Y-12289667D01*
X5563286Y-12299190D01*
X5572810Y-12308714D01*
X5582333Y-12327762D01*
X5582333Y-12375381D01*
X5572810Y-12394428D01*
X5563286Y-12403952D01*
X5544238Y-12413476D01*
X5487095Y-12413476D01*
X5468048Y-12403952D01*
X5458524Y-12394428D01*
X5753762Y-12213476D02*
X5715667Y-12213476D01*
X5696619Y-12223000D01*
X5687095Y-12232524D01*
X5668048Y-12261095D01*
X5658524Y-12299190D01*
X5658524Y-12375381D01*
X5668048Y-12394428D01*
X5677571Y-12403952D01*
X5696619Y-12413476D01*
X5734714Y-12413476D01*
X5753762Y-12403952D01*
X5763286Y-12394428D01*
X5772809Y-12375381D01*
X5772809Y-12327762D01*
X5763286Y-12308714D01*
X5753762Y-12299190D01*
X5734714Y-12289667D01*
X5696619Y-12289667D01*
X5677571Y-12299190D01*
X5668048Y-12308714D01*
X5658524Y-12327762D01*
X5896619Y-12213476D02*
X5915667Y-12213476D01*
X5934714Y-12223000D01*
X5944238Y-12232524D01*
X5953762Y-12251571D01*
X5963286Y-12289667D01*
X5963286Y-12337286D01*
X5953762Y-12375381D01*
X5944238Y-12394428D01*
X5934714Y-12403952D01*
X5915667Y-12413476D01*
X5896619Y-12413476D01*
X5877571Y-12403952D01*
X5868048Y-12394428D01*
X5858524Y-12375381D01*
X5849000Y-12337286D01*
X5849000Y-12289667D01*
X5858524Y-12251571D01*
X5868048Y-12232524D01*
X5877571Y-12223000D01*
X5896619Y-12213476D01*
X6039476Y-12213476D02*
X6039476Y-12251571D01*
X6115667Y-12213476D02*
X6115667Y-12251571D01*
X6410905Y-12489667D02*
X6401381Y-12480143D01*
X6382333Y-12451571D01*
X6372809Y-12432524D01*
X6363286Y-12403952D01*
X6353762Y-12356333D01*
X6353762Y-12318238D01*
X6363286Y-12270619D01*
X6372809Y-12242048D01*
X6382333Y-12223000D01*
X6401381Y-12194428D01*
X6410905Y-12184905D01*
X6477571Y-12232524D02*
X6487095Y-12223000D01*
X6506143Y-12213476D01*
X6553762Y-12213476D01*
X6572809Y-12223000D01*
X6582333Y-12232524D01*
X6591857Y-12251571D01*
X6591857Y-12270619D01*
X6582333Y-12299190D01*
X6468048Y-12413476D01*
X6591857Y-12413476D01*
X6715667Y-12213476D02*
X6734714Y-12213476D01*
X6753762Y-12223000D01*
X6763286Y-12232524D01*
X6772809Y-12251571D01*
X6782333Y-12289667D01*
X6782333Y-12337286D01*
X6772809Y-12375381D01*
X6763286Y-12394428D01*
X6753762Y-12403952D01*
X6734714Y-12413476D01*
X6715667Y-12413476D01*
X6696619Y-12403952D01*
X6687095Y-12394428D01*
X6677571Y-12375381D01*
X6668048Y-12337286D01*
X6668048Y-12289667D01*
X6677571Y-12251571D01*
X6687095Y-12232524D01*
X6696619Y-12223000D01*
X6715667Y-12213476D01*
X7020428Y-12413476D02*
X7020428Y-12213476D01*
X7106143Y-12413476D02*
X7106143Y-12308714D01*
X7096619Y-12289667D01*
X7077571Y-12280143D01*
X7049000Y-12280143D01*
X7029952Y-12289667D01*
X7020428Y-12299190D01*
X7229952Y-12413476D02*
X7210905Y-12403952D01*
X7201381Y-12394428D01*
X7191857Y-12375381D01*
X7191857Y-12318238D01*
X7201381Y-12299190D01*
X7210905Y-12289667D01*
X7229952Y-12280143D01*
X7258524Y-12280143D01*
X7277571Y-12289667D01*
X7287095Y-12299190D01*
X7296619Y-12318238D01*
X7296619Y-12375381D01*
X7287095Y-12394428D01*
X7277571Y-12403952D01*
X7258524Y-12413476D01*
X7229952Y-12413476D01*
X7410905Y-12413476D02*
X7391857Y-12403952D01*
X7382333Y-12384905D01*
X7382333Y-12213476D01*
X7563286Y-12403952D02*
X7544238Y-12413476D01*
X7506143Y-12413476D01*
X7487095Y-12403952D01*
X7477571Y-12384905D01*
X7477571Y-12308714D01*
X7487095Y-12289667D01*
X7506143Y-12280143D01*
X7544238Y-12280143D01*
X7563286Y-12289667D01*
X7572809Y-12308714D01*
X7572809Y-12327762D01*
X7477571Y-12346809D01*
X7649000Y-12403952D02*
X7668048Y-12413476D01*
X7706143Y-12413476D01*
X7725190Y-12403952D01*
X7734714Y-12384905D01*
X7734714Y-12375381D01*
X7725190Y-12356333D01*
X7706143Y-12346809D01*
X7677571Y-12346809D01*
X7658524Y-12337286D01*
X7649000Y-12318238D01*
X7649000Y-12308714D01*
X7658524Y-12289667D01*
X7677571Y-12280143D01*
X7706143Y-12280143D01*
X7725190Y-12289667D01*
X7801381Y-12489667D02*
X7810905Y-12480143D01*
X7829952Y-12451571D01*
X7839476Y-12432524D01*
X7849000Y-12403952D01*
X7858524Y-12356333D01*
X7858524Y-12318238D01*
X7849000Y-12270619D01*
X7839476Y-12242048D01*
X7829952Y-12223000D01*
X7810905Y-12194428D01*
X7801381Y-12184905D01*
D15*
X2824356Y-12622356D02*
X2824356Y-12551644D01*
X2753644Y-12551644D01*
X2753644Y-12622356D01*
X2824356Y-12622356D01*
D11*
X3201381Y-12677476D02*
X3087095Y-12677476D01*
X3144238Y-12677476D02*
X3144238Y-12477476D01*
X3125190Y-12506048D01*
X3106143Y-12525095D01*
X3087095Y-12534619D01*
X3287095Y-12658428D02*
X3296619Y-12667952D01*
X3287095Y-12677476D01*
X3277571Y-12667952D01*
X3287095Y-12658428D01*
X3287095Y-12677476D01*
X3420428Y-12477476D02*
X3439476Y-12477476D01*
X3458524Y-12487000D01*
X3468048Y-12496524D01*
X3477571Y-12515571D01*
X3487095Y-12553667D01*
X3487095Y-12601286D01*
X3477571Y-12639381D01*
X3468048Y-12658428D01*
X3458524Y-12667952D01*
X3439476Y-12677476D01*
X3420428Y-12677476D01*
X3401381Y-12667952D01*
X3391857Y-12658428D01*
X3382333Y-12639381D01*
X3372809Y-12601286D01*
X3372809Y-12553667D01*
X3382333Y-12515571D01*
X3391857Y-12496524D01*
X3401381Y-12487000D01*
X3420428Y-12477476D01*
X3610905Y-12477476D02*
X3629952Y-12477476D01*
X3649000Y-12487000D01*
X3658524Y-12496524D01*
X3668048Y-12515571D01*
X3677571Y-12553667D01*
X3677571Y-12601286D01*
X3668048Y-12639381D01*
X3658524Y-12658428D01*
X3649000Y-12667952D01*
X3629952Y-12677476D01*
X3610905Y-12677476D01*
X3591857Y-12667952D01*
X3582333Y-12658428D01*
X3572809Y-12639381D01*
X3563286Y-12601286D01*
X3563286Y-12553667D01*
X3572809Y-12515571D01*
X3582333Y-12496524D01*
X3591857Y-12487000D01*
X3610905Y-12477476D01*
X3801381Y-12477476D02*
X3820428Y-12477476D01*
X3839476Y-12487000D01*
X3849000Y-12496524D01*
X3858524Y-12515571D01*
X3868048Y-12553667D01*
X3868048Y-12601286D01*
X3858524Y-12639381D01*
X3849000Y-12658428D01*
X3839476Y-12667952D01*
X3820428Y-12677476D01*
X3801381Y-12677476D01*
X3782333Y-12667952D01*
X3772809Y-12658428D01*
X3763286Y-12639381D01*
X3753762Y-12601286D01*
X3753762Y-12553667D01*
X3763286Y-12515571D01*
X3772809Y-12496524D01*
X3782333Y-12487000D01*
X3801381Y-12477476D01*
X3953762Y-12677476D02*
X3953762Y-12544143D01*
X3953762Y-12563190D02*
X3963286Y-12553667D01*
X3982333Y-12544143D01*
X4010905Y-12544143D01*
X4029952Y-12553667D01*
X4039476Y-12572714D01*
X4039476Y-12677476D01*
X4039476Y-12572714D02*
X4049000Y-12553667D01*
X4068048Y-12544143D01*
X4096619Y-12544143D01*
X4115667Y-12553667D01*
X4125190Y-12572714D01*
X4125190Y-12677476D01*
X4220429Y-12677476D02*
X4220429Y-12544143D01*
X4220429Y-12563190D02*
X4229952Y-12553667D01*
X4249000Y-12544143D01*
X4277571Y-12544143D01*
X4296619Y-12553667D01*
X4306143Y-12572714D01*
X4306143Y-12677476D01*
X4306143Y-12572714D02*
X4315667Y-12553667D01*
X4334714Y-12544143D01*
X4363286Y-12544143D01*
X4382333Y-12553667D01*
X4391857Y-12572714D01*
X4391857Y-12677476D01*
X4782333Y-12467952D02*
X4610905Y-12725095D01*
X5039476Y-12477476D02*
X5058524Y-12477476D01*
X5077571Y-12487000D01*
X5087095Y-12496524D01*
X5096619Y-12515571D01*
X5106143Y-12553667D01*
X5106143Y-12601286D01*
X5096619Y-12639381D01*
X5087095Y-12658428D01*
X5077571Y-12667952D01*
X5058524Y-12677476D01*
X5039476Y-12677476D01*
X5020429Y-12667952D01*
X5010905Y-12658428D01*
X5001381Y-12639381D01*
X4991857Y-12601286D01*
X4991857Y-12553667D01*
X5001381Y-12515571D01*
X5010905Y-12496524D01*
X5020429Y-12487000D01*
X5039476Y-12477476D01*
X5191857Y-12658428D02*
X5201381Y-12667952D01*
X5191857Y-12677476D01*
X5182333Y-12667952D01*
X5191857Y-12658428D01*
X5191857Y-12677476D01*
X5325190Y-12477476D02*
X5344238Y-12477476D01*
X5363286Y-12487000D01*
X5372810Y-12496524D01*
X5382333Y-12515571D01*
X5391857Y-12553667D01*
X5391857Y-12601286D01*
X5382333Y-12639381D01*
X5372810Y-12658428D01*
X5363286Y-12667952D01*
X5344238Y-12677476D01*
X5325190Y-12677476D01*
X5306143Y-12667952D01*
X5296619Y-12658428D01*
X5287095Y-12639381D01*
X5277571Y-12601286D01*
X5277571Y-12553667D01*
X5287095Y-12515571D01*
X5296619Y-12496524D01*
X5306143Y-12487000D01*
X5325190Y-12477476D01*
X5458524Y-12477476D02*
X5582333Y-12477476D01*
X5515667Y-12553667D01*
X5544238Y-12553667D01*
X5563286Y-12563190D01*
X5572810Y-12572714D01*
X5582333Y-12591762D01*
X5582333Y-12639381D01*
X5572810Y-12658428D01*
X5563286Y-12667952D01*
X5544238Y-12677476D01*
X5487095Y-12677476D01*
X5468048Y-12667952D01*
X5458524Y-12658428D01*
X5677571Y-12677476D02*
X5715667Y-12677476D01*
X5734714Y-12667952D01*
X5744238Y-12658428D01*
X5763286Y-12629857D01*
X5772809Y-12591762D01*
X5772809Y-12515571D01*
X5763286Y-12496524D01*
X5753762Y-12487000D01*
X5734714Y-12477476D01*
X5696619Y-12477476D01*
X5677571Y-12487000D01*
X5668048Y-12496524D01*
X5658524Y-12515571D01*
X5658524Y-12563190D01*
X5668048Y-12582238D01*
X5677571Y-12591762D01*
X5696619Y-12601286D01*
X5734714Y-12601286D01*
X5753762Y-12591762D01*
X5763286Y-12582238D01*
X5772809Y-12563190D01*
X5944238Y-12544143D02*
X5944238Y-12677476D01*
X5896619Y-12467952D02*
X5849000Y-12610809D01*
X5972809Y-12610809D01*
X6039476Y-12477476D02*
X6039476Y-12515571D01*
X6115667Y-12477476D02*
X6115667Y-12515571D01*
X6410905Y-12753667D02*
X6401381Y-12744143D01*
X6382333Y-12715571D01*
X6372809Y-12696524D01*
X6363286Y-12667952D01*
X6353762Y-12620333D01*
X6353762Y-12582238D01*
X6363286Y-12534619D01*
X6372809Y-12506048D01*
X6382333Y-12487000D01*
X6401381Y-12458428D01*
X6410905Y-12448905D01*
X6572809Y-12544143D02*
X6572809Y-12677476D01*
X6525190Y-12467952D02*
X6477571Y-12610809D01*
X6601381Y-12610809D01*
X6658524Y-12477476D02*
X6791857Y-12477476D01*
X6706143Y-12677476D01*
X7020428Y-12677476D02*
X7020428Y-12477476D01*
X7106143Y-12677476D02*
X7106143Y-12572714D01*
X7096619Y-12553667D01*
X7077571Y-12544143D01*
X7049000Y-12544143D01*
X7029952Y-12553667D01*
X7020428Y-12563190D01*
X7229952Y-12677476D02*
X7210905Y-12667952D01*
X7201381Y-12658428D01*
X7191857Y-12639381D01*
X7191857Y-12582238D01*
X7201381Y-12563190D01*
X7210905Y-12553667D01*
X7229952Y-12544143D01*
X7258524Y-12544143D01*
X7277571Y-12553667D01*
X7287095Y-12563190D01*
X7296619Y-12582238D01*
X7296619Y-12639381D01*
X7287095Y-12658428D01*
X7277571Y-12667952D01*
X7258524Y-12677476D01*
X7229952Y-12677476D01*
X7410905Y-12677476D02*
X7391857Y-12667952D01*
X7382333Y-12648905D01*
X7382333Y-12477476D01*
X7563286Y-12667952D02*
X7544238Y-12677476D01*
X7506143Y-12677476D01*
X7487095Y-12667952D01*
X7477571Y-12648905D01*
X7477571Y-12572714D01*
X7487095Y-12553667D01*
X7506143Y-12544143D01*
X7544238Y-12544143D01*
X7563286Y-12553667D01*
X7572809Y-12572714D01*
X7572809Y-12591762D01*
X7477571Y-12610809D01*
X7649000Y-12667952D02*
X7668048Y-12677476D01*
X7706143Y-12677476D01*
X7725190Y-12667952D01*
X7734714Y-12648905D01*
X7734714Y-12639381D01*
X7725190Y-12620333D01*
X7706143Y-12610809D01*
X7677571Y-12610809D01*
X7658524Y-12601286D01*
X7649000Y-12582238D01*
X7649000Y-12572714D01*
X7658524Y-12553667D01*
X7677571Y-12544143D01*
X7706143Y-12544143D01*
X7725190Y-12553667D01*
X7801381Y-12753667D02*
X7810905Y-12744143D01*
X7829952Y-12715571D01*
X7839476Y-12696524D01*
X7849000Y-12667952D01*
X7858524Y-12620333D01*
X7858524Y-12582238D01*
X7849000Y-12534619D01*
X7839476Y-12506048D01*
X7829952Y-12487000D01*
X7810905Y-12458428D01*
X7801381Y-12448905D01*
D16*
X2784000Y-12906000D02*
X2839000Y-12851000D01*
X2784000Y-12796000D01*
X2729000Y-12851000D01*
X2784000Y-12906000D01*
D11*
X3201381Y-12941476D02*
X3087095Y-12941476D01*
X3144238Y-12941476D02*
X3144238Y-12741476D01*
X3125190Y-12770048D01*
X3106143Y-12789095D01*
X3087095Y-12798619D01*
X3287095Y-12922428D02*
X3296619Y-12931952D01*
X3287095Y-12941476D01*
X3277571Y-12931952D01*
X3287095Y-12922428D01*
X3287095Y-12941476D01*
X3487095Y-12941476D02*
X3372809Y-12941476D01*
X3429952Y-12941476D02*
X3429952Y-12741476D01*
X3410905Y-12770048D01*
X3391857Y-12789095D01*
X3372809Y-12798619D01*
X3610905Y-12741476D02*
X3629952Y-12741476D01*
X3649000Y-12751000D01*
X3658524Y-12760524D01*
X3668048Y-12779571D01*
X3677571Y-12817667D01*
X3677571Y-12865286D01*
X3668048Y-12903381D01*
X3658524Y-12922428D01*
X3649000Y-12931952D01*
X3629952Y-12941476D01*
X3610905Y-12941476D01*
X3591857Y-12931952D01*
X3582333Y-12922428D01*
X3572809Y-12903381D01*
X3563286Y-12865286D01*
X3563286Y-12817667D01*
X3572809Y-12779571D01*
X3582333Y-12760524D01*
X3591857Y-12751000D01*
X3610905Y-12741476D01*
X3801381Y-12741476D02*
X3820428Y-12741476D01*
X3839476Y-12751000D01*
X3849000Y-12760524D01*
X3858524Y-12779571D01*
X3868048Y-12817667D01*
X3868048Y-12865286D01*
X3858524Y-12903381D01*
X3849000Y-12922428D01*
X3839476Y-12931952D01*
X3820428Y-12941476D01*
X3801381Y-12941476D01*
X3782333Y-12931952D01*
X3772809Y-12922428D01*
X3763286Y-12903381D01*
X3753762Y-12865286D01*
X3753762Y-12817667D01*
X3763286Y-12779571D01*
X3772809Y-12760524D01*
X3782333Y-12751000D01*
X3801381Y-12741476D01*
X3953762Y-12941476D02*
X3953762Y-12808143D01*
X3953762Y-12827190D02*
X3963286Y-12817667D01*
X3982333Y-12808143D01*
X4010905Y-12808143D01*
X4029952Y-12817667D01*
X4039476Y-12836714D01*
X4039476Y-12941476D01*
X4039476Y-12836714D02*
X4049000Y-12817667D01*
X4068048Y-12808143D01*
X4096619Y-12808143D01*
X4115667Y-12817667D01*
X4125190Y-12836714D01*
X4125190Y-12941476D01*
X4220429Y-12941476D02*
X4220429Y-12808143D01*
X4220429Y-12827190D02*
X4229952Y-12817667D01*
X4249000Y-12808143D01*
X4277571Y-12808143D01*
X4296619Y-12817667D01*
X4306143Y-12836714D01*
X4306143Y-12941476D01*
X4306143Y-12836714D02*
X4315667Y-12817667D01*
X4334714Y-12808143D01*
X4363286Y-12808143D01*
X4382333Y-12817667D01*
X4391857Y-12836714D01*
X4391857Y-12941476D01*
X4782333Y-12731952D02*
X4610905Y-12989095D01*
X5039476Y-12741476D02*
X5058524Y-12741476D01*
X5077571Y-12751000D01*
X5087095Y-12760524D01*
X5096619Y-12779571D01*
X5106143Y-12817667D01*
X5106143Y-12865286D01*
X5096619Y-12903381D01*
X5087095Y-12922428D01*
X5077571Y-12931952D01*
X5058524Y-12941476D01*
X5039476Y-12941476D01*
X5020429Y-12931952D01*
X5010905Y-12922428D01*
X5001381Y-12903381D01*
X4991857Y-12865286D01*
X4991857Y-12817667D01*
X5001381Y-12779571D01*
X5010905Y-12760524D01*
X5020429Y-12751000D01*
X5039476Y-12741476D01*
X5191857Y-12922428D02*
X5201381Y-12931952D01*
X5191857Y-12941476D01*
X5182333Y-12931952D01*
X5191857Y-12922428D01*
X5191857Y-12941476D01*
X5325190Y-12741476D02*
X5344238Y-12741476D01*
X5363286Y-12751000D01*
X5372810Y-12760524D01*
X5382333Y-12779571D01*
X5391857Y-12817667D01*
X5391857Y-12865286D01*
X5382333Y-12903381D01*
X5372810Y-12922428D01*
X5363286Y-12931952D01*
X5344238Y-12941476D01*
X5325190Y-12941476D01*
X5306143Y-12931952D01*
X5296619Y-12922428D01*
X5287095Y-12903381D01*
X5277571Y-12865286D01*
X5277571Y-12817667D01*
X5287095Y-12779571D01*
X5296619Y-12760524D01*
X5306143Y-12751000D01*
X5325190Y-12741476D01*
X5563286Y-12808143D02*
X5563286Y-12941476D01*
X5515667Y-12731952D02*
X5468048Y-12874809D01*
X5591857Y-12874809D01*
X5649000Y-12741476D02*
X5772809Y-12741476D01*
X5706143Y-12817667D01*
X5734714Y-12817667D01*
X5753762Y-12827190D01*
X5763286Y-12836714D01*
X5772809Y-12855762D01*
X5772809Y-12903381D01*
X5763286Y-12922428D01*
X5753762Y-12931952D01*
X5734714Y-12941476D01*
X5677571Y-12941476D01*
X5658524Y-12931952D01*
X5649000Y-12922428D01*
X5839476Y-12741476D02*
X5963286Y-12741476D01*
X5896619Y-12817667D01*
X5925190Y-12817667D01*
X5944238Y-12827190D01*
X5953762Y-12836714D01*
X5963286Y-12855762D01*
X5963286Y-12903381D01*
X5953762Y-12922428D01*
X5944238Y-12931952D01*
X5925190Y-12941476D01*
X5868048Y-12941476D01*
X5849000Y-12931952D01*
X5839476Y-12922428D01*
X6039476Y-12741476D02*
X6039476Y-12779571D01*
X6115667Y-12741476D02*
X6115667Y-12779571D01*
X6410905Y-13017667D02*
X6401381Y-13008143D01*
X6382333Y-12979571D01*
X6372809Y-12960524D01*
X6363286Y-12931952D01*
X6353762Y-12884333D01*
X6353762Y-12846238D01*
X6363286Y-12798619D01*
X6372809Y-12770048D01*
X6382333Y-12751000D01*
X6401381Y-12722428D01*
X6410905Y-12712905D01*
X6468048Y-12741476D02*
X6591857Y-12741476D01*
X6525190Y-12817667D01*
X6553762Y-12817667D01*
X6572809Y-12827190D01*
X6582333Y-12836714D01*
X6591857Y-12855762D01*
X6591857Y-12903381D01*
X6582333Y-12922428D01*
X6572809Y-12931952D01*
X6553762Y-12941476D01*
X6496619Y-12941476D01*
X6477571Y-12931952D01*
X6468048Y-12922428D01*
X6763286Y-12741476D02*
X6725190Y-12741476D01*
X6706143Y-12751000D01*
X6696619Y-12760524D01*
X6677571Y-12789095D01*
X6668048Y-12827190D01*
X6668048Y-12903381D01*
X6677571Y-12922428D01*
X6687095Y-12931952D01*
X6706143Y-12941476D01*
X6744238Y-12941476D01*
X6763286Y-12931952D01*
X6772809Y-12922428D01*
X6782333Y-12903381D01*
X6782333Y-12855762D01*
X6772809Y-12836714D01*
X6763286Y-12827190D01*
X6744238Y-12817667D01*
X6706143Y-12817667D01*
X6687095Y-12827190D01*
X6677571Y-12836714D01*
X6668048Y-12855762D01*
X7020428Y-12941476D02*
X7020428Y-12741476D01*
X7106143Y-12941476D02*
X7106143Y-12836714D01*
X7096619Y-12817667D01*
X7077571Y-12808143D01*
X7049000Y-12808143D01*
X7029952Y-12817667D01*
X7020428Y-12827190D01*
X7229952Y-12941476D02*
X7210905Y-12931952D01*
X7201381Y-12922428D01*
X7191857Y-12903381D01*
X7191857Y-12846238D01*
X7201381Y-12827190D01*
X7210905Y-12817667D01*
X7229952Y-12808143D01*
X7258524Y-12808143D01*
X7277571Y-12817667D01*
X7287095Y-12827190D01*
X7296619Y-12846238D01*
X7296619Y-12903381D01*
X7287095Y-12922428D01*
X7277571Y-12931952D01*
X7258524Y-12941476D01*
X7229952Y-12941476D01*
X7410905Y-12941476D02*
X7391857Y-12931952D01*
X7382333Y-12912905D01*
X7382333Y-12741476D01*
X7563286Y-12931952D02*
X7544238Y-12941476D01*
X7506143Y-12941476D01*
X7487095Y-12931952D01*
X7477571Y-12912905D01*
X7477571Y-12836714D01*
X7487095Y-12817667D01*
X7506143Y-12808143D01*
X7544238Y-12808143D01*
X7563286Y-12817667D01*
X7572809Y-12836714D01*
X7572809Y-12855762D01*
X7477571Y-12874809D01*
X7649000Y-12931952D02*
X7668048Y-12941476D01*
X7706143Y-12941476D01*
X7725190Y-12931952D01*
X7734714Y-12912905D01*
X7734714Y-12903381D01*
X7725190Y-12884333D01*
X7706143Y-12874809D01*
X7677571Y-12874809D01*
X7658524Y-12865286D01*
X7649000Y-12846238D01*
X7649000Y-12836714D01*
X7658524Y-12817667D01*
X7677571Y-12808143D01*
X7706143Y-12808143D01*
X7725190Y-12817667D01*
X7801381Y-13017667D02*
X7810905Y-13008143D01*
X7829952Y-12979571D01*
X7839476Y-12960524D01*
X7849000Y-12931952D01*
X7858524Y-12884333D01*
X7858524Y-12846238D01*
X7849000Y-12798619D01*
X7839476Y-12770048D01*
X7829952Y-12751000D01*
X7810905Y-12722428D01*
X7801381Y-12712905D01*
D17*
X2719000Y-13055000D02*
X2839000Y-13175000D01*
X2839000Y-13055000D02*
X2719000Y-13175000D01*
X2839000Y-13115000D02*
G75*
G03*
X2839000Y-13115000I-60000J0D01*
G01*
D11*
X3201381Y-13205476D02*
X3087095Y-13205476D01*
X3144238Y-13205476D02*
X3144238Y-13005476D01*
X3125190Y-13034048D01*
X3106143Y-13053095D01*
X3087095Y-13062619D01*
X3287095Y-13186428D02*
X3296619Y-13195952D01*
X3287095Y-13205476D01*
X3277571Y-13195952D01*
X3287095Y-13186428D01*
X3287095Y-13205476D01*
X3372809Y-13024524D02*
X3382333Y-13015000D01*
X3401381Y-13005476D01*
X3449000Y-13005476D01*
X3468048Y-13015000D01*
X3477571Y-13024524D01*
X3487095Y-13043571D01*
X3487095Y-13062619D01*
X3477571Y-13091190D01*
X3363286Y-13205476D01*
X3487095Y-13205476D01*
X3610905Y-13005476D02*
X3629952Y-13005476D01*
X3649000Y-13015000D01*
X3658524Y-13024524D01*
X3668048Y-13043571D01*
X3677571Y-13081667D01*
X3677571Y-13129286D01*
X3668048Y-13167381D01*
X3658524Y-13186428D01*
X3649000Y-13195952D01*
X3629952Y-13205476D01*
X3610905Y-13205476D01*
X3591857Y-13195952D01*
X3582333Y-13186428D01*
X3572809Y-13167381D01*
X3563286Y-13129286D01*
X3563286Y-13081667D01*
X3572809Y-13043571D01*
X3582333Y-13024524D01*
X3591857Y-13015000D01*
X3610905Y-13005476D01*
X3801381Y-13005476D02*
X3820428Y-13005476D01*
X3839476Y-13015000D01*
X3849000Y-13024524D01*
X3858524Y-13043571D01*
X3868048Y-13081667D01*
X3868048Y-13129286D01*
X3858524Y-13167381D01*
X3849000Y-13186428D01*
X3839476Y-13195952D01*
X3820428Y-13205476D01*
X3801381Y-13205476D01*
X3782333Y-13195952D01*
X3772809Y-13186428D01*
X3763286Y-13167381D01*
X3753762Y-13129286D01*
X3753762Y-13081667D01*
X3763286Y-13043571D01*
X3772809Y-13024524D01*
X3782333Y-13015000D01*
X3801381Y-13005476D01*
X3953762Y-13205476D02*
X3953762Y-13072143D01*
X3953762Y-13091190D02*
X3963286Y-13081667D01*
X3982333Y-13072143D01*
X4010905Y-13072143D01*
X4029952Y-13081667D01*
X4039476Y-13100714D01*
X4039476Y-13205476D01*
X4039476Y-13100714D02*
X4049000Y-13081667D01*
X4068048Y-13072143D01*
X4096619Y-13072143D01*
X4115667Y-13081667D01*
X4125190Y-13100714D01*
X4125190Y-13205476D01*
X4220429Y-13205476D02*
X4220429Y-13072143D01*
X4220429Y-13091190D02*
X4229952Y-13081667D01*
X4249000Y-13072143D01*
X4277571Y-13072143D01*
X4296619Y-13081667D01*
X4306143Y-13100714D01*
X4306143Y-13205476D01*
X4306143Y-13100714D02*
X4315667Y-13081667D01*
X4334714Y-13072143D01*
X4363286Y-13072143D01*
X4382333Y-13081667D01*
X4391857Y-13100714D01*
X4391857Y-13205476D01*
X4782333Y-12995952D02*
X4610905Y-13253095D01*
X5039476Y-13005476D02*
X5058524Y-13005476D01*
X5077571Y-13015000D01*
X5087095Y-13024524D01*
X5096619Y-13043571D01*
X5106143Y-13081667D01*
X5106143Y-13129286D01*
X5096619Y-13167381D01*
X5087095Y-13186428D01*
X5077571Y-13195952D01*
X5058524Y-13205476D01*
X5039476Y-13205476D01*
X5020429Y-13195952D01*
X5010905Y-13186428D01*
X5001381Y-13167381D01*
X4991857Y-13129286D01*
X4991857Y-13081667D01*
X5001381Y-13043571D01*
X5010905Y-13024524D01*
X5020429Y-13015000D01*
X5039476Y-13005476D01*
X5191857Y-13186428D02*
X5201381Y-13195952D01*
X5191857Y-13205476D01*
X5182333Y-13195952D01*
X5191857Y-13186428D01*
X5191857Y-13205476D01*
X5325190Y-13005476D02*
X5344238Y-13005476D01*
X5363286Y-13015000D01*
X5372810Y-13024524D01*
X5382333Y-13043571D01*
X5391857Y-13081667D01*
X5391857Y-13129286D01*
X5382333Y-13167381D01*
X5372810Y-13186428D01*
X5363286Y-13195952D01*
X5344238Y-13205476D01*
X5325190Y-13205476D01*
X5306143Y-13195952D01*
X5296619Y-13186428D01*
X5287095Y-13167381D01*
X5277571Y-13129286D01*
X5277571Y-13081667D01*
X5287095Y-13043571D01*
X5296619Y-13024524D01*
X5306143Y-13015000D01*
X5325190Y-13005476D01*
X5563286Y-13072143D02*
X5563286Y-13205476D01*
X5515667Y-12995952D02*
X5468048Y-13138809D01*
X5591857Y-13138809D01*
X5649000Y-13005476D02*
X5782333Y-13005476D01*
X5696619Y-13205476D01*
X5849000Y-13024524D02*
X5858524Y-13015000D01*
X5877571Y-13005476D01*
X5925190Y-13005476D01*
X5944238Y-13015000D01*
X5953762Y-13024524D01*
X5963286Y-13043571D01*
X5963286Y-13062619D01*
X5953762Y-13091190D01*
X5839476Y-13205476D01*
X5963286Y-13205476D01*
X6039476Y-13005476D02*
X6039476Y-13043571D01*
X6115667Y-13005476D02*
X6115667Y-13043571D01*
X6410905Y-13281667D02*
X6401381Y-13272143D01*
X6382333Y-13243571D01*
X6372809Y-13224524D01*
X6363286Y-13195952D01*
X6353762Y-13148333D01*
X6353762Y-13110238D01*
X6363286Y-13062619D01*
X6372809Y-13034048D01*
X6382333Y-13015000D01*
X6401381Y-12986428D01*
X6410905Y-12976905D01*
X6591857Y-13205476D02*
X6477571Y-13205476D01*
X6534714Y-13205476D02*
X6534714Y-13005476D01*
X6515667Y-13034048D01*
X6496619Y-13053095D01*
X6477571Y-13062619D01*
X6763286Y-13005476D02*
X6725190Y-13005476D01*
X6706143Y-13015000D01*
X6696619Y-13024524D01*
X6677571Y-13053095D01*
X6668048Y-13091190D01*
X6668048Y-13167381D01*
X6677571Y-13186428D01*
X6687095Y-13195952D01*
X6706143Y-13205476D01*
X6744238Y-13205476D01*
X6763286Y-13195952D01*
X6772809Y-13186428D01*
X6782333Y-13167381D01*
X6782333Y-13119762D01*
X6772809Y-13100714D01*
X6763286Y-13091190D01*
X6744238Y-13081667D01*
X6706143Y-13081667D01*
X6687095Y-13091190D01*
X6677571Y-13100714D01*
X6668048Y-13119762D01*
X7020428Y-13205476D02*
X7020428Y-13005476D01*
X7106143Y-13205476D02*
X7106143Y-13100714D01*
X7096619Y-13081667D01*
X7077571Y-13072143D01*
X7049000Y-13072143D01*
X7029952Y-13081667D01*
X7020428Y-13091190D01*
X7229952Y-13205476D02*
X7210905Y-13195952D01*
X7201381Y-13186428D01*
X7191857Y-13167381D01*
X7191857Y-13110238D01*
X7201381Y-13091190D01*
X7210905Y-13081667D01*
X7229952Y-13072143D01*
X7258524Y-13072143D01*
X7277571Y-13081667D01*
X7287095Y-13091190D01*
X7296619Y-13110238D01*
X7296619Y-13167381D01*
X7287095Y-13186428D01*
X7277571Y-13195952D01*
X7258524Y-13205476D01*
X7229952Y-13205476D01*
X7410905Y-13205476D02*
X7391857Y-13195952D01*
X7382333Y-13176905D01*
X7382333Y-13005476D01*
X7563286Y-13195952D02*
X7544238Y-13205476D01*
X7506143Y-13205476D01*
X7487095Y-13195952D01*
X7477571Y-13176905D01*
X7477571Y-13100714D01*
X7487095Y-13081667D01*
X7506143Y-13072143D01*
X7544238Y-13072143D01*
X7563286Y-13081667D01*
X7572809Y-13100714D01*
X7572809Y-13119762D01*
X7477571Y-13138809D01*
X7649000Y-13195952D02*
X7668048Y-13205476D01*
X7706143Y-13205476D01*
X7725190Y-13195952D01*
X7734714Y-13176905D01*
X7734714Y-13167381D01*
X7725190Y-13148333D01*
X7706143Y-13138809D01*
X7677571Y-13138809D01*
X7658524Y-13129286D01*
X7649000Y-13110238D01*
X7649000Y-13100714D01*
X7658524Y-13081667D01*
X7677571Y-13072143D01*
X7706143Y-13072143D01*
X7725190Y-13081667D01*
X7801381Y-13281667D02*
X7810905Y-13272143D01*
X7829952Y-13243571D01*
X7839476Y-13224524D01*
X7849000Y-13195952D01*
X7858524Y-13148333D01*
X7858524Y-13110238D01*
X7849000Y-13062619D01*
X7839476Y-13034048D01*
X7829952Y-13015000D01*
X7810905Y-12986428D01*
X7801381Y-12976905D01*
D18*
X2699000Y-13309000D02*
X2839000Y-13449000D01*
X2839000Y-13309000D02*
X2699000Y-13449000D01*
X2769000Y-13309000D02*
X2769000Y-13449000D01*
X2699000Y-13379000D02*
X2839000Y-13379000D01*
D11*
X3201381Y-13469476D02*
X3087095Y-13469476D01*
X3144238Y-13469476D02*
X3144238Y-13269476D01*
X3125190Y-13298048D01*
X3106143Y-13317095D01*
X3087095Y-13326619D01*
X3287095Y-13450428D02*
X3296619Y-13459952D01*
X3287095Y-13469476D01*
X3277571Y-13459952D01*
X3287095Y-13450428D01*
X3287095Y-13469476D01*
X3468048Y-13336143D02*
X3468048Y-13469476D01*
X3420428Y-13259952D02*
X3372809Y-13402809D01*
X3496619Y-13402809D01*
X3610905Y-13269476D02*
X3629952Y-13269476D01*
X3649000Y-13279000D01*
X3658524Y-13288524D01*
X3668048Y-13307571D01*
X3677571Y-13345667D01*
X3677571Y-13393286D01*
X3668048Y-13431381D01*
X3658524Y-13450428D01*
X3649000Y-13459952D01*
X3629952Y-13469476D01*
X3610905Y-13469476D01*
X3591857Y-13459952D01*
X3582333Y-13450428D01*
X3572809Y-13431381D01*
X3563286Y-13393286D01*
X3563286Y-13345667D01*
X3572809Y-13307571D01*
X3582333Y-13288524D01*
X3591857Y-13279000D01*
X3610905Y-13269476D01*
X3801381Y-13269476D02*
X3820428Y-13269476D01*
X3839476Y-13279000D01*
X3849000Y-13288524D01*
X3858524Y-13307571D01*
X3868048Y-13345667D01*
X3868048Y-13393286D01*
X3858524Y-13431381D01*
X3849000Y-13450428D01*
X3839476Y-13459952D01*
X3820428Y-13469476D01*
X3801381Y-13469476D01*
X3782333Y-13459952D01*
X3772809Y-13450428D01*
X3763286Y-13431381D01*
X3753762Y-13393286D01*
X3753762Y-13345667D01*
X3763286Y-13307571D01*
X3772809Y-13288524D01*
X3782333Y-13279000D01*
X3801381Y-13269476D01*
X3953762Y-13469476D02*
X3953762Y-13336143D01*
X3953762Y-13355190D02*
X3963286Y-13345667D01*
X3982333Y-13336143D01*
X4010905Y-13336143D01*
X4029952Y-13345667D01*
X4039476Y-13364714D01*
X4039476Y-13469476D01*
X4039476Y-13364714D02*
X4049000Y-13345667D01*
X4068048Y-13336143D01*
X4096619Y-13336143D01*
X4115667Y-13345667D01*
X4125190Y-13364714D01*
X4125190Y-13469476D01*
X4220429Y-13469476D02*
X4220429Y-13336143D01*
X4220429Y-13355190D02*
X4229952Y-13345667D01*
X4249000Y-13336143D01*
X4277571Y-13336143D01*
X4296619Y-13345667D01*
X4306143Y-13364714D01*
X4306143Y-13469476D01*
X4306143Y-13364714D02*
X4315667Y-13345667D01*
X4334714Y-13336143D01*
X4363286Y-13336143D01*
X4382333Y-13345667D01*
X4391857Y-13364714D01*
X4391857Y-13469476D01*
X4782333Y-13259952D02*
X4610905Y-13517095D01*
X5039476Y-13269476D02*
X5058524Y-13269476D01*
X5077571Y-13279000D01*
X5087095Y-13288524D01*
X5096619Y-13307571D01*
X5106143Y-13345667D01*
X5106143Y-13393286D01*
X5096619Y-13431381D01*
X5087095Y-13450428D01*
X5077571Y-13459952D01*
X5058524Y-13469476D01*
X5039476Y-13469476D01*
X5020429Y-13459952D01*
X5010905Y-13450428D01*
X5001381Y-13431381D01*
X4991857Y-13393286D01*
X4991857Y-13345667D01*
X5001381Y-13307571D01*
X5010905Y-13288524D01*
X5020429Y-13279000D01*
X5039476Y-13269476D01*
X5191857Y-13450428D02*
X5201381Y-13459952D01*
X5191857Y-13469476D01*
X5182333Y-13459952D01*
X5191857Y-13450428D01*
X5191857Y-13469476D01*
X5325190Y-13269476D02*
X5344238Y-13269476D01*
X5363286Y-13279000D01*
X5372810Y-13288524D01*
X5382333Y-13307571D01*
X5391857Y-13345667D01*
X5391857Y-13393286D01*
X5382333Y-13431381D01*
X5372810Y-13450428D01*
X5363286Y-13459952D01*
X5344238Y-13469476D01*
X5325190Y-13469476D01*
X5306143Y-13459952D01*
X5296619Y-13450428D01*
X5287095Y-13431381D01*
X5277571Y-13393286D01*
X5277571Y-13345667D01*
X5287095Y-13307571D01*
X5296619Y-13288524D01*
X5306143Y-13279000D01*
X5325190Y-13269476D01*
X5572810Y-13269476D02*
X5477571Y-13269476D01*
X5468048Y-13364714D01*
X5477571Y-13355190D01*
X5496619Y-13345667D01*
X5544238Y-13345667D01*
X5563286Y-13355190D01*
X5572810Y-13364714D01*
X5582333Y-13383762D01*
X5582333Y-13431381D01*
X5572810Y-13450428D01*
X5563286Y-13459952D01*
X5544238Y-13469476D01*
X5496619Y-13469476D01*
X5477571Y-13459952D01*
X5468048Y-13450428D01*
X5763286Y-13269476D02*
X5668048Y-13269476D01*
X5658524Y-13364714D01*
X5668048Y-13355190D01*
X5687095Y-13345667D01*
X5734714Y-13345667D01*
X5753762Y-13355190D01*
X5763286Y-13364714D01*
X5772809Y-13383762D01*
X5772809Y-13431381D01*
X5763286Y-13450428D01*
X5753762Y-13459952D01*
X5734714Y-13469476D01*
X5687095Y-13469476D01*
X5668048Y-13459952D01*
X5658524Y-13450428D01*
X5963286Y-13469476D02*
X5849000Y-13469476D01*
X5906143Y-13469476D02*
X5906143Y-13269476D01*
X5887095Y-13298048D01*
X5868048Y-13317095D01*
X5849000Y-13326619D01*
X6039476Y-13269476D02*
X6039476Y-13307571D01*
X6115667Y-13269476D02*
X6115667Y-13307571D01*
X6410905Y-13545667D02*
X6401381Y-13536143D01*
X6382333Y-13507571D01*
X6372809Y-13488524D01*
X6363286Y-13459952D01*
X6353762Y-13412333D01*
X6353762Y-13374238D01*
X6363286Y-13326619D01*
X6372809Y-13298048D01*
X6382333Y-13279000D01*
X6401381Y-13250428D01*
X6410905Y-13240905D01*
X6468048Y-13269476D02*
X6601381Y-13269476D01*
X6515667Y-13469476D01*
X6829952Y-13469476D02*
X6829952Y-13269476D01*
X6915667Y-13469476D02*
X6915667Y-13364714D01*
X6906143Y-13345667D01*
X6887095Y-13336143D01*
X6858524Y-13336143D01*
X6839476Y-13345667D01*
X6829952Y-13355190D01*
X7039476Y-13469476D02*
X7020428Y-13459952D01*
X7010905Y-13450428D01*
X7001381Y-13431381D01*
X7001381Y-13374238D01*
X7010905Y-13355190D01*
X7020428Y-13345667D01*
X7039476Y-13336143D01*
X7068048Y-13336143D01*
X7087095Y-13345667D01*
X7096619Y-13355190D01*
X7106143Y-13374238D01*
X7106143Y-13431381D01*
X7096619Y-13450428D01*
X7087095Y-13459952D01*
X7068048Y-13469476D01*
X7039476Y-13469476D01*
X7220428Y-13469476D02*
X7201381Y-13459952D01*
X7191857Y-13440905D01*
X7191857Y-13269476D01*
X7372809Y-13459952D02*
X7353762Y-13469476D01*
X7315667Y-13469476D01*
X7296619Y-13459952D01*
X7287095Y-13440905D01*
X7287095Y-13364714D01*
X7296619Y-13345667D01*
X7315667Y-13336143D01*
X7353762Y-13336143D01*
X7372809Y-13345667D01*
X7382333Y-13364714D01*
X7382333Y-13383762D01*
X7287095Y-13402809D01*
X7458524Y-13459952D02*
X7477571Y-13469476D01*
X7515667Y-13469476D01*
X7534714Y-13459952D01*
X7544238Y-13440905D01*
X7544238Y-13431381D01*
X7534714Y-13412333D01*
X7515667Y-13402809D01*
X7487095Y-13402809D01*
X7468048Y-13393286D01*
X7458524Y-13374238D01*
X7458524Y-13364714D01*
X7468048Y-13345667D01*
X7487095Y-13336143D01*
X7515667Y-13336143D01*
X7534714Y-13345667D01*
X7610905Y-13545667D02*
X7620428Y-13536143D01*
X7639476Y-13507571D01*
X7649000Y-13488524D01*
X7658524Y-13459952D01*
X7668048Y-13412333D01*
X7668048Y-13374238D01*
X7658524Y-13326619D01*
X7649000Y-13298048D01*
X7639476Y-13279000D01*
X7620428Y-13250428D01*
X7610905Y-13240905D01*
D19*
X2659000Y-13553000D02*
X2839000Y-13733000D01*
X2839000Y-13553000D02*
X2659000Y-13733000D01*
X2812640Y-13706640D02*
X2812640Y-13579360D01*
X2685360Y-13579360D01*
X2685360Y-13706640D01*
X2812640Y-13706640D01*
D11*
X3201381Y-13733476D02*
X3087095Y-13733476D01*
X3144238Y-13733476D02*
X3144238Y-13533476D01*
X3125190Y-13562048D01*
X3106143Y-13581095D01*
X3087095Y-13590619D01*
X3287095Y-13714428D02*
X3296619Y-13723952D01*
X3287095Y-13733476D01*
X3277571Y-13723952D01*
X3287095Y-13714428D01*
X3287095Y-13733476D01*
X3410905Y-13619190D02*
X3391857Y-13609667D01*
X3382333Y-13600143D01*
X3372809Y-13581095D01*
X3372809Y-13571571D01*
X3382333Y-13552524D01*
X3391857Y-13543000D01*
X3410905Y-13533476D01*
X3449000Y-13533476D01*
X3468048Y-13543000D01*
X3477571Y-13552524D01*
X3487095Y-13571571D01*
X3487095Y-13581095D01*
X3477571Y-13600143D01*
X3468048Y-13609667D01*
X3449000Y-13619190D01*
X3410905Y-13619190D01*
X3391857Y-13628714D01*
X3382333Y-13638238D01*
X3372809Y-13657286D01*
X3372809Y-13695381D01*
X3382333Y-13714428D01*
X3391857Y-13723952D01*
X3410905Y-13733476D01*
X3449000Y-13733476D01*
X3468048Y-13723952D01*
X3477571Y-13714428D01*
X3487095Y-13695381D01*
X3487095Y-13657286D01*
X3477571Y-13638238D01*
X3468048Y-13628714D01*
X3449000Y-13619190D01*
X3610905Y-13533476D02*
X3629952Y-13533476D01*
X3649000Y-13543000D01*
X3658524Y-13552524D01*
X3668048Y-13571571D01*
X3677571Y-13609667D01*
X3677571Y-13657286D01*
X3668048Y-13695381D01*
X3658524Y-13714428D01*
X3649000Y-13723952D01*
X3629952Y-13733476D01*
X3610905Y-13733476D01*
X3591857Y-13723952D01*
X3582333Y-13714428D01*
X3572809Y-13695381D01*
X3563286Y-13657286D01*
X3563286Y-13609667D01*
X3572809Y-13571571D01*
X3582333Y-13552524D01*
X3591857Y-13543000D01*
X3610905Y-13533476D01*
X3801381Y-13533476D02*
X3820428Y-13533476D01*
X3839476Y-13543000D01*
X3849000Y-13552524D01*
X3858524Y-13571571D01*
X3868048Y-13609667D01*
X3868048Y-13657286D01*
X3858524Y-13695381D01*
X3849000Y-13714428D01*
X3839476Y-13723952D01*
X3820428Y-13733476D01*
X3801381Y-13733476D01*
X3782333Y-13723952D01*
X3772809Y-13714428D01*
X3763286Y-13695381D01*
X3753762Y-13657286D01*
X3753762Y-13609667D01*
X3763286Y-13571571D01*
X3772809Y-13552524D01*
X3782333Y-13543000D01*
X3801381Y-13533476D01*
X3953762Y-13733476D02*
X3953762Y-13600143D01*
X3953762Y-13619190D02*
X3963286Y-13609667D01*
X3982333Y-13600143D01*
X4010905Y-13600143D01*
X4029952Y-13609667D01*
X4039476Y-13628714D01*
X4039476Y-13733476D01*
X4039476Y-13628714D02*
X4049000Y-13609667D01*
X4068048Y-13600143D01*
X4096619Y-13600143D01*
X4115667Y-13609667D01*
X4125190Y-13628714D01*
X4125190Y-13733476D01*
X4220429Y-13733476D02*
X4220429Y-13600143D01*
X4220429Y-13619190D02*
X4229952Y-13609667D01*
X4249000Y-13600143D01*
X4277571Y-13600143D01*
X4296619Y-13609667D01*
X4306143Y-13628714D01*
X4306143Y-13733476D01*
X4306143Y-13628714D02*
X4315667Y-13609667D01*
X4334714Y-13600143D01*
X4363286Y-13600143D01*
X4382333Y-13609667D01*
X4391857Y-13628714D01*
X4391857Y-13733476D01*
X4782333Y-13523952D02*
X4610905Y-13781095D01*
X5039476Y-13533476D02*
X5058524Y-13533476D01*
X5077571Y-13543000D01*
X5087095Y-13552524D01*
X5096619Y-13571571D01*
X5106143Y-13609667D01*
X5106143Y-13657286D01*
X5096619Y-13695381D01*
X5087095Y-13714428D01*
X5077571Y-13723952D01*
X5058524Y-13733476D01*
X5039476Y-13733476D01*
X5020429Y-13723952D01*
X5010905Y-13714428D01*
X5001381Y-13695381D01*
X4991857Y-13657286D01*
X4991857Y-13609667D01*
X5001381Y-13571571D01*
X5010905Y-13552524D01*
X5020429Y-13543000D01*
X5039476Y-13533476D01*
X5191857Y-13714428D02*
X5201381Y-13723952D01*
X5191857Y-13733476D01*
X5182333Y-13723952D01*
X5191857Y-13714428D01*
X5191857Y-13733476D01*
X5325190Y-13533476D02*
X5344238Y-13533476D01*
X5363286Y-13543000D01*
X5372810Y-13552524D01*
X5382333Y-13571571D01*
X5391857Y-13609667D01*
X5391857Y-13657286D01*
X5382333Y-13695381D01*
X5372810Y-13714428D01*
X5363286Y-13723952D01*
X5344238Y-13733476D01*
X5325190Y-13733476D01*
X5306143Y-13723952D01*
X5296619Y-13714428D01*
X5287095Y-13695381D01*
X5277571Y-13657286D01*
X5277571Y-13609667D01*
X5287095Y-13571571D01*
X5296619Y-13552524D01*
X5306143Y-13543000D01*
X5325190Y-13533476D01*
X5458524Y-13533476D02*
X5591857Y-13533476D01*
X5506143Y-13733476D01*
X5706143Y-13533476D02*
X5725190Y-13533476D01*
X5744238Y-13543000D01*
X5753762Y-13552524D01*
X5763286Y-13571571D01*
X5772809Y-13609667D01*
X5772809Y-13657286D01*
X5763286Y-13695381D01*
X5753762Y-13714428D01*
X5744238Y-13723952D01*
X5725190Y-13733476D01*
X5706143Y-13733476D01*
X5687095Y-13723952D01*
X5677571Y-13714428D01*
X5668048Y-13695381D01*
X5658524Y-13657286D01*
X5658524Y-13609667D01*
X5668048Y-13571571D01*
X5677571Y-13552524D01*
X5687095Y-13543000D01*
X5706143Y-13533476D01*
X5868048Y-13733476D02*
X5906143Y-13733476D01*
X5925190Y-13723952D01*
X5934714Y-13714428D01*
X5953762Y-13685857D01*
X5963286Y-13647762D01*
X5963286Y-13571571D01*
X5953762Y-13552524D01*
X5944238Y-13543000D01*
X5925190Y-13533476D01*
X5887095Y-13533476D01*
X5868048Y-13543000D01*
X5858524Y-13552524D01*
X5849000Y-13571571D01*
X5849000Y-13619190D01*
X5858524Y-13638238D01*
X5868048Y-13647762D01*
X5887095Y-13657286D01*
X5925190Y-13657286D01*
X5944238Y-13647762D01*
X5953762Y-13638238D01*
X5963286Y-13619190D01*
X6039476Y-13533476D02*
X6039476Y-13571571D01*
X6115667Y-13533476D02*
X6115667Y-13571571D01*
X6410905Y-13809667D02*
X6401381Y-13800143D01*
X6382333Y-13771571D01*
X6372809Y-13752524D01*
X6363286Y-13723952D01*
X6353762Y-13676333D01*
X6353762Y-13638238D01*
X6363286Y-13590619D01*
X6372809Y-13562048D01*
X6382333Y-13543000D01*
X6401381Y-13514428D01*
X6410905Y-13504905D01*
X6525190Y-13533476D02*
X6544238Y-13533476D01*
X6563286Y-13543000D01*
X6572809Y-13552524D01*
X6582333Y-13571571D01*
X6591857Y-13609667D01*
X6591857Y-13657286D01*
X6582333Y-13695381D01*
X6572809Y-13714428D01*
X6563286Y-13723952D01*
X6544238Y-13733476D01*
X6525190Y-13733476D01*
X6506143Y-13723952D01*
X6496619Y-13714428D01*
X6487095Y-13695381D01*
X6477571Y-13657286D01*
X6477571Y-13609667D01*
X6487095Y-13571571D01*
X6496619Y-13552524D01*
X6506143Y-13543000D01*
X6525190Y-13533476D01*
X6829952Y-13733476D02*
X6829952Y-13533476D01*
X6915667Y-13733476D02*
X6915667Y-13628714D01*
X6906143Y-13609667D01*
X6887095Y-13600143D01*
X6858524Y-13600143D01*
X6839476Y-13609667D01*
X6829952Y-13619190D01*
X7039476Y-13733476D02*
X7020428Y-13723952D01*
X7010905Y-13714428D01*
X7001381Y-13695381D01*
X7001381Y-13638238D01*
X7010905Y-13619190D01*
X7020428Y-13609667D01*
X7039476Y-13600143D01*
X7068048Y-13600143D01*
X7087095Y-13609667D01*
X7096619Y-13619190D01*
X7106143Y-13638238D01*
X7106143Y-13695381D01*
X7096619Y-13714428D01*
X7087095Y-13723952D01*
X7068048Y-13733476D01*
X7039476Y-13733476D01*
X7220428Y-13733476D02*
X7201381Y-13723952D01*
X7191857Y-13704905D01*
X7191857Y-13533476D01*
X7372809Y-13723952D02*
X7353762Y-13733476D01*
X7315667Y-13733476D01*
X7296619Y-13723952D01*
X7287095Y-13704905D01*
X7287095Y-13628714D01*
X7296619Y-13609667D01*
X7315667Y-13600143D01*
X7353762Y-13600143D01*
X7372809Y-13609667D01*
X7382333Y-13628714D01*
X7382333Y-13647762D01*
X7287095Y-13666809D01*
X7458524Y-13723952D02*
X7477571Y-13733476D01*
X7515667Y-13733476D01*
X7534714Y-13723952D01*
X7544238Y-13704905D01*
X7544238Y-13695381D01*
X7534714Y-13676333D01*
X7515667Y-13666809D01*
X7487095Y-13666809D01*
X7468048Y-13657286D01*
X7458524Y-13638238D01*
X7458524Y-13628714D01*
X7468048Y-13609667D01*
X7487095Y-13600143D01*
X7515667Y-13600143D01*
X7534714Y-13609667D01*
X7782333Y-13657286D02*
X7934714Y-13657286D01*
X7858524Y-13733476D02*
X7858524Y-13581095D01*
X8268048Y-13600143D02*
X8268048Y-13733476D01*
X8220428Y-13523952D02*
X8172809Y-13666809D01*
X8296619Y-13666809D01*
X8515667Y-13723952D02*
X8534714Y-13733476D01*
X8572810Y-13733476D01*
X8591857Y-13723952D01*
X8601381Y-13704905D01*
X8601381Y-13695381D01*
X8591857Y-13676333D01*
X8572810Y-13666809D01*
X8544238Y-13666809D01*
X8525190Y-13657286D01*
X8515667Y-13638238D01*
X8515667Y-13628714D01*
X8525190Y-13609667D01*
X8544238Y-13600143D01*
X8572810Y-13600143D01*
X8591857Y-13609667D01*
X8715667Y-13733476D02*
X8696619Y-13723952D01*
X8687095Y-13704905D01*
X8687095Y-13533476D01*
X8820429Y-13733476D02*
X8801381Y-13723952D01*
X8791857Y-13714428D01*
X8782333Y-13695381D01*
X8782333Y-13638238D01*
X8791857Y-13619190D01*
X8801381Y-13609667D01*
X8820429Y-13600143D01*
X8849000Y-13600143D01*
X8868048Y-13609667D01*
X8877571Y-13619190D01*
X8887095Y-13638238D01*
X8887095Y-13695381D01*
X8877571Y-13714428D01*
X8868048Y-13723952D01*
X8849000Y-13733476D01*
X8820429Y-13733476D01*
X8944238Y-13600143D02*
X9020429Y-13600143D01*
X8972810Y-13533476D02*
X8972810Y-13704905D01*
X8982333Y-13723952D01*
X9001381Y-13733476D01*
X9020429Y-13733476D01*
X9077571Y-13723952D02*
X9096619Y-13733476D01*
X9134714Y-13733476D01*
X9153762Y-13723952D01*
X9163286Y-13704905D01*
X9163286Y-13695381D01*
X9153762Y-13676333D01*
X9134714Y-13666809D01*
X9106143Y-13666809D01*
X9087095Y-13657286D01*
X9077571Y-13638238D01*
X9077571Y-13628714D01*
X9087095Y-13609667D01*
X9106143Y-13600143D01*
X9134714Y-13600143D01*
X9153762Y-13609667D01*
X9229952Y-13809667D02*
X9239476Y-13800143D01*
X9258524Y-13771571D01*
X9268048Y-13752524D01*
X9277571Y-13723952D01*
X9287095Y-13676333D01*
X9287095Y-13638238D01*
X9277571Y-13590619D01*
X9268048Y-13562048D01*
X9258524Y-13543000D01*
X9239476Y-13514428D01*
X9229952Y-13504905D01*
X2639000Y-13843000D02*
X2839000Y-14043000D01*
X2839000Y-13843000D02*
X2639000Y-14043000D01*
X2739000Y-14043000D02*
X2839000Y-13943000D01*
X2739000Y-13843000D01*
X2639000Y-13943000D01*
X2739000Y-14043000D01*
X3087095Y-13852524D02*
X3096619Y-13843000D01*
X3115667Y-13833476D01*
X3163286Y-13833476D01*
X3182333Y-13843000D01*
X3191857Y-13852524D01*
X3201381Y-13871571D01*
X3201381Y-13890619D01*
X3191857Y-13919190D01*
X3077571Y-14033476D01*
X3201381Y-14033476D01*
X3287095Y-14014428D02*
X3296619Y-14023952D01*
X3287095Y-14033476D01*
X3277571Y-14023952D01*
X3287095Y-14014428D01*
X3287095Y-14033476D01*
X3477571Y-13833476D02*
X3382333Y-13833476D01*
X3372809Y-13928714D01*
X3382333Y-13919190D01*
X3401381Y-13909667D01*
X3449000Y-13909667D01*
X3468048Y-13919190D01*
X3477571Y-13928714D01*
X3487095Y-13947762D01*
X3487095Y-13995381D01*
X3477571Y-14014428D01*
X3468048Y-14023952D01*
X3449000Y-14033476D01*
X3401381Y-14033476D01*
X3382333Y-14023952D01*
X3372809Y-14014428D01*
X3610905Y-13833476D02*
X3629952Y-13833476D01*
X3649000Y-13843000D01*
X3658524Y-13852524D01*
X3668048Y-13871571D01*
X3677571Y-13909667D01*
X3677571Y-13957286D01*
X3668048Y-13995381D01*
X3658524Y-14014428D01*
X3649000Y-14023952D01*
X3629952Y-14033476D01*
X3610905Y-14033476D01*
X3591857Y-14023952D01*
X3582333Y-14014428D01*
X3572809Y-13995381D01*
X3563286Y-13957286D01*
X3563286Y-13909667D01*
X3572809Y-13871571D01*
X3582333Y-13852524D01*
X3591857Y-13843000D01*
X3610905Y-13833476D01*
X3801381Y-13833476D02*
X3820428Y-13833476D01*
X3839476Y-13843000D01*
X3849000Y-13852524D01*
X3858524Y-13871571D01*
X3868048Y-13909667D01*
X3868048Y-13957286D01*
X3858524Y-13995381D01*
X3849000Y-14014428D01*
X3839476Y-14023952D01*
X3820428Y-14033476D01*
X3801381Y-14033476D01*
X3782333Y-14023952D01*
X3772809Y-14014428D01*
X3763286Y-13995381D01*
X3753762Y-13957286D01*
X3753762Y-13909667D01*
X3763286Y-13871571D01*
X3772809Y-13852524D01*
X3782333Y-13843000D01*
X3801381Y-13833476D01*
X3953762Y-14033476D02*
X3953762Y-13900143D01*
X3953762Y-13919190D02*
X3963286Y-13909667D01*
X3982333Y-13900143D01*
X4010905Y-13900143D01*
X4029952Y-13909667D01*
X4039476Y-13928714D01*
X4039476Y-14033476D01*
X4039476Y-13928714D02*
X4049000Y-13909667D01*
X4068048Y-13900143D01*
X4096619Y-13900143D01*
X4115667Y-13909667D01*
X4125190Y-13928714D01*
X4125190Y-14033476D01*
X4220429Y-14033476D02*
X4220429Y-13900143D01*
X4220429Y-13919190D02*
X4229952Y-13909667D01*
X4249000Y-13900143D01*
X4277571Y-13900143D01*
X4296619Y-13909667D01*
X4306143Y-13928714D01*
X4306143Y-14033476D01*
X4306143Y-13928714D02*
X4315667Y-13909667D01*
X4334714Y-13900143D01*
X4363286Y-13900143D01*
X4382333Y-13909667D01*
X4391857Y-13928714D01*
X4391857Y-14033476D01*
X4782333Y-13823952D02*
X4610905Y-14081095D01*
X5039476Y-13833476D02*
X5058524Y-13833476D01*
X5077571Y-13843000D01*
X5087095Y-13852524D01*
X5096619Y-13871571D01*
X5106143Y-13909667D01*
X5106143Y-13957286D01*
X5096619Y-13995381D01*
X5087095Y-14014428D01*
X5077571Y-14023952D01*
X5058524Y-14033476D01*
X5039476Y-14033476D01*
X5020429Y-14023952D01*
X5010905Y-14014428D01*
X5001381Y-13995381D01*
X4991857Y-13957286D01*
X4991857Y-13909667D01*
X5001381Y-13871571D01*
X5010905Y-13852524D01*
X5020429Y-13843000D01*
X5039476Y-13833476D01*
X5191857Y-14014428D02*
X5201381Y-14023952D01*
X5191857Y-14033476D01*
X5182333Y-14023952D01*
X5191857Y-14014428D01*
X5191857Y-14033476D01*
X5325190Y-13833476D02*
X5344238Y-13833476D01*
X5363286Y-13843000D01*
X5372810Y-13852524D01*
X5382333Y-13871571D01*
X5391857Y-13909667D01*
X5391857Y-13957286D01*
X5382333Y-13995381D01*
X5372810Y-14014428D01*
X5363286Y-14023952D01*
X5344238Y-14033476D01*
X5325190Y-14033476D01*
X5306143Y-14023952D01*
X5296619Y-14014428D01*
X5287095Y-13995381D01*
X5277571Y-13957286D01*
X5277571Y-13909667D01*
X5287095Y-13871571D01*
X5296619Y-13852524D01*
X5306143Y-13843000D01*
X5325190Y-13833476D01*
X5487095Y-14033476D02*
X5525190Y-14033476D01*
X5544238Y-14023952D01*
X5553762Y-14014428D01*
X5572810Y-13985857D01*
X5582333Y-13947762D01*
X5582333Y-13871571D01*
X5572810Y-13852524D01*
X5563286Y-13843000D01*
X5544238Y-13833476D01*
X5506143Y-13833476D01*
X5487095Y-13843000D01*
X5477571Y-13852524D01*
X5468048Y-13871571D01*
X5468048Y-13919190D01*
X5477571Y-13938238D01*
X5487095Y-13947762D01*
X5506143Y-13957286D01*
X5544238Y-13957286D01*
X5563286Y-13947762D01*
X5572810Y-13938238D01*
X5582333Y-13919190D01*
X5696619Y-13919190D02*
X5677571Y-13909667D01*
X5668048Y-13900143D01*
X5658524Y-13881095D01*
X5658524Y-13871571D01*
X5668048Y-13852524D01*
X5677571Y-13843000D01*
X5696619Y-13833476D01*
X5734714Y-13833476D01*
X5753762Y-13843000D01*
X5763286Y-13852524D01*
X5772809Y-13871571D01*
X5772809Y-13881095D01*
X5763286Y-13900143D01*
X5753762Y-13909667D01*
X5734714Y-13919190D01*
X5696619Y-13919190D01*
X5677571Y-13928714D01*
X5668048Y-13938238D01*
X5658524Y-13957286D01*
X5658524Y-13995381D01*
X5668048Y-14014428D01*
X5677571Y-14023952D01*
X5696619Y-14033476D01*
X5734714Y-14033476D01*
X5753762Y-14023952D01*
X5763286Y-14014428D01*
X5772809Y-13995381D01*
X5772809Y-13957286D01*
X5763286Y-13938238D01*
X5753762Y-13928714D01*
X5734714Y-13919190D01*
X5944238Y-13900143D02*
X5944238Y-14033476D01*
X5896619Y-13823952D02*
X5849000Y-13966809D01*
X5972809Y-13966809D01*
X6039476Y-13833476D02*
X6039476Y-13871571D01*
X6115667Y-13833476D02*
X6115667Y-13871571D01*
X6410905Y-14109667D02*
X6401381Y-14100143D01*
X6382333Y-14071571D01*
X6372809Y-14052524D01*
X6363286Y-14023952D01*
X6353762Y-13976333D01*
X6353762Y-13938238D01*
X6363286Y-13890619D01*
X6372809Y-13862048D01*
X6382333Y-13843000D01*
X6401381Y-13814428D01*
X6410905Y-13804905D01*
X6515667Y-13919190D02*
X6496619Y-13909667D01*
X6487095Y-13900143D01*
X6477571Y-13881095D01*
X6477571Y-13871571D01*
X6487095Y-13852524D01*
X6496619Y-13843000D01*
X6515667Y-13833476D01*
X6553762Y-13833476D01*
X6572809Y-13843000D01*
X6582333Y-13852524D01*
X6591857Y-13871571D01*
X6591857Y-13881095D01*
X6582333Y-13900143D01*
X6572809Y-13909667D01*
X6553762Y-13919190D01*
X6515667Y-13919190D01*
X6496619Y-13928714D01*
X6487095Y-13938238D01*
X6477571Y-13957286D01*
X6477571Y-13995381D01*
X6487095Y-14014428D01*
X6496619Y-14023952D01*
X6515667Y-14033476D01*
X6553762Y-14033476D01*
X6572809Y-14023952D01*
X6582333Y-14014428D01*
X6591857Y-13995381D01*
X6591857Y-13957286D01*
X6582333Y-13938238D01*
X6572809Y-13928714D01*
X6553762Y-13919190D01*
X6829952Y-14033476D02*
X6829952Y-13833476D01*
X6915667Y-14033476D02*
X6915667Y-13928714D01*
X6906143Y-13909667D01*
X6887095Y-13900143D01*
X6858524Y-13900143D01*
X6839476Y-13909667D01*
X6829952Y-13919190D01*
X7039476Y-14033476D02*
X7020428Y-14023952D01*
X7010905Y-14014428D01*
X7001381Y-13995381D01*
X7001381Y-13938238D01*
X7010905Y-13919190D01*
X7020428Y-13909667D01*
X7039476Y-13900143D01*
X7068048Y-13900143D01*
X7087095Y-13909667D01*
X7096619Y-13919190D01*
X7106143Y-13938238D01*
X7106143Y-13995381D01*
X7096619Y-14014428D01*
X7087095Y-14023952D01*
X7068048Y-14033476D01*
X7039476Y-14033476D01*
X7220428Y-14033476D02*
X7201381Y-14023952D01*
X7191857Y-14004905D01*
X7191857Y-13833476D01*
X7372809Y-14023952D02*
X7353762Y-14033476D01*
X7315667Y-14033476D01*
X7296619Y-14023952D01*
X7287095Y-14004905D01*
X7287095Y-13928714D01*
X7296619Y-13909667D01*
X7315667Y-13900143D01*
X7353762Y-13900143D01*
X7372809Y-13909667D01*
X7382333Y-13928714D01*
X7382333Y-13947762D01*
X7287095Y-13966809D01*
X7458524Y-14023952D02*
X7477571Y-14033476D01*
X7515667Y-14033476D01*
X7534714Y-14023952D01*
X7544238Y-14004905D01*
X7544238Y-13995381D01*
X7534714Y-13976333D01*
X7515667Y-13966809D01*
X7487095Y-13966809D01*
X7468048Y-13957286D01*
X7458524Y-13938238D01*
X7458524Y-13928714D01*
X7468048Y-13909667D01*
X7487095Y-13900143D01*
X7515667Y-13900143D01*
X7534714Y-13909667D01*
X7610905Y-14109667D02*
X7620428Y-14100143D01*
X7639476Y-14071571D01*
X7649000Y-14052524D01*
X7658524Y-14023952D01*
X7668048Y-13976333D01*
X7668048Y-13938238D01*
X7658524Y-13890619D01*
X7649000Y-13862048D01*
X7639476Y-13843000D01*
X7620428Y-13814428D01*
X7610905Y-13804905D01*
M02*
