%FSLAX45Y45*%
G04 Gerber Fmt 4.5, Leading zero omitted, Abs format (unit mm)*
G04 Created by KiCad (PCBNEW (6.0.2)) date 2022-08-07 22:21:47*
%MOMM*%
%LPD*%
G01*
G04 APERTURE LIST*
%TA.AperFunction,Profile*%
%ADD10C,0.100000*%
%TD*%
%ADD11C,0.200000*%
G04 APERTURE END LIST*
D10*
X2844000Y-10100000D02*
X2844000Y-3900000D01*
X16894000Y-11150000D02*
X3894000Y-11150000D01*
X3744000Y-11000000D02*
X3744000Y-10750000D01*
X3894000Y-2850000D02*
G75*
G03*
X3744000Y-3000000I0J-150000D01*
G01*
X17044000Y-10750000D02*
X17044000Y-11000000D01*
X17044000Y-3250000D02*
G75*
G03*
X17544000Y-3750000I500000J0D01*
G01*
X17544000Y-10250000D02*
G75*
G03*
X17044000Y-10750000I0J-500000D01*
G01*
X3744000Y-3000000D02*
X3744000Y-3250000D01*
X3244000Y-3750000D02*
G75*
G03*
X3744000Y-3250000I0J500000D01*
G01*
X2994000Y-3750000D02*
G75*
G03*
X2844000Y-3900000I0J-150000D01*
G01*
X17044000Y-3000000D02*
G75*
G03*
X16894000Y-2850000I-150000J0D01*
G01*
X3894000Y-2850000D02*
X16894000Y-2850000D01*
X17794000Y-10250000D02*
G75*
G03*
X17944000Y-10100000I0J150000D01*
G01*
X17544000Y-3750000D02*
X17794000Y-3750000D01*
X17794000Y-10250000D02*
X17544000Y-10250000D01*
X3744000Y-10750000D02*
G75*
G03*
X3244000Y-10250000I-500000J0D01*
G01*
X2844000Y-10100000D02*
G75*
G03*
X2994000Y-10250000I150000J0D01*
G01*
X17944000Y-3900000D02*
X17944000Y-10100000D01*
X3744000Y-11000000D02*
G75*
G03*
X3894000Y-11150000I150000J0D01*
G01*
X17944000Y-3900000D02*
G75*
G03*
X17794000Y-3750000I-150000J0D01*
G01*
X2994000Y-3750000D02*
X3244000Y-3750000D01*
X16894000Y-11150000D02*
G75*
G03*
X17044000Y-11000000I0J150000D01*
G01*
X2994000Y-10250000D02*
X3244000Y-10250000D01*
X17044000Y-3000000D02*
X17044000Y-3250000D01*
D11*
X3096619Y-11465476D02*
X3096619Y-11265476D01*
X3144238Y-11265476D01*
X3172809Y-11275000D01*
X3191857Y-11294048D01*
X3201381Y-11313095D01*
X3210905Y-11351190D01*
X3210905Y-11379762D01*
X3201381Y-11417857D01*
X3191857Y-11436905D01*
X3172809Y-11455952D01*
X3144238Y-11465476D01*
X3096619Y-11465476D01*
X3296619Y-11465476D02*
X3296619Y-11332143D01*
X3296619Y-11370238D02*
X3306143Y-11351190D01*
X3315667Y-11341667D01*
X3334714Y-11332143D01*
X3353762Y-11332143D01*
X3420428Y-11465476D02*
X3420428Y-11332143D01*
X3420428Y-11265476D02*
X3410905Y-11275000D01*
X3420428Y-11284524D01*
X3429952Y-11275000D01*
X3420428Y-11265476D01*
X3420428Y-11284524D01*
X3544238Y-11465476D02*
X3525190Y-11455952D01*
X3515667Y-11436905D01*
X3515667Y-11265476D01*
X3649000Y-11465476D02*
X3629952Y-11455952D01*
X3620428Y-11436905D01*
X3620428Y-11265476D01*
X3877571Y-11465476D02*
X3877571Y-11265476D01*
X3944238Y-11408333D01*
X4010905Y-11265476D01*
X4010905Y-11465476D01*
X4191857Y-11465476D02*
X4191857Y-11360714D01*
X4182333Y-11341667D01*
X4163286Y-11332143D01*
X4125190Y-11332143D01*
X4106143Y-11341667D01*
X4191857Y-11455952D02*
X4172809Y-11465476D01*
X4125190Y-11465476D01*
X4106143Y-11455952D01*
X4096619Y-11436905D01*
X4096619Y-11417857D01*
X4106143Y-11398809D01*
X4125190Y-11389286D01*
X4172809Y-11389286D01*
X4191857Y-11379762D01*
X4287095Y-11332143D02*
X4287095Y-11532143D01*
X4287095Y-11341667D02*
X4306143Y-11332143D01*
X4344238Y-11332143D01*
X4363286Y-11341667D01*
X4372810Y-11351190D01*
X4382333Y-11370238D01*
X4382333Y-11427381D01*
X4372810Y-11446428D01*
X4363286Y-11455952D01*
X4344238Y-11465476D01*
X4306143Y-11465476D01*
X4287095Y-11455952D01*
X4468048Y-11446428D02*
X4477571Y-11455952D01*
X4468048Y-11465476D01*
X4458524Y-11455952D01*
X4468048Y-11446428D01*
X4468048Y-11465476D01*
X4468048Y-11341667D02*
X4477571Y-11351190D01*
X4468048Y-11360714D01*
X4458524Y-11351190D01*
X4468048Y-11341667D01*
X4468048Y-11360714D01*
M02*
