G04 #@! TF.GenerationSoftware,KiCad,Pcbnew,(6.0.2)*
G04 #@! TF.CreationDate,2022-08-07T22:21:35-07:00*
G04 #@! TF.ProjectId,LightDrumInterface,4c696768-7444-4727-956d-496e74657266,rev?*
G04 #@! TF.SameCoordinates,Original*
G04 #@! TF.FileFunction,Paste,Top*
G04 #@! TF.FilePolarity,Positive*
%FSLAX46Y46*%
G04 Gerber Fmt 4.6, Leading zero omitted, Abs format (unit mm)*
G04 Created by KiCad (PCBNEW (6.0.2)) date 2022-08-07 22:21:35*
%MOMM*%
%LPD*%
G01*
G04 APERTURE LIST*
G04 Aperture macros list*
%AMRoundRect*
0 Rectangle with rounded corners*
0 $1 Rounding radius*
0 $2 $3 $4 $5 $6 $7 $8 $9 X,Y pos of 4 corners*
0 Add a 4 corners polygon primitive as box body*
4,1,4,$2,$3,$4,$5,$6,$7,$8,$9,$2,$3,0*
0 Add four circle primitives for the rounded corners*
1,1,$1+$1,$2,$3*
1,1,$1+$1,$4,$5*
1,1,$1+$1,$6,$7*
1,1,$1+$1,$8,$9*
0 Add four rect primitives between the rounded corners*
20,1,$1+$1,$2,$3,$4,$5,0*
20,1,$1+$1,$4,$5,$6,$7,0*
20,1,$1+$1,$6,$7,$8,$9,0*
20,1,$1+$1,$8,$9,$2,$3,0*%
G04 Aperture macros list end*
%ADD10R,1.500000X2.600000*%
%ADD11RoundRect,0.250000X-0.262500X-0.450000X0.262500X-0.450000X0.262500X0.450000X-0.262500X0.450000X0*%
%ADD12RoundRect,0.250000X0.475000X-0.250000X0.475000X0.250000X-0.475000X0.250000X-0.475000X-0.250000X0*%
%ADD13RoundRect,0.150000X-0.875000X-0.150000X0.875000X-0.150000X0.875000X0.150000X-0.875000X0.150000X0*%
%ADD14R,1.000000X1.000000*%
%ADD15RoundRect,0.250000X0.450000X-0.262500X0.450000X0.262500X-0.450000X0.262500X-0.450000X-0.262500X0*%
%ADD16RoundRect,0.165000X0.385000X-0.710000X0.385000X0.710000X-0.385000X0.710000X-0.385000X-0.710000X0*%
%ADD17R,0.400000X0.900000*%
%ADD18RoundRect,0.250000X0.262500X0.450000X-0.262500X0.450000X-0.262500X-0.450000X0.262500X-0.450000X0*%
G04 APERTURE END LIST*
D10*
X161440000Y-73400000D03*
X158440000Y-73400000D03*
D11*
X164115000Y-73400000D03*
X165940000Y-73400000D03*
D12*
X171940000Y-81200000D03*
X171940000Y-79300000D03*
D13*
X61790000Y-82515000D03*
X61790000Y-83785000D03*
X61790000Y-85055000D03*
X61790000Y-86325000D03*
X61790000Y-87595000D03*
X61790000Y-88865000D03*
X61790000Y-90135000D03*
X61790000Y-91405000D03*
X61790000Y-92675000D03*
X61790000Y-93945000D03*
X61790000Y-95215000D03*
X61790000Y-96485000D03*
X71090000Y-96485000D03*
X71090000Y-95215000D03*
X71090000Y-93945000D03*
X71090000Y-92675000D03*
X71090000Y-91405000D03*
X71090000Y-90135000D03*
X71090000Y-88865000D03*
X71090000Y-87595000D03*
X71090000Y-86325000D03*
X71090000Y-85055000D03*
X71090000Y-83785000D03*
X71090000Y-82515000D03*
D14*
X157190000Y-43000000D03*
X159690000Y-43000000D03*
D10*
X161440000Y-105000000D03*
X158440000Y-105000000D03*
D11*
X63777500Y-75000000D03*
X65602500Y-75000000D03*
X164027500Y-98500000D03*
X165852500Y-98500000D03*
D10*
X161440000Y-81300000D03*
X158440000Y-81300000D03*
D11*
X164027500Y-89200000D03*
X165852500Y-89200000D03*
D15*
X174440000Y-81162500D03*
X174440000Y-79337500D03*
D11*
X164027500Y-81300000D03*
X165852500Y-81300000D03*
D10*
X161440000Y-65500000D03*
X158440000Y-65500000D03*
X161440000Y-89200000D03*
X158440000Y-89200000D03*
D16*
X172865000Y-76250000D03*
X172865000Y-71750000D03*
X175015000Y-76250000D03*
X175015000Y-71750000D03*
D17*
X69340000Y-73400000D03*
X68690000Y-73400000D03*
X68040000Y-73400000D03*
X68040000Y-75600000D03*
X68690000Y-75600000D03*
X69340000Y-75600000D03*
D11*
X164027500Y-105000000D03*
X165852500Y-105000000D03*
D18*
X159852500Y-46250000D03*
X158027500Y-46250000D03*
D10*
X161440000Y-98500000D03*
X158440000Y-98500000D03*
D11*
X164027500Y-65500000D03*
X165852500Y-65500000D03*
X148027500Y-51500000D03*
X149852500Y-51500000D03*
M02*
