G04 EAGLE Gerber RS-274X export*
G75*
%MOMM*%
%FSLAX34Y34*%
%LPD*%
%INTop Copper*%
%IPPOS*%
%AMOC8*
5,1,8,0,0,1.08239X$1,22.5*%
G01*
G04 Define Apertures*
%ADD10R,1.358000X1.358000*%
%ADD11C,1.358000*%
%ADD12R,2.715300X1.164600*%
%ADD13R,2.115300X3.763600*%
%ADD14R,2.115300X4.415700*%
%ADD15R,1.164600X2.715300*%
%ADD16R,3.763600X2.115300*%
%ADD17R,0.890200X0.436900*%
%ADD18R,1.263900X2.953600*%
%ADD19R,1.208000X1.208000*%
%ADD20C,1.208000*%
%ADD21R,1.508000X1.508000*%
%ADD22C,3.816000*%
%ADD23C,4.116000*%
%ADD24C,3.666000*%
%ADD25C,1.785000*%
%ADD26R,2.000000X2.500000*%
%ADD27R,2.200000X2.500000*%
%ADD28R,2.800000X2.500000*%
%ADD29C,2.100000*%
%ADD30C,2.025000*%
%ADD31C,3.406000*%
%ADD32R,2.325000X2.325000*%
%ADD33C,2.400000*%
%ADD34C,1.650000*%
%ADD35C,1.372500*%
%ADD36R,0.750000X0.900000*%
%ADD37R,1.164600X1.815300*%
%ADD38C,1.408000*%
%ADD39P,1.52401X8X112.5*%
%ADD40R,1.408000X1.408000*%
%ADD41R,1.308000X1.308000*%
%ADD42C,1.308000*%
%ADD43C,1.676400*%
%ADD44R,2.053000X0.604500*%
%ADD45C,1.950000*%
%ADD46R,1.815300X1.164600*%
%ADD47R,1.771900X1.231400*%
%ADD48R,1.950000X1.950000*%
%ADD49R,1.968000X0.601500*%
%ADD50C,1.700000*%
%ADD51P,3.48097X8X22.5*%
%ADD52R,0.900000X0.750000*%
%ADD53C,2.184400*%
%ADD54P,2.36437X8X22.5*%
%ADD55R,1.031200X1.420200*%
%ADD56C,2.250000*%
%ADD57R,1.231500X1.849100*%
%ADD58R,1.111800X0.600200*%
%ADD59R,1.223500X0.624800*%
%ADD60R,1.420200X1.031200*%
%ADD61R,2.200000X0.650000*%
%ADD62C,1.000000*%
%ADD63C,0.756400*%
%ADD64C,0.406400*%
%ADD65C,0.254000*%
%ADD66C,0.304800*%
%ADD67C,0.152400*%
%ADD68C,0.609600*%
%ADD69C,0.203200*%
G36*
X957562Y660460D02*
X957803Y660623D01*
X982757Y685577D01*
X982924Y685830D01*
X982980Y686116D01*
X982980Y718312D01*
X982920Y718609D01*
X982748Y718859D01*
X982493Y719023D01*
X982218Y719074D01*
X961381Y719074D01*
X961084Y719014D01*
X960834Y718842D01*
X960670Y718587D01*
X960619Y718312D01*
X960619Y717721D01*
X959726Y716829D01*
X938784Y716829D01*
X937891Y717721D01*
X937891Y724999D01*
X938784Y725892D01*
X959726Y725892D01*
X960619Y724999D01*
X960619Y724408D01*
X960679Y724111D01*
X960851Y723861D01*
X961106Y723697D01*
X961381Y723646D01*
X982218Y723646D01*
X982515Y723706D01*
X982765Y723878D01*
X982929Y724133D01*
X982980Y724408D01*
X982980Y783820D01*
X982920Y784118D01*
X982757Y784359D01*
X948913Y818203D01*
X948913Y830418D01*
X948853Y830715D01*
X948681Y830965D01*
X948426Y831128D01*
X948151Y831180D01*
X931750Y831180D01*
X930857Y832072D01*
X930857Y854488D01*
X931750Y855381D01*
X948151Y855381D01*
X948448Y855441D01*
X948698Y855612D01*
X948862Y855868D01*
X948913Y856143D01*
X948913Y861098D01*
X948853Y861396D01*
X948690Y861637D01*
X925300Y885027D01*
X925300Y915738D01*
X925240Y916035D01*
X925068Y916285D01*
X924813Y916448D01*
X924538Y916500D01*
X921132Y916500D01*
X920239Y917392D01*
X920239Y936808D01*
X921132Y937701D01*
X924052Y937701D01*
X924349Y937761D01*
X924599Y937932D01*
X924763Y938188D01*
X924814Y938463D01*
X924814Y1040137D01*
X924754Y1040435D01*
X924591Y1040676D01*
X893356Y1071911D01*
X893103Y1072078D01*
X892817Y1072134D01*
X864744Y1072134D01*
X864447Y1072074D01*
X864206Y1071911D01*
X861409Y1069114D01*
X857013Y1069114D01*
X853905Y1072222D01*
X853905Y1076618D01*
X857013Y1079726D01*
X861409Y1079726D01*
X864206Y1076929D01*
X864458Y1076762D01*
X864744Y1076706D01*
X895027Y1076706D01*
X929386Y1042347D01*
X929386Y938463D01*
X929446Y938165D01*
X929618Y937915D01*
X929873Y937752D01*
X930148Y937701D01*
X934040Y937701D01*
X934933Y936808D01*
X934933Y917392D01*
X934040Y916500D01*
X930634Y916500D01*
X930337Y916439D01*
X930087Y916268D01*
X929923Y916012D01*
X929872Y915738D01*
X929872Y887237D01*
X929932Y886939D01*
X930095Y886698D01*
X953485Y863308D01*
X953485Y856143D01*
X953545Y855845D01*
X953717Y855595D01*
X953972Y855432D01*
X954247Y855381D01*
X970648Y855381D01*
X971541Y854488D01*
X971541Y832072D01*
X970648Y831180D01*
X954247Y831180D01*
X953950Y831119D01*
X953700Y830948D01*
X953536Y830692D01*
X953485Y830418D01*
X953485Y820413D01*
X953545Y820115D01*
X953708Y819874D01*
X981679Y791903D01*
X981932Y791735D01*
X982230Y791680D01*
X982526Y791745D01*
X982774Y791920D01*
X982933Y792178D01*
X982980Y792442D01*
X982980Y897382D01*
X982920Y897679D01*
X982748Y897929D01*
X982493Y898093D01*
X982218Y898144D01*
X969463Y898144D01*
X969166Y898084D01*
X968925Y897921D01*
X967398Y896394D01*
X963002Y896394D01*
X961475Y897921D01*
X961223Y898088D01*
X960937Y898144D01*
X956763Y898144D01*
X956466Y898084D01*
X956225Y897921D01*
X954698Y896394D01*
X950302Y896394D01*
X947194Y899502D01*
X947194Y903898D01*
X950302Y907006D01*
X954698Y907006D01*
X956225Y905479D01*
X956477Y905312D01*
X956763Y905256D01*
X960937Y905256D01*
X961234Y905316D01*
X961475Y905479D01*
X963002Y907006D01*
X967398Y907006D01*
X968925Y905479D01*
X969177Y905312D01*
X969463Y905256D01*
X982218Y905256D01*
X982515Y905316D01*
X982765Y905488D01*
X982929Y905743D01*
X982980Y906018D01*
X982980Y930594D01*
X982920Y930892D01*
X982757Y931133D01*
X944924Y968966D01*
X944905Y968993D01*
X944880Y969098D01*
X944880Y1053784D01*
X944820Y1054082D01*
X944657Y1054323D01*
X907003Y1091977D01*
X906750Y1092144D01*
X906464Y1092200D01*
X851216Y1092200D01*
X850918Y1092140D01*
X850677Y1091977D01*
X838423Y1079723D01*
X838256Y1079470D01*
X838200Y1079184D01*
X838200Y1067116D01*
X838260Y1066818D01*
X838423Y1066577D01*
X850677Y1054323D01*
X850930Y1054156D01*
X851216Y1054100D01*
X888938Y1054100D01*
X888970Y1054095D01*
X889062Y1054038D01*
X901656Y1041444D01*
X901675Y1041417D01*
X901700Y1041312D01*
X901700Y927162D01*
X901695Y927130D01*
X901638Y927038D01*
X851123Y876523D01*
X850956Y876270D01*
X850900Y875984D01*
X850900Y812862D01*
X850895Y812830D01*
X850838Y812738D01*
X800323Y762223D01*
X800156Y761970D01*
X800100Y761684D01*
X800100Y686116D01*
X800160Y685818D01*
X800323Y685577D01*
X825277Y660623D01*
X825530Y660456D01*
X825816Y660400D01*
X957264Y660400D01*
X957562Y660460D01*
G37*
%LPC*%
G36*
X948731Y927862D02*
X948731Y937229D01*
X950219Y938717D01*
X956332Y938717D01*
X956332Y927862D01*
X948731Y927862D01*
G37*
G36*
X957856Y927862D02*
X957856Y938717D01*
X963969Y938717D01*
X965457Y937229D01*
X965457Y927862D01*
X957856Y927862D01*
G37*
G36*
X950219Y915484D02*
X948731Y916971D01*
X948731Y926338D01*
X956332Y926338D01*
X956332Y915484D01*
X950219Y915484D01*
G37*
G36*
X957856Y915484D02*
X957856Y926338D01*
X965457Y926338D01*
X965457Y916971D01*
X963969Y915484D01*
X957856Y915484D01*
G37*
G36*
X889394Y729529D02*
X888501Y730421D01*
X888501Y731012D01*
X888441Y731309D01*
X888269Y731559D01*
X888014Y731723D01*
X887739Y731774D01*
X886218Y731774D01*
X880850Y737142D01*
X880850Y761378D01*
X880790Y761675D01*
X880618Y761925D01*
X880363Y762088D01*
X880088Y762140D01*
X876682Y762140D01*
X875789Y763032D01*
X875789Y774192D01*
X875729Y774489D01*
X875557Y774739D01*
X875302Y774903D01*
X875027Y774954D01*
X864863Y774954D01*
X864565Y774894D01*
X864324Y774731D01*
X858489Y768896D01*
X858322Y768643D01*
X858266Y768357D01*
X858266Y768353D01*
X858326Y768056D01*
X858498Y767806D01*
X858753Y767642D01*
X859028Y767591D01*
X870188Y767591D01*
X871081Y766698D01*
X871081Y753790D01*
X870188Y752897D01*
X841772Y752897D01*
X840880Y753790D01*
X840880Y766698D01*
X841772Y767591D01*
X852932Y767591D01*
X853229Y767651D01*
X853479Y767823D01*
X853643Y768078D01*
X853694Y768353D01*
X853694Y770567D01*
X862653Y779526D01*
X875027Y779526D01*
X875324Y779586D01*
X875574Y779758D01*
X875738Y780013D01*
X875789Y780288D01*
X875789Y791448D01*
X876682Y792341D01*
X880088Y792341D01*
X880385Y792401D01*
X880635Y792572D01*
X880799Y792828D01*
X880850Y793103D01*
X880850Y830418D01*
X880790Y830715D01*
X880618Y830965D01*
X880363Y831128D01*
X880088Y831180D01*
X863232Y831180D01*
X862339Y832072D01*
X862339Y854488D01*
X863232Y855381D01*
X902130Y855381D01*
X903023Y854488D01*
X903023Y832072D01*
X902130Y831180D01*
X886184Y831180D01*
X885887Y831119D01*
X885637Y830948D01*
X885473Y830692D01*
X885422Y830418D01*
X885422Y793103D01*
X885482Y792805D01*
X885654Y792555D01*
X885909Y792392D01*
X886184Y792341D01*
X889590Y792341D01*
X890483Y791448D01*
X890483Y763032D01*
X889590Y762140D01*
X886184Y762140D01*
X885887Y762079D01*
X885637Y761908D01*
X885473Y761652D01*
X885422Y761378D01*
X885422Y739352D01*
X885482Y739054D01*
X885645Y738813D01*
X887200Y737258D01*
X887453Y737090D01*
X887751Y737035D01*
X888047Y737100D01*
X888295Y737275D01*
X888454Y737533D01*
X888480Y737678D01*
X889394Y738592D01*
X910336Y738592D01*
X911229Y737699D01*
X911229Y730421D01*
X910336Y729529D01*
X889394Y729529D01*
G37*
G36*
X906190Y762140D02*
X905297Y763032D01*
X905297Y791448D01*
X906190Y792341D01*
X919098Y792341D01*
X919991Y791448D01*
X919991Y787422D01*
X920051Y787125D01*
X920223Y786875D01*
X920478Y786711D01*
X920753Y786660D01*
X923358Y786660D01*
X923655Y786720D01*
X923905Y786892D01*
X924068Y787147D01*
X924120Y787422D01*
X924120Y790828D01*
X925012Y791721D01*
X944428Y791721D01*
X945321Y790828D01*
X945321Y777920D01*
X944428Y777027D01*
X925012Y777027D01*
X924120Y777920D01*
X924120Y781326D01*
X924059Y781623D01*
X923888Y781873D01*
X923632Y782037D01*
X923358Y782088D01*
X921041Y782088D01*
X920743Y782028D01*
X920502Y781865D01*
X920214Y781577D01*
X920047Y781324D01*
X919991Y781038D01*
X919991Y763032D01*
X919098Y762140D01*
X906190Y762140D01*
G37*
G36*
X938784Y691429D02*
X937891Y692321D01*
X937891Y692693D01*
X937831Y692990D01*
X937659Y693240D01*
X937404Y693404D01*
X937129Y693455D01*
X927642Y693455D01*
X913384Y707713D01*
X913384Y748977D01*
X921559Y757152D01*
X923358Y757152D01*
X923655Y757212D01*
X923905Y757384D01*
X924068Y757639D01*
X924120Y757914D01*
X924120Y761320D01*
X925012Y762213D01*
X944428Y762213D01*
X945321Y761320D01*
X945321Y748412D01*
X944428Y747519D01*
X925012Y747519D01*
X924120Y748412D01*
X924120Y751407D01*
X924059Y751704D01*
X923888Y751954D01*
X923632Y752118D01*
X923333Y752169D01*
X923038Y752099D01*
X922819Y751946D01*
X918179Y747306D01*
X918012Y747053D01*
X917956Y746767D01*
X917956Y709923D01*
X918016Y709625D01*
X918179Y709384D01*
X929313Y698250D01*
X929566Y698083D01*
X929852Y698027D01*
X937129Y698027D01*
X937426Y698087D01*
X937676Y698259D01*
X937840Y698514D01*
X937891Y698789D01*
X937891Y699599D01*
X938784Y700492D01*
X959726Y700492D01*
X960619Y699599D01*
X960619Y692321D01*
X959726Y691429D01*
X938784Y691429D01*
G37*
G36*
X936875Y734822D02*
X936875Y738120D01*
X938363Y739608D01*
X948493Y739608D01*
X948493Y734822D01*
X936875Y734822D01*
G37*
G36*
X950017Y734822D02*
X950017Y739608D01*
X960147Y739608D01*
X961635Y738120D01*
X961635Y734822D01*
X950017Y734822D01*
G37*
G36*
X813252Y722417D02*
X812360Y723310D01*
X812360Y736218D01*
X813252Y737111D01*
X832668Y737111D01*
X833561Y736218D01*
X833561Y733784D01*
X833621Y733487D01*
X833792Y733237D01*
X834048Y733073D01*
X834323Y733022D01*
X840118Y733022D01*
X840415Y733082D01*
X840665Y733254D01*
X840828Y733509D01*
X840880Y733784D01*
X840880Y737190D01*
X841772Y738083D01*
X870188Y738083D01*
X871081Y737190D01*
X871081Y724282D01*
X870188Y723389D01*
X841772Y723389D01*
X840880Y724282D01*
X840880Y727688D01*
X840819Y727985D01*
X840648Y728235D01*
X840392Y728399D01*
X840118Y728450D01*
X834323Y728450D01*
X834025Y728390D01*
X833775Y728218D01*
X833612Y727963D01*
X833561Y727688D01*
X833561Y723310D01*
X832668Y722417D01*
X813252Y722417D01*
G37*
G36*
X950017Y728513D02*
X950017Y733298D01*
X961635Y733298D01*
X961635Y730000D01*
X960147Y728513D01*
X950017Y728513D01*
G37*
G36*
X938363Y728513D02*
X936875Y730000D01*
X936875Y733298D01*
X948493Y733298D01*
X948493Y728513D01*
X938363Y728513D01*
G37*
G36*
X877912Y716054D02*
X874804Y719162D01*
X874804Y723558D01*
X877912Y726666D01*
X882308Y726666D01*
X885105Y723869D01*
X885357Y723702D01*
X885643Y723646D01*
X887739Y723646D01*
X888036Y723706D01*
X888286Y723878D01*
X888450Y724133D01*
X888501Y724408D01*
X888501Y724999D01*
X889394Y725892D01*
X910336Y725892D01*
X911229Y724999D01*
X911229Y717721D01*
X910336Y716829D01*
X889394Y716829D01*
X888501Y717721D01*
X888501Y718312D01*
X888441Y718609D01*
X888269Y718859D01*
X888014Y719023D01*
X887739Y719074D01*
X885643Y719074D01*
X885346Y719014D01*
X885105Y718851D01*
X882308Y716054D01*
X877912Y716054D01*
G37*
G36*
X846852Y700827D02*
X845960Y701720D01*
X845960Y714628D01*
X846852Y715521D01*
X875268Y715521D01*
X876161Y714628D01*
X876161Y711708D01*
X876221Y711411D01*
X876392Y711161D01*
X876648Y710997D01*
X876923Y710946D01*
X887739Y710946D01*
X888036Y711006D01*
X888286Y711178D01*
X888450Y711433D01*
X888501Y711708D01*
X888501Y712299D01*
X889394Y713192D01*
X910336Y713192D01*
X911229Y712299D01*
X911229Y705021D01*
X910336Y704129D01*
X889394Y704129D01*
X888501Y705021D01*
X888501Y705612D01*
X888441Y705909D01*
X888269Y706159D01*
X888014Y706323D01*
X887739Y706374D01*
X876923Y706374D01*
X876625Y706314D01*
X876375Y706142D01*
X876212Y705887D01*
X876161Y705612D01*
X876161Y701720D01*
X875268Y700827D01*
X846852Y700827D01*
G37*
G36*
X936875Y709422D02*
X936875Y712720D01*
X938363Y714208D01*
X948493Y714208D01*
X948493Y709422D01*
X936875Y709422D01*
G37*
G36*
X950017Y709422D02*
X950017Y714208D01*
X960147Y714208D01*
X961635Y712720D01*
X961635Y709422D01*
X950017Y709422D01*
G37*
G36*
X811344Y701018D02*
X811344Y707131D01*
X812831Y708619D01*
X822198Y708619D01*
X822198Y701018D01*
X811344Y701018D01*
G37*
G36*
X823722Y701018D02*
X823722Y708619D01*
X833089Y708619D01*
X834577Y707131D01*
X834577Y701018D01*
X823722Y701018D01*
G37*
G36*
X950017Y703113D02*
X950017Y707898D01*
X961635Y707898D01*
X961635Y704600D01*
X960147Y703113D01*
X950017Y703113D01*
G37*
G36*
X938363Y703113D02*
X936875Y704600D01*
X936875Y707898D01*
X948493Y707898D01*
X948493Y703113D01*
X938363Y703113D01*
G37*
G36*
X889394Y691429D02*
X888501Y692321D01*
X888501Y699599D01*
X889394Y700492D01*
X910336Y700492D01*
X911229Y699599D01*
X911229Y692321D01*
X910336Y691429D01*
X889394Y691429D01*
G37*
G36*
X823722Y691893D02*
X823722Y699494D01*
X834577Y699494D01*
X834577Y693381D01*
X833089Y691893D01*
X823722Y691893D01*
G37*
G36*
X812831Y691893D02*
X811344Y693381D01*
X811344Y699494D01*
X822198Y699494D01*
X822198Y691893D01*
X812831Y691893D01*
G37*
G36*
X844944Y679428D02*
X844944Y685541D01*
X846431Y687029D01*
X860298Y687029D01*
X860298Y679428D01*
X844944Y679428D01*
G37*
G36*
X861822Y679428D02*
X861822Y687029D01*
X875689Y687029D01*
X877177Y685541D01*
X877177Y679428D01*
X861822Y679428D01*
G37*
G36*
X861822Y670303D02*
X861822Y677904D01*
X877177Y677904D01*
X877177Y671791D01*
X875689Y670303D01*
X861822Y670303D01*
G37*
G36*
X846431Y670303D02*
X844944Y671791D01*
X844944Y677904D01*
X860298Y677904D01*
X860298Y670303D01*
X846431Y670303D01*
G37*
%LPD*%
D10*
X50800Y990600D03*
D11*
X50800Y965200D03*
X50800Y939800D03*
X50800Y914400D03*
X50800Y889000D03*
D10*
X50800Y777240D03*
D11*
X50800Y751840D03*
X50800Y726440D03*
X50800Y701040D03*
X50800Y675640D03*
D12*
X560070Y739626D03*
X560070Y769134D03*
X821690Y1278106D03*
X821690Y1307614D03*
D13*
X850900Y1245839D03*
X850900Y1177321D03*
D14*
X971550Y1263997D03*
X971550Y1176943D03*
D15*
X1151106Y769620D03*
X1180614Y769620D03*
X1152376Y480060D03*
X1181884Y480060D03*
X525294Y768350D03*
X495786Y768350D03*
D16*
X732821Y819150D03*
X801339Y819150D03*
D12*
X598170Y739626D03*
X598170Y769134D03*
D13*
X701040Y751809D03*
X701040Y683291D03*
D17*
X1119147Y1320800D03*
X1095733Y1320800D03*
D18*
X987852Y495300D03*
X1018748Y495300D03*
X848152Y495300D03*
X879048Y495300D03*
X708452Y495300D03*
X739348Y495300D03*
X568752Y495300D03*
X599648Y495300D03*
X429052Y495300D03*
X459948Y495300D03*
X289352Y495300D03*
X320248Y495300D03*
D19*
X1129030Y251460D03*
D20*
X1129030Y276860D03*
X1129030Y302260D03*
X1129030Y327660D03*
X1129030Y353060D03*
X1129030Y378460D03*
X1129030Y403860D03*
X1129030Y429260D03*
X1129030Y454660D03*
X1129030Y480060D03*
X1052830Y480060D03*
X1052830Y454660D03*
X1052830Y429260D03*
X1052830Y403860D03*
X1052830Y378460D03*
X1052830Y353060D03*
X1052830Y327660D03*
X1052830Y302260D03*
X1052830Y276860D03*
X1052830Y251460D03*
D21*
X336700Y970600D03*
X362100Y970600D03*
X387500Y970600D03*
X412900Y970600D03*
X438300Y970600D03*
X463700Y970600D03*
X489100Y970600D03*
X514500Y970600D03*
X539900Y970600D03*
X565300Y970600D03*
X590700Y970600D03*
X616100Y970600D03*
X641500Y970600D03*
X666900Y970600D03*
X692300Y970600D03*
X717700Y970600D03*
D22*
X1066800Y1532910D03*
D23*
X1066800Y1472410D03*
D24*
X1019800Y1502410D03*
D22*
X927100Y1532910D03*
D23*
X927100Y1472410D03*
D24*
X880100Y1502410D03*
D25*
X258700Y1489710D03*
X286400Y1489710D03*
X314100Y1489710D03*
X341800Y1489710D03*
X369500Y1489710D03*
X397200Y1489710D03*
X424900Y1489710D03*
X452600Y1489710D03*
X480300Y1489710D03*
X508000Y1489710D03*
X535700Y1489710D03*
X563400Y1489710D03*
X591100Y1489710D03*
X618800Y1489710D03*
X646500Y1489710D03*
X674200Y1489710D03*
X701900Y1489710D03*
X729600Y1489710D03*
X757300Y1489710D03*
X272550Y1518110D03*
X300250Y1518110D03*
X327950Y1518110D03*
X355650Y1518110D03*
X383350Y1518110D03*
X411050Y1518110D03*
X438750Y1518110D03*
X466450Y1518110D03*
X494150Y1518110D03*
X521850Y1518110D03*
X549550Y1518110D03*
X577250Y1518110D03*
X604950Y1518110D03*
X632650Y1518110D03*
X660350Y1518110D03*
X688050Y1518110D03*
X715750Y1518110D03*
X743450Y1518110D03*
D26*
X1305960Y771800D03*
D27*
X1277960Y771800D03*
X1296960Y853800D03*
D26*
X1324960Y853800D03*
D28*
X1202960Y853800D03*
D29*
X1317930Y1279760D03*
X1317930Y1229760D03*
D30*
X1217930Y1329810D03*
X1193030Y1304810D03*
X1217930Y1254760D03*
X1193030Y1204710D03*
X1217930Y1179710D03*
D31*
X1268030Y1329810D03*
X1268030Y1179710D03*
D32*
X1252220Y1052190D03*
D33*
X1252220Y1012190D03*
X1252220Y972190D03*
D34*
X1202220Y1012190D03*
D35*
X1121410Y1292860D03*
X1096010Y1292860D03*
X1096010Y1216660D03*
X1121410Y1216660D03*
D36*
X206400Y1301062D03*
X225400Y1301062D03*
X215900Y1322758D03*
X663600Y1301062D03*
X682600Y1301062D03*
X673100Y1322758D03*
X714400Y1301062D03*
X733400Y1301062D03*
X723900Y1322758D03*
X765200Y1301062D03*
X784200Y1301062D03*
X774700Y1322758D03*
X231800Y1402662D03*
X250800Y1402662D03*
X241300Y1424358D03*
X282600Y1402662D03*
X301600Y1402662D03*
X292100Y1424358D03*
X333400Y1402662D03*
X352400Y1402662D03*
X342900Y1424358D03*
X384200Y1402662D03*
X403200Y1402662D03*
X393700Y1424358D03*
X435000Y1402662D03*
X454000Y1402662D03*
X444500Y1424358D03*
X485800Y1402662D03*
X504800Y1402662D03*
X495300Y1424358D03*
X536600Y1402662D03*
X555600Y1402662D03*
X546100Y1424358D03*
X257200Y1301062D03*
X276200Y1301062D03*
X266700Y1322758D03*
X587400Y1402662D03*
X606400Y1402662D03*
X596900Y1424358D03*
X638200Y1402662D03*
X657200Y1402662D03*
X647700Y1424358D03*
X689000Y1402662D03*
X708000Y1402662D03*
X698500Y1424358D03*
X739800Y1402662D03*
X758800Y1402662D03*
X749300Y1424358D03*
X790600Y1402662D03*
X809600Y1402662D03*
X800100Y1424358D03*
X308000Y1301062D03*
X327000Y1301062D03*
X317500Y1322758D03*
X358800Y1301062D03*
X377800Y1301062D03*
X368300Y1322758D03*
X409600Y1301062D03*
X428600Y1301062D03*
X419100Y1322758D03*
X460400Y1301062D03*
X479400Y1301062D03*
X469900Y1322758D03*
X511200Y1301062D03*
X530200Y1301062D03*
X520700Y1322758D03*
X562000Y1301062D03*
X581000Y1301062D03*
X571500Y1322758D03*
X612800Y1301062D03*
X631800Y1301062D03*
X622300Y1322758D03*
D37*
X290046Y101600D03*
X319554Y101600D03*
D38*
X203200Y584200D03*
X203200Y609600D03*
X203200Y635000D03*
X203200Y660400D03*
X203200Y685800D03*
X203200Y711200D03*
X203200Y736600D03*
X203200Y762000D03*
X203200Y787400D03*
X203200Y812800D03*
X203200Y838200D03*
X203200Y863600D03*
X203200Y889000D03*
X203200Y914400D03*
X203200Y939800D03*
X228600Y939800D03*
X228600Y914400D03*
X228600Y889000D03*
X228600Y863600D03*
X228600Y838200D03*
X228600Y812800D03*
X228600Y787400D03*
X228600Y762000D03*
X228600Y736600D03*
X228600Y711200D03*
X228600Y685800D03*
X228600Y660400D03*
X228600Y635000D03*
X228600Y609600D03*
X228600Y584200D03*
X482600Y558800D03*
X457200Y558800D03*
X431800Y558800D03*
X406400Y558800D03*
X381000Y558800D03*
X355600Y558800D03*
X330200Y558800D03*
X304800Y558800D03*
X711200Y558800D03*
X685800Y558800D03*
X660400Y558800D03*
X635000Y558800D03*
X609600Y558800D03*
X584200Y558800D03*
X558800Y558800D03*
X533400Y558800D03*
D39*
X927100Y558800D03*
D40*
X901700Y558800D03*
D38*
X876300Y558800D03*
X850900Y558800D03*
X825500Y558800D03*
X800100Y558800D03*
X774700Y558800D03*
X749300Y558800D03*
X431800Y1041400D03*
X406400Y1041400D03*
X381000Y1041400D03*
X355600Y1041400D03*
X330200Y1041400D03*
X304800Y1041400D03*
X279400Y1041400D03*
X254000Y1041400D03*
X660400Y1041400D03*
X635000Y1041400D03*
X609600Y1041400D03*
X584200Y1041400D03*
X558800Y1041400D03*
X533400Y1041400D03*
X508000Y1041400D03*
X482600Y1041400D03*
X889000Y1041400D03*
D39*
X863600Y1041400D03*
D38*
X838200Y1041400D03*
D39*
X812800Y1041400D03*
X787400Y1041400D03*
D40*
X762000Y1041400D03*
X736600Y1041400D03*
D39*
X711200Y1041400D03*
D38*
X977900Y558800D03*
X952500Y558800D03*
D39*
X203200Y558800D03*
X228600Y558800D03*
D40*
X203200Y990600D03*
X228600Y990600D03*
D38*
X228600Y965200D03*
X203200Y965200D03*
D34*
X777600Y299200D03*
X777600Y234200D03*
X822600Y299200D03*
X822600Y234200D03*
D41*
X771100Y266700D03*
D42*
X829100Y266700D03*
D34*
X472800Y299200D03*
X472800Y234200D03*
X517800Y299200D03*
X517800Y234200D03*
D41*
X466300Y266700D03*
D42*
X524300Y266700D03*
D34*
X625200Y451600D03*
X625200Y386600D03*
X670200Y451600D03*
X670200Y386600D03*
D41*
X618700Y419100D03*
D42*
X676700Y419100D03*
D34*
X625200Y146800D03*
X625200Y81800D03*
X670200Y146800D03*
X670200Y81800D03*
D41*
X618700Y114300D03*
D42*
X676700Y114300D03*
D43*
X124100Y1313700D03*
X124100Y1378700D03*
X79100Y1313700D03*
X79100Y1378700D03*
D44*
X1016817Y289560D03*
X1016817Y302260D03*
X1016817Y314960D03*
X1016817Y327660D03*
X1016817Y340360D03*
X1016817Y353060D03*
X1016817Y365760D03*
X1016817Y378460D03*
X1016817Y391160D03*
X1016817Y403860D03*
X1016817Y416560D03*
X1016817Y429260D03*
X923743Y429260D03*
X923743Y416560D03*
X923743Y403860D03*
X923743Y391160D03*
X923743Y378460D03*
X923743Y365760D03*
X923743Y353060D03*
X923743Y340360D03*
X923743Y327660D03*
X923743Y314960D03*
X923743Y302260D03*
X923743Y289560D03*
D45*
X1291590Y664210D03*
X1291590Y613410D03*
X1291590Y562610D03*
D37*
X230654Y1273810D03*
X201146Y1273810D03*
X281454Y1273810D03*
X251946Y1273810D03*
X332254Y1273810D03*
X302746Y1273810D03*
X383054Y1273810D03*
X353546Y1273810D03*
X433854Y1273810D03*
X404346Y1273810D03*
X484654Y1273810D03*
X455146Y1273810D03*
X586254Y1273810D03*
X556746Y1273810D03*
X535454Y1273810D03*
X505946Y1273810D03*
X637054Y1273810D03*
X607546Y1273810D03*
X687854Y1273810D03*
X658346Y1273810D03*
X738654Y1273810D03*
X709146Y1273810D03*
X789454Y1273810D03*
X759946Y1273810D03*
X814854Y1375410D03*
X785346Y1375410D03*
X764054Y1375410D03*
X734546Y1375410D03*
X713254Y1375410D03*
X683746Y1375410D03*
X662454Y1375410D03*
X632946Y1375410D03*
X611654Y1375410D03*
X582146Y1375410D03*
X560854Y1375410D03*
X531346Y1375410D03*
X510054Y1375410D03*
X480546Y1375410D03*
X459254Y1375410D03*
X429746Y1375410D03*
X408454Y1375410D03*
X378946Y1375410D03*
X357654Y1375410D03*
X328146Y1375410D03*
X306854Y1375410D03*
X277346Y1375410D03*
X256054Y1375410D03*
X226546Y1375410D03*
X1136164Y1018540D03*
X1106656Y1018540D03*
D46*
X1173480Y1008866D03*
X1173480Y1038374D03*
D33*
X1290004Y1396510D03*
X1155004Y1396510D03*
X1290004Y1430510D03*
X1155004Y1430510D03*
D47*
X546100Y255960D03*
X546100Y226640D03*
X850900Y255960D03*
X850900Y226640D03*
X698500Y408360D03*
X698500Y379040D03*
X698500Y103560D03*
X698500Y74240D03*
D48*
X380600Y215100D03*
X355600Y115100D03*
X330600Y215100D03*
X203600Y115100D03*
X228600Y215100D03*
X253600Y115100D03*
D12*
X388620Y1126004D03*
X388620Y1096496D03*
X353060Y1126004D03*
X353060Y1096496D03*
X640080Y1132354D03*
X640080Y1102846D03*
X604520Y1132354D03*
X604520Y1102846D03*
D34*
X625200Y299200D03*
X625200Y234200D03*
X670200Y299200D03*
X670200Y234200D03*
D41*
X618700Y266700D03*
D42*
X676700Y266700D03*
D47*
X698500Y255960D03*
X698500Y226640D03*
D49*
X949255Y695960D03*
X949255Y708660D03*
X949255Y721360D03*
X949255Y734060D03*
X899865Y734060D03*
X899865Y721360D03*
X899865Y708660D03*
X899865Y695960D03*
D46*
X822960Y700256D03*
X822960Y729764D03*
D12*
X855980Y760244D03*
X855980Y730736D03*
D15*
X883136Y777240D03*
X912644Y777240D03*
D46*
X934720Y754866D03*
X934720Y784374D03*
D16*
X882681Y843280D03*
X951199Y843280D03*
D37*
X957094Y927100D03*
X927586Y927100D03*
D12*
X861060Y708174D03*
X861060Y678666D03*
D50*
X1295380Y443230D03*
X1295380Y468230D03*
X1295380Y418230D03*
D51*
X1262380Y495230D03*
X1262380Y391230D03*
D15*
X504676Y457200D03*
X534184Y457200D03*
D12*
X577850Y117326D03*
X577850Y146834D03*
D52*
X932868Y1368450D03*
X932868Y1387450D03*
X911172Y1377950D03*
D53*
X894080Y1398270D03*
X894080Y1322070D03*
D54*
X995680Y1398270D03*
D53*
X1071880Y1398270D03*
X1046480Y1322070D03*
D55*
X914095Y1344930D03*
X932485Y1344930D03*
X977849Y596900D03*
X996239Y596900D03*
X952551Y596900D03*
X934161Y596900D03*
D56*
X1165057Y1485277D02*
X1165057Y1507777D01*
X1215857Y1507777D02*
X1215857Y1485277D01*
D57*
X861060Y1344148D03*
X861060Y1376192D03*
D58*
X812900Y1110009D03*
X812900Y1129009D03*
X787300Y1119509D03*
D59*
X787159Y1165200D03*
X787159Y1146200D03*
X808439Y1155700D03*
D55*
X849935Y1148080D03*
X831545Y1148080D03*
D60*
X849630Y1129335D03*
X849630Y1110945D03*
D61*
X199161Y1202690D03*
X199161Y1189990D03*
X199161Y1177290D03*
X199161Y1164590D03*
X199161Y1151890D03*
X199161Y1139190D03*
X199161Y1126490D03*
X199161Y1113790D03*
X199161Y1101090D03*
X199161Y1088390D03*
X293599Y1088390D03*
X293599Y1101090D03*
X293599Y1113790D03*
X293599Y1126490D03*
X293599Y1139190D03*
X293599Y1151890D03*
X293599Y1164590D03*
X293599Y1177290D03*
X293599Y1189990D03*
X293599Y1202690D03*
X439191Y1202690D03*
X439191Y1189990D03*
X439191Y1177290D03*
X439191Y1164590D03*
X439191Y1151890D03*
X439191Y1139190D03*
X439191Y1126490D03*
X439191Y1113790D03*
X439191Y1101090D03*
X439191Y1088390D03*
X533629Y1088390D03*
X533629Y1101090D03*
X533629Y1113790D03*
X533629Y1126490D03*
X533629Y1139190D03*
X533629Y1151890D03*
X533629Y1164590D03*
X533629Y1177290D03*
X533629Y1189990D03*
X533629Y1202690D03*
D62*
X977900Y533400D03*
X952500Y533400D03*
X1092200Y534670D03*
X977900Y1092200D03*
X861060Y1283970D03*
X393700Y368300D03*
X393700Y355600D03*
X393700Y381000D03*
X406400Y368300D03*
X381000Y368300D03*
X205740Y1346200D03*
X257810Y1346200D03*
X308610Y1346200D03*
X359410Y1346200D03*
X410210Y1346200D03*
X461010Y1346200D03*
X511810Y1346200D03*
X562610Y1346200D03*
X613410Y1346200D03*
X662940Y1346200D03*
X715010Y1346200D03*
X765810Y1346200D03*
X241300Y1346200D03*
X292100Y1346200D03*
X342900Y1346200D03*
X393700Y1346200D03*
X444500Y1346200D03*
X495300Y1346200D03*
X546100Y1346200D03*
X596900Y1346200D03*
X647700Y1346200D03*
X698500Y1346200D03*
X749300Y1346200D03*
X800100Y1346200D03*
X201930Y1256030D03*
X251460Y1256030D03*
X303530Y1256030D03*
X354330Y1256030D03*
X405130Y1256030D03*
X455930Y1256030D03*
X506730Y1256030D03*
X557530Y1256030D03*
X608330Y1256030D03*
X659130Y1256030D03*
X709930Y1256030D03*
X760730Y1256030D03*
X233680Y1223010D03*
X284480Y1223010D03*
X335280Y1223010D03*
X386080Y1220470D03*
X436880Y1220470D03*
X487680Y1220470D03*
X546194Y1220470D03*
X596900Y1220470D03*
X645160Y1220470D03*
X690880Y1220470D03*
X741680Y1220470D03*
X792480Y1220470D03*
X172720Y1266190D03*
X336550Y1179830D03*
X554990Y1155700D03*
X647700Y1188720D03*
X339090Y1155700D03*
X417830Y1187450D03*
X594360Y1188720D03*
X726440Y1205230D03*
X279400Y1066800D03*
X330200Y1066800D03*
X558800Y1066800D03*
X609600Y1066800D03*
X304800Y1066800D03*
X355600Y1066800D03*
X584200Y1066800D03*
X635000Y1066800D03*
X1143000Y1333500D03*
X1143000Y1308100D03*
X1193800Y1117600D03*
X1206500Y1117600D03*
X1181100Y1117600D03*
X1143000Y685800D03*
X1168400Y685800D03*
X1181100Y685800D03*
X1130300Y685800D03*
X1155700Y685800D03*
X1079500Y774700D03*
X927100Y228600D03*
X901700Y228600D03*
X889000Y228600D03*
X914400Y228600D03*
X939800Y228600D03*
X413004Y1005840D03*
X438404Y1005840D03*
X463804Y1005840D03*
X489204Y1005840D03*
X514350Y1005840D03*
X540004Y1005840D03*
X565277Y1005840D03*
X590804Y1005840D03*
X616204Y1005840D03*
X641604Y1005840D03*
X774700Y1132840D03*
X889000Y1102360D03*
X889000Y1121410D03*
X667004Y1005840D03*
X387477Y1005840D03*
X664210Y1022350D03*
X1079500Y736600D03*
X1219200Y1117600D03*
X88900Y889000D03*
X88900Y914400D03*
X88900Y939800D03*
X88900Y675640D03*
X88900Y701040D03*
X88900Y726440D03*
X50800Y857250D03*
X78740Y1270000D03*
X861060Y1409700D03*
X861060Y1426210D03*
X812800Y1023620D03*
X1155700Y1358900D03*
D63*
X491490Y739140D03*
X504190Y739140D03*
X516890Y739140D03*
D64*
X504190Y739140D02*
X491490Y739140D01*
X504190Y739140D02*
X516890Y739140D01*
X525780Y739140D01*
X559584Y739140D01*
D65*
X560070Y739626D01*
D64*
X598170Y739626D01*
X525294Y739626D02*
X525294Y768350D01*
D66*
X525294Y739626D02*
X525780Y739140D01*
D63*
X706120Y819150D03*
X689610Y819150D03*
D66*
X706120Y819150D01*
X732821Y819150D01*
D65*
X861060Y1328420D02*
X861060Y1344148D01*
X861060Y1328420D02*
X867410Y1322070D01*
X894080Y1322070D01*
D63*
X998220Y1092200D03*
D67*
X977900Y1092200D01*
X622300Y1132354D02*
X604520Y1132354D01*
X622300Y1132354D02*
X640080Y1132354D01*
X370840Y1126004D02*
X353060Y1126004D01*
X370840Y1126004D02*
X388620Y1126004D01*
D63*
X609600Y1117600D03*
D67*
X614680Y1117600D02*
X622300Y1125220D01*
X614680Y1117600D02*
X609600Y1117600D01*
X622300Y1125220D02*
X622300Y1132354D01*
D63*
X358140Y1111250D03*
D67*
X363162Y1111250D02*
X370840Y1118757D01*
X363162Y1111250D02*
X358140Y1111250D01*
X370840Y1118757D02*
X370840Y1126004D01*
D63*
X932180Y270510D03*
D67*
X923743Y278947D02*
X923743Y289560D01*
X923743Y278947D02*
X932180Y270510D01*
D66*
X1129030Y378460D02*
X1129030Y403860D01*
X1129030Y378460D02*
X1129030Y353060D01*
X1129030Y276860D02*
X1129030Y251460D01*
X1129030Y276860D02*
X1129030Y302260D01*
X1129030Y327660D01*
X1129030Y353060D01*
D63*
X1022350Y596900D03*
X910590Y596900D03*
D67*
X330200Y495300D02*
X320248Y495300D01*
X330200Y495300D02*
X342900Y508000D01*
X342900Y520700D01*
D63*
X342900Y520700D03*
X1041400Y520700D03*
X901700Y520700D03*
X762000Y520700D03*
X622300Y520700D03*
X482600Y520700D03*
D67*
X469900Y495300D02*
X459948Y495300D01*
X469900Y495300D02*
X482600Y508000D01*
X482600Y520700D01*
X599648Y495300D02*
X609600Y495300D01*
X622300Y508000D01*
X622300Y520700D01*
X739348Y495300D02*
X749300Y495300D01*
X762000Y508000D01*
X762000Y520700D01*
X879048Y495300D02*
X889000Y495300D01*
X901700Y508000D01*
X901700Y520700D01*
X1018748Y495300D02*
X1028700Y495300D01*
X1041400Y508000D01*
X1041400Y520700D01*
D63*
X825500Y1435100D03*
X965200Y901700D03*
D64*
X1028700Y901700D01*
D63*
X1028700Y901700D03*
X952500Y901700D03*
X1041400Y901700D03*
X1111250Y1056640D03*
D66*
X1129030Y480060D02*
X1129030Y454660D01*
X1129030Y429260D01*
X1129030Y403860D01*
D64*
X965200Y901700D02*
X952500Y901700D01*
X1028700Y901700D02*
X1041400Y901700D01*
D66*
X1129030Y480060D02*
X1152376Y480060D01*
D63*
X880110Y721360D03*
D67*
X899865Y721360D01*
X996239Y596900D02*
X1022350Y596900D01*
X934161Y596900D02*
X910590Y596900D01*
D63*
X701040Y788670D03*
X701040Y777240D03*
D68*
X701040Y751809D01*
X701040Y777240D02*
X701040Y788670D01*
D63*
X826770Y1129030D03*
D66*
X812921Y1129030D01*
X812900Y1129009D01*
D63*
X797560Y1104900D03*
X800100Y1003300D03*
D66*
X800100Y1048251D02*
X804390Y1052541D01*
X800100Y1048251D02*
X800100Y1003300D01*
X804390Y1052541D02*
X804390Y1087409D01*
X797560Y1094239D01*
X797560Y1104900D01*
D63*
X622300Y838200D03*
X622300Y850900D03*
D67*
X797560Y1104900D02*
X803910Y1104900D01*
X806450Y1102360D01*
D63*
X497840Y1173480D03*
D67*
X806450Y1102360D02*
X889000Y1102360D01*
D63*
X514350Y1202690D03*
D67*
X533629Y1202690D01*
D63*
X452120Y1211580D03*
D67*
X441960Y1211580D01*
X439191Y1208811D01*
X439191Y1202690D01*
D63*
X264160Y1202690D03*
D67*
X293599Y1202690D01*
D63*
X1092200Y520700D03*
D67*
X1092200Y534670D01*
X812800Y1023620D02*
X812800Y1041400D01*
X622300Y1102846D02*
X604520Y1102846D01*
X622300Y1102846D02*
X640080Y1102846D01*
D63*
X383540Y1111250D03*
D67*
X370840Y1096496D02*
X353060Y1096496D01*
X370840Y1096496D02*
X388620Y1096496D01*
X383540Y1111250D02*
X378460Y1111250D01*
X370840Y1103630D01*
X370840Y1096496D01*
D63*
X635000Y1117600D03*
D67*
X629920Y1117600D01*
X622300Y1109980D01*
X622300Y1102846D01*
D63*
X252730Y1391920D03*
X303530Y1391920D03*
X354330Y1391920D03*
X405130Y1391920D03*
X455930Y1391920D03*
X506730Y1391920D03*
X557530Y1391920D03*
X608330Y1391920D03*
X659130Y1391920D03*
X709930Y1391920D03*
X760730Y1391920D03*
X811530Y1391920D03*
X786130Y1290320D03*
X684530Y1290320D03*
X633730Y1290320D03*
X532130Y1290320D03*
X481330Y1290320D03*
X379730Y1290320D03*
X328930Y1290320D03*
X227330Y1290320D03*
D66*
X256054Y1375410D02*
X256054Y1388596D01*
X252730Y1391920D01*
X250800Y1393850D02*
X250800Y1402662D01*
X250800Y1393850D02*
X252730Y1391920D01*
X301600Y1393850D02*
X301600Y1402662D01*
X301600Y1393850D02*
X303530Y1391920D01*
X306854Y1388596D01*
X306854Y1375410D01*
X357654Y1375410D02*
X357654Y1388596D01*
X354330Y1391920D01*
X352400Y1393850D02*
X352400Y1402662D01*
X352400Y1393850D02*
X354330Y1391920D01*
X403200Y1393850D02*
X403200Y1402662D01*
X403200Y1393850D02*
X405130Y1391920D01*
X408454Y1388596D02*
X408454Y1375410D01*
X408454Y1388596D02*
X405130Y1391920D01*
X455930Y1391920D02*
X459254Y1388596D01*
X459254Y1375410D01*
X455930Y1391920D02*
X454000Y1393850D01*
X454000Y1402662D01*
X504800Y1393850D02*
X506730Y1391920D01*
X504800Y1393850D02*
X504800Y1402662D01*
X506730Y1391920D02*
X510054Y1388596D01*
X510054Y1375410D01*
X555600Y1393850D02*
X557530Y1391920D01*
X555600Y1393850D02*
X555600Y1402662D01*
X557530Y1391920D02*
X560854Y1388596D01*
X560854Y1375410D01*
X606400Y1393850D02*
X608330Y1391920D01*
X606400Y1393850D02*
X606400Y1402662D01*
X608330Y1391920D02*
X611654Y1388596D01*
X611654Y1375410D01*
X657200Y1393850D02*
X659130Y1391920D01*
X657200Y1393850D02*
X657200Y1402662D01*
X659130Y1391920D02*
X662454Y1388596D01*
X662454Y1375410D01*
X708000Y1393850D02*
X709930Y1391920D01*
X708000Y1393850D02*
X708000Y1402662D01*
X709930Y1391920D02*
X713254Y1388596D01*
X713254Y1375410D01*
X758800Y1393850D02*
X760730Y1391920D01*
X758800Y1393850D02*
X758800Y1402662D01*
X760730Y1391920D02*
X764054Y1388596D01*
X764054Y1375410D01*
X809600Y1393850D02*
X811530Y1391920D01*
X809600Y1393850D02*
X809600Y1402662D01*
X811530Y1391920D02*
X814854Y1388596D01*
X814854Y1375410D01*
X784200Y1292250D02*
X786130Y1290320D01*
X784200Y1292250D02*
X784200Y1301062D01*
X786130Y1290320D02*
X789454Y1286996D01*
X789454Y1273810D01*
X738654Y1286996D02*
X735330Y1290320D01*
X738654Y1286996D02*
X738654Y1273810D01*
X735330Y1290320D02*
X733400Y1292250D01*
X733400Y1301062D01*
X684530Y1290320D02*
X682600Y1292250D01*
X682600Y1301062D01*
X684530Y1290320D02*
X687854Y1286996D01*
X687854Y1273810D01*
X633730Y1290320D02*
X631800Y1292250D01*
X631800Y1301062D01*
X633730Y1290320D02*
X637054Y1286996D01*
X637054Y1273810D01*
X582930Y1290320D02*
X581000Y1292250D01*
X581000Y1301062D01*
X582930Y1290320D02*
X586254Y1286996D01*
X586254Y1273810D01*
X532130Y1290320D02*
X530200Y1292250D01*
X530200Y1301062D01*
X532130Y1290320D02*
X535454Y1286996D01*
X535454Y1273810D01*
X481330Y1290320D02*
X479400Y1292250D01*
X479400Y1301062D01*
X481330Y1290320D02*
X484654Y1286996D01*
X484654Y1273810D01*
X430530Y1290320D02*
X428600Y1292250D01*
X428600Y1301062D01*
X430530Y1290320D02*
X433854Y1286996D01*
X433854Y1273810D01*
X379730Y1290320D02*
X377800Y1292250D01*
X377800Y1301062D01*
X379730Y1290320D02*
X383054Y1286996D01*
X383054Y1273810D01*
X328930Y1290320D02*
X327000Y1292250D01*
X327000Y1301062D01*
X328930Y1290320D02*
X332254Y1286996D01*
X332254Y1273810D01*
X278130Y1290320D02*
X276200Y1292250D01*
X276200Y1301062D01*
X278130Y1290320D02*
X281454Y1286996D01*
X281454Y1273810D01*
X227330Y1290320D02*
X225400Y1292250D01*
X225400Y1301062D01*
X227330Y1290320D02*
X230654Y1286996D01*
X230654Y1273810D01*
D63*
X440690Y732282D03*
X440690Y758698D03*
X449580Y758698D03*
X458470Y758698D03*
X458470Y745490D03*
X458470Y732282D03*
X449580Y732282D03*
X449580Y745490D03*
X1008380Y266700D03*
D67*
X1016817Y275137D02*
X1016817Y289560D01*
X1016817Y275137D02*
X1008380Y266700D01*
X830254Y226546D02*
X822600Y234200D01*
X830254Y226546D02*
X850900Y226640D01*
X525454Y226546D02*
X517800Y234200D01*
X525454Y226546D02*
X546100Y226640D01*
X677854Y378946D02*
X670200Y386600D01*
X677854Y378946D02*
X698500Y379040D01*
X670200Y81800D02*
X677854Y74146D01*
X698500Y74240D01*
X290046Y101600D02*
X281940Y101600D01*
X268440Y115100D01*
D63*
X509270Y762000D03*
X509270Y774700D03*
D64*
X509270Y768350D02*
X509270Y762000D01*
X509270Y768350D02*
X509270Y774700D01*
X509270Y768350D02*
X495786Y768350D01*
D63*
X572770Y787400D03*
X585470Y787400D03*
D64*
X572770Y787400D01*
X560070Y782320D02*
X560070Y769134D01*
X560070Y782320D02*
X565150Y787400D01*
X572770Y787400D01*
X598170Y782320D02*
X598170Y769134D01*
X598170Y782320D02*
X593090Y787400D01*
X585470Y787400D01*
D63*
X496570Y685800D03*
X509270Y685800D03*
X1252220Y765810D03*
X1321054Y828040D03*
D67*
X1328770Y835756D01*
X1328770Y853800D01*
D63*
X1321054Y878840D03*
D67*
X1328770Y871124D01*
X1328770Y853800D01*
D63*
X1104900Y857250D03*
D67*
X1324960Y853800D02*
X1328770Y853800D01*
X677854Y226546D02*
X670200Y234200D01*
X677854Y226546D02*
X698500Y226640D01*
D63*
X278356Y1290320D03*
D66*
X278130Y1290320D01*
D63*
X440690Y745490D03*
X966470Y708660D03*
D69*
X949255Y708660D01*
D63*
X932180Y734060D03*
X932180Y708660D03*
X966470Y734060D03*
D69*
X949255Y734060D01*
X932180Y734060D01*
X932180Y708660D02*
X949255Y708660D01*
D63*
X711200Y1082040D03*
X711200Y1066800D03*
X736600Y1082040D03*
X736600Y1066800D03*
X762000Y1066800D03*
X762000Y1082040D03*
X795020Y1082040D03*
X795020Y1066800D03*
X825500Y1066800D03*
X825500Y1082040D03*
X850900Y1082040D03*
X850900Y1066800D03*
X889000Y1082040D03*
X889000Y1066800D03*
X924560Y1059180D03*
X901700Y1054100D03*
X919480Y1028700D03*
X934720Y1028700D03*
X919480Y952500D03*
X934720Y952500D03*
X919480Y977900D03*
X934720Y977900D03*
X919480Y1003300D03*
X934720Y1003300D03*
D67*
X268440Y115100D02*
X253600Y115100D01*
D63*
X1196340Y480060D03*
X1209040Y480060D03*
D66*
X1196340Y480060D02*
X1181884Y480060D01*
X1196340Y480060D02*
X1209040Y480060D01*
D63*
X836930Y678180D03*
X822960Y685800D03*
D67*
X822960Y700256D01*
X860574Y678180D02*
X861060Y678666D01*
X860574Y678180D02*
X836930Y678180D01*
X830580Y678180D01*
X822960Y685800D01*
D63*
X972820Y927100D03*
X488950Y457200D03*
D67*
X504676Y457200D01*
X577850Y117326D02*
X577850Y106680D01*
X586740Y97790D01*
X654210Y97790D01*
X670200Y81800D01*
D63*
X829310Y819150D03*
X842010Y819150D03*
D66*
X829310Y819150D02*
X801339Y819150D01*
X829310Y819150D02*
X842010Y819150D01*
D63*
X882650Y1177290D03*
X937260Y1177290D03*
D65*
X882619Y1177321D02*
X850900Y1177321D01*
D67*
X882619Y1177321D02*
X882650Y1177290D01*
D65*
X937260Y1177290D01*
X971203Y1177290D01*
D67*
X971550Y1176943D01*
D63*
X918210Y1365250D03*
D67*
X914095Y1361135D02*
X914095Y1344930D01*
X914095Y1361135D02*
X918210Y1365250D01*
X922020Y1369060D01*
X922020Y1376680D01*
X932790Y1387450D01*
X932868Y1387450D01*
D63*
X681990Y683260D03*
X720090Y683260D03*
D68*
X701040Y683291D02*
X682021Y683291D01*
X681990Y683260D01*
X701040Y683291D02*
X720059Y683291D01*
X720090Y683260D01*
D67*
X849630Y1129335D02*
X849935Y1129640D01*
X849935Y1148080D01*
X850900Y1149045D01*
X850900Y1177321D01*
D63*
X467360Y1173480D03*
D67*
X439191Y1177290D02*
X439191Y1189990D01*
X439191Y1177290D02*
X439191Y1164590D01*
X439191Y1151890D01*
X463550Y1177290D02*
X467360Y1173480D01*
X463550Y1177290D02*
X439191Y1177290D01*
D63*
X515620Y1151890D03*
D67*
X533629Y1151890D01*
D63*
X457200Y1088390D03*
X421640Y1088390D03*
D67*
X439191Y1088390D01*
X457200Y1088390D01*
D63*
X218440Y1088390D03*
X180340Y1088390D03*
D67*
X199161Y1088390D01*
X218440Y1088390D01*
D63*
X229870Y1149350D03*
D67*
X50800Y857250D02*
X50800Y777240D01*
X293599Y1151890D02*
X293599Y1164590D01*
X199161Y1164590D02*
X199161Y1151890D01*
X199161Y1164590D02*
X199161Y1177290D01*
X199161Y1189990D01*
X199161Y1202690D01*
D63*
X218440Y1202690D03*
X179070Y1202690D03*
D67*
X199161Y1202690D01*
X218440Y1202690D01*
D63*
X430756Y1290320D03*
D66*
X430530Y1290320D01*
D63*
X583156Y1290320D03*
D66*
X582930Y1290320D01*
D63*
X735556Y1290320D03*
D66*
X735330Y1290320D01*
D63*
X821690Y1332230D03*
X821690Y1320800D03*
D67*
X821690Y1307614D01*
X821690Y1320800D02*
X821690Y1332230D01*
D63*
X274320Y1151890D03*
D67*
X293599Y1151890D01*
X533629Y1151890D02*
X533629Y1164590D01*
X1219200Y1117600D02*
X1252220Y1084580D01*
X1252220Y1052190D01*
X1191746Y1038374D02*
X1173480Y1038374D01*
X1191746Y1038374D02*
X1202220Y1027900D01*
X1202220Y1012190D01*
X972820Y927100D02*
X957094Y927100D01*
X110490Y1016000D02*
X79100Y1047390D01*
D63*
X622300Y1016000D03*
D67*
X110490Y1016000D01*
X79100Y1269640D02*
X79100Y1313700D01*
X79100Y1269640D02*
X79100Y1047390D01*
X79100Y1269640D02*
X78740Y1270000D01*
X438300Y970600D02*
X438300Y952650D01*
X431546Y945896D01*
X310845Y945896D01*
X269240Y831850D02*
X250190Y812800D01*
X228600Y812800D01*
X269240Y904292D02*
X310845Y945896D01*
X269240Y904292D02*
X269240Y831850D01*
X438300Y970600D02*
X438300Y1005736D01*
X438404Y1005840D01*
X412900Y970600D02*
X412900Y955360D01*
X406484Y948944D01*
X309582Y948944D01*
X266192Y858012D02*
X246380Y838200D01*
X228600Y838200D01*
X266192Y905554D02*
X309582Y948944D01*
X266192Y905554D02*
X266192Y858012D01*
X412900Y970600D02*
X412900Y1005736D01*
X413004Y1005840D01*
X262890Y787400D02*
X228600Y787400D01*
X463700Y950280D02*
X463700Y970600D01*
X463700Y950280D02*
X456268Y942848D01*
X312107Y942848D01*
X272288Y796798D02*
X262890Y787400D01*
X272288Y796798D02*
X272288Y903029D01*
X312107Y942848D01*
X463700Y970600D02*
X463700Y1005736D01*
X463804Y1005840D01*
X264160Y762000D02*
X228600Y762000D01*
X489100Y946300D02*
X489100Y970600D01*
X489100Y946300D02*
X482600Y939800D01*
X313370Y939800D01*
X275336Y773176D02*
X264160Y762000D01*
X275336Y773176D02*
X275336Y901766D01*
X313370Y939800D01*
X489100Y970600D02*
X489100Y1005736D01*
X489204Y1005840D01*
X514500Y970600D02*
X514500Y945030D01*
X506222Y936752D01*
X314632Y936752D01*
X278384Y900504D01*
X278384Y771765D01*
X243219Y736600D02*
X228600Y736600D01*
X243219Y736600D02*
X278384Y771765D01*
X514350Y1005840D02*
X514500Y1005690D01*
X514500Y970600D01*
X539900Y970600D02*
X539900Y941220D01*
X532384Y933704D01*
X315895Y933704D01*
X245688Y715588D02*
X241300Y711200D01*
X228600Y711200D01*
X281432Y899241D02*
X315895Y933704D01*
X281432Y899241D02*
X281432Y770502D01*
X245688Y734758D01*
X245688Y715588D01*
X540004Y970704D02*
X540004Y1005840D01*
X540004Y970704D02*
X539900Y970600D01*
X565300Y970600D02*
X565300Y942490D01*
X553466Y930656D01*
X317157Y930656D01*
X248736Y693236D02*
X241300Y685800D01*
X228600Y685800D01*
X284480Y897979D02*
X317157Y930656D01*
X284480Y897979D02*
X284480Y769240D01*
X248736Y733496D02*
X248736Y693236D01*
X248736Y733496D02*
X284480Y769240D01*
X565277Y970623D02*
X565277Y1005840D01*
X565277Y970623D02*
X565300Y970600D01*
X590700Y970600D02*
X590700Y942490D01*
X575818Y927608D01*
X318420Y927608D01*
X251784Y670884D02*
X241300Y660400D01*
X228600Y660400D01*
X287528Y896716D02*
X318420Y927608D01*
X287528Y896716D02*
X287528Y767977D01*
X251784Y732233D02*
X251784Y670884D01*
X251784Y732233D02*
X287528Y767977D01*
X590804Y970704D02*
X590804Y1005840D01*
X590804Y970704D02*
X590700Y970600D01*
X616100Y938680D02*
X601980Y924560D01*
X616100Y938680D02*
X616100Y970600D01*
X601980Y924560D02*
X319682Y924560D01*
X254832Y648532D02*
X241300Y635000D01*
X228600Y635000D01*
X290576Y895454D02*
X319682Y924560D01*
X290576Y895454D02*
X290576Y766714D01*
X254832Y730970D01*
X254832Y648532D01*
X616204Y970704D02*
X616204Y1005840D01*
X616204Y970704D02*
X616100Y970600D01*
X641500Y970600D02*
X641500Y934870D01*
X257880Y626180D02*
X241300Y609600D01*
X228600Y609600D01*
X628142Y921512D02*
X641500Y934870D01*
X628142Y921512D02*
X320945Y921512D01*
X293624Y894191D01*
X293624Y765452D01*
X257880Y729708D02*
X257880Y626180D01*
X257880Y729708D02*
X293624Y765452D01*
X641604Y970704D02*
X641604Y1005840D01*
X641604Y970704D02*
X641500Y970600D01*
X666900Y970600D02*
X666900Y929790D01*
X260928Y603828D02*
X241300Y584200D01*
X228600Y584200D01*
X655574Y918464D02*
X666900Y929790D01*
X655574Y918464D02*
X322208Y918464D01*
X296672Y892928D01*
X296672Y764189D01*
X260928Y728445D01*
X260928Y603828D01*
X667004Y970704D02*
X667004Y1005840D01*
X667004Y970704D02*
X666900Y970600D01*
X203200Y965200D02*
X114300Y965200D01*
X88900Y939800D01*
X50800Y939800D01*
X114300Y939800D02*
X203200Y939800D01*
X114300Y939800D02*
X88900Y914400D01*
X50800Y914400D01*
X114300Y914400D02*
X203200Y914400D01*
X114300Y914400D02*
X88900Y889000D01*
X50800Y889000D01*
X113030Y830580D02*
X120650Y838200D01*
X203200Y838200D01*
X113030Y830580D02*
X113030Y699770D01*
X88900Y675640D02*
X50800Y675640D01*
X88900Y675640D02*
X113030Y699770D01*
X117609Y863600D02*
X203200Y863600D01*
X117609Y863600D02*
X109982Y855973D01*
X109982Y736600D02*
X109982Y734678D01*
X109982Y736600D02*
X109982Y855973D01*
X88900Y701040D02*
X50800Y701040D01*
X88900Y701040D02*
X109982Y722122D01*
X109982Y734678D01*
X114300Y889000D02*
X203200Y889000D01*
X106934Y881634D02*
X106934Y744474D01*
X106934Y881634D02*
X114300Y889000D01*
X88900Y726440D02*
X50800Y726440D01*
X88900Y726440D02*
X106934Y744474D01*
X908050Y327660D02*
X923743Y327660D01*
X908050Y327660D02*
X905510Y327660D01*
X891540Y313690D02*
X863600Y313690D01*
X891540Y313690D02*
X905510Y327660D01*
D63*
X142240Y673100D03*
D67*
X846582Y330708D02*
X863600Y313690D01*
X142240Y429761D02*
X142240Y673100D01*
X142240Y429761D02*
X241293Y330708D01*
X846582Y330708D01*
X927100Y254000D02*
X927100Y228600D01*
X927100Y254000D02*
X908050Y273050D01*
X908050Y327660D01*
D63*
X989330Y353060D03*
X861060Y345440D03*
D67*
X1002030Y327660D02*
X1016817Y327660D01*
X1002030Y327660D02*
X989330Y340360D01*
X989330Y353060D01*
X203200Y736600D02*
X186690Y736600D01*
X160782Y710692D01*
X239492Y345440D02*
X861060Y345440D01*
X239492Y345440D02*
X160782Y424150D01*
X160782Y710692D01*
D63*
X876300Y289560D03*
D67*
X889000Y276860D01*
X889000Y228600D01*
X1002030Y314960D02*
X1016817Y314960D01*
X1002030Y314960D02*
X976630Y340360D01*
D63*
X976630Y340360D03*
X873606Y331624D03*
D67*
X858366Y331624D01*
X853186Y336804D01*
X203200Y762000D02*
X182880Y762000D01*
X157734Y736854D01*
X157734Y422888D01*
X243818Y336804D01*
X853186Y336804D01*
X889000Y297180D02*
X889000Y287020D01*
D63*
X889000Y297180D03*
D67*
X901700Y240799D02*
X901700Y228600D01*
X901700Y240799D02*
X894842Y247657D01*
X894842Y281178D01*
X889000Y287020D01*
X989330Y302260D02*
X1016817Y302260D01*
X989330Y302260D02*
X963930Y327660D01*
D63*
X963930Y327660D03*
D67*
X203200Y787400D02*
X180340Y787400D01*
X882650Y317500D02*
X892810Y327660D01*
D63*
X892810Y327660D03*
D67*
X180340Y787400D02*
X154686Y761746D01*
X864101Y317500D02*
X882650Y317500D01*
X864101Y317500D02*
X847845Y333756D01*
X154686Y421625D02*
X154686Y761746D01*
X154686Y421625D02*
X242555Y333756D01*
X847845Y333756D01*
X914400Y251460D02*
X914400Y228600D01*
X914400Y251460D02*
X900430Y265430D01*
X900430Y304800D01*
D63*
X900430Y304800D03*
D67*
X203200Y685800D02*
X187960Y685800D01*
X163830Y661670D01*
D63*
X241300Y355600D03*
X1257300Y574040D03*
X1271270Y688340D03*
D67*
X241300Y355600D02*
X236728Y360172D01*
X229071Y360172D01*
X163830Y425413D01*
X163830Y661670D01*
X1181100Y685800D02*
X1197610Y685800D01*
D63*
X1197610Y685800D03*
D67*
X448310Y288290D02*
X448310Y218440D01*
X519950Y146800D01*
D63*
X175260Y482600D03*
X311150Y355600D03*
D67*
X300990Y365760D01*
D63*
X368300Y311432D03*
D67*
X425168Y311432D02*
X448310Y288290D01*
X425168Y311432D02*
X368300Y311432D01*
X300990Y365760D02*
X227793Y365760D01*
X175260Y418293D01*
X175260Y482600D01*
X625166Y146834D02*
X625200Y146800D01*
X625166Y146834D02*
X577850Y146834D01*
X519984Y146834D01*
X519950Y146800D01*
X393700Y355600D02*
X311150Y355600D01*
X520700Y546100D02*
X534184Y532616D01*
X520700Y546100D02*
X279400Y546100D01*
D63*
X279400Y546100D03*
D67*
X241300Y546100D02*
X190500Y546100D01*
X177800Y558800D01*
X177800Y622300D01*
X190500Y635000D02*
X203200Y635000D01*
X190500Y635000D02*
X177800Y622300D01*
D63*
X241300Y546100D03*
D67*
X589800Y451600D02*
X625200Y451600D01*
X589800Y451600D02*
X584200Y457200D01*
X534184Y457200D01*
X534184Y532616D01*
D63*
X593090Y400050D03*
D67*
X533400Y400050D01*
D63*
X533400Y400050D03*
X441960Y381000D03*
D67*
X393700Y381000D01*
X499110Y355600D02*
X736600Y355600D01*
D63*
X736600Y355600D03*
D67*
X473710Y425450D02*
X303530Y425450D01*
D63*
X263878Y486410D03*
D67*
X263878Y465102D01*
X303530Y425450D01*
X473710Y425450D02*
X499110Y400050D01*
X499110Y355600D01*
X419100Y355600D01*
X406400Y368300D01*
D63*
X472440Y368300D03*
D67*
X472440Y402590D01*
X455930Y419100D01*
X381000Y419100D01*
X292100Y419100D01*
X266700Y444500D01*
D63*
X266700Y444500D03*
D67*
X381000Y419100D02*
X381000Y368300D01*
X505946Y1273810D02*
X505946Y1286996D01*
X511200Y1292250D01*
X511200Y1301062D01*
X577342Y565658D02*
X584200Y558800D01*
X566756Y565658D02*
X539832Y592582D01*
X566756Y565658D02*
X577342Y565658D01*
X732790Y982713D02*
X730237Y985266D01*
X732790Y982713D02*
X732790Y947089D01*
X698069Y912368D01*
X539832Y592582D02*
X349332Y592582D01*
X358222Y912368D02*
X698069Y912368D01*
X319532Y873678D02*
X319532Y622382D01*
X319532Y873678D02*
X358222Y912368D01*
X319532Y622382D02*
X349332Y592582D01*
X709990Y985266D02*
X673680Y1021576D01*
X709990Y985266D02*
X730237Y985266D01*
X557029Y1212850D02*
X521970Y1212850D01*
X557029Y1212850D02*
X562791Y1207088D01*
X607789Y1207088D01*
X617747Y1197130D01*
X673680Y1179621D02*
X673680Y1021576D01*
X656171Y1197130D02*
X617747Y1197130D01*
X656171Y1197130D02*
X673680Y1179621D01*
X506730Y1248102D02*
X506730Y1256030D01*
X506730Y1248102D02*
X503202Y1244574D01*
X503202Y1231618D01*
X521970Y1212850D01*
X506730Y1256030D02*
X506730Y1273026D01*
X505946Y1273810D01*
X607546Y1273810D02*
X607546Y1286996D01*
X612800Y1292250D01*
X612800Y1301062D01*
X666750Y577850D02*
X685800Y558800D01*
X571806Y577850D02*
X544882Y604774D01*
X571806Y577850D02*
X666750Y577850D01*
X744982Y987763D02*
X735287Y997458D01*
X744982Y987763D02*
X744982Y942039D01*
X703119Y900176D01*
X544882Y604774D02*
X354382Y604774D01*
X363272Y900176D02*
X703119Y900176D01*
X331724Y868628D02*
X331724Y627432D01*
X331724Y868628D02*
X363272Y900176D01*
X331724Y627432D02*
X354382Y604774D01*
X715040Y997458D02*
X685872Y1026626D01*
X715040Y997458D02*
X735287Y997458D01*
X608330Y1256030D02*
X608330Y1273026D01*
X607546Y1273810D01*
X608330Y1256030D02*
X608330Y1223789D01*
X622797Y1209322D01*
X685872Y1184671D02*
X685872Y1026626D01*
X661221Y1209322D02*
X622797Y1209322D01*
X661221Y1209322D02*
X685872Y1184671D01*
X582146Y1375410D02*
X582146Y1388596D01*
X587400Y1393850D01*
X587400Y1402662D01*
X582146Y1375410D02*
X582146Y1335554D01*
X596900Y1320800D01*
X644398Y574802D02*
X660400Y558800D01*
X570544Y574802D02*
X543620Y601726D01*
X570544Y574802D02*
X644398Y574802D01*
X741934Y986501D02*
X734025Y994410D01*
X741934Y986501D02*
X741934Y943302D01*
X701856Y903224D01*
X543620Y601726D02*
X353120Y601726D01*
X362010Y903224D02*
X701856Y903224D01*
X328676Y869891D02*
X328676Y626170D01*
X328676Y869891D02*
X362010Y903224D01*
X328676Y626170D02*
X353120Y601726D01*
X713777Y994410D02*
X682824Y1025363D01*
X713777Y994410D02*
X734025Y994410D01*
X682824Y1025363D02*
X682824Y1183408D01*
X659958Y1206274D02*
X621535Y1206274D01*
X659958Y1206274D02*
X682824Y1183408D01*
X596900Y1220470D02*
X596900Y1320800D01*
X596900Y1220470D02*
X607339Y1220470D01*
X621535Y1206274D01*
X683746Y1375410D02*
X683746Y1388596D01*
X689000Y1393850D01*
X689000Y1402662D01*
X683746Y1375410D02*
X683746Y1335554D01*
X548670Y613918D02*
X575594Y586994D01*
X707405Y586994D01*
X765302Y568198D02*
X774700Y558800D01*
X726201Y568198D02*
X707405Y586994D01*
X726201Y568198D02*
X765302Y568198D01*
X754126Y991551D02*
X739075Y1006602D01*
X698503Y1320797D02*
X683746Y1335554D01*
X698503Y1320797D02*
X698503Y1244600D01*
X754126Y991551D02*
X754126Y938252D01*
X706907Y891032D01*
X548670Y613918D02*
X358170Y613918D01*
X367060Y891032D02*
X706907Y891032D01*
X340868Y864840D02*
X340868Y631220D01*
X340868Y864840D02*
X367060Y891032D01*
X340868Y631220D02*
X358170Y613918D01*
X718827Y1006602D02*
X695016Y1030413D01*
X695016Y1188459D01*
X718827Y1006602D02*
X739075Y1006602D01*
X690880Y1192595D02*
X690880Y1220470D01*
X690880Y1192595D02*
X695016Y1188459D01*
X690880Y1220470D02*
X690880Y1236977D01*
X698503Y1244600D01*
X785346Y1375410D02*
X785346Y1388596D01*
X790600Y1393850D01*
X790600Y1402662D01*
X785346Y1375410D02*
X785346Y1335554D01*
X372110Y878840D02*
X353060Y859790D01*
X353060Y636270D01*
X363220Y626110D01*
X553720Y626110D01*
X580390Y599440D01*
X712470Y599440D01*
X731520Y580390D01*
X854710Y580390D01*
X876300Y558800D01*
X711957Y878840D02*
X372110Y878840D01*
X766318Y933201D02*
X766318Y993648D01*
X766318Y933201D02*
X711957Y878840D01*
X800103Y1320797D02*
X785346Y1335554D01*
X800103Y1320797D02*
X800103Y1228093D01*
X766144Y1103152D02*
X771326Y1097970D01*
X771326Y998656D01*
X766318Y993648D01*
X792480Y1220326D02*
X792480Y1220470D01*
X792480Y1220326D02*
X766144Y1193990D01*
X766144Y1103152D01*
X792480Y1220470D02*
X800103Y1228093D01*
X709146Y1273810D02*
X709146Y1286996D01*
X714400Y1292250D01*
X714400Y1301062D01*
X549932Y616966D02*
X576856Y590042D01*
X727732Y571246D02*
X787654Y571246D01*
X800100Y558800D01*
X727732Y571246D02*
X708936Y590042D01*
X576856Y590042D01*
X757174Y992813D02*
X740337Y1009650D01*
X720090Y1009650D01*
X698064Y1031676D01*
X698064Y1187196D01*
X704414Y1193546D01*
X757174Y936989D02*
X708169Y887984D01*
X757174Y936989D02*
X757174Y992813D01*
X549932Y616966D02*
X359432Y616966D01*
X368322Y887984D02*
X708169Y887984D01*
X343916Y863578D02*
X343916Y632482D01*
X359432Y616966D01*
X343916Y863578D02*
X368322Y887984D01*
X709930Y1256030D02*
X709930Y1273026D01*
X709146Y1273810D01*
X709930Y1256030D02*
X709930Y1248102D01*
X704414Y1242586D01*
X704414Y1193546D01*
X759946Y1273810D02*
X759946Y1286996D01*
X765200Y1292250D01*
X765200Y1301062D01*
X758676Y1219200D02*
X758676Y1101576D01*
X749300Y1092200D01*
X552457Y623062D02*
X579127Y596392D01*
X711207Y596392D01*
X730257Y577342D01*
X832358Y577342D02*
X850900Y558800D01*
X832358Y577342D02*
X730257Y577342D01*
X749300Y1009309D02*
X749300Y1092200D01*
X749300Y1009309D02*
X763270Y995339D01*
X763270Y934464D01*
X710694Y881888D01*
X552457Y623062D02*
X361957Y623062D01*
X370847Y881888D02*
X710694Y881888D01*
X350012Y861053D02*
X350012Y635007D01*
X350012Y861053D02*
X370847Y881888D01*
X350012Y635007D02*
X361957Y623062D01*
X760730Y1256030D02*
X760730Y1273026D01*
X759946Y1273810D01*
X760730Y1221254D02*
X758676Y1219200D01*
X760730Y1221254D02*
X760730Y1256030D01*
X658346Y1273810D02*
X658346Y1286996D01*
X663600Y1292250D01*
X663600Y1301062D01*
X706142Y583946D02*
X731288Y558800D01*
X749300Y558800D01*
X574331Y583946D02*
X547407Y610870D01*
X574331Y583946D02*
X706142Y583946D01*
X751078Y990288D02*
X737812Y1003554D01*
X751078Y990288D02*
X751078Y939514D01*
X705644Y894080D01*
X547407Y610870D02*
X356907Y610870D01*
X365797Y894080D02*
X705644Y894080D01*
X337820Y866103D02*
X337820Y629957D01*
X337820Y866103D02*
X365797Y894080D01*
X337820Y629957D02*
X356907Y610870D01*
X717565Y1003554D02*
X691968Y1029151D01*
X717565Y1003554D02*
X737812Y1003554D01*
X659130Y1256030D02*
X659130Y1273026D01*
X658346Y1273810D01*
X691968Y1187196D02*
X691968Y1029151D01*
X659130Y1248102D02*
X659130Y1256030D01*
X655602Y1223562D02*
X691968Y1187196D01*
X655602Y1223562D02*
X655602Y1244574D01*
X659130Y1248102D01*
X734546Y1375410D02*
X734546Y1388596D01*
X739800Y1393850D01*
X739800Y1402662D01*
X734546Y1375410D02*
X734546Y1335554D01*
X749300Y1320800D01*
X749300Y1244600D01*
X749300Y1104900D02*
X723900Y1079500D01*
X723900Y1018540D01*
X551195Y620014D02*
X578119Y593090D01*
X710199Y593090D01*
X728995Y574294D02*
X810006Y574294D01*
X825500Y558800D01*
X728995Y574294D02*
X710199Y593090D01*
X760222Y994076D02*
X741600Y1012698D01*
X729742Y1012698D02*
X723900Y1018540D01*
X729742Y1012698D02*
X741600Y1012698D01*
X760222Y994076D02*
X760222Y935726D01*
X709432Y884936D01*
X551195Y620014D02*
X360695Y620014D01*
X369585Y884936D02*
X709432Y884936D01*
X346964Y862315D02*
X346964Y633745D01*
X346964Y862315D02*
X369585Y884936D01*
X346964Y633745D02*
X360695Y620014D01*
X749300Y1104900D02*
X749300Y1212850D01*
X741680Y1220470D02*
X741680Y1236980D01*
X749300Y1244600D01*
X741680Y1220470D02*
X749300Y1212850D01*
X632946Y1375410D02*
X632946Y1388596D01*
X638200Y1393850D01*
X638200Y1402662D01*
X632946Y1375410D02*
X632946Y1335554D01*
X689102Y580898D02*
X711200Y558800D01*
X573069Y580898D02*
X546145Y607822D01*
X573069Y580898D02*
X689102Y580898D01*
X748030Y989026D02*
X736550Y1000506D01*
X748030Y989026D02*
X748030Y940777D01*
X704381Y897128D01*
X546145Y607822D02*
X355645Y607822D01*
X364535Y897128D02*
X704381Y897128D01*
X334772Y867365D02*
X334772Y628695D01*
X334772Y867365D02*
X364535Y897128D01*
X334772Y628695D02*
X355645Y607822D01*
X716302Y1000506D02*
X688920Y1027888D01*
X716302Y1000506D02*
X736550Y1000506D01*
X652780Y1212850D02*
X645160Y1220470D01*
X650237Y1263647D02*
X650237Y1318263D01*
X650237Y1263647D02*
X645160Y1258570D01*
X645160Y1220470D01*
X650237Y1318263D02*
X632946Y1335554D01*
X688920Y1185933D02*
X688920Y1027888D01*
X662003Y1212850D02*
X652780Y1212850D01*
X662003Y1212850D02*
X688920Y1185933D01*
X531346Y1388596D02*
X536600Y1393850D01*
X536600Y1402662D01*
X531346Y1388596D02*
X531346Y1375410D01*
X531346Y1338094D01*
X599694Y568706D02*
X609600Y558800D01*
X568018Y568706D02*
X541094Y595630D01*
X568018Y568706D02*
X599694Y568706D01*
X735838Y983975D02*
X731499Y988314D01*
X735838Y983975D02*
X735838Y945827D01*
X699331Y909320D01*
X541094Y595630D02*
X350594Y595630D01*
X359484Y909320D02*
X699331Y909320D01*
X322580Y872416D02*
X322580Y623644D01*
X322580Y872416D02*
X359484Y909320D01*
X322580Y623644D02*
X350594Y595630D01*
X711252Y988314D02*
X676728Y1022838D01*
X711252Y988314D02*
X731499Y988314D01*
X566594Y1210136D02*
X556260Y1220470D01*
X546194Y1220470D01*
X546194Y1323246D02*
X531346Y1338094D01*
X546194Y1323246D02*
X546194Y1220470D01*
X566594Y1210136D02*
X609052Y1210136D01*
X619010Y1200178D01*
X676728Y1180883D02*
X676728Y1022838D01*
X657433Y1200178D02*
X619010Y1200178D01*
X657433Y1200178D02*
X676728Y1180883D01*
X556746Y1273810D02*
X556746Y1286996D01*
X562000Y1292250D01*
X562000Y1301062D01*
X622046Y571754D02*
X635000Y558800D01*
X569281Y571754D02*
X542357Y598678D01*
X569281Y571754D02*
X622046Y571754D01*
X738886Y985238D02*
X732762Y991362D01*
X738886Y985238D02*
X738886Y944564D01*
X700594Y906272D01*
X542357Y598678D02*
X351857Y598678D01*
X360747Y906272D02*
X700594Y906272D01*
X325628Y871153D02*
X325628Y624907D01*
X325628Y871153D02*
X360747Y906272D01*
X325628Y624907D02*
X351857Y598678D01*
X712515Y991362D02*
X679776Y1024101D01*
X712515Y991362D02*
X732762Y991362D01*
X557530Y1256030D02*
X557530Y1273026D01*
X556746Y1273810D01*
X569112Y1213184D02*
X610314Y1213184D01*
X620272Y1203226D01*
X679776Y1182146D02*
X679776Y1024101D01*
X658696Y1203226D02*
X620272Y1203226D01*
X658696Y1203226D02*
X679776Y1182146D01*
X557530Y1248102D02*
X554002Y1244574D01*
X557530Y1248102D02*
X557530Y1256030D01*
X554002Y1228294D02*
X569112Y1213184D01*
X554002Y1228294D02*
X554002Y1244574D01*
D63*
X654050Y1085850D03*
X977900Y622300D03*
X838200Y1016000D03*
D67*
X977900Y596849D02*
X977900Y558800D01*
X977900Y596849D02*
X977849Y596900D01*
X977900Y596951D01*
X977900Y622300D01*
D63*
X275590Y1189990D03*
X514350Y1189990D03*
D67*
X293599Y1189990D02*
X275590Y1189990D01*
X514350Y1189990D02*
X533629Y1189990D01*
X977900Y558800D02*
X977900Y533400D01*
D63*
X641350Y1079500D03*
X952500Y622300D03*
X863600Y1009650D03*
D67*
X952500Y596849D02*
X952500Y558800D01*
X952500Y596849D02*
X952551Y596900D01*
X952500Y596951D01*
X952500Y622300D01*
D63*
X514350Y1177290D03*
X275590Y1177290D03*
D67*
X293599Y1177290D01*
X514350Y1177290D02*
X533629Y1177290D01*
X952500Y558800D02*
X952500Y533400D01*
D63*
X532130Y586514D03*
D67*
X434114Y586514D02*
X406400Y558800D01*
X434114Y586514D02*
X532130Y586514D01*
X1143000Y1271270D02*
X1143000Y1308100D01*
X1143000Y1271270D02*
X1121410Y1249680D01*
X1121410Y1216660D01*
X330200Y1066800D02*
X330200Y1041400D01*
X609600Y1041400D02*
X609600Y1066800D01*
X355600Y1066800D02*
X355600Y1041400D01*
X635000Y1041400D02*
X635000Y1066800D01*
X279400Y1066800D02*
X279400Y1041400D01*
X558800Y1041400D02*
X558800Y1066800D01*
X304800Y1066800D02*
X304800Y1041400D01*
X584200Y1041400D02*
X584200Y1066800D01*
X1316990Y506730D02*
X1316990Y439840D01*
X1295380Y418230D01*
X1316990Y506730D02*
X1299816Y523904D01*
X1254096Y523904D02*
X1207770Y570230D01*
X1254096Y523904D02*
X1299816Y523904D01*
X1155700Y673100D02*
X1155700Y685800D01*
X1207770Y621030D02*
X1207770Y570230D01*
X1207770Y621030D02*
X1155700Y673100D01*
X1155700Y706120D02*
X1181100Y731520D01*
X1155700Y706120D02*
X1155700Y685800D01*
X1180614Y769620D02*
X1181100Y769620D01*
X1181100Y731520D01*
D63*
X1188720Y792480D03*
D67*
X1180614Y789454D02*
X1180614Y769620D01*
X1180614Y789454D02*
X1183640Y792480D01*
X1188720Y792480D01*
X647700Y143300D02*
X618700Y114300D01*
X647700Y143300D02*
X647700Y152400D01*
X584200Y215900D01*
X584200Y279400D01*
D63*
X584200Y279400D03*
D67*
X201146Y1273810D02*
X201146Y1286996D01*
X206400Y1292250D01*
X206400Y1301062D01*
X162560Y1115060D02*
X176530Y1101090D01*
X199161Y1101090D01*
X162560Y1115060D02*
X162560Y1226964D01*
X191626Y1256030D02*
X201930Y1256030D01*
X191626Y1256030D02*
X162560Y1226964D01*
X201930Y1256030D02*
X201930Y1273026D01*
X201146Y1273810D01*
X251946Y1273810D02*
X251946Y1286996D01*
X257200Y1292250D01*
X257200Y1301062D01*
X168910Y1136650D02*
X179070Y1126490D01*
X199161Y1126490D01*
X172747Y1212568D02*
X240941Y1212568D01*
X172747Y1212568D02*
X168910Y1208732D01*
X168910Y1136650D01*
X240941Y1212568D02*
X251460Y1223087D01*
X251460Y1256030D02*
X251460Y1273324D01*
X251946Y1273810D01*
X251460Y1256030D02*
X251460Y1223087D01*
X302746Y1273810D02*
X302746Y1286996D01*
X308000Y1292250D01*
X308000Y1301062D01*
X304800Y1219200D02*
X317500Y1206500D01*
X317500Y1132840D01*
X311150Y1126490D01*
X293599Y1126490D01*
X303530Y1256030D02*
X303530Y1273026D01*
X302746Y1273810D01*
X303530Y1220470D02*
X304800Y1219200D01*
X303530Y1220470D02*
X303530Y1256030D01*
X226546Y1375410D02*
X226546Y1388596D01*
X231800Y1393850D01*
X231800Y1402662D01*
X226546Y1375410D02*
X226546Y1336824D01*
X241300Y1322070D01*
X199161Y1113790D02*
X173990Y1113790D01*
X165862Y1121918D01*
X165862Y1209994D02*
X171484Y1215616D01*
X165862Y1209994D02*
X165862Y1121918D01*
X241300Y1230630D02*
X241300Y1322070D01*
X226286Y1215616D02*
X171484Y1215616D01*
X226286Y1215616D02*
X233680Y1223010D01*
X241300Y1230630D01*
X277346Y1375410D02*
X277346Y1388596D01*
X282600Y1393850D01*
X282600Y1402662D01*
X277346Y1375410D02*
X277346Y1335554D01*
X292100Y1320800D01*
X292100Y1230630D01*
X246380Y1212850D02*
X218440Y1184910D01*
X218440Y1144270D01*
X213360Y1139190D01*
X199161Y1139190D01*
X246380Y1212850D02*
X274320Y1212850D01*
X284480Y1223010D01*
X292100Y1230630D01*
X328146Y1375410D02*
X328146Y1388596D01*
X333400Y1393850D01*
X333400Y1402662D01*
X328146Y1375410D02*
X328146Y1335554D01*
X342900Y1320800D01*
X342900Y1230630D01*
X321310Y1209040D02*
X321310Y1125220D01*
X309880Y1113790D01*
X293599Y1113790D01*
X321310Y1209040D02*
X335280Y1223010D01*
X342900Y1230630D01*
X353546Y1273810D02*
X353546Y1286996D01*
X358800Y1292250D01*
X358800Y1301062D01*
X407670Y1109980D02*
X416560Y1101090D01*
X439191Y1101090D01*
X354330Y1256030D02*
X354330Y1273026D01*
X353546Y1273810D01*
X354330Y1256030D02*
X354330Y1255722D01*
X348314Y1249706D01*
X407670Y1137688D02*
X407670Y1109980D01*
X407670Y1137688D02*
X348314Y1197044D01*
X348314Y1249706D01*
X404346Y1273810D02*
X404346Y1286996D01*
X409600Y1292250D01*
X409600Y1301062D01*
X414020Y1132840D02*
X420370Y1126490D01*
X439191Y1126490D01*
X405130Y1256030D02*
X405130Y1273026D01*
X404346Y1273810D01*
X397510Y1248410D02*
X397510Y1188720D01*
X397510Y1248410D02*
X405130Y1256030D01*
X397510Y1188720D02*
X408432Y1177798D01*
X414020Y1139959D02*
X414020Y1132840D01*
X414020Y1139959D02*
X408432Y1145547D01*
X408432Y1177798D01*
X455146Y1273810D02*
X455146Y1286996D01*
X460400Y1292250D01*
X460400Y1301062D01*
X457835Y1232535D02*
X478006Y1212364D01*
X478006Y1114574D01*
X485775Y1106805D01*
X494665Y1106805D01*
X514350Y1126490D01*
X533629Y1126490D01*
X455930Y1256030D02*
X455930Y1273026D01*
X455146Y1273810D01*
X455930Y1234440D02*
X457835Y1232535D01*
X455930Y1234440D02*
X455930Y1256030D01*
X378946Y1375410D02*
X378946Y1388596D01*
X384200Y1393850D01*
X384200Y1402662D01*
X378946Y1375410D02*
X378946Y1335554D01*
X393700Y1320800D01*
X393700Y1228090D01*
X416560Y1113790D02*
X439191Y1113790D01*
X386080Y1192530D02*
X386080Y1220470D01*
X393700Y1228090D01*
X410972Y1119378D02*
X416560Y1113790D01*
X405384Y1173226D02*
X386080Y1192530D01*
X410972Y1138697D02*
X410972Y1119378D01*
X410972Y1138697D02*
X405384Y1144285D01*
X405384Y1173226D01*
X429746Y1375410D02*
X429746Y1388596D01*
X435000Y1393850D01*
X435000Y1402662D01*
X429746Y1375410D02*
X429746Y1335554D01*
X444500Y1320800D01*
X444500Y1228090D01*
X439191Y1139190D02*
X419100Y1139190D01*
X411480Y1146810D01*
X436880Y1220470D02*
X444500Y1228090D01*
X436880Y1220470D02*
X409274Y1192864D01*
X411480Y1183496D02*
X411480Y1146810D01*
X411480Y1183496D02*
X409274Y1185702D01*
X409274Y1192864D01*
X480546Y1375410D02*
X480546Y1388596D01*
X485800Y1393850D01*
X485800Y1402662D01*
X480546Y1375410D02*
X480546Y1335554D01*
X495300Y1320800D01*
X495300Y1228090D01*
X481330Y1122680D02*
X490220Y1113790D01*
D63*
X490220Y1113790D03*
X513080Y1113790D03*
D67*
X533629Y1113790D01*
X481330Y1122680D02*
X481330Y1214120D01*
X487680Y1220470D01*
X495300Y1228090D01*
D66*
X215900Y1322758D02*
X215900Y1346200D01*
X215900Y1419210D01*
X286400Y1489710D01*
D67*
X215900Y1346200D02*
X205740Y1346200D01*
D66*
X266700Y1346200D02*
X266700Y1322758D01*
X266700Y1346200D02*
X266700Y1423670D01*
X314100Y1471070D01*
X314100Y1489710D01*
D67*
X266700Y1346200D02*
X257810Y1346200D01*
D66*
X317500Y1346200D02*
X317500Y1322758D01*
X317500Y1346200D02*
X317500Y1433830D01*
X341800Y1458130D01*
X341800Y1489710D01*
D67*
X317500Y1346200D02*
X308610Y1346200D01*
D66*
X368300Y1346200D02*
X368300Y1322758D01*
X368300Y1346200D02*
X368300Y1432560D01*
X397200Y1461460D01*
X397200Y1489710D01*
D67*
X368300Y1346200D02*
X359410Y1346200D01*
D66*
X419100Y1346200D02*
X419100Y1322758D01*
X419100Y1346200D02*
X419100Y1433830D01*
X424900Y1439630D01*
X424900Y1489710D01*
D67*
X419100Y1346200D02*
X410210Y1346200D01*
D66*
X469900Y1346200D02*
X469900Y1322758D01*
X469900Y1346200D02*
X469900Y1447800D01*
X452600Y1465100D01*
X452600Y1489710D01*
D67*
X461010Y1346200D02*
X469900Y1346200D01*
D66*
X520700Y1346200D02*
X520700Y1322758D01*
X520700Y1346200D02*
X520700Y1451610D01*
X508000Y1464310D01*
X508000Y1489710D01*
D67*
X511810Y1346200D02*
X520700Y1346200D01*
D66*
X571500Y1346200D02*
X571500Y1322758D01*
X571500Y1346200D02*
X571500Y1438910D01*
X535700Y1474710D01*
X535700Y1489710D01*
D67*
X562610Y1346200D02*
X571500Y1346200D01*
D66*
X622300Y1346200D02*
X622300Y1322758D01*
X622300Y1346200D02*
X622300Y1442720D01*
X603250Y1461770D01*
X576580Y1461770D01*
X563400Y1474950D01*
X563400Y1489710D01*
D67*
X613410Y1346200D02*
X622300Y1346200D01*
D66*
X618800Y1473082D02*
X618800Y1489710D01*
X673100Y1346200D02*
X673100Y1322758D01*
X673100Y1346200D02*
X673100Y1418782D01*
X618800Y1473082D01*
D67*
X662940Y1346200D02*
X673100Y1346200D01*
D66*
X646500Y1465510D02*
X646500Y1489710D01*
X646500Y1465510D02*
X662178Y1449832D01*
X723900Y1426210D02*
X723900Y1346200D01*
X723900Y1322758D01*
X700278Y1449832D02*
X662178Y1449832D01*
X700278Y1449832D02*
X723900Y1426210D01*
D67*
X723900Y1346200D02*
X715010Y1346200D01*
D66*
X774700Y1346200D02*
X774700Y1322758D01*
X774700Y1346200D02*
X774700Y1437640D01*
X748030Y1464310D01*
X684530Y1464310D01*
X674200Y1474640D01*
X674200Y1489710D01*
D67*
X765810Y1346200D02*
X774700Y1346200D01*
D66*
X241300Y1424358D02*
X241300Y1433830D01*
X271780Y1464310D01*
X287020Y1464310D01*
X300250Y1477540D01*
X300250Y1518110D01*
D67*
X241300Y1424358D02*
X241300Y1346200D01*
D66*
X292100Y1424358D02*
X292100Y1437640D01*
X327950Y1473490D01*
X327950Y1518110D01*
D67*
X292100Y1424358D02*
X292100Y1346200D01*
D66*
X342900Y1424358D02*
X342900Y1442720D01*
X355650Y1455470D01*
X355650Y1518110D01*
D67*
X342900Y1424358D02*
X342900Y1346200D01*
D66*
X393700Y1424358D02*
X393700Y1441450D01*
X411050Y1458800D01*
X411050Y1518110D01*
D67*
X393700Y1424358D02*
X393700Y1346200D01*
D66*
X444500Y1424358D02*
X444500Y1455420D01*
X438750Y1461170D01*
X438750Y1518110D01*
D67*
X444500Y1424358D02*
X444500Y1346200D01*
D66*
X495300Y1424358D02*
X495300Y1452880D01*
X483870Y1464310D01*
X476250Y1464310D01*
X466450Y1474110D01*
X466450Y1518110D01*
D67*
X495300Y1424358D02*
X495300Y1346200D01*
D66*
X546100Y1424358D02*
X546100Y1451610D01*
X521850Y1475860D02*
X521850Y1518110D01*
X521850Y1475860D02*
X546100Y1451610D01*
D67*
X546100Y1424358D02*
X546100Y1346200D01*
D66*
X596900Y1424358D02*
X596900Y1447800D01*
X549550Y1476100D02*
X549550Y1518110D01*
X587502Y1457198D02*
X596900Y1447800D01*
X587502Y1457198D02*
X568452Y1457198D01*
X549550Y1476100D01*
D67*
X596900Y1424358D02*
X596900Y1346200D01*
D66*
X647700Y1424358D02*
X647700Y1434518D01*
X614098Y1468120D01*
X590550Y1468120D01*
X577250Y1481420D01*
X577250Y1518110D01*
D67*
X647700Y1424358D02*
X647700Y1346200D01*
D66*
X698500Y1424358D02*
X698500Y1435100D01*
X692150Y1441450D01*
X660708Y1441450D01*
X632650Y1469508D01*
X632650Y1518110D01*
D67*
X698500Y1424358D02*
X698500Y1346200D01*
D66*
X749300Y1424358D02*
X749300Y1435100D01*
X660350Y1467862D02*
X660350Y1518110D01*
X726948Y1457452D02*
X749300Y1435100D01*
X726948Y1457452D02*
X670760Y1457452D01*
X660350Y1467862D01*
D67*
X749300Y1424358D02*
X749300Y1346200D01*
D66*
X688050Y1479840D02*
X688050Y1518110D01*
X688050Y1479840D02*
X695452Y1472438D01*
X800100Y1434518D02*
X800100Y1424358D01*
X800100Y1434518D02*
X762180Y1472438D01*
X695452Y1472438D01*
D67*
X800100Y1424358D02*
X800100Y1346200D01*
D63*
X185420Y1266190D03*
D67*
X172720Y1266190D01*
D63*
X349396Y1179830D03*
D67*
X336550Y1179830D01*
D63*
X554990Y1144270D03*
D67*
X554990Y1155700D01*
D63*
X647700Y1177290D03*
D67*
X647700Y1188720D01*
D63*
X737870Y1205230D03*
D67*
X726440Y1205230D01*
D63*
X417830Y1176020D03*
D67*
X417830Y1187450D01*
D63*
X594360Y1177290D03*
D67*
X594360Y1188720D01*
D63*
X327660Y1155700D03*
D67*
X339090Y1155700D01*
X1095733Y1320800D02*
X1096010Y1320523D01*
X1096010Y1292860D01*
X1121410Y1292860D02*
X1121410Y1306830D01*
X1119147Y1309093D01*
X1119147Y1320800D01*
X1119147Y1326157D01*
X1126490Y1333500D01*
X1143000Y1333500D01*
D63*
X1143000Y1358900D03*
D67*
X1155700Y1358900D01*
D63*
X1206500Y1104900D03*
D67*
X1206500Y1117600D01*
D63*
X1129030Y999490D03*
D67*
X1113790Y999490D01*
X1106656Y1006624D01*
X1106656Y1018540D01*
X1104900Y1080770D02*
X1129665Y1105535D01*
X1104900Y1080770D02*
X1104900Y1037590D01*
X1106656Y1035834D02*
X1106656Y1018540D01*
X1106656Y1035834D02*
X1104900Y1037590D01*
X1129665Y1105535D02*
X1169035Y1105535D01*
X1181100Y1117600D01*
D63*
X1153160Y1018540D03*
D67*
X1136164Y1018540D01*
X1153160Y1018540D02*
X1162834Y1008866D01*
X1173480Y1008866D01*
D63*
X1127760Y1047750D03*
X1153160Y1098550D03*
D67*
X1153160Y1073150D02*
X1127760Y1047750D01*
X1153160Y1073150D02*
X1153160Y1098550D01*
D63*
X1193800Y1104900D03*
D67*
X1193800Y1117600D01*
D63*
X1301750Y751840D03*
D67*
X1301750Y763780D01*
X1305960Y767990D01*
X1305960Y771800D01*
D63*
X1173480Y853694D03*
D67*
X1202854Y853694D01*
X1202960Y853800D01*
D63*
X1191260Y736600D03*
D67*
X1168400Y697230D02*
X1168400Y685800D01*
X1168400Y697230D02*
X1191260Y720090D01*
X1191260Y736600D01*
D63*
X1173480Y789940D03*
D67*
X1143000Y720090D02*
X1143000Y685800D01*
X1143000Y720090D02*
X1165860Y742950D01*
X1165860Y782320D01*
X1173480Y789940D01*
D63*
X1254760Y748030D03*
D67*
X1271270Y748030D02*
X1277960Y754720D01*
X1271270Y748030D02*
X1254760Y748030D01*
X1277960Y754720D02*
X1277960Y771800D01*
D63*
X1130300Y699770D03*
D67*
X1130300Y685800D01*
X1151106Y769620D02*
X1150620Y770106D01*
X1150620Y826284D01*
D63*
X1150620Y826284D03*
D67*
X963930Y416560D02*
X923743Y416560D01*
D63*
X963930Y416560D03*
D67*
X989330Y429260D02*
X923743Y429260D01*
X989330Y429260D02*
X1014730Y454660D01*
X1052830Y454660D01*
X1052830Y429260D02*
X1016817Y429260D01*
X1040130Y416560D02*
X1052830Y403860D01*
X1040130Y416560D02*
X1016817Y416560D01*
X1041400Y394970D02*
X1041400Y389890D01*
X1052830Y378460D01*
X1041400Y394970D02*
X1032510Y403860D01*
X1016817Y403860D01*
X1052830Y361950D02*
X1052830Y353060D01*
X1052830Y361950D02*
X1033780Y381000D01*
X1033780Y387350D01*
X1029970Y391160D01*
X1016817Y391160D01*
X1042670Y337820D02*
X1052830Y327660D01*
X1042670Y337820D02*
X1042670Y364490D01*
X1028700Y378460D01*
X1016817Y378460D01*
X1043940Y302260D02*
X1052830Y302260D01*
X1043940Y302260D02*
X1038860Y307340D01*
X1038860Y358140D01*
X1031240Y365760D01*
X1016817Y365760D01*
X1040130Y276860D02*
X1052830Y276860D01*
X1040130Y276860D02*
X1035050Y281940D01*
X1035050Y347980D01*
X1029970Y353060D01*
X1016817Y353060D01*
X1016817Y340360D02*
X1029970Y340360D01*
X1031240Y339090D01*
X1031240Y260350D01*
X1040130Y251460D01*
X1052830Y251460D01*
X987852Y472648D02*
X987852Y495300D01*
X987852Y472648D02*
X972404Y457200D01*
X900430Y457200D01*
X887730Y444500D01*
X887730Y419100D01*
X902970Y403860D01*
X923743Y403860D01*
X848152Y409148D02*
X848152Y495300D01*
X848152Y409148D02*
X866140Y391160D01*
X923743Y391160D01*
X723900Y457200D02*
X708452Y472648D01*
X708452Y495300D01*
X723900Y457200D02*
X774932Y457200D01*
X874529Y378460D02*
X923743Y378460D01*
X791188Y440944D02*
X774932Y457200D01*
X812045Y440944D02*
X874529Y378460D01*
X812045Y440944D02*
X791188Y440944D01*
X568752Y475188D02*
X568752Y495300D01*
X568752Y475188D02*
X575310Y468630D01*
X699770Y468630D01*
X882919Y365760D02*
X923743Y365760D01*
X730504Y437896D02*
X699770Y468630D01*
X730504Y437896D02*
X810783Y437896D01*
X882919Y365760D01*
X429052Y467568D02*
X429052Y495300D01*
X891308Y353060D02*
X923743Y353060D01*
X461772Y434848D02*
X429052Y467568D01*
X461772Y434848D02*
X809520Y434848D01*
X891308Y353060D01*
X289352Y463758D02*
X289352Y495300D01*
X289352Y463758D02*
X321310Y431800D01*
X899698Y340360D02*
X923743Y340360D01*
X808258Y431800D02*
X321310Y431800D01*
X808258Y431800D02*
X899698Y340360D01*
X923743Y314960D02*
X939800Y314960D01*
D63*
X939800Y314960D03*
D67*
X939800Y228600D01*
D63*
X228600Y381000D03*
D67*
X253492Y405892D01*
X253492Y591312D01*
D63*
X267236Y615950D03*
D67*
X267236Y605056D01*
X253492Y591312D01*
X387500Y970600D02*
X387500Y1005817D01*
X387477Y1005840D01*
X380600Y301860D02*
X380600Y215100D01*
X380600Y301860D02*
X381000Y302260D01*
D63*
X381000Y302260D03*
D67*
X290830Y372110D02*
X256540Y406400D01*
X290830Y372110D02*
X322580Y372110D01*
D63*
X322580Y372110D03*
D67*
X717700Y936310D02*
X717700Y970600D01*
X717700Y936310D02*
X696806Y915416D01*
X323596Y915416D01*
X256540Y553219D02*
X256540Y406400D01*
X256540Y553219D02*
X273304Y569983D01*
X273304Y622948D01*
X264738Y631514D01*
X264738Y727945D01*
X299720Y762927D01*
X299720Y891540D01*
X323596Y915416D01*
X708340Y970600D02*
X717700Y970600D01*
X708340Y970600D02*
X704850Y974090D01*
X704850Y981710D01*
X664210Y1022350D01*
X327660Y101600D02*
X319554Y101600D01*
X327660Y101600D02*
X341160Y115100D01*
X355600Y115100D01*
X524300Y266700D02*
X534946Y256054D01*
X546100Y255960D01*
X829100Y266700D02*
X839746Y256054D01*
X850900Y255960D01*
X687346Y408454D02*
X676700Y419100D01*
X687346Y408454D02*
X698500Y408360D01*
X676700Y114300D02*
X687346Y103654D01*
X698500Y103560D01*
X203200Y812800D02*
X165100Y812800D01*
X130810Y778510D01*
X130810Y436880D01*
X240030Y327660D01*
X393700Y327660D01*
X548640Y327660D01*
X552450Y323850D01*
X604520Y323850D01*
D63*
X604520Y323850D03*
X393700Y320040D03*
D67*
X393700Y327660D01*
D63*
X406400Y355600D03*
D67*
X393700Y368300D01*
X676700Y266700D02*
X687346Y256054D01*
X698500Y255960D01*
X887165Y734060D02*
X899865Y734060D01*
X887165Y734060D02*
X883136Y738089D01*
X883136Y777240D01*
X883136Y842825D02*
X882681Y843280D01*
X883136Y842825D02*
X883136Y777240D01*
X855980Y769620D02*
X855980Y760244D01*
X855980Y769620D02*
X863600Y777240D01*
X883136Y777240D01*
X823932Y730736D02*
X822960Y729764D01*
X823932Y730736D02*
X855980Y730736D01*
X927100Y1041400D02*
X894080Y1074420D01*
X951199Y862361D02*
X951199Y843280D01*
X951199Y862361D02*
X927586Y885974D01*
X927586Y927100D01*
X927100Y927586D02*
X927100Y1041400D01*
X927100Y927586D02*
X927586Y927100D01*
D63*
X859211Y1074420D03*
D67*
X894080Y1074420D01*
X951199Y819150D02*
X995649Y774700D01*
X951199Y819150D02*
X951199Y843280D01*
X995649Y774700D02*
X1079500Y774700D01*
X919778Y784374D02*
X912644Y777240D01*
X919778Y784374D02*
X934720Y784374D01*
X949255Y695960D02*
X949474Y695741D01*
X934720Y754866D02*
X922506Y754866D01*
X919480Y751840D01*
X915670Y748030D01*
X915670Y723900D01*
X915670Y708660D01*
X927100Y697230D01*
X928589Y695741D01*
X949474Y695741D01*
X861546Y708660D02*
X861060Y708174D01*
X861546Y708660D02*
X899865Y708660D01*
X932180Y1344625D02*
X932485Y1344930D01*
X932180Y1367762D02*
X932868Y1368450D01*
X932180Y1367762D02*
X932180Y1344625D01*
X932868Y1368450D02*
X940460Y1368450D01*
X943610Y1371600D01*
X943610Y1393190D01*
X910590Y1426210D01*
X861060Y1426210D01*
D63*
X926978Y1326002D03*
D67*
X932180Y1331205D01*
X932180Y1344625D01*
X1272540Y443230D02*
X1295380Y443230D01*
X1115060Y563880D02*
X1115060Y685800D01*
X1079500Y721360D01*
X949255Y721360D01*
X1199776Y515994D02*
X1272540Y443230D01*
X1162946Y515994D02*
X1115060Y563880D01*
X1162946Y515994D02*
X1199776Y515994D01*
X1079500Y721360D02*
X1079500Y736600D01*
X911172Y1377950D02*
X900430Y1377950D01*
X894080Y1384300D01*
X894080Y1398270D01*
D65*
X861060Y1398270D02*
X861060Y1376192D01*
X861060Y1398270D02*
X894080Y1398270D01*
D67*
X861060Y1398270D02*
X861060Y1409700D01*
D63*
X266700Y1239520D03*
X257810Y1239520D03*
X275288Y1239218D03*
X215900Y1239520D03*
X224790Y1239520D03*
X207010Y1239520D03*
X368300Y1239520D03*
X359410Y1239520D03*
X377190Y1239520D03*
X419100Y1239520D03*
X410210Y1239520D03*
X427990Y1239520D03*
X520700Y1239520D03*
X529590Y1239520D03*
X511810Y1239520D03*
X571500Y1239520D03*
X580390Y1239520D03*
X562610Y1239520D03*
X673100Y1239520D03*
X681990Y1239520D03*
X664210Y1239520D03*
X723900Y1239520D03*
X732790Y1239520D03*
X715010Y1239520D03*
X821690Y1252220D03*
X821690Y1263650D03*
D67*
X821690Y1252220D01*
X821690Y1263650D02*
X821690Y1278106D01*
D63*
X850900Y1273810D03*
X850900Y1215390D03*
D67*
X850900Y1245839D01*
X850900Y1273810D01*
X846604Y1278106D01*
X821690Y1278106D01*
X850900Y1273810D02*
X861060Y1283970D01*
D63*
X955040Y1270000D03*
X955040Y1257300D03*
D67*
X955040Y1263650D01*
X955040Y1270000D01*
X971203Y1263650D02*
X971550Y1263997D01*
X971203Y1263650D02*
X955040Y1263650D01*
X787300Y1041500D02*
X787400Y1041400D01*
D66*
X787300Y1119509D02*
X787300Y1132840D01*
X787300Y1146059D01*
D67*
X787159Y1146200D01*
D66*
X787300Y1119509D02*
X787300Y1041500D01*
D67*
X787300Y1132840D02*
X774700Y1132840D01*
D63*
X808990Y1146810D03*
D67*
X808439Y1147362D01*
X808439Y1155700D01*
X808990Y1146810D02*
X830275Y1146810D01*
X831545Y1148080D01*
X805840Y1165200D02*
X787159Y1165200D01*
X805840Y1165200D02*
X808439Y1162602D01*
X808439Y1155700D01*
D63*
X835660Y1111250D03*
D67*
X834419Y1110009D02*
X812900Y1110009D01*
X834419Y1110009D02*
X835660Y1111250D01*
X835965Y1110945D02*
X849630Y1110945D01*
X835965Y1110945D02*
X835660Y1111250D01*
X849630Y1110945D02*
X859485Y1110945D01*
X869950Y1121410D02*
X889000Y1121410D01*
X869950Y1121410D02*
X859485Y1110945D01*
X533400Y1060450D02*
X533400Y1041400D01*
X533400Y1060450D02*
X553720Y1080770D01*
X553720Y1134110D01*
X548640Y1139190D01*
X533629Y1139190D01*
D63*
X274320Y1139190D03*
X515620Y1139190D03*
D67*
X533629Y1139190D01*
X293599Y1139190D02*
X274320Y1139190D01*
M02*
