G04 EAGLE Gerber RS-274X export*
G75*
%MOMM*%
%FSLAX34Y34*%
%LPD*%
%INSolderpaste Top*%
%IPPOS*%
%AMOC8*
5,1,8,0,0,1.08239X$1,22.5*%
G01*
G04 Define Apertures*
%ADD10R,2.715300X1.164600*%
%ADD11R,2.115300X3.763600*%
%ADD12R,2.115300X4.415700*%
%ADD13R,1.164600X2.715300*%
%ADD14R,3.763600X2.115300*%
%ADD15R,0.890200X0.436900*%
%ADD16R,1.263900X2.953600*%
%ADD17R,2.000000X2.500000*%
%ADD18R,2.200000X2.500000*%
%ADD19R,2.800000X2.500000*%
%ADD20R,0.750000X0.900000*%
%ADD21R,1.164600X1.815300*%
%ADD22R,2.053000X0.604500*%
%ADD23R,1.815300X1.164600*%
%ADD24R,1.771900X1.231400*%
%ADD25R,1.968000X0.601500*%
%ADD26R,0.900000X0.750000*%
%ADD27R,1.031200X1.420200*%
%ADD28R,1.231500X1.849100*%
%ADD29R,1.111800X0.600200*%
%ADD30R,1.223500X0.624800*%
%ADD31R,1.420200X1.031200*%
%ADD32R,2.200000X0.650000*%
D10*
X560070Y739626D03*
X560070Y769134D03*
X821690Y1278106D03*
X821690Y1307614D03*
D11*
X850900Y1245839D03*
X850900Y1177321D03*
D12*
X971550Y1263997D03*
X971550Y1176943D03*
D13*
X1151106Y769620D03*
X1180614Y769620D03*
X1152376Y480060D03*
X1181884Y480060D03*
X525294Y768350D03*
X495786Y768350D03*
D14*
X732821Y819150D03*
X801339Y819150D03*
D10*
X598170Y739626D03*
X598170Y769134D03*
D11*
X701040Y751809D03*
X701040Y683291D03*
D15*
X1119147Y1320800D03*
X1095733Y1320800D03*
D16*
X987852Y495300D03*
X1018748Y495300D03*
X848152Y495300D03*
X879048Y495300D03*
X708452Y495300D03*
X739348Y495300D03*
X568752Y495300D03*
X599648Y495300D03*
X429052Y495300D03*
X459948Y495300D03*
X289352Y495300D03*
X320248Y495300D03*
D17*
X1305960Y771800D03*
D18*
X1277960Y771800D03*
X1296960Y853800D03*
D17*
X1324960Y853800D03*
D19*
X1202960Y853800D03*
D20*
X206400Y1301062D03*
X225400Y1301062D03*
X215900Y1322758D03*
X663600Y1301062D03*
X682600Y1301062D03*
X673100Y1322758D03*
X714400Y1301062D03*
X733400Y1301062D03*
X723900Y1322758D03*
X765200Y1301062D03*
X784200Y1301062D03*
X774700Y1322758D03*
X231800Y1402662D03*
X250800Y1402662D03*
X241300Y1424358D03*
X282600Y1402662D03*
X301600Y1402662D03*
X292100Y1424358D03*
X333400Y1402662D03*
X352400Y1402662D03*
X342900Y1424358D03*
X384200Y1402662D03*
X403200Y1402662D03*
X393700Y1424358D03*
X435000Y1402662D03*
X454000Y1402662D03*
X444500Y1424358D03*
X485800Y1402662D03*
X504800Y1402662D03*
X495300Y1424358D03*
X536600Y1402662D03*
X555600Y1402662D03*
X546100Y1424358D03*
X257200Y1301062D03*
X276200Y1301062D03*
X266700Y1322758D03*
X587400Y1402662D03*
X606400Y1402662D03*
X596900Y1424358D03*
X638200Y1402662D03*
X657200Y1402662D03*
X647700Y1424358D03*
X689000Y1402662D03*
X708000Y1402662D03*
X698500Y1424358D03*
X739800Y1402662D03*
X758800Y1402662D03*
X749300Y1424358D03*
X790600Y1402662D03*
X809600Y1402662D03*
X800100Y1424358D03*
X308000Y1301062D03*
X327000Y1301062D03*
X317500Y1322758D03*
X358800Y1301062D03*
X377800Y1301062D03*
X368300Y1322758D03*
X409600Y1301062D03*
X428600Y1301062D03*
X419100Y1322758D03*
X460400Y1301062D03*
X479400Y1301062D03*
X469900Y1322758D03*
X511200Y1301062D03*
X530200Y1301062D03*
X520700Y1322758D03*
X562000Y1301062D03*
X581000Y1301062D03*
X571500Y1322758D03*
X612800Y1301062D03*
X631800Y1301062D03*
X622300Y1322758D03*
D21*
X290046Y101600D03*
X319554Y101600D03*
D22*
X1016817Y289560D03*
X1016817Y302260D03*
X1016817Y314960D03*
X1016817Y327660D03*
X1016817Y340360D03*
X1016817Y353060D03*
X1016817Y365760D03*
X1016817Y378460D03*
X1016817Y391160D03*
X1016817Y403860D03*
X1016817Y416560D03*
X1016817Y429260D03*
X923743Y429260D03*
X923743Y416560D03*
X923743Y403860D03*
X923743Y391160D03*
X923743Y378460D03*
X923743Y365760D03*
X923743Y353060D03*
X923743Y340360D03*
X923743Y327660D03*
X923743Y314960D03*
X923743Y302260D03*
X923743Y289560D03*
D21*
X230654Y1273810D03*
X201146Y1273810D03*
X281454Y1273810D03*
X251946Y1273810D03*
X332254Y1273810D03*
X302746Y1273810D03*
X383054Y1273810D03*
X353546Y1273810D03*
X433854Y1273810D03*
X404346Y1273810D03*
X484654Y1273810D03*
X455146Y1273810D03*
X586254Y1273810D03*
X556746Y1273810D03*
X535454Y1273810D03*
X505946Y1273810D03*
X637054Y1273810D03*
X607546Y1273810D03*
X687854Y1273810D03*
X658346Y1273810D03*
X738654Y1273810D03*
X709146Y1273810D03*
X789454Y1273810D03*
X759946Y1273810D03*
X814854Y1375410D03*
X785346Y1375410D03*
X764054Y1375410D03*
X734546Y1375410D03*
X713254Y1375410D03*
X683746Y1375410D03*
X662454Y1375410D03*
X632946Y1375410D03*
X611654Y1375410D03*
X582146Y1375410D03*
X560854Y1375410D03*
X531346Y1375410D03*
X510054Y1375410D03*
X480546Y1375410D03*
X459254Y1375410D03*
X429746Y1375410D03*
X408454Y1375410D03*
X378946Y1375410D03*
X357654Y1375410D03*
X328146Y1375410D03*
X306854Y1375410D03*
X277346Y1375410D03*
X256054Y1375410D03*
X226546Y1375410D03*
X1136164Y1018540D03*
X1106656Y1018540D03*
D23*
X1173480Y1008866D03*
X1173480Y1038374D03*
D24*
X546100Y255960D03*
X546100Y226640D03*
X850900Y255960D03*
X850900Y226640D03*
X698500Y408360D03*
X698500Y379040D03*
X698500Y103560D03*
X698500Y74240D03*
D10*
X388620Y1126004D03*
X388620Y1096496D03*
X353060Y1126004D03*
X353060Y1096496D03*
X640080Y1132354D03*
X640080Y1102846D03*
X604520Y1132354D03*
X604520Y1102846D03*
D24*
X698500Y255960D03*
X698500Y226640D03*
D25*
X949255Y695960D03*
X949255Y708660D03*
X949255Y721360D03*
X949255Y734060D03*
X899865Y734060D03*
X899865Y721360D03*
X899865Y708660D03*
X899865Y695960D03*
D23*
X822960Y700256D03*
X822960Y729764D03*
D10*
X855980Y760244D03*
X855980Y730736D03*
D13*
X883136Y777240D03*
X912644Y777240D03*
D23*
X934720Y754866D03*
X934720Y784374D03*
D14*
X882681Y843280D03*
X951199Y843280D03*
D21*
X957094Y927100D03*
X927586Y927100D03*
D10*
X861060Y708174D03*
X861060Y678666D03*
D13*
X504676Y457200D03*
X534184Y457200D03*
D10*
X577850Y117326D03*
X577850Y146834D03*
D26*
X932868Y1368450D03*
X932868Y1387450D03*
X911172Y1377950D03*
D27*
X914095Y1344930D03*
X932485Y1344930D03*
X977849Y596900D03*
X996239Y596900D03*
X952551Y596900D03*
X934161Y596900D03*
D28*
X861060Y1344148D03*
X861060Y1376192D03*
D29*
X812900Y1110009D03*
X812900Y1129009D03*
X787300Y1119509D03*
D30*
X787159Y1165200D03*
X787159Y1146200D03*
X808439Y1155700D03*
D27*
X849935Y1148080D03*
X831545Y1148080D03*
D31*
X849630Y1129335D03*
X849630Y1110945D03*
D32*
X199161Y1202690D03*
X199161Y1189990D03*
X199161Y1177290D03*
X199161Y1164590D03*
X199161Y1151890D03*
X199161Y1139190D03*
X199161Y1126490D03*
X199161Y1113790D03*
X199161Y1101090D03*
X199161Y1088390D03*
X293599Y1088390D03*
X293599Y1101090D03*
X293599Y1113790D03*
X293599Y1126490D03*
X293599Y1139190D03*
X293599Y1151890D03*
X293599Y1164590D03*
X293599Y1177290D03*
X293599Y1189990D03*
X293599Y1202690D03*
X439191Y1202690D03*
X439191Y1189990D03*
X439191Y1177290D03*
X439191Y1164590D03*
X439191Y1151890D03*
X439191Y1139190D03*
X439191Y1126490D03*
X439191Y1113790D03*
X439191Y1101090D03*
X439191Y1088390D03*
X533629Y1088390D03*
X533629Y1101090D03*
X533629Y1113790D03*
X533629Y1126490D03*
X533629Y1139190D03*
X533629Y1151890D03*
X533629Y1164590D03*
X533629Y1177290D03*
X533629Y1189990D03*
X533629Y1202690D03*
M02*
