M48
;GenerationSoftware,Autodesk,EAGLE,9.7.0*%
;CreationDate,2022-03-01T20:25:14Z*%
FMAT,2
ICI,OFF
METRIC,TZ,000.000
T27C0.350
T26C0.700
T25C0.773
T24C0.800
T23C0.850
T22C0.900
T21C1.000
T20C1.100
T19C1.190
T18C1.300
T17C1.350
T16C1.400
T15C1.500
T14C1.550
T13C1.600
T12C1.700
T11C2.200
T10C2.390
T9C2.650
T8C2.700
T7C2.800
T6C2.997
T5C3.000
T4C3.100
T3C3.200
T2C4.000
%
G90
M71
T2
X35560Y16510
X22860Y16510
T3
X82550Y150391
X19050Y150391
T4
X92710Y147241
X106680Y147241
T5
X130222Y101219
T6
X114554Y155829
X106553Y116713
X119380Y33020
X76200Y15240
X11430Y26670
X11430Y115570
T7
X92710Y153291
X106680Y153291
T8
X104170Y96560
X29170Y65560
X104170Y65560
X29170Y96560
T9
X88010Y150241
X101980Y150241
T10
X126803Y117971
X126803Y132981
T11
X126238Y39123
X126238Y49523
T12
X121596Y81280
X128596Y81280
T13
X129000Y139651
X115500Y139651
X129000Y143051
X115500Y143051
X125222Y97219
X125222Y101219
T14
X125222Y105219
T15
X116506Y149653
X121586Y149653
T16
X131793Y127976
X131793Y122976
T17
X121793Y117971
X121793Y125476
X119303Y130481
X121793Y132981
X119303Y120471
T18
X38060Y21510
X129159Y56261
X129159Y61341
X129159Y66421
X22860Y21510
X20360Y11510
X33060Y21510
X104648Y132207
X107188Y139827
X99568Y139827
X89408Y132207
X89408Y139827
X35560Y11510
X25360Y11510
T19
X61880Y148971
X60495Y151811
X57725Y151811
X54955Y151811
X64650Y148971
X67420Y148971
X70190Y148971
X45260Y148971
X59110Y148971
X32795Y151811
X34180Y148971
X46645Y151811
X43875Y151811
X41105Y151811
X38335Y151811
X35565Y151811
X30025Y151811
X27255Y151811
X75730Y148971
X72960Y148971
X52185Y151811
X31410Y148971
X28640Y148971
X25870Y148971
X63265Y151811
X66035Y151811
X68805Y151811
X49415Y151811
X56340Y148971
X53570Y148971
X50800Y148971
X48030Y148971
X71575Y151811
X74345Y151811
X42490Y148971
X39720Y148971
X36950Y148971
T20
X77760Y23420
X77760Y29920
X120222Y101219
X67020Y38660
X62520Y45160
X67020Y8180
X67020Y14680
X62520Y8180
X62520Y14680
X67020Y45160
X62520Y38660
X51780Y23420
X51780Y29920
X47280Y23420
X67020Y23420
X67020Y29920
X62520Y23420
X62520Y29920
X47280Y29920
X82260Y23420
X82260Y29920
T21
X12410Y137870
X7910Y131370
X43830Y97060
X41290Y97060
X38750Y97060
X36210Y97060
X33670Y97060
X48910Y97060
X51450Y97060
X53990Y97060
X56530Y97060
X46370Y97060
X71770Y97060
X129538Y46823
X129538Y44323
X59070Y97060
X61610Y97060
X64150Y97060
X66690Y97060
X69230Y97060
X7910Y137870
X12410Y131370
X129538Y41823
T22
X43180Y104140
X40640Y104140
X38100Y104140
X35560Y104140
X33020Y104140
X30480Y104140
X27940Y104140
X25400Y104140
X66040Y104140
X63500Y104140
X60960Y104140
X58420Y104140
X55880Y104140
X53340Y104140
X50800Y104140
X48260Y104140
X88900Y104140
X86360Y104140
X83820Y104140
X81280Y104140
X78740Y104140
X76200Y104140
X73660Y104140
X71120Y104140
X97790Y55880
X95250Y55880
X22860Y55880
X20320Y99060
X22860Y99060
X22860Y96520
X20320Y96520
X20320Y55880
X22860Y91440
X20320Y58420
X20320Y60960
X20320Y63500
X20320Y66040
X20320Y68580
X20320Y71120
X20320Y73660
X20320Y76200
X20320Y78740
X20320Y81280
X20320Y83820
X20320Y86360
X20320Y88900
X20320Y91440
X20320Y93980
X22860Y93980
X22860Y88900
X22860Y86360
X22860Y83820
X22860Y81280
X22860Y78740
X22860Y76200
X22860Y73660
X22860Y71120
X22860Y68580
X22860Y66040
X22860Y63500
X22860Y60960
X22860Y58420
X48260Y55880
X45720Y55880
X43180Y55880
X40640Y55880
X38100Y55880
X35560Y55880
X33020Y55880
X30480Y55880
X71120Y55880
X68580Y55880
X66040Y55880
X63500Y55880
X60960Y55880
X58420Y55880
X55880Y55880
X53340Y55880
X92710Y55880
X90170Y55880
X87630Y55880
X85090Y55880
X82550Y55880
X80010Y55880
X77470Y55880
X74930Y55880
T23
X5080Y96520
X5080Y67564
X5080Y72644
X5080Y70104
X5080Y99060
X5080Y75184
X5080Y93980
X5080Y91440
X5080Y88900
X5080Y77724
T24
X67670Y11430
X61870Y26670
X67670Y26670
X52430Y26670
X61870Y11430
X77110Y26670
X82910Y26670
X46630Y26670
X61870Y41910
X67670Y41910
T25
X109601Y121666
X112141Y121666
X112141Y129286
X109601Y129286
T26
X112903Y25146
X112903Y27686
X112903Y30226
X112903Y32766
X112903Y35306
X112903Y37846
X112903Y40386
X112903Y42926
X105283Y27686
X112903Y48006
X105283Y48006
X105283Y45466
X105283Y42926
X105283Y40386
X112903Y45466
X105283Y37846
X105283Y35306
X105283Y32766
X105283Y30226
X105283Y25146
T27
X35433Y139192
X40513Y139192
X45593Y139192
X50673Y139192
X55753Y139192
X60833Y139192
X65913Y139192
X70993Y139192
X76073Y139192
X81153Y139192
X78613Y129032
X68453Y129032
X63373Y129032
X53213Y129032
X48133Y129032
X37973Y129032
X32893Y129032
X22733Y129032
X44069Y73228
X44069Y75870
X44958Y75870
X45847Y75870
X45847Y74549
X45847Y73228
X44958Y74549
X100838Y26670
X50927Y76200
X50927Y77470
X57277Y78740
X58547Y78740
X49657Y68580
X50927Y68580
X125222Y76581
X132105Y82804
X132105Y87884
X110490Y85725
X27836Y129032
X44069Y74549
X96647Y70866
X93218Y73406
X93218Y70866
X96647Y73406
X71120Y108204
X71120Y106680
X73660Y108204
X73660Y106680
X76200Y106680
X76200Y108204
X79502Y108204
X79502Y106680
X82550Y106680
X82550Y108204
X85090Y108204
X85090Y106680
X88900Y108204
X88900Y106680
X92456Y105918
X90170Y105410
X91948Y102870
X93472Y102870
X91948Y95250
X93472Y95250
X91948Y97790
X93472Y97790
X91948Y100330
X93472Y100330
X119634Y48006
X120904Y48006
X83693Y67818
X82296Y68580
X97282Y92710
X48895Y45720
X82931Y81915
X84201Y81915
X88265Y117729
X93726Y117729
X91821Y136525
X68199Y68326
X115316Y101854
X112903Y99949
X120650Y110490
X114300Y135890
X32766Y115570
X59436Y117729
X41783Y117602
X73787Y120523
X64770Y117729
X55499Y114427
X34940Y117983
X18542Y126619
X51308Y111379
X49022Y111379
X58420Y27940
X118872Y79248
X53213Y58651
X27559Y117729
X51435Y117729
X86360Y100965
X95250Y62230
X51562Y113919
X27432Y113919
X83566Y111125
X80899Y114681
X49149Y73914
X50419Y73914
X51689Y73914
X70612Y81915
X68961Y81915
X99822Y109220
X60960Y111760
X35814Y111125
X93218Y27051
X102235Y59690
X91059Y59690
X34290Y52070
X64135Y107950
X104140Y52070
X90170Y52070
X76200Y52070
X62230Y52070
X48260Y52070
X82550Y143510
X96520Y90170
X102870Y90170
X95250Y90170
X104140Y90170
X111125Y105664
X88011Y72136
X70104Y78867
X70104Y77724
X82677Y112903
X79756Y110490
X80010Y100330
X62230Y83820
X95504Y125730
X95504Y127000
X85090Y121539
X85090Y127381
X82169Y126365
X82169Y125222
X71501Y123952
X73279Y123952
X72390Y123952
X66421Y123952
X68199Y123952
X67310Y123952
X56261Y123952
X58039Y123952
X57150Y123952
X51181Y123952
X52959Y123952
X52070Y123952
X42799Y123952
X41021Y123952
X41910Y123952
X37719Y123952
X35941Y123952
X36830Y123952
X20701Y123952
X22479Y123952
X21590Y123952
X27529Y123922
X25781Y123952
X130175Y75184
X26670Y123952
X92698Y132600
X85921Y107442
X40640Y35560
X39370Y32004
X60452Y32385
X32258Y37211
X62230Y85090
X26724Y61595
X22860Y38100
X93980Y31496
X96393Y41656
X115062Y82628
X113030Y69977
X125476Y74803
X44958Y73228
X117348Y78994
X119126Y73660
X117348Y85369
X119380Y110490
X115316Y109855
X51435Y118999
X27559Y118999
X83820Y101600
X97790Y62230
X49784Y117348
X51435Y120269
X65405Y108585
X26670Y44450
X47244Y36830
X26388Y48641
X45212Y121158
X26416Y120269
X73660Y35560
X44196Y38100
X53340Y40005
X59309Y40005
X109220Y52070
X38354Y111125
X24130Y54610
X27940Y54610
X36830Y31143
X31115Y35560
X38100Y30226
X63500Y111760
X17526Y48260
X119761Y68580
X127127Y68834
X125730Y57404
X24130Y35560
X90043Y30480
X89281Y32766
X96393Y32766
X88900Y29718
X87361Y33162
X97663Y34036
X87630Y28956
X86106Y34544
X98933Y35306
X14224Y67310
X62230Y101600
X27432Y115189
X82169Y132080
X82169Y133223
X73556Y129032
X58316Y129032
X25273Y139192
X30353Y139192
X43076Y129032
X17907Y120269
X21844Y120269
X22987Y114935
X18034Y108839
X21844Y108839
X42164Y108839
X45720Y108839
X51562Y115189
X46736Y117348
X72009Y68326
X112776Y104775
M30