G04 EAGLE Gerber RS-274X export*
G75*
%MOMM*%
%FSLAX34Y34*%
%LPD*%
%INSoldermask Bottom*%
%IPPOS*%
%AMOC8*
5,1,8,0,0,1.08239X$1,22.5*%
G01*
G04 Define Apertures*
%ADD10C,3.200400*%
%ADD11R,1.561200X1.561200*%
%ADD12C,1.561200*%
%ADD13R,1.367800X2.918500*%
%ADD14R,2.918500X1.367800*%
%ADD15R,2.433200X2.573200*%
%ADD16R,1.411200X1.411200*%
%ADD17C,1.411200*%
%ADD18R,1.711200X1.711200*%
%ADD19C,2.903200*%
%ADD20C,4.019200*%
%ADD21C,4.319200*%
%ADD22C,3.869200*%
%ADD23C,1.988200*%
%ADD24C,3.403200*%
%ADD25C,1.903200*%
%ADD26C,2.303200*%
%ADD27C,2.228200*%
%ADD28C,3.609200*%
%ADD29R,2.528200X2.528200*%
%ADD30C,2.603200*%
%ADD31C,1.853200*%
%ADD32C,3.203200*%
%ADD33R,3.403200X3.203200*%
%ADD34C,1.575700*%
%ADD35R,3.573400X1.434400*%
%ADD36C,1.611200*%
%ADD37P,1.74395X8X112.5*%
%ADD38R,1.611200X1.611200*%
%ADD39R,1.511200X1.511200*%
%ADD40C,1.511200*%
%ADD41C,1.879600*%
%ADD42R,2.003200X0.804700*%
%ADD43R,2.823200X3.603200*%
%ADD44R,2.003200X0.628200*%
%ADD45R,1.543200X0.823200*%
%ADD46C,2.153200*%
%ADD47R,1.434600X1.975100*%
%ADD48R,1.975100X1.434600*%
%ADD49R,2.018500X1.367800*%
%ADD50R,1.367800X2.018500*%
%ADD51R,2.153200X2.153200*%
%ADD52C,4.203200*%
%ADD53P,3.70091X8X22.5*%
%ADD54C,2.387600*%
%ADD55P,2.58431X8X22.5*%
%ADD56C,2.453200*%
%ADD57R,0.828000X1.426700*%
%ADD58C,0.959600*%
D10*
X1193800Y330200D03*
X1145540Y1558290D03*
X114300Y1155700D03*
X114300Y266700D03*
X762000Y152400D03*
X1065530Y1167130D03*
D11*
X50800Y990600D03*
D12*
X50800Y965200D03*
X50800Y939800D03*
X50800Y914400D03*
X50800Y889000D03*
D11*
X50800Y777240D03*
D12*
X50800Y751840D03*
X50800Y726440D03*
X50800Y701040D03*
X50800Y675640D03*
D13*
X258594Y1169670D03*
X229086Y1169670D03*
X497354Y1153160D03*
X467846Y1153160D03*
X1151404Y857250D03*
X1121896Y857250D03*
X434826Y699770D03*
X464334Y699770D03*
D14*
X546100Y818664D03*
X546100Y789156D03*
X506730Y818664D03*
X506730Y789156D03*
D13*
X258594Y1129030D03*
X229086Y1129030D03*
D15*
X542290Y725970D03*
X542290Y686270D03*
D16*
X1129030Y251460D03*
D17*
X1129030Y276860D03*
X1129030Y302260D03*
X1129030Y327660D03*
X1129030Y353060D03*
X1129030Y378460D03*
X1129030Y403860D03*
X1129030Y429260D03*
X1129030Y454660D03*
X1129030Y480060D03*
X1052830Y480060D03*
X1052830Y454660D03*
X1052830Y429260D03*
X1052830Y403860D03*
X1052830Y378460D03*
X1052830Y353060D03*
X1052830Y327660D03*
X1052830Y302260D03*
X1052830Y276860D03*
X1052830Y251460D03*
D18*
X336700Y970600D03*
X362100Y970600D03*
X387500Y970600D03*
X412900Y970600D03*
X438300Y970600D03*
X463700Y970600D03*
X489100Y970600D03*
X514500Y970600D03*
X539900Y970600D03*
X565300Y970600D03*
X590700Y970600D03*
X616100Y970600D03*
X641500Y970600D03*
X666900Y970600D03*
X692300Y970600D03*
X717700Y970600D03*
D19*
X1041700Y965600D03*
X291700Y965600D03*
X1041700Y655600D03*
X291700Y655600D03*
D20*
X1066800Y1532910D03*
D21*
X1066800Y1472410D03*
D22*
X1019800Y1502410D03*
D20*
X927100Y1532910D03*
D21*
X927100Y1472410D03*
D22*
X880100Y1502410D03*
D23*
X258700Y1489710D03*
X286400Y1489710D03*
X314100Y1489710D03*
X341800Y1489710D03*
X369500Y1489710D03*
X397200Y1489710D03*
X424900Y1489710D03*
X452600Y1489710D03*
X480300Y1489710D03*
X508000Y1489710D03*
X535700Y1489710D03*
X563400Y1489710D03*
X591100Y1489710D03*
X618800Y1489710D03*
X646500Y1489710D03*
X674200Y1489710D03*
X701900Y1489710D03*
X729600Y1489710D03*
X757300Y1489710D03*
X272550Y1518110D03*
X300250Y1518110D03*
X327950Y1518110D03*
X355650Y1518110D03*
X383350Y1518110D03*
X411050Y1518110D03*
X438750Y1518110D03*
X466450Y1518110D03*
X494150Y1518110D03*
X521850Y1518110D03*
X549550Y1518110D03*
X577250Y1518110D03*
X604950Y1518110D03*
X632650Y1518110D03*
X660350Y1518110D03*
X688050Y1518110D03*
X715750Y1518110D03*
X743450Y1518110D03*
D24*
X190500Y1503910D03*
X825500Y1503910D03*
D25*
X1285960Y812800D03*
X1215960Y812800D03*
D26*
X1317930Y1279760D03*
X1317930Y1229760D03*
D27*
X1217930Y1329810D03*
X1193030Y1304810D03*
X1217930Y1254760D03*
X1193030Y1204710D03*
X1217930Y1179710D03*
D28*
X1268030Y1329810D03*
X1268030Y1179710D03*
D29*
X1252220Y1052190D03*
D30*
X1252220Y1012190D03*
X1252220Y972190D03*
D31*
X1202220Y1012190D03*
D32*
X1302220Y1012190D03*
D33*
X622300Y725720D03*
X622300Y808440D03*
D34*
X1121410Y1292860D03*
X1096010Y1292860D03*
X1096010Y1216660D03*
X1121410Y1216660D03*
D35*
X241300Y1358415D03*
X241300Y1417805D03*
X393700Y1358415D03*
X393700Y1417805D03*
X546100Y1358415D03*
X546100Y1417805D03*
X698500Y1358415D03*
X698500Y1417805D03*
X215900Y1277135D03*
X215900Y1336525D03*
X368300Y1277135D03*
X368300Y1336525D03*
X520700Y1275865D03*
X520700Y1335255D03*
X673100Y1275865D03*
X673100Y1335255D03*
D36*
X203200Y584200D03*
X203200Y609600D03*
X203200Y635000D03*
X203200Y660400D03*
X203200Y685800D03*
X203200Y711200D03*
X203200Y736600D03*
X203200Y762000D03*
X203200Y787400D03*
X203200Y812800D03*
X203200Y838200D03*
X203200Y863600D03*
X203200Y889000D03*
X203200Y914400D03*
X203200Y939800D03*
X228600Y939800D03*
X228600Y914400D03*
X228600Y889000D03*
X228600Y863600D03*
X228600Y838200D03*
X228600Y812800D03*
X228600Y787400D03*
X228600Y762000D03*
X228600Y736600D03*
X228600Y711200D03*
X228600Y685800D03*
X228600Y660400D03*
X228600Y635000D03*
X228600Y609600D03*
X228600Y584200D03*
X482600Y558800D03*
X457200Y558800D03*
X431800Y558800D03*
X406400Y558800D03*
X381000Y558800D03*
X355600Y558800D03*
X330200Y558800D03*
X304800Y558800D03*
X711200Y558800D03*
X685800Y558800D03*
X660400Y558800D03*
X635000Y558800D03*
X609600Y558800D03*
X584200Y558800D03*
X558800Y558800D03*
X533400Y558800D03*
D37*
X927100Y558800D03*
D38*
X901700Y558800D03*
D36*
X876300Y558800D03*
X850900Y558800D03*
X825500Y558800D03*
X800100Y558800D03*
X774700Y558800D03*
X749300Y558800D03*
X431800Y1041400D03*
X406400Y1041400D03*
X381000Y1041400D03*
X355600Y1041400D03*
X330200Y1041400D03*
X304800Y1041400D03*
X279400Y1041400D03*
X254000Y1041400D03*
X660400Y1041400D03*
X635000Y1041400D03*
X609600Y1041400D03*
X584200Y1041400D03*
X558800Y1041400D03*
X533400Y1041400D03*
X508000Y1041400D03*
X482600Y1041400D03*
X889000Y1041400D03*
D37*
X863600Y1041400D03*
D36*
X838200Y1041400D03*
D37*
X812800Y1041400D03*
X787400Y1041400D03*
D38*
X762000Y1041400D03*
X736600Y1041400D03*
D37*
X711200Y1041400D03*
D36*
X977900Y558800D03*
X952500Y558800D03*
D37*
X203200Y558800D03*
X228600Y558800D03*
D38*
X203200Y990600D03*
X228600Y990600D03*
D36*
X228600Y965200D03*
X203200Y965200D03*
D31*
X777600Y299200D03*
X777600Y234200D03*
X822600Y299200D03*
X822600Y234200D03*
D39*
X771100Y266700D03*
D40*
X829100Y266700D03*
D31*
X472800Y299200D03*
X472800Y234200D03*
X517800Y299200D03*
X517800Y234200D03*
D39*
X466300Y266700D03*
D40*
X524300Y266700D03*
D31*
X625200Y451600D03*
X625200Y386600D03*
X670200Y451600D03*
X670200Y386600D03*
D39*
X618700Y419100D03*
D40*
X676700Y419100D03*
D31*
X625200Y146800D03*
X625200Y81800D03*
X670200Y146800D03*
X670200Y81800D03*
D39*
X618700Y114300D03*
D40*
X676700Y114300D03*
D41*
X124100Y1313700D03*
X124100Y1378700D03*
D42*
X424080Y726440D03*
X424080Y739140D03*
X424080Y751840D03*
X424080Y764540D03*
X475080Y764540D03*
X475080Y751840D03*
X475080Y739140D03*
X475080Y726440D03*
D43*
X449580Y745490D03*
D44*
X342122Y1091750D03*
X342122Y1098250D03*
X342122Y1104750D03*
X342122Y1111250D03*
X342122Y1117750D03*
X342122Y1124250D03*
X342122Y1130750D03*
X399558Y1130750D03*
X399558Y1124250D03*
X399558Y1117750D03*
X399558Y1111250D03*
X399558Y1104750D03*
X399558Y1098250D03*
X399558Y1091750D03*
X593582Y1098100D03*
X593582Y1104600D03*
X593582Y1111100D03*
X593582Y1117600D03*
X593582Y1124100D03*
X593582Y1130600D03*
X593582Y1137100D03*
X651018Y1137100D03*
X651018Y1130600D03*
X651018Y1124100D03*
X651018Y1117600D03*
X651018Y1111100D03*
X651018Y1104600D03*
X651018Y1098100D03*
D45*
X1152994Y1057250D03*
X1152994Y1047750D03*
X1152994Y1038250D03*
X1127926Y1038250D03*
X1127926Y1057250D03*
D46*
X1291590Y664210D03*
X1291590Y613410D03*
X1291590Y562610D03*
D47*
X440000Y798830D03*
X469320Y798830D03*
X423600Y798830D03*
X394280Y798830D03*
D48*
X394970Y775390D03*
X394970Y746070D03*
D49*
X1159510Y1279674D03*
X1159510Y1250166D03*
D50*
X1108224Y1247140D03*
X1078716Y1247140D03*
X1171426Y1079500D03*
X1200934Y1079500D03*
X1152674Y1079500D03*
X1123166Y1079500D03*
X1232684Y756920D03*
X1203176Y756920D03*
D49*
X1173480Y832634D03*
X1173480Y803126D03*
X1301750Y737384D03*
X1301750Y707876D03*
X1271270Y707876D03*
X1271270Y737384D03*
X1132840Y796776D03*
X1132840Y826284D03*
D50*
X1232684Y786130D03*
X1203176Y786130D03*
D49*
X955040Y284966D03*
X955040Y314474D03*
X980440Y284966D03*
X980440Y314474D03*
D30*
X1290004Y1396510D03*
X1155004Y1396510D03*
X1290004Y1430510D03*
X1155004Y1430510D03*
D51*
X380600Y215100D03*
X355600Y115100D03*
X330600Y215100D03*
D52*
X355600Y165100D03*
D51*
X203600Y115100D03*
X228600Y215100D03*
X253600Y115100D03*
D52*
X228600Y165100D03*
D13*
X952986Y259080D03*
X982494Y259080D03*
X497354Y1193800D03*
X467846Y1193800D03*
D31*
X625200Y299200D03*
X625200Y234200D03*
X670200Y299200D03*
X670200Y234200D03*
D39*
X618700Y266700D03*
D40*
X676700Y266700D03*
D25*
X1295380Y443230D03*
X1295380Y468230D03*
X1295380Y418230D03*
D53*
X1262380Y495230D03*
X1262380Y391230D03*
D13*
X502434Y340360D03*
X472926Y340360D03*
X807234Y341630D03*
X777726Y341630D03*
X654834Y340360D03*
X625326Y340360D03*
D54*
X894080Y1398270D03*
X894080Y1322070D03*
D55*
X995680Y1398270D03*
D54*
X1071880Y1398270D03*
X1046480Y1322070D03*
D56*
X1165057Y1485277D02*
X1165057Y1507777D01*
X1215857Y1507777D02*
X1215857Y1485277D01*
D57*
X817270Y1137130D03*
X836270Y1137130D03*
X826770Y1115850D03*
D58*
X491490Y739140D03*
X504190Y739140D03*
X516890Y739140D03*
X706120Y819150D03*
X689610Y819150D03*
X998220Y1092200D03*
X609600Y1117600D03*
X358140Y1111250D03*
X932180Y270510D03*
X1022350Y596900D03*
X910590Y596900D03*
X342900Y520700D03*
X1041400Y520700D03*
X901700Y520700D03*
X762000Y520700D03*
X622300Y520700D03*
X482600Y520700D03*
X825500Y1435100D03*
X965200Y901700D03*
X1028700Y901700D03*
X952500Y901700D03*
X1041400Y901700D03*
X1111250Y1056640D03*
X880110Y721360D03*
X701040Y788670D03*
X701040Y777240D03*
X826770Y1129030D03*
X797560Y1104900D03*
X800100Y1003300D03*
X622300Y838200D03*
X622300Y850900D03*
X497840Y1173480D03*
X514350Y1202690D03*
X452120Y1211580D03*
X264160Y1202690D03*
X1092200Y520700D03*
X383540Y1111250D03*
X635000Y1117600D03*
X252730Y1391920D03*
X303530Y1391920D03*
X354330Y1391920D03*
X405130Y1391920D03*
X455930Y1391920D03*
X506730Y1391920D03*
X557530Y1391920D03*
X608330Y1391920D03*
X659130Y1391920D03*
X709930Y1391920D03*
X760730Y1391920D03*
X811530Y1391920D03*
X786130Y1290320D03*
X684530Y1290320D03*
X633730Y1290320D03*
X532130Y1290320D03*
X481330Y1290320D03*
X379730Y1290320D03*
X328930Y1290320D03*
X227330Y1290320D03*
X440690Y732282D03*
X440690Y758698D03*
X449580Y758698D03*
X458470Y758698D03*
X458470Y745490D03*
X458470Y732282D03*
X449580Y732282D03*
X449580Y745490D03*
X1008380Y266700D03*
X509270Y762000D03*
X509270Y774700D03*
X572770Y787400D03*
X585470Y787400D03*
X496570Y685800D03*
X509270Y685800D03*
X1252220Y765810D03*
X1321054Y828040D03*
X1321054Y878840D03*
X1104900Y857250D03*
X278356Y1290320D03*
X440690Y745490D03*
X966470Y708660D03*
X932180Y734060D03*
X932180Y708660D03*
X966470Y734060D03*
X711200Y1082040D03*
X711200Y1066800D03*
X736600Y1082040D03*
X736600Y1066800D03*
X762000Y1066800D03*
X762000Y1082040D03*
X795020Y1082040D03*
X795020Y1066800D03*
X825500Y1066800D03*
X825500Y1082040D03*
X850900Y1082040D03*
X850900Y1066800D03*
X889000Y1082040D03*
X889000Y1066800D03*
X924560Y1059180D03*
X901700Y1054100D03*
X919480Y1028700D03*
X934720Y1028700D03*
X919480Y952500D03*
X934720Y952500D03*
X919480Y977900D03*
X934720Y977900D03*
X919480Y1003300D03*
X934720Y1003300D03*
X1196340Y480060D03*
X1209040Y480060D03*
X836930Y678180D03*
X822960Y685800D03*
X972820Y927100D03*
X488950Y457200D03*
X829310Y819150D03*
X842010Y819150D03*
X882650Y1177290D03*
X937260Y1177290D03*
X918210Y1365250D03*
X681990Y683260D03*
X720090Y683260D03*
X467360Y1173480D03*
X515620Y1151890D03*
X457200Y1088390D03*
X421640Y1088390D03*
X218440Y1088390D03*
X180340Y1088390D03*
X229870Y1149350D03*
X218440Y1202690D03*
X179070Y1202690D03*
X430756Y1290320D03*
X583156Y1290320D03*
X735556Y1290320D03*
X821690Y1332230D03*
X821690Y1320800D03*
X274320Y1151890D03*
X622300Y1016000D03*
X142240Y673100D03*
X989330Y353060D03*
X861060Y345440D03*
X876300Y289560D03*
X976630Y340360D03*
X873606Y331624D03*
X889000Y297180D03*
X963930Y327660D03*
X892810Y327660D03*
X900430Y304800D03*
X241300Y355600D03*
X1257300Y574040D03*
X1271270Y688340D03*
X1197610Y685800D03*
X175260Y482600D03*
X311150Y355600D03*
X368300Y311432D03*
X279400Y546100D03*
X241300Y546100D03*
X593090Y400050D03*
X533400Y400050D03*
X441960Y381000D03*
X736600Y355600D03*
X263878Y486410D03*
X472440Y368300D03*
X266700Y444500D03*
X654050Y1085850D03*
X977900Y622300D03*
X838200Y1016000D03*
X275590Y1189990D03*
X514350Y1189990D03*
X641350Y1079500D03*
X952500Y622300D03*
X863600Y1009650D03*
X514350Y1177290D03*
X275590Y1177290D03*
X532130Y586514D03*
X1188720Y792480D03*
X584200Y279400D03*
X490220Y1113790D03*
X513080Y1113790D03*
X185420Y1266190D03*
X349396Y1179830D03*
X554990Y1144270D03*
X647700Y1177290D03*
X737870Y1205230D03*
X417830Y1176020D03*
X594360Y1177290D03*
X327660Y1155700D03*
X1143000Y1358900D03*
X1206500Y1104900D03*
X1129030Y999490D03*
X1153160Y1018540D03*
X1127760Y1047750D03*
X1153160Y1098550D03*
X1193800Y1104900D03*
X1301750Y751840D03*
X1173480Y853694D03*
X1191260Y736600D03*
X1173480Y789940D03*
X1254760Y748030D03*
X1130300Y699770D03*
X1150620Y826284D03*
X963930Y416560D03*
X939800Y314960D03*
X228600Y381000D03*
X267236Y615950D03*
X381000Y302260D03*
X322580Y372110D03*
X604520Y323850D03*
X393700Y320040D03*
X406400Y355600D03*
X859211Y1074420D03*
X926978Y1326002D03*
X266700Y1239520D03*
X257810Y1239520D03*
X275288Y1239218D03*
X215900Y1239520D03*
X224790Y1239520D03*
X207010Y1239520D03*
X368300Y1239520D03*
X359410Y1239520D03*
X377190Y1239520D03*
X419100Y1239520D03*
X410210Y1239520D03*
X427990Y1239520D03*
X520700Y1239520D03*
X529590Y1239520D03*
X511810Y1239520D03*
X571500Y1239520D03*
X580390Y1239520D03*
X562610Y1239520D03*
X673100Y1239520D03*
X681990Y1239520D03*
X664210Y1239520D03*
X723900Y1239520D03*
X732790Y1239520D03*
X715010Y1239520D03*
X821690Y1252220D03*
X821690Y1263650D03*
X850900Y1273810D03*
X850900Y1215390D03*
X955040Y1270000D03*
X955040Y1257300D03*
X808990Y1146810D03*
X835660Y1111250D03*
X274320Y1139190D03*
X515620Y1139190D03*
M02*
