G04 EAGLE Gerber RS-274X export*
G75*
%MOMM*%
%FSLAX34Y34*%
%LPD*%
%INSoldermask Top*%
%IPPOS*%
%AMOC8*
5,1,8,0,0,1.08239X$1,22.5*%
G01*
G04 Define Apertures*
%ADD10C,3.200400*%
%ADD11R,1.561200X1.561200*%
%ADD12C,1.561200*%
%ADD13R,2.918500X1.367800*%
%ADD14R,2.318500X3.966800*%
%ADD15R,2.318500X4.618900*%
%ADD16R,1.367800X2.918500*%
%ADD17R,3.966800X2.318500*%
%ADD18R,1.093400X0.640100*%
%ADD19R,1.467100X3.156800*%
%ADD20R,1.411200X1.411200*%
%ADD21C,1.411200*%
%ADD22R,1.711200X1.711200*%
%ADD23C,2.903200*%
%ADD24C,4.019200*%
%ADD25C,4.319200*%
%ADD26C,3.869200*%
%ADD27C,1.988200*%
%ADD28C,3.403200*%
%ADD29R,2.203200X2.703200*%
%ADD30R,2.403200X2.703200*%
%ADD31R,3.003200X2.703200*%
%ADD32C,1.903200*%
%ADD33C,2.303200*%
%ADD34C,2.228200*%
%ADD35C,3.609200*%
%ADD36R,2.528200X2.528200*%
%ADD37C,2.603200*%
%ADD38C,1.853200*%
%ADD39C,3.203200*%
%ADD40C,1.575700*%
%ADD41R,0.953200X1.103200*%
%ADD42R,1.367800X2.018500*%
%ADD43C,1.611200*%
%ADD44P,1.74395X8X112.5*%
%ADD45R,1.611200X1.611200*%
%ADD46R,1.511200X1.511200*%
%ADD47C,1.511200*%
%ADD48C,1.879600*%
%ADD49R,2.256200X0.807700*%
%ADD50C,2.153200*%
%ADD51R,2.018500X1.367800*%
%ADD52R,1.975100X1.434600*%
%ADD53R,2.153200X2.153200*%
%ADD54C,4.203200*%
%ADD55R,2.171200X0.804700*%
%ADD56P,3.70091X8X22.5*%
%ADD57R,1.103200X0.953200*%
%ADD58C,2.387600*%
%ADD59P,2.58431X8X22.5*%
%ADD60R,1.234400X1.623400*%
%ADD61C,2.453200*%
%ADD62R,1.434700X2.052300*%
%ADD63R,1.315000X0.803400*%
%ADD64R,1.426700X0.828000*%
%ADD65R,1.623400X1.234400*%
%ADD66R,2.403200X0.853200*%
%ADD67C,1.203200*%
%ADD68C,0.959600*%
D10*
X1193800Y330200D03*
X1145540Y1558290D03*
X114300Y1155700D03*
X114300Y266700D03*
X762000Y152400D03*
X1065530Y1167130D03*
D11*
X50800Y990600D03*
D12*
X50800Y965200D03*
X50800Y939800D03*
X50800Y914400D03*
X50800Y889000D03*
D11*
X50800Y777240D03*
D12*
X50800Y751840D03*
X50800Y726440D03*
X50800Y701040D03*
X50800Y675640D03*
D13*
X560070Y739626D03*
X560070Y769134D03*
X821690Y1278106D03*
X821690Y1307614D03*
D14*
X850900Y1245839D03*
X850900Y1177321D03*
D15*
X971550Y1263997D03*
X971550Y1176943D03*
D16*
X1151106Y769620D03*
X1180614Y769620D03*
X1152376Y480060D03*
X1181884Y480060D03*
X525294Y768350D03*
X495786Y768350D03*
D17*
X732821Y819150D03*
X801339Y819150D03*
D13*
X598170Y739626D03*
X598170Y769134D03*
D14*
X701040Y751809D03*
X701040Y683291D03*
D18*
X1119147Y1320800D03*
X1095733Y1320800D03*
D19*
X987852Y495300D03*
X1018748Y495300D03*
X848152Y495300D03*
X879048Y495300D03*
X708452Y495300D03*
X739348Y495300D03*
X568752Y495300D03*
X599648Y495300D03*
X429052Y495300D03*
X459948Y495300D03*
X289352Y495300D03*
X320248Y495300D03*
D20*
X1129030Y251460D03*
D21*
X1129030Y276860D03*
X1129030Y302260D03*
X1129030Y327660D03*
X1129030Y353060D03*
X1129030Y378460D03*
X1129030Y403860D03*
X1129030Y429260D03*
X1129030Y454660D03*
X1129030Y480060D03*
X1052830Y480060D03*
X1052830Y454660D03*
X1052830Y429260D03*
X1052830Y403860D03*
X1052830Y378460D03*
X1052830Y353060D03*
X1052830Y327660D03*
X1052830Y302260D03*
X1052830Y276860D03*
X1052830Y251460D03*
D22*
X336700Y970600D03*
X362100Y970600D03*
X387500Y970600D03*
X412900Y970600D03*
X438300Y970600D03*
X463700Y970600D03*
X489100Y970600D03*
X514500Y970600D03*
X539900Y970600D03*
X565300Y970600D03*
X590700Y970600D03*
X616100Y970600D03*
X641500Y970600D03*
X666900Y970600D03*
X692300Y970600D03*
X717700Y970600D03*
D23*
X1041700Y965600D03*
X291700Y965600D03*
X1041700Y655600D03*
X291700Y655600D03*
D24*
X1066800Y1532910D03*
D25*
X1066800Y1472410D03*
D26*
X1019800Y1502410D03*
D24*
X927100Y1532910D03*
D25*
X927100Y1472410D03*
D26*
X880100Y1502410D03*
D27*
X258700Y1489710D03*
X286400Y1489710D03*
X314100Y1489710D03*
X341800Y1489710D03*
X369500Y1489710D03*
X397200Y1489710D03*
X424900Y1489710D03*
X452600Y1489710D03*
X480300Y1489710D03*
X508000Y1489710D03*
X535700Y1489710D03*
X563400Y1489710D03*
X591100Y1489710D03*
X618800Y1489710D03*
X646500Y1489710D03*
X674200Y1489710D03*
X701900Y1489710D03*
X729600Y1489710D03*
X757300Y1489710D03*
X272550Y1518110D03*
X300250Y1518110D03*
X327950Y1518110D03*
X355650Y1518110D03*
X383350Y1518110D03*
X411050Y1518110D03*
X438750Y1518110D03*
X466450Y1518110D03*
X494150Y1518110D03*
X521850Y1518110D03*
X549550Y1518110D03*
X577250Y1518110D03*
X604950Y1518110D03*
X632650Y1518110D03*
X660350Y1518110D03*
X688050Y1518110D03*
X715750Y1518110D03*
X743450Y1518110D03*
D28*
X190500Y1503910D03*
X825500Y1503910D03*
D29*
X1305960Y771800D03*
D30*
X1277960Y771800D03*
X1296960Y853800D03*
D29*
X1324960Y853800D03*
D31*
X1202960Y853800D03*
D32*
X1285960Y812800D03*
X1215960Y812800D03*
D33*
X1317930Y1279760D03*
X1317930Y1229760D03*
D34*
X1217930Y1329810D03*
X1193030Y1304810D03*
X1217930Y1254760D03*
X1193030Y1204710D03*
X1217930Y1179710D03*
D35*
X1268030Y1329810D03*
X1268030Y1179710D03*
D36*
X1252220Y1052190D03*
D37*
X1252220Y1012190D03*
X1252220Y972190D03*
D38*
X1202220Y1012190D03*
D39*
X1302220Y1012190D03*
D40*
X1121410Y1292860D03*
X1096010Y1292860D03*
X1096010Y1216660D03*
X1121410Y1216660D03*
D41*
X206400Y1301062D03*
X225400Y1301062D03*
X215900Y1322758D03*
X663600Y1301062D03*
X682600Y1301062D03*
X673100Y1322758D03*
X714400Y1301062D03*
X733400Y1301062D03*
X723900Y1322758D03*
X765200Y1301062D03*
X784200Y1301062D03*
X774700Y1322758D03*
X231800Y1402662D03*
X250800Y1402662D03*
X241300Y1424358D03*
X282600Y1402662D03*
X301600Y1402662D03*
X292100Y1424358D03*
X333400Y1402662D03*
X352400Y1402662D03*
X342900Y1424358D03*
X384200Y1402662D03*
X403200Y1402662D03*
X393700Y1424358D03*
X435000Y1402662D03*
X454000Y1402662D03*
X444500Y1424358D03*
X485800Y1402662D03*
X504800Y1402662D03*
X495300Y1424358D03*
X536600Y1402662D03*
X555600Y1402662D03*
X546100Y1424358D03*
X257200Y1301062D03*
X276200Y1301062D03*
X266700Y1322758D03*
X587400Y1402662D03*
X606400Y1402662D03*
X596900Y1424358D03*
X638200Y1402662D03*
X657200Y1402662D03*
X647700Y1424358D03*
X689000Y1402662D03*
X708000Y1402662D03*
X698500Y1424358D03*
X739800Y1402662D03*
X758800Y1402662D03*
X749300Y1424358D03*
X790600Y1402662D03*
X809600Y1402662D03*
X800100Y1424358D03*
X308000Y1301062D03*
X327000Y1301062D03*
X317500Y1322758D03*
X358800Y1301062D03*
X377800Y1301062D03*
X368300Y1322758D03*
X409600Y1301062D03*
X428600Y1301062D03*
X419100Y1322758D03*
X460400Y1301062D03*
X479400Y1301062D03*
X469900Y1322758D03*
X511200Y1301062D03*
X530200Y1301062D03*
X520700Y1322758D03*
X562000Y1301062D03*
X581000Y1301062D03*
X571500Y1322758D03*
X612800Y1301062D03*
X631800Y1301062D03*
X622300Y1322758D03*
D42*
X290046Y101600D03*
X319554Y101600D03*
D43*
X203200Y584200D03*
X203200Y609600D03*
X203200Y635000D03*
X203200Y660400D03*
X203200Y685800D03*
X203200Y711200D03*
X203200Y736600D03*
X203200Y762000D03*
X203200Y787400D03*
X203200Y812800D03*
X203200Y838200D03*
X203200Y863600D03*
X203200Y889000D03*
X203200Y914400D03*
X203200Y939800D03*
X228600Y939800D03*
X228600Y914400D03*
X228600Y889000D03*
X228600Y863600D03*
X228600Y838200D03*
X228600Y812800D03*
X228600Y787400D03*
X228600Y762000D03*
X228600Y736600D03*
X228600Y711200D03*
X228600Y685800D03*
X228600Y660400D03*
X228600Y635000D03*
X228600Y609600D03*
X228600Y584200D03*
X482600Y558800D03*
X457200Y558800D03*
X431800Y558800D03*
X406400Y558800D03*
X381000Y558800D03*
X355600Y558800D03*
X330200Y558800D03*
X304800Y558800D03*
X711200Y558800D03*
X685800Y558800D03*
X660400Y558800D03*
X635000Y558800D03*
X609600Y558800D03*
X584200Y558800D03*
X558800Y558800D03*
X533400Y558800D03*
D44*
X927100Y558800D03*
D45*
X901700Y558800D03*
D43*
X876300Y558800D03*
X850900Y558800D03*
X825500Y558800D03*
X800100Y558800D03*
X774700Y558800D03*
X749300Y558800D03*
X431800Y1041400D03*
X406400Y1041400D03*
X381000Y1041400D03*
X355600Y1041400D03*
X330200Y1041400D03*
X304800Y1041400D03*
X279400Y1041400D03*
X254000Y1041400D03*
X660400Y1041400D03*
X635000Y1041400D03*
X609600Y1041400D03*
X584200Y1041400D03*
X558800Y1041400D03*
X533400Y1041400D03*
X508000Y1041400D03*
X482600Y1041400D03*
X889000Y1041400D03*
D44*
X863600Y1041400D03*
D43*
X838200Y1041400D03*
D44*
X812800Y1041400D03*
X787400Y1041400D03*
D45*
X762000Y1041400D03*
X736600Y1041400D03*
D44*
X711200Y1041400D03*
D43*
X977900Y558800D03*
X952500Y558800D03*
D44*
X203200Y558800D03*
X228600Y558800D03*
D45*
X203200Y990600D03*
X228600Y990600D03*
D43*
X228600Y965200D03*
X203200Y965200D03*
D38*
X777600Y299200D03*
X777600Y234200D03*
X822600Y299200D03*
X822600Y234200D03*
D46*
X771100Y266700D03*
D47*
X829100Y266700D03*
D38*
X472800Y299200D03*
X472800Y234200D03*
X517800Y299200D03*
X517800Y234200D03*
D46*
X466300Y266700D03*
D47*
X524300Y266700D03*
D38*
X625200Y451600D03*
X625200Y386600D03*
X670200Y451600D03*
X670200Y386600D03*
D46*
X618700Y419100D03*
D47*
X676700Y419100D03*
D38*
X625200Y146800D03*
X625200Y81800D03*
X670200Y146800D03*
X670200Y81800D03*
D46*
X618700Y114300D03*
D47*
X676700Y114300D03*
D48*
X124100Y1313700D03*
X124100Y1378700D03*
D49*
X1016817Y289560D03*
X1016817Y302260D03*
X1016817Y314960D03*
X1016817Y327660D03*
X1016817Y340360D03*
X1016817Y353060D03*
X1016817Y365760D03*
X1016817Y378460D03*
X1016817Y391160D03*
X1016817Y403860D03*
X1016817Y416560D03*
X1016817Y429260D03*
X923743Y429260D03*
X923743Y416560D03*
X923743Y403860D03*
X923743Y391160D03*
X923743Y378460D03*
X923743Y365760D03*
X923743Y353060D03*
X923743Y340360D03*
X923743Y327660D03*
X923743Y314960D03*
X923743Y302260D03*
X923743Y289560D03*
D50*
X1291590Y664210D03*
X1291590Y613410D03*
X1291590Y562610D03*
D42*
X230654Y1273810D03*
X201146Y1273810D03*
X281454Y1273810D03*
X251946Y1273810D03*
X332254Y1273810D03*
X302746Y1273810D03*
X383054Y1273810D03*
X353546Y1273810D03*
X433854Y1273810D03*
X404346Y1273810D03*
X484654Y1273810D03*
X455146Y1273810D03*
X586254Y1273810D03*
X556746Y1273810D03*
X535454Y1273810D03*
X505946Y1273810D03*
X637054Y1273810D03*
X607546Y1273810D03*
X687854Y1273810D03*
X658346Y1273810D03*
X738654Y1273810D03*
X709146Y1273810D03*
X789454Y1273810D03*
X759946Y1273810D03*
X814854Y1375410D03*
X785346Y1375410D03*
X764054Y1375410D03*
X734546Y1375410D03*
X713254Y1375410D03*
X683746Y1375410D03*
X662454Y1375410D03*
X632946Y1375410D03*
X611654Y1375410D03*
X582146Y1375410D03*
X560854Y1375410D03*
X531346Y1375410D03*
X510054Y1375410D03*
X480546Y1375410D03*
X459254Y1375410D03*
X429746Y1375410D03*
X408454Y1375410D03*
X378946Y1375410D03*
X357654Y1375410D03*
X328146Y1375410D03*
X306854Y1375410D03*
X277346Y1375410D03*
X256054Y1375410D03*
X226546Y1375410D03*
X1136164Y1018540D03*
X1106656Y1018540D03*
D51*
X1173480Y1008866D03*
X1173480Y1038374D03*
D37*
X1290004Y1396510D03*
X1155004Y1396510D03*
X1290004Y1430510D03*
X1155004Y1430510D03*
D52*
X546100Y255960D03*
X546100Y226640D03*
X850900Y255960D03*
X850900Y226640D03*
X698500Y408360D03*
X698500Y379040D03*
X698500Y103560D03*
X698500Y74240D03*
D53*
X380600Y215100D03*
X355600Y115100D03*
X330600Y215100D03*
D54*
X355600Y165100D03*
D53*
X203600Y115100D03*
X228600Y215100D03*
X253600Y115100D03*
D54*
X228600Y165100D03*
D13*
X388620Y1126004D03*
X388620Y1096496D03*
X353060Y1126004D03*
X353060Y1096496D03*
X640080Y1132354D03*
X640080Y1102846D03*
X604520Y1132354D03*
X604520Y1102846D03*
D38*
X625200Y299200D03*
X625200Y234200D03*
X670200Y299200D03*
X670200Y234200D03*
D46*
X618700Y266700D03*
D47*
X676700Y266700D03*
D52*
X698500Y255960D03*
X698500Y226640D03*
D55*
X949255Y695960D03*
X949255Y708660D03*
X949255Y721360D03*
X949255Y734060D03*
X899865Y734060D03*
X899865Y721360D03*
X899865Y708660D03*
X899865Y695960D03*
D51*
X822960Y700256D03*
X822960Y729764D03*
D13*
X855980Y760244D03*
X855980Y730736D03*
D16*
X883136Y777240D03*
X912644Y777240D03*
D51*
X934720Y754866D03*
X934720Y784374D03*
D17*
X882681Y843280D03*
X951199Y843280D03*
D42*
X957094Y927100D03*
X927586Y927100D03*
D13*
X861060Y708174D03*
X861060Y678666D03*
D32*
X1295380Y443230D03*
X1295380Y468230D03*
X1295380Y418230D03*
D56*
X1262380Y495230D03*
X1262380Y391230D03*
D16*
X504676Y457200D03*
X534184Y457200D03*
D13*
X577850Y117326D03*
X577850Y146834D03*
D57*
X932868Y1368450D03*
X932868Y1387450D03*
X911172Y1377950D03*
D58*
X894080Y1398270D03*
X894080Y1322070D03*
D59*
X995680Y1398270D03*
D58*
X1071880Y1398270D03*
X1046480Y1322070D03*
D60*
X914095Y1344930D03*
X932485Y1344930D03*
X977849Y596900D03*
X996239Y596900D03*
X952551Y596900D03*
X934161Y596900D03*
D61*
X1165057Y1485277D02*
X1165057Y1507777D01*
X1215857Y1507777D02*
X1215857Y1485277D01*
D62*
X861060Y1344148D03*
X861060Y1376192D03*
D63*
X812900Y1110009D03*
X812900Y1129009D03*
X787300Y1119509D03*
D64*
X787159Y1165200D03*
X787159Y1146200D03*
X808439Y1155700D03*
D60*
X849935Y1148080D03*
X831545Y1148080D03*
D65*
X849630Y1129335D03*
X849630Y1110945D03*
D66*
X199161Y1202690D03*
X199161Y1189990D03*
X199161Y1177290D03*
X199161Y1164590D03*
X199161Y1151890D03*
X199161Y1139190D03*
X199161Y1126490D03*
X199161Y1113790D03*
X199161Y1101090D03*
X199161Y1088390D03*
X293599Y1088390D03*
X293599Y1101090D03*
X293599Y1113790D03*
X293599Y1126490D03*
X293599Y1139190D03*
X293599Y1151890D03*
X293599Y1164590D03*
X293599Y1177290D03*
X293599Y1189990D03*
X293599Y1202690D03*
X439191Y1202690D03*
X439191Y1189990D03*
X439191Y1177290D03*
X439191Y1164590D03*
X439191Y1151890D03*
X439191Y1139190D03*
X439191Y1126490D03*
X439191Y1113790D03*
X439191Y1101090D03*
X439191Y1088390D03*
X533629Y1088390D03*
X533629Y1101090D03*
X533629Y1113790D03*
X533629Y1126490D03*
X533629Y1139190D03*
X533629Y1151890D03*
X533629Y1164590D03*
X533629Y1177290D03*
X533629Y1189990D03*
X533629Y1202690D03*
D67*
X977900Y533400D03*
X952500Y533400D03*
X1092200Y534670D03*
X977900Y1092200D03*
X861060Y1283970D03*
X393700Y368300D03*
X393700Y355600D03*
X393700Y381000D03*
X406400Y368300D03*
X381000Y368300D03*
X205740Y1346200D03*
X257810Y1346200D03*
X308610Y1346200D03*
X359410Y1346200D03*
X410210Y1346200D03*
X461010Y1346200D03*
X511810Y1346200D03*
X562610Y1346200D03*
X613410Y1346200D03*
X662940Y1346200D03*
X715010Y1346200D03*
X765810Y1346200D03*
X241300Y1346200D03*
X292100Y1346200D03*
X342900Y1346200D03*
X393700Y1346200D03*
X444500Y1346200D03*
X495300Y1346200D03*
X546100Y1346200D03*
X596900Y1346200D03*
X647700Y1346200D03*
X698500Y1346200D03*
X749300Y1346200D03*
X800100Y1346200D03*
X201930Y1256030D03*
X251460Y1256030D03*
X303530Y1256030D03*
X354330Y1256030D03*
X405130Y1256030D03*
X455930Y1256030D03*
X506730Y1256030D03*
X557530Y1256030D03*
X608330Y1256030D03*
X659130Y1256030D03*
X709930Y1256030D03*
X760730Y1256030D03*
X233680Y1223010D03*
X284480Y1223010D03*
X335280Y1223010D03*
X386080Y1220470D03*
X436880Y1220470D03*
X487680Y1220470D03*
X546194Y1220470D03*
X596900Y1220470D03*
X645160Y1220470D03*
X690880Y1220470D03*
X741680Y1220470D03*
X792480Y1220470D03*
X172720Y1266190D03*
X336550Y1179830D03*
X554990Y1155700D03*
X647700Y1188720D03*
X339090Y1155700D03*
X417830Y1187450D03*
X594360Y1188720D03*
X726440Y1205230D03*
X279400Y1066800D03*
X330200Y1066800D03*
X558800Y1066800D03*
X609600Y1066800D03*
X304800Y1066800D03*
X355600Y1066800D03*
X584200Y1066800D03*
X635000Y1066800D03*
X1143000Y1333500D03*
X1143000Y1308100D03*
X1193800Y1117600D03*
X1206500Y1117600D03*
X1181100Y1117600D03*
X1143000Y685800D03*
X1168400Y685800D03*
X1181100Y685800D03*
X1130300Y685800D03*
X1155700Y685800D03*
X1079500Y774700D03*
X927100Y228600D03*
X901700Y228600D03*
X889000Y228600D03*
X914400Y228600D03*
X939800Y228600D03*
X413004Y1005840D03*
X438404Y1005840D03*
X463804Y1005840D03*
X489204Y1005840D03*
X514350Y1005840D03*
X540004Y1005840D03*
X565277Y1005840D03*
X590804Y1005840D03*
X616204Y1005840D03*
X641604Y1005840D03*
X774700Y1132840D03*
X889000Y1102360D03*
X889000Y1121410D03*
X667004Y1005840D03*
X387477Y1005840D03*
X664210Y1022350D03*
X1079500Y736600D03*
X1219200Y1117600D03*
X88900Y889000D03*
X88900Y914400D03*
X88900Y939800D03*
X88900Y675640D03*
X88900Y701040D03*
X88900Y726440D03*
X50800Y857250D03*
X78740Y1270000D03*
X861060Y1409700D03*
X861060Y1426210D03*
X812800Y1023620D03*
X1155700Y1358900D03*
D68*
X491490Y739140D03*
X504190Y739140D03*
X516890Y739140D03*
X706120Y819150D03*
X689610Y819150D03*
X998220Y1092200D03*
X609600Y1117600D03*
X358140Y1111250D03*
X932180Y270510D03*
X1022350Y596900D03*
X910590Y596900D03*
X342900Y520700D03*
X1041400Y520700D03*
X901700Y520700D03*
X762000Y520700D03*
X622300Y520700D03*
X482600Y520700D03*
X825500Y1435100D03*
X965200Y901700D03*
X1028700Y901700D03*
X952500Y901700D03*
X1041400Y901700D03*
X1111250Y1056640D03*
X880110Y721360D03*
X701040Y788670D03*
X701040Y777240D03*
X826770Y1129030D03*
X797560Y1104900D03*
X800100Y1003300D03*
X622300Y838200D03*
X622300Y850900D03*
X497840Y1173480D03*
X514350Y1202690D03*
X452120Y1211580D03*
X264160Y1202690D03*
X1092200Y520700D03*
X383540Y1111250D03*
X635000Y1117600D03*
X252730Y1391920D03*
X303530Y1391920D03*
X354330Y1391920D03*
X405130Y1391920D03*
X455930Y1391920D03*
X506730Y1391920D03*
X557530Y1391920D03*
X608330Y1391920D03*
X659130Y1391920D03*
X709930Y1391920D03*
X760730Y1391920D03*
X811530Y1391920D03*
X786130Y1290320D03*
X684530Y1290320D03*
X633730Y1290320D03*
X532130Y1290320D03*
X481330Y1290320D03*
X379730Y1290320D03*
X328930Y1290320D03*
X227330Y1290320D03*
X440690Y732282D03*
X440690Y758698D03*
X449580Y758698D03*
X458470Y758698D03*
X458470Y745490D03*
X458470Y732282D03*
X449580Y732282D03*
X449580Y745490D03*
X1008380Y266700D03*
X509270Y762000D03*
X509270Y774700D03*
X572770Y787400D03*
X585470Y787400D03*
X496570Y685800D03*
X509270Y685800D03*
X1252220Y765810D03*
X1321054Y828040D03*
X1321054Y878840D03*
X1104900Y857250D03*
X278356Y1290320D03*
X440690Y745490D03*
X966470Y708660D03*
X932180Y734060D03*
X932180Y708660D03*
X966470Y734060D03*
X711200Y1082040D03*
X711200Y1066800D03*
X736600Y1082040D03*
X736600Y1066800D03*
X762000Y1066800D03*
X762000Y1082040D03*
X795020Y1082040D03*
X795020Y1066800D03*
X825500Y1066800D03*
X825500Y1082040D03*
X850900Y1082040D03*
X850900Y1066800D03*
X889000Y1082040D03*
X889000Y1066800D03*
X924560Y1059180D03*
X901700Y1054100D03*
X919480Y1028700D03*
X934720Y1028700D03*
X919480Y952500D03*
X934720Y952500D03*
X919480Y977900D03*
X934720Y977900D03*
X919480Y1003300D03*
X934720Y1003300D03*
X1196340Y480060D03*
X1209040Y480060D03*
X836930Y678180D03*
X822960Y685800D03*
X972820Y927100D03*
X488950Y457200D03*
X829310Y819150D03*
X842010Y819150D03*
X882650Y1177290D03*
X937260Y1177290D03*
X918210Y1365250D03*
X681990Y683260D03*
X720090Y683260D03*
X467360Y1173480D03*
X515620Y1151890D03*
X457200Y1088390D03*
X421640Y1088390D03*
X218440Y1088390D03*
X180340Y1088390D03*
X229870Y1149350D03*
X218440Y1202690D03*
X179070Y1202690D03*
X430756Y1290320D03*
X583156Y1290320D03*
X735556Y1290320D03*
X821690Y1332230D03*
X821690Y1320800D03*
X274320Y1151890D03*
X622300Y1016000D03*
X142240Y673100D03*
X989330Y353060D03*
X861060Y345440D03*
X876300Y289560D03*
X976630Y340360D03*
X873606Y331624D03*
X889000Y297180D03*
X963930Y327660D03*
X892810Y327660D03*
X900430Y304800D03*
X241300Y355600D03*
X1257300Y574040D03*
X1271270Y688340D03*
X1197610Y685800D03*
X175260Y482600D03*
X311150Y355600D03*
X368300Y311432D03*
X279400Y546100D03*
X241300Y546100D03*
X593090Y400050D03*
X533400Y400050D03*
X441960Y381000D03*
X736600Y355600D03*
X263878Y486410D03*
X472440Y368300D03*
X266700Y444500D03*
X654050Y1085850D03*
X977900Y622300D03*
X838200Y1016000D03*
X275590Y1189990D03*
X514350Y1189990D03*
X641350Y1079500D03*
X952500Y622300D03*
X863600Y1009650D03*
X514350Y1177290D03*
X275590Y1177290D03*
X532130Y586514D03*
X1188720Y792480D03*
X584200Y279400D03*
X490220Y1113790D03*
X513080Y1113790D03*
X185420Y1266190D03*
X349396Y1179830D03*
X554990Y1144270D03*
X647700Y1177290D03*
X737870Y1205230D03*
X417830Y1176020D03*
X594360Y1177290D03*
X327660Y1155700D03*
X1143000Y1358900D03*
X1206500Y1104900D03*
X1129030Y999490D03*
X1153160Y1018540D03*
X1127760Y1047750D03*
X1153160Y1098550D03*
X1193800Y1104900D03*
X1301750Y751840D03*
X1173480Y853694D03*
X1191260Y736600D03*
X1173480Y789940D03*
X1254760Y748030D03*
X1130300Y699770D03*
X1150620Y826284D03*
X963930Y416560D03*
X939800Y314960D03*
X228600Y381000D03*
X267236Y615950D03*
X381000Y302260D03*
X322580Y372110D03*
X604520Y323850D03*
X393700Y320040D03*
X406400Y355600D03*
X859211Y1074420D03*
X926978Y1326002D03*
X266700Y1239520D03*
X257810Y1239520D03*
X275288Y1239218D03*
X215900Y1239520D03*
X224790Y1239520D03*
X207010Y1239520D03*
X368300Y1239520D03*
X359410Y1239520D03*
X377190Y1239520D03*
X419100Y1239520D03*
X410210Y1239520D03*
X427990Y1239520D03*
X520700Y1239520D03*
X529590Y1239520D03*
X511810Y1239520D03*
X571500Y1239520D03*
X580390Y1239520D03*
X562610Y1239520D03*
X673100Y1239520D03*
X681990Y1239520D03*
X664210Y1239520D03*
X723900Y1239520D03*
X732790Y1239520D03*
X715010Y1239520D03*
X821690Y1252220D03*
X821690Y1263650D03*
X850900Y1273810D03*
X850900Y1215390D03*
X955040Y1270000D03*
X955040Y1257300D03*
X808990Y1146810D03*
X835660Y1111250D03*
X274320Y1139190D03*
X515620Y1139190D03*
M02*
