G04 EAGLE Gerber RS-274X export*
G75*
%MOMM*%
%FSLAX34Y34*%
%LPD*%
%INBoard Outline*%
%IPPOS*%
%AMOC8*
5,1,8,0,0,1.08239X$1,22.5*%
G01*
G04 Define Apertures*
%ADD10C,0.152400*%
%ADD11C,0.101600*%
%ADD12C,0.000000*%
%ADD13C,0.254000*%
D10*
X901700Y177800D02*
X749300Y25400D01*
D11*
X1117600Y1587500D02*
X152400Y1587500D01*
X25400Y1460500D01*
X25400Y101600D01*
X101600Y25400D01*
X749300Y25400D01*
D12*
X1178814Y330200D02*
X1178819Y330568D01*
X1178832Y330935D01*
X1178855Y331302D01*
X1178886Y331669D01*
X1178927Y332034D01*
X1178976Y332399D01*
X1179035Y332762D01*
X1179102Y333124D01*
X1179178Y333483D01*
X1179263Y333841D01*
X1179357Y334197D01*
X1179459Y334550D01*
X1179570Y334901D01*
X1179690Y335249D01*
X1179818Y335593D01*
X1179955Y335935D01*
X1180100Y336273D01*
X1180253Y336607D01*
X1180414Y336938D01*
X1180584Y337264D01*
X1180761Y337587D01*
X1180946Y337904D01*
X1181139Y338217D01*
X1181340Y338526D01*
X1181548Y338829D01*
X1181763Y339127D01*
X1181986Y339420D01*
X1182216Y339707D01*
X1182452Y339988D01*
X1182696Y340264D01*
X1182946Y340533D01*
X1183203Y340797D01*
X1183467Y341054D01*
X1183736Y341304D01*
X1184012Y341548D01*
X1184293Y341784D01*
X1184580Y342014D01*
X1184873Y342237D01*
X1185171Y342452D01*
X1185474Y342660D01*
X1185783Y342861D01*
X1186096Y343054D01*
X1186413Y343239D01*
X1186736Y343416D01*
X1187062Y343586D01*
X1187393Y343747D01*
X1187727Y343900D01*
X1188065Y344045D01*
X1188407Y344182D01*
X1188751Y344310D01*
X1189099Y344430D01*
X1189450Y344541D01*
X1189803Y344643D01*
X1190159Y344737D01*
X1190517Y344822D01*
X1190876Y344898D01*
X1191238Y344965D01*
X1191601Y345024D01*
X1191966Y345073D01*
X1192331Y345114D01*
X1192698Y345145D01*
X1193065Y345168D01*
X1193432Y345181D01*
X1193800Y345186D01*
X1194168Y345181D01*
X1194535Y345168D01*
X1194902Y345145D01*
X1195269Y345114D01*
X1195634Y345073D01*
X1195999Y345024D01*
X1196362Y344965D01*
X1196724Y344898D01*
X1197083Y344822D01*
X1197441Y344737D01*
X1197797Y344643D01*
X1198150Y344541D01*
X1198501Y344430D01*
X1198849Y344310D01*
X1199193Y344182D01*
X1199535Y344045D01*
X1199873Y343900D01*
X1200207Y343747D01*
X1200538Y343586D01*
X1200864Y343416D01*
X1201187Y343239D01*
X1201504Y343054D01*
X1201817Y342861D01*
X1202126Y342660D01*
X1202429Y342452D01*
X1202727Y342237D01*
X1203020Y342014D01*
X1203307Y341784D01*
X1203588Y341548D01*
X1203864Y341304D01*
X1204133Y341054D01*
X1204397Y340797D01*
X1204654Y340533D01*
X1204904Y340264D01*
X1205148Y339988D01*
X1205384Y339707D01*
X1205614Y339420D01*
X1205837Y339127D01*
X1206052Y338829D01*
X1206260Y338526D01*
X1206461Y338217D01*
X1206654Y337904D01*
X1206839Y337587D01*
X1207016Y337264D01*
X1207186Y336938D01*
X1207347Y336607D01*
X1207500Y336273D01*
X1207645Y335935D01*
X1207782Y335593D01*
X1207910Y335249D01*
X1208030Y334901D01*
X1208141Y334550D01*
X1208243Y334197D01*
X1208337Y333841D01*
X1208422Y333483D01*
X1208498Y333124D01*
X1208565Y332762D01*
X1208624Y332399D01*
X1208673Y332034D01*
X1208714Y331669D01*
X1208745Y331302D01*
X1208768Y330935D01*
X1208781Y330568D01*
X1208786Y330200D01*
X1208781Y329832D01*
X1208768Y329465D01*
X1208745Y329098D01*
X1208714Y328731D01*
X1208673Y328366D01*
X1208624Y328001D01*
X1208565Y327638D01*
X1208498Y327276D01*
X1208422Y326917D01*
X1208337Y326559D01*
X1208243Y326203D01*
X1208141Y325850D01*
X1208030Y325499D01*
X1207910Y325151D01*
X1207782Y324807D01*
X1207645Y324465D01*
X1207500Y324127D01*
X1207347Y323793D01*
X1207186Y323462D01*
X1207016Y323136D01*
X1206839Y322813D01*
X1206654Y322496D01*
X1206461Y322183D01*
X1206260Y321874D01*
X1206052Y321571D01*
X1205837Y321273D01*
X1205614Y320980D01*
X1205384Y320693D01*
X1205148Y320412D01*
X1204904Y320136D01*
X1204654Y319867D01*
X1204397Y319603D01*
X1204133Y319346D01*
X1203864Y319096D01*
X1203588Y318852D01*
X1203307Y318616D01*
X1203020Y318386D01*
X1202727Y318163D01*
X1202429Y317948D01*
X1202126Y317740D01*
X1201817Y317539D01*
X1201504Y317346D01*
X1201187Y317161D01*
X1200864Y316984D01*
X1200538Y316814D01*
X1200207Y316653D01*
X1199873Y316500D01*
X1199535Y316355D01*
X1199193Y316218D01*
X1198849Y316090D01*
X1198501Y315970D01*
X1198150Y315859D01*
X1197797Y315757D01*
X1197441Y315663D01*
X1197083Y315578D01*
X1196724Y315502D01*
X1196362Y315435D01*
X1195999Y315376D01*
X1195634Y315327D01*
X1195269Y315286D01*
X1194902Y315255D01*
X1194535Y315232D01*
X1194168Y315219D01*
X1193800Y315214D01*
X1193432Y315219D01*
X1193065Y315232D01*
X1192698Y315255D01*
X1192331Y315286D01*
X1191966Y315327D01*
X1191601Y315376D01*
X1191238Y315435D01*
X1190876Y315502D01*
X1190517Y315578D01*
X1190159Y315663D01*
X1189803Y315757D01*
X1189450Y315859D01*
X1189099Y315970D01*
X1188751Y316090D01*
X1188407Y316218D01*
X1188065Y316355D01*
X1187727Y316500D01*
X1187393Y316653D01*
X1187062Y316814D01*
X1186736Y316984D01*
X1186413Y317161D01*
X1186096Y317346D01*
X1185783Y317539D01*
X1185474Y317740D01*
X1185171Y317948D01*
X1184873Y318163D01*
X1184580Y318386D01*
X1184293Y318616D01*
X1184012Y318852D01*
X1183736Y319096D01*
X1183467Y319346D01*
X1183203Y319603D01*
X1182946Y319867D01*
X1182696Y320136D01*
X1182452Y320412D01*
X1182216Y320693D01*
X1181986Y320980D01*
X1181763Y321273D01*
X1181548Y321571D01*
X1181340Y321874D01*
X1181139Y322183D01*
X1180946Y322496D01*
X1180761Y322813D01*
X1180584Y323136D01*
X1180414Y323462D01*
X1180253Y323793D01*
X1180100Y324127D01*
X1179955Y324465D01*
X1179818Y324807D01*
X1179690Y325151D01*
X1179570Y325499D01*
X1179459Y325850D01*
X1179357Y326203D01*
X1179263Y326559D01*
X1179178Y326917D01*
X1179102Y327276D01*
X1179035Y327638D01*
X1178976Y328001D01*
X1178927Y328366D01*
X1178886Y328731D01*
X1178855Y329098D01*
X1178832Y329465D01*
X1178819Y329832D01*
X1178814Y330200D01*
X1130554Y1558290D02*
X1130559Y1558658D01*
X1130572Y1559025D01*
X1130595Y1559392D01*
X1130626Y1559759D01*
X1130667Y1560124D01*
X1130716Y1560489D01*
X1130775Y1560852D01*
X1130842Y1561214D01*
X1130918Y1561573D01*
X1131003Y1561931D01*
X1131097Y1562287D01*
X1131199Y1562640D01*
X1131310Y1562991D01*
X1131430Y1563339D01*
X1131558Y1563683D01*
X1131695Y1564025D01*
X1131840Y1564363D01*
X1131993Y1564697D01*
X1132154Y1565028D01*
X1132324Y1565354D01*
X1132501Y1565677D01*
X1132686Y1565994D01*
X1132879Y1566307D01*
X1133080Y1566616D01*
X1133288Y1566919D01*
X1133503Y1567217D01*
X1133726Y1567510D01*
X1133956Y1567797D01*
X1134192Y1568078D01*
X1134436Y1568354D01*
X1134686Y1568623D01*
X1134943Y1568887D01*
X1135207Y1569144D01*
X1135476Y1569394D01*
X1135752Y1569638D01*
X1136033Y1569874D01*
X1136320Y1570104D01*
X1136613Y1570327D01*
X1136911Y1570542D01*
X1137214Y1570750D01*
X1137523Y1570951D01*
X1137836Y1571144D01*
X1138153Y1571329D01*
X1138476Y1571506D01*
X1138802Y1571676D01*
X1139133Y1571837D01*
X1139467Y1571990D01*
X1139805Y1572135D01*
X1140147Y1572272D01*
X1140491Y1572400D01*
X1140839Y1572520D01*
X1141190Y1572631D01*
X1141543Y1572733D01*
X1141899Y1572827D01*
X1142257Y1572912D01*
X1142616Y1572988D01*
X1142978Y1573055D01*
X1143341Y1573114D01*
X1143706Y1573163D01*
X1144071Y1573204D01*
X1144438Y1573235D01*
X1144805Y1573258D01*
X1145172Y1573271D01*
X1145540Y1573276D01*
X1145908Y1573271D01*
X1146275Y1573258D01*
X1146642Y1573235D01*
X1147009Y1573204D01*
X1147374Y1573163D01*
X1147739Y1573114D01*
X1148102Y1573055D01*
X1148464Y1572988D01*
X1148823Y1572912D01*
X1149181Y1572827D01*
X1149537Y1572733D01*
X1149890Y1572631D01*
X1150241Y1572520D01*
X1150589Y1572400D01*
X1150933Y1572272D01*
X1151275Y1572135D01*
X1151613Y1571990D01*
X1151947Y1571837D01*
X1152278Y1571676D01*
X1152604Y1571506D01*
X1152927Y1571329D01*
X1153244Y1571144D01*
X1153557Y1570951D01*
X1153866Y1570750D01*
X1154169Y1570542D01*
X1154467Y1570327D01*
X1154760Y1570104D01*
X1155047Y1569874D01*
X1155328Y1569638D01*
X1155604Y1569394D01*
X1155873Y1569144D01*
X1156137Y1568887D01*
X1156394Y1568623D01*
X1156644Y1568354D01*
X1156888Y1568078D01*
X1157124Y1567797D01*
X1157354Y1567510D01*
X1157577Y1567217D01*
X1157792Y1566919D01*
X1158000Y1566616D01*
X1158201Y1566307D01*
X1158394Y1565994D01*
X1158579Y1565677D01*
X1158756Y1565354D01*
X1158926Y1565028D01*
X1159087Y1564697D01*
X1159240Y1564363D01*
X1159385Y1564025D01*
X1159522Y1563683D01*
X1159650Y1563339D01*
X1159770Y1562991D01*
X1159881Y1562640D01*
X1159983Y1562287D01*
X1160077Y1561931D01*
X1160162Y1561573D01*
X1160238Y1561214D01*
X1160305Y1560852D01*
X1160364Y1560489D01*
X1160413Y1560124D01*
X1160454Y1559759D01*
X1160485Y1559392D01*
X1160508Y1559025D01*
X1160521Y1558658D01*
X1160526Y1558290D01*
X1160521Y1557922D01*
X1160508Y1557555D01*
X1160485Y1557188D01*
X1160454Y1556821D01*
X1160413Y1556456D01*
X1160364Y1556091D01*
X1160305Y1555728D01*
X1160238Y1555366D01*
X1160162Y1555007D01*
X1160077Y1554649D01*
X1159983Y1554293D01*
X1159881Y1553940D01*
X1159770Y1553589D01*
X1159650Y1553241D01*
X1159522Y1552897D01*
X1159385Y1552555D01*
X1159240Y1552217D01*
X1159087Y1551883D01*
X1158926Y1551552D01*
X1158756Y1551226D01*
X1158579Y1550903D01*
X1158394Y1550586D01*
X1158201Y1550273D01*
X1158000Y1549964D01*
X1157792Y1549661D01*
X1157577Y1549363D01*
X1157354Y1549070D01*
X1157124Y1548783D01*
X1156888Y1548502D01*
X1156644Y1548226D01*
X1156394Y1547957D01*
X1156137Y1547693D01*
X1155873Y1547436D01*
X1155604Y1547186D01*
X1155328Y1546942D01*
X1155047Y1546706D01*
X1154760Y1546476D01*
X1154467Y1546253D01*
X1154169Y1546038D01*
X1153866Y1545830D01*
X1153557Y1545629D01*
X1153244Y1545436D01*
X1152927Y1545251D01*
X1152604Y1545074D01*
X1152278Y1544904D01*
X1151947Y1544743D01*
X1151613Y1544590D01*
X1151275Y1544445D01*
X1150933Y1544308D01*
X1150589Y1544180D01*
X1150241Y1544060D01*
X1149890Y1543949D01*
X1149537Y1543847D01*
X1149181Y1543753D01*
X1148823Y1543668D01*
X1148464Y1543592D01*
X1148102Y1543525D01*
X1147739Y1543466D01*
X1147374Y1543417D01*
X1147009Y1543376D01*
X1146642Y1543345D01*
X1146275Y1543322D01*
X1145908Y1543309D01*
X1145540Y1543304D01*
X1145172Y1543309D01*
X1144805Y1543322D01*
X1144438Y1543345D01*
X1144071Y1543376D01*
X1143706Y1543417D01*
X1143341Y1543466D01*
X1142978Y1543525D01*
X1142616Y1543592D01*
X1142257Y1543668D01*
X1141899Y1543753D01*
X1141543Y1543847D01*
X1141190Y1543949D01*
X1140839Y1544060D01*
X1140491Y1544180D01*
X1140147Y1544308D01*
X1139805Y1544445D01*
X1139467Y1544590D01*
X1139133Y1544743D01*
X1138802Y1544904D01*
X1138476Y1545074D01*
X1138153Y1545251D01*
X1137836Y1545436D01*
X1137523Y1545629D01*
X1137214Y1545830D01*
X1136911Y1546038D01*
X1136613Y1546253D01*
X1136320Y1546476D01*
X1136033Y1546706D01*
X1135752Y1546942D01*
X1135476Y1547186D01*
X1135207Y1547436D01*
X1134943Y1547693D01*
X1134686Y1547957D01*
X1134436Y1548226D01*
X1134192Y1548502D01*
X1133956Y1548783D01*
X1133726Y1549070D01*
X1133503Y1549363D01*
X1133288Y1549661D01*
X1133080Y1549964D01*
X1132879Y1550273D01*
X1132686Y1550586D01*
X1132501Y1550903D01*
X1132324Y1551226D01*
X1132154Y1551552D01*
X1131993Y1551883D01*
X1131840Y1552217D01*
X1131695Y1552555D01*
X1131558Y1552897D01*
X1131430Y1553241D01*
X1131310Y1553589D01*
X1131199Y1553940D01*
X1131097Y1554293D01*
X1131003Y1554649D01*
X1130918Y1555007D01*
X1130842Y1555366D01*
X1130775Y1555728D01*
X1130716Y1556091D01*
X1130667Y1556456D01*
X1130626Y1556821D01*
X1130595Y1557188D01*
X1130572Y1557555D01*
X1130559Y1557922D01*
X1130554Y1558290D01*
X99314Y1155700D02*
X99319Y1156068D01*
X99332Y1156435D01*
X99355Y1156802D01*
X99386Y1157169D01*
X99427Y1157534D01*
X99476Y1157899D01*
X99535Y1158262D01*
X99602Y1158624D01*
X99678Y1158983D01*
X99763Y1159341D01*
X99857Y1159697D01*
X99959Y1160050D01*
X100070Y1160401D01*
X100190Y1160749D01*
X100318Y1161093D01*
X100455Y1161435D01*
X100600Y1161773D01*
X100753Y1162107D01*
X100914Y1162438D01*
X101084Y1162764D01*
X101261Y1163087D01*
X101446Y1163404D01*
X101639Y1163717D01*
X101840Y1164026D01*
X102048Y1164329D01*
X102263Y1164627D01*
X102486Y1164920D01*
X102716Y1165207D01*
X102952Y1165488D01*
X103196Y1165764D01*
X103446Y1166033D01*
X103703Y1166297D01*
X103967Y1166554D01*
X104236Y1166804D01*
X104512Y1167048D01*
X104793Y1167284D01*
X105080Y1167514D01*
X105373Y1167737D01*
X105671Y1167952D01*
X105974Y1168160D01*
X106283Y1168361D01*
X106596Y1168554D01*
X106913Y1168739D01*
X107236Y1168916D01*
X107562Y1169086D01*
X107893Y1169247D01*
X108227Y1169400D01*
X108565Y1169545D01*
X108907Y1169682D01*
X109251Y1169810D01*
X109599Y1169930D01*
X109950Y1170041D01*
X110303Y1170143D01*
X110659Y1170237D01*
X111017Y1170322D01*
X111376Y1170398D01*
X111738Y1170465D01*
X112101Y1170524D01*
X112466Y1170573D01*
X112831Y1170614D01*
X113198Y1170645D01*
X113565Y1170668D01*
X113932Y1170681D01*
X114300Y1170686D01*
X114668Y1170681D01*
X115035Y1170668D01*
X115402Y1170645D01*
X115769Y1170614D01*
X116134Y1170573D01*
X116499Y1170524D01*
X116862Y1170465D01*
X117224Y1170398D01*
X117583Y1170322D01*
X117941Y1170237D01*
X118297Y1170143D01*
X118650Y1170041D01*
X119001Y1169930D01*
X119349Y1169810D01*
X119693Y1169682D01*
X120035Y1169545D01*
X120373Y1169400D01*
X120707Y1169247D01*
X121038Y1169086D01*
X121364Y1168916D01*
X121687Y1168739D01*
X122004Y1168554D01*
X122317Y1168361D01*
X122626Y1168160D01*
X122929Y1167952D01*
X123227Y1167737D01*
X123520Y1167514D01*
X123807Y1167284D01*
X124088Y1167048D01*
X124364Y1166804D01*
X124633Y1166554D01*
X124897Y1166297D01*
X125154Y1166033D01*
X125404Y1165764D01*
X125648Y1165488D01*
X125884Y1165207D01*
X126114Y1164920D01*
X126337Y1164627D01*
X126552Y1164329D01*
X126760Y1164026D01*
X126961Y1163717D01*
X127154Y1163404D01*
X127339Y1163087D01*
X127516Y1162764D01*
X127686Y1162438D01*
X127847Y1162107D01*
X128000Y1161773D01*
X128145Y1161435D01*
X128282Y1161093D01*
X128410Y1160749D01*
X128530Y1160401D01*
X128641Y1160050D01*
X128743Y1159697D01*
X128837Y1159341D01*
X128922Y1158983D01*
X128998Y1158624D01*
X129065Y1158262D01*
X129124Y1157899D01*
X129173Y1157534D01*
X129214Y1157169D01*
X129245Y1156802D01*
X129268Y1156435D01*
X129281Y1156068D01*
X129286Y1155700D01*
X129281Y1155332D01*
X129268Y1154965D01*
X129245Y1154598D01*
X129214Y1154231D01*
X129173Y1153866D01*
X129124Y1153501D01*
X129065Y1153138D01*
X128998Y1152776D01*
X128922Y1152417D01*
X128837Y1152059D01*
X128743Y1151703D01*
X128641Y1151350D01*
X128530Y1150999D01*
X128410Y1150651D01*
X128282Y1150307D01*
X128145Y1149965D01*
X128000Y1149627D01*
X127847Y1149293D01*
X127686Y1148962D01*
X127516Y1148636D01*
X127339Y1148313D01*
X127154Y1147996D01*
X126961Y1147683D01*
X126760Y1147374D01*
X126552Y1147071D01*
X126337Y1146773D01*
X126114Y1146480D01*
X125884Y1146193D01*
X125648Y1145912D01*
X125404Y1145636D01*
X125154Y1145367D01*
X124897Y1145103D01*
X124633Y1144846D01*
X124364Y1144596D01*
X124088Y1144352D01*
X123807Y1144116D01*
X123520Y1143886D01*
X123227Y1143663D01*
X122929Y1143448D01*
X122626Y1143240D01*
X122317Y1143039D01*
X122004Y1142846D01*
X121687Y1142661D01*
X121364Y1142484D01*
X121038Y1142314D01*
X120707Y1142153D01*
X120373Y1142000D01*
X120035Y1141855D01*
X119693Y1141718D01*
X119349Y1141590D01*
X119001Y1141470D01*
X118650Y1141359D01*
X118297Y1141257D01*
X117941Y1141163D01*
X117583Y1141078D01*
X117224Y1141002D01*
X116862Y1140935D01*
X116499Y1140876D01*
X116134Y1140827D01*
X115769Y1140786D01*
X115402Y1140755D01*
X115035Y1140732D01*
X114668Y1140719D01*
X114300Y1140714D01*
X113932Y1140719D01*
X113565Y1140732D01*
X113198Y1140755D01*
X112831Y1140786D01*
X112466Y1140827D01*
X112101Y1140876D01*
X111738Y1140935D01*
X111376Y1141002D01*
X111017Y1141078D01*
X110659Y1141163D01*
X110303Y1141257D01*
X109950Y1141359D01*
X109599Y1141470D01*
X109251Y1141590D01*
X108907Y1141718D01*
X108565Y1141855D01*
X108227Y1142000D01*
X107893Y1142153D01*
X107562Y1142314D01*
X107236Y1142484D01*
X106913Y1142661D01*
X106596Y1142846D01*
X106283Y1143039D01*
X105974Y1143240D01*
X105671Y1143448D01*
X105373Y1143663D01*
X105080Y1143886D01*
X104793Y1144116D01*
X104512Y1144352D01*
X104236Y1144596D01*
X103967Y1144846D01*
X103703Y1145103D01*
X103446Y1145367D01*
X103196Y1145636D01*
X102952Y1145912D01*
X102716Y1146193D01*
X102486Y1146480D01*
X102263Y1146773D01*
X102048Y1147071D01*
X101840Y1147374D01*
X101639Y1147683D01*
X101446Y1147996D01*
X101261Y1148313D01*
X101084Y1148636D01*
X100914Y1148962D01*
X100753Y1149293D01*
X100600Y1149627D01*
X100455Y1149965D01*
X100318Y1150307D01*
X100190Y1150651D01*
X100070Y1150999D01*
X99959Y1151350D01*
X99857Y1151703D01*
X99763Y1152059D01*
X99678Y1152417D01*
X99602Y1152776D01*
X99535Y1153138D01*
X99476Y1153501D01*
X99427Y1153866D01*
X99386Y1154231D01*
X99355Y1154598D01*
X99332Y1154965D01*
X99319Y1155332D01*
X99314Y1155700D01*
X99314Y266700D02*
X99319Y267068D01*
X99332Y267435D01*
X99355Y267802D01*
X99386Y268169D01*
X99427Y268534D01*
X99476Y268899D01*
X99535Y269262D01*
X99602Y269624D01*
X99678Y269983D01*
X99763Y270341D01*
X99857Y270697D01*
X99959Y271050D01*
X100070Y271401D01*
X100190Y271749D01*
X100318Y272093D01*
X100455Y272435D01*
X100600Y272773D01*
X100753Y273107D01*
X100914Y273438D01*
X101084Y273764D01*
X101261Y274087D01*
X101446Y274404D01*
X101639Y274717D01*
X101840Y275026D01*
X102048Y275329D01*
X102263Y275627D01*
X102486Y275920D01*
X102716Y276207D01*
X102952Y276488D01*
X103196Y276764D01*
X103446Y277033D01*
X103703Y277297D01*
X103967Y277554D01*
X104236Y277804D01*
X104512Y278048D01*
X104793Y278284D01*
X105080Y278514D01*
X105373Y278737D01*
X105671Y278952D01*
X105974Y279160D01*
X106283Y279361D01*
X106596Y279554D01*
X106913Y279739D01*
X107236Y279916D01*
X107562Y280086D01*
X107893Y280247D01*
X108227Y280400D01*
X108565Y280545D01*
X108907Y280682D01*
X109251Y280810D01*
X109599Y280930D01*
X109950Y281041D01*
X110303Y281143D01*
X110659Y281237D01*
X111017Y281322D01*
X111376Y281398D01*
X111738Y281465D01*
X112101Y281524D01*
X112466Y281573D01*
X112831Y281614D01*
X113198Y281645D01*
X113565Y281668D01*
X113932Y281681D01*
X114300Y281686D01*
X114668Y281681D01*
X115035Y281668D01*
X115402Y281645D01*
X115769Y281614D01*
X116134Y281573D01*
X116499Y281524D01*
X116862Y281465D01*
X117224Y281398D01*
X117583Y281322D01*
X117941Y281237D01*
X118297Y281143D01*
X118650Y281041D01*
X119001Y280930D01*
X119349Y280810D01*
X119693Y280682D01*
X120035Y280545D01*
X120373Y280400D01*
X120707Y280247D01*
X121038Y280086D01*
X121364Y279916D01*
X121687Y279739D01*
X122004Y279554D01*
X122317Y279361D01*
X122626Y279160D01*
X122929Y278952D01*
X123227Y278737D01*
X123520Y278514D01*
X123807Y278284D01*
X124088Y278048D01*
X124364Y277804D01*
X124633Y277554D01*
X124897Y277297D01*
X125154Y277033D01*
X125404Y276764D01*
X125648Y276488D01*
X125884Y276207D01*
X126114Y275920D01*
X126337Y275627D01*
X126552Y275329D01*
X126760Y275026D01*
X126961Y274717D01*
X127154Y274404D01*
X127339Y274087D01*
X127516Y273764D01*
X127686Y273438D01*
X127847Y273107D01*
X128000Y272773D01*
X128145Y272435D01*
X128282Y272093D01*
X128410Y271749D01*
X128530Y271401D01*
X128641Y271050D01*
X128743Y270697D01*
X128837Y270341D01*
X128922Y269983D01*
X128998Y269624D01*
X129065Y269262D01*
X129124Y268899D01*
X129173Y268534D01*
X129214Y268169D01*
X129245Y267802D01*
X129268Y267435D01*
X129281Y267068D01*
X129286Y266700D01*
X129281Y266332D01*
X129268Y265965D01*
X129245Y265598D01*
X129214Y265231D01*
X129173Y264866D01*
X129124Y264501D01*
X129065Y264138D01*
X128998Y263776D01*
X128922Y263417D01*
X128837Y263059D01*
X128743Y262703D01*
X128641Y262350D01*
X128530Y261999D01*
X128410Y261651D01*
X128282Y261307D01*
X128145Y260965D01*
X128000Y260627D01*
X127847Y260293D01*
X127686Y259962D01*
X127516Y259636D01*
X127339Y259313D01*
X127154Y258996D01*
X126961Y258683D01*
X126760Y258374D01*
X126552Y258071D01*
X126337Y257773D01*
X126114Y257480D01*
X125884Y257193D01*
X125648Y256912D01*
X125404Y256636D01*
X125154Y256367D01*
X124897Y256103D01*
X124633Y255846D01*
X124364Y255596D01*
X124088Y255352D01*
X123807Y255116D01*
X123520Y254886D01*
X123227Y254663D01*
X122929Y254448D01*
X122626Y254240D01*
X122317Y254039D01*
X122004Y253846D01*
X121687Y253661D01*
X121364Y253484D01*
X121038Y253314D01*
X120707Y253153D01*
X120373Y253000D01*
X120035Y252855D01*
X119693Y252718D01*
X119349Y252590D01*
X119001Y252470D01*
X118650Y252359D01*
X118297Y252257D01*
X117941Y252163D01*
X117583Y252078D01*
X117224Y252002D01*
X116862Y251935D01*
X116499Y251876D01*
X116134Y251827D01*
X115769Y251786D01*
X115402Y251755D01*
X115035Y251732D01*
X114668Y251719D01*
X114300Y251714D01*
X113932Y251719D01*
X113565Y251732D01*
X113198Y251755D01*
X112831Y251786D01*
X112466Y251827D01*
X112101Y251876D01*
X111738Y251935D01*
X111376Y252002D01*
X111017Y252078D01*
X110659Y252163D01*
X110303Y252257D01*
X109950Y252359D01*
X109599Y252470D01*
X109251Y252590D01*
X108907Y252718D01*
X108565Y252855D01*
X108227Y253000D01*
X107893Y253153D01*
X107562Y253314D01*
X107236Y253484D01*
X106913Y253661D01*
X106596Y253846D01*
X106283Y254039D01*
X105974Y254240D01*
X105671Y254448D01*
X105373Y254663D01*
X105080Y254886D01*
X104793Y255116D01*
X104512Y255352D01*
X104236Y255596D01*
X103967Y255846D01*
X103703Y256103D01*
X103446Y256367D01*
X103196Y256636D01*
X102952Y256912D01*
X102716Y257193D01*
X102486Y257480D01*
X102263Y257773D01*
X102048Y258071D01*
X101840Y258374D01*
X101639Y258683D01*
X101446Y258996D01*
X101261Y259313D01*
X101084Y259636D01*
X100914Y259962D01*
X100753Y260293D01*
X100600Y260627D01*
X100455Y260965D01*
X100318Y261307D01*
X100190Y261651D01*
X100070Y261999D01*
X99959Y262350D01*
X99857Y262703D01*
X99763Y263059D01*
X99678Y263417D01*
X99602Y263776D01*
X99535Y264138D01*
X99476Y264501D01*
X99427Y264866D01*
X99386Y265231D01*
X99355Y265598D01*
X99332Y265965D01*
X99319Y266332D01*
X99314Y266700D01*
X747014Y152400D02*
X747019Y152768D01*
X747032Y153135D01*
X747055Y153502D01*
X747086Y153869D01*
X747127Y154234D01*
X747176Y154599D01*
X747235Y154962D01*
X747302Y155324D01*
X747378Y155683D01*
X747463Y156041D01*
X747557Y156397D01*
X747659Y156750D01*
X747770Y157101D01*
X747890Y157449D01*
X748018Y157793D01*
X748155Y158135D01*
X748300Y158473D01*
X748453Y158807D01*
X748614Y159138D01*
X748784Y159464D01*
X748961Y159787D01*
X749146Y160104D01*
X749339Y160417D01*
X749540Y160726D01*
X749748Y161029D01*
X749963Y161327D01*
X750186Y161620D01*
X750416Y161907D01*
X750652Y162188D01*
X750896Y162464D01*
X751146Y162733D01*
X751403Y162997D01*
X751667Y163254D01*
X751936Y163504D01*
X752212Y163748D01*
X752493Y163984D01*
X752780Y164214D01*
X753073Y164437D01*
X753371Y164652D01*
X753674Y164860D01*
X753983Y165061D01*
X754296Y165254D01*
X754613Y165439D01*
X754936Y165616D01*
X755262Y165786D01*
X755593Y165947D01*
X755927Y166100D01*
X756265Y166245D01*
X756607Y166382D01*
X756951Y166510D01*
X757299Y166630D01*
X757650Y166741D01*
X758003Y166843D01*
X758359Y166937D01*
X758717Y167022D01*
X759076Y167098D01*
X759438Y167165D01*
X759801Y167224D01*
X760166Y167273D01*
X760531Y167314D01*
X760898Y167345D01*
X761265Y167368D01*
X761632Y167381D01*
X762000Y167386D01*
X762368Y167381D01*
X762735Y167368D01*
X763102Y167345D01*
X763469Y167314D01*
X763834Y167273D01*
X764199Y167224D01*
X764562Y167165D01*
X764924Y167098D01*
X765283Y167022D01*
X765641Y166937D01*
X765997Y166843D01*
X766350Y166741D01*
X766701Y166630D01*
X767049Y166510D01*
X767393Y166382D01*
X767735Y166245D01*
X768073Y166100D01*
X768407Y165947D01*
X768738Y165786D01*
X769064Y165616D01*
X769387Y165439D01*
X769704Y165254D01*
X770017Y165061D01*
X770326Y164860D01*
X770629Y164652D01*
X770927Y164437D01*
X771220Y164214D01*
X771507Y163984D01*
X771788Y163748D01*
X772064Y163504D01*
X772333Y163254D01*
X772597Y162997D01*
X772854Y162733D01*
X773104Y162464D01*
X773348Y162188D01*
X773584Y161907D01*
X773814Y161620D01*
X774037Y161327D01*
X774252Y161029D01*
X774460Y160726D01*
X774661Y160417D01*
X774854Y160104D01*
X775039Y159787D01*
X775216Y159464D01*
X775386Y159138D01*
X775547Y158807D01*
X775700Y158473D01*
X775845Y158135D01*
X775982Y157793D01*
X776110Y157449D01*
X776230Y157101D01*
X776341Y156750D01*
X776443Y156397D01*
X776537Y156041D01*
X776622Y155683D01*
X776698Y155324D01*
X776765Y154962D01*
X776824Y154599D01*
X776873Y154234D01*
X776914Y153869D01*
X776945Y153502D01*
X776968Y153135D01*
X776981Y152768D01*
X776986Y152400D01*
X776981Y152032D01*
X776968Y151665D01*
X776945Y151298D01*
X776914Y150931D01*
X776873Y150566D01*
X776824Y150201D01*
X776765Y149838D01*
X776698Y149476D01*
X776622Y149117D01*
X776537Y148759D01*
X776443Y148403D01*
X776341Y148050D01*
X776230Y147699D01*
X776110Y147351D01*
X775982Y147007D01*
X775845Y146665D01*
X775700Y146327D01*
X775547Y145993D01*
X775386Y145662D01*
X775216Y145336D01*
X775039Y145013D01*
X774854Y144696D01*
X774661Y144383D01*
X774460Y144074D01*
X774252Y143771D01*
X774037Y143473D01*
X773814Y143180D01*
X773584Y142893D01*
X773348Y142612D01*
X773104Y142336D01*
X772854Y142067D01*
X772597Y141803D01*
X772333Y141546D01*
X772064Y141296D01*
X771788Y141052D01*
X771507Y140816D01*
X771220Y140586D01*
X770927Y140363D01*
X770629Y140148D01*
X770326Y139940D01*
X770017Y139739D01*
X769704Y139546D01*
X769387Y139361D01*
X769064Y139184D01*
X768738Y139014D01*
X768407Y138853D01*
X768073Y138700D01*
X767735Y138555D01*
X767393Y138418D01*
X767049Y138290D01*
X766701Y138170D01*
X766350Y138059D01*
X765997Y137957D01*
X765641Y137863D01*
X765283Y137778D01*
X764924Y137702D01*
X764562Y137635D01*
X764199Y137576D01*
X763834Y137527D01*
X763469Y137486D01*
X763102Y137455D01*
X762735Y137432D01*
X762368Y137419D01*
X762000Y137414D01*
X761632Y137419D01*
X761265Y137432D01*
X760898Y137455D01*
X760531Y137486D01*
X760166Y137527D01*
X759801Y137576D01*
X759438Y137635D01*
X759076Y137702D01*
X758717Y137778D01*
X758359Y137863D01*
X758003Y137957D01*
X757650Y138059D01*
X757299Y138170D01*
X756951Y138290D01*
X756607Y138418D01*
X756265Y138555D01*
X755927Y138700D01*
X755593Y138853D01*
X755262Y139014D01*
X754936Y139184D01*
X754613Y139361D01*
X754296Y139546D01*
X753983Y139739D01*
X753674Y139940D01*
X753371Y140148D01*
X753073Y140363D01*
X752780Y140586D01*
X752493Y140816D01*
X752212Y141052D01*
X751936Y141296D01*
X751667Y141546D01*
X751403Y141803D01*
X751146Y142067D01*
X750896Y142336D01*
X750652Y142612D01*
X750416Y142893D01*
X750186Y143180D01*
X749963Y143473D01*
X749748Y143771D01*
X749540Y144074D01*
X749339Y144383D01*
X749146Y144696D01*
X748961Y145013D01*
X748784Y145336D01*
X748614Y145662D01*
X748453Y145993D01*
X748300Y146327D01*
X748155Y146665D01*
X748018Y147007D01*
X747890Y147351D01*
X747770Y147699D01*
X747659Y148050D01*
X747557Y148403D01*
X747463Y148759D01*
X747378Y149117D01*
X747302Y149476D01*
X747235Y149838D01*
X747176Y150201D01*
X747127Y150566D01*
X747086Y150931D01*
X747055Y151298D01*
X747032Y151665D01*
X747019Y152032D01*
X747014Y152400D01*
X1050544Y1167130D02*
X1050549Y1167498D01*
X1050562Y1167865D01*
X1050585Y1168232D01*
X1050616Y1168599D01*
X1050657Y1168964D01*
X1050706Y1169329D01*
X1050765Y1169692D01*
X1050832Y1170054D01*
X1050908Y1170413D01*
X1050993Y1170771D01*
X1051087Y1171127D01*
X1051189Y1171480D01*
X1051300Y1171831D01*
X1051420Y1172179D01*
X1051548Y1172523D01*
X1051685Y1172865D01*
X1051830Y1173203D01*
X1051983Y1173537D01*
X1052144Y1173868D01*
X1052314Y1174194D01*
X1052491Y1174517D01*
X1052676Y1174834D01*
X1052869Y1175147D01*
X1053070Y1175456D01*
X1053278Y1175759D01*
X1053493Y1176057D01*
X1053716Y1176350D01*
X1053946Y1176637D01*
X1054182Y1176918D01*
X1054426Y1177194D01*
X1054676Y1177463D01*
X1054933Y1177727D01*
X1055197Y1177984D01*
X1055466Y1178234D01*
X1055742Y1178478D01*
X1056023Y1178714D01*
X1056310Y1178944D01*
X1056603Y1179167D01*
X1056901Y1179382D01*
X1057204Y1179590D01*
X1057513Y1179791D01*
X1057826Y1179984D01*
X1058143Y1180169D01*
X1058466Y1180346D01*
X1058792Y1180516D01*
X1059123Y1180677D01*
X1059457Y1180830D01*
X1059795Y1180975D01*
X1060137Y1181112D01*
X1060481Y1181240D01*
X1060829Y1181360D01*
X1061180Y1181471D01*
X1061533Y1181573D01*
X1061889Y1181667D01*
X1062247Y1181752D01*
X1062606Y1181828D01*
X1062968Y1181895D01*
X1063331Y1181954D01*
X1063696Y1182003D01*
X1064061Y1182044D01*
X1064428Y1182075D01*
X1064795Y1182098D01*
X1065162Y1182111D01*
X1065530Y1182116D01*
X1065898Y1182111D01*
X1066265Y1182098D01*
X1066632Y1182075D01*
X1066999Y1182044D01*
X1067364Y1182003D01*
X1067729Y1181954D01*
X1068092Y1181895D01*
X1068454Y1181828D01*
X1068813Y1181752D01*
X1069171Y1181667D01*
X1069527Y1181573D01*
X1069880Y1181471D01*
X1070231Y1181360D01*
X1070579Y1181240D01*
X1070923Y1181112D01*
X1071265Y1180975D01*
X1071603Y1180830D01*
X1071937Y1180677D01*
X1072268Y1180516D01*
X1072594Y1180346D01*
X1072917Y1180169D01*
X1073234Y1179984D01*
X1073547Y1179791D01*
X1073856Y1179590D01*
X1074159Y1179382D01*
X1074457Y1179167D01*
X1074750Y1178944D01*
X1075037Y1178714D01*
X1075318Y1178478D01*
X1075594Y1178234D01*
X1075863Y1177984D01*
X1076127Y1177727D01*
X1076384Y1177463D01*
X1076634Y1177194D01*
X1076878Y1176918D01*
X1077114Y1176637D01*
X1077344Y1176350D01*
X1077567Y1176057D01*
X1077782Y1175759D01*
X1077990Y1175456D01*
X1078191Y1175147D01*
X1078384Y1174834D01*
X1078569Y1174517D01*
X1078746Y1174194D01*
X1078916Y1173868D01*
X1079077Y1173537D01*
X1079230Y1173203D01*
X1079375Y1172865D01*
X1079512Y1172523D01*
X1079640Y1172179D01*
X1079760Y1171831D01*
X1079871Y1171480D01*
X1079973Y1171127D01*
X1080067Y1170771D01*
X1080152Y1170413D01*
X1080228Y1170054D01*
X1080295Y1169692D01*
X1080354Y1169329D01*
X1080403Y1168964D01*
X1080444Y1168599D01*
X1080475Y1168232D01*
X1080498Y1167865D01*
X1080511Y1167498D01*
X1080516Y1167130D01*
X1080511Y1166762D01*
X1080498Y1166395D01*
X1080475Y1166028D01*
X1080444Y1165661D01*
X1080403Y1165296D01*
X1080354Y1164931D01*
X1080295Y1164568D01*
X1080228Y1164206D01*
X1080152Y1163847D01*
X1080067Y1163489D01*
X1079973Y1163133D01*
X1079871Y1162780D01*
X1079760Y1162429D01*
X1079640Y1162081D01*
X1079512Y1161737D01*
X1079375Y1161395D01*
X1079230Y1161057D01*
X1079077Y1160723D01*
X1078916Y1160392D01*
X1078746Y1160066D01*
X1078569Y1159743D01*
X1078384Y1159426D01*
X1078191Y1159113D01*
X1077990Y1158804D01*
X1077782Y1158501D01*
X1077567Y1158203D01*
X1077344Y1157910D01*
X1077114Y1157623D01*
X1076878Y1157342D01*
X1076634Y1157066D01*
X1076384Y1156797D01*
X1076127Y1156533D01*
X1075863Y1156276D01*
X1075594Y1156026D01*
X1075318Y1155782D01*
X1075037Y1155546D01*
X1074750Y1155316D01*
X1074457Y1155093D01*
X1074159Y1154878D01*
X1073856Y1154670D01*
X1073547Y1154469D01*
X1073234Y1154276D01*
X1072917Y1154091D01*
X1072594Y1153914D01*
X1072268Y1153744D01*
X1071937Y1153583D01*
X1071603Y1153430D01*
X1071265Y1153285D01*
X1070923Y1153148D01*
X1070579Y1153020D01*
X1070231Y1152900D01*
X1069880Y1152789D01*
X1069527Y1152687D01*
X1069171Y1152593D01*
X1068813Y1152508D01*
X1068454Y1152432D01*
X1068092Y1152365D01*
X1067729Y1152306D01*
X1067364Y1152257D01*
X1066999Y1152216D01*
X1066632Y1152185D01*
X1066265Y1152162D01*
X1065898Y1152149D01*
X1065530Y1152144D01*
X1065162Y1152149D01*
X1064795Y1152162D01*
X1064428Y1152185D01*
X1064061Y1152216D01*
X1063696Y1152257D01*
X1063331Y1152306D01*
X1062968Y1152365D01*
X1062606Y1152432D01*
X1062247Y1152508D01*
X1061889Y1152593D01*
X1061533Y1152687D01*
X1061180Y1152789D01*
X1060829Y1152900D01*
X1060481Y1153020D01*
X1060137Y1153148D01*
X1059795Y1153285D01*
X1059457Y1153430D01*
X1059123Y1153583D01*
X1058792Y1153744D01*
X1058466Y1153914D01*
X1058143Y1154091D01*
X1057826Y1154276D01*
X1057513Y1154469D01*
X1057204Y1154670D01*
X1056901Y1154878D01*
X1056603Y1155093D01*
X1056310Y1155316D01*
X1056023Y1155546D01*
X1055742Y1155782D01*
X1055466Y1156026D01*
X1055197Y1156276D01*
X1054933Y1156533D01*
X1054676Y1156797D01*
X1054426Y1157066D01*
X1054182Y1157342D01*
X1053946Y1157623D01*
X1053716Y1157910D01*
X1053493Y1158203D01*
X1053278Y1158501D01*
X1053070Y1158804D01*
X1052869Y1159113D01*
X1052676Y1159426D01*
X1052491Y1159743D01*
X1052314Y1160066D01*
X1052144Y1160392D01*
X1051983Y1160723D01*
X1051830Y1161057D01*
X1051685Y1161395D01*
X1051548Y1161737D01*
X1051420Y1162081D01*
X1051300Y1162429D01*
X1051189Y1162780D01*
X1051087Y1163133D01*
X1050993Y1163489D01*
X1050908Y1163847D01*
X1050832Y1164206D01*
X1050765Y1164568D01*
X1050706Y1164931D01*
X1050657Y1165296D01*
X1050616Y1165661D01*
X1050585Y1166028D01*
X1050562Y1166395D01*
X1050549Y1166762D01*
X1050544Y1167130D01*
D10*
X1168400Y177800D02*
X901700Y177800D01*
X1168400Y177800D02*
X1346200Y355600D01*
X1346200Y1460500D01*
X1219200Y1587500D02*
X1117600Y1587500D01*
D11*
X1219200Y1587500D02*
X1346200Y1460500D01*
D12*
X1028200Y965600D02*
X1028204Y965931D01*
X1028216Y966262D01*
X1028237Y966593D01*
X1028265Y966923D01*
X1028302Y967253D01*
X1028346Y967581D01*
X1028399Y967908D01*
X1028459Y968234D01*
X1028528Y968558D01*
X1028605Y968880D01*
X1028689Y969201D01*
X1028781Y969519D01*
X1028881Y969835D01*
X1028989Y970148D01*
X1029105Y970459D01*
X1029228Y970766D01*
X1029358Y971071D01*
X1029496Y971372D01*
X1029641Y971670D01*
X1029794Y971964D01*
X1029954Y972254D01*
X1030121Y972540D01*
X1030294Y972822D01*
X1030475Y973100D01*
X1030663Y973373D01*
X1030857Y973642D01*
X1031057Y973906D01*
X1031264Y974164D01*
X1031478Y974418D01*
X1031697Y974666D01*
X1031923Y974909D01*
X1032154Y975146D01*
X1032391Y975377D01*
X1032634Y975603D01*
X1032882Y975822D01*
X1033136Y976036D01*
X1033394Y976243D01*
X1033658Y976443D01*
X1033927Y976637D01*
X1034200Y976825D01*
X1034478Y977006D01*
X1034760Y977179D01*
X1035046Y977346D01*
X1035336Y977506D01*
X1035630Y977659D01*
X1035928Y977804D01*
X1036229Y977942D01*
X1036534Y978072D01*
X1036841Y978195D01*
X1037152Y978311D01*
X1037465Y978419D01*
X1037781Y978519D01*
X1038099Y978611D01*
X1038420Y978695D01*
X1038742Y978772D01*
X1039066Y978841D01*
X1039392Y978901D01*
X1039719Y978954D01*
X1040047Y978998D01*
X1040377Y979035D01*
X1040707Y979063D01*
X1041038Y979084D01*
X1041369Y979096D01*
X1041700Y979100D01*
X1042031Y979096D01*
X1042362Y979084D01*
X1042693Y979063D01*
X1043023Y979035D01*
X1043353Y978998D01*
X1043681Y978954D01*
X1044008Y978901D01*
X1044334Y978841D01*
X1044658Y978772D01*
X1044980Y978695D01*
X1045301Y978611D01*
X1045619Y978519D01*
X1045935Y978419D01*
X1046248Y978311D01*
X1046559Y978195D01*
X1046866Y978072D01*
X1047171Y977942D01*
X1047472Y977804D01*
X1047770Y977659D01*
X1048064Y977506D01*
X1048354Y977346D01*
X1048640Y977179D01*
X1048922Y977006D01*
X1049200Y976825D01*
X1049473Y976637D01*
X1049742Y976443D01*
X1050006Y976243D01*
X1050264Y976036D01*
X1050518Y975822D01*
X1050766Y975603D01*
X1051009Y975377D01*
X1051246Y975146D01*
X1051477Y974909D01*
X1051703Y974666D01*
X1051922Y974418D01*
X1052136Y974164D01*
X1052343Y973906D01*
X1052543Y973642D01*
X1052737Y973373D01*
X1052925Y973100D01*
X1053106Y972822D01*
X1053279Y972540D01*
X1053446Y972254D01*
X1053606Y971964D01*
X1053759Y971670D01*
X1053904Y971372D01*
X1054042Y971071D01*
X1054172Y970766D01*
X1054295Y970459D01*
X1054411Y970148D01*
X1054519Y969835D01*
X1054619Y969519D01*
X1054711Y969201D01*
X1054795Y968880D01*
X1054872Y968558D01*
X1054941Y968234D01*
X1055001Y967908D01*
X1055054Y967581D01*
X1055098Y967253D01*
X1055135Y966923D01*
X1055163Y966593D01*
X1055184Y966262D01*
X1055196Y965931D01*
X1055200Y965600D01*
X1055196Y965269D01*
X1055184Y964938D01*
X1055163Y964607D01*
X1055135Y964277D01*
X1055098Y963947D01*
X1055054Y963619D01*
X1055001Y963292D01*
X1054941Y962966D01*
X1054872Y962642D01*
X1054795Y962320D01*
X1054711Y961999D01*
X1054619Y961681D01*
X1054519Y961365D01*
X1054411Y961052D01*
X1054295Y960741D01*
X1054172Y960434D01*
X1054042Y960129D01*
X1053904Y959828D01*
X1053759Y959530D01*
X1053606Y959236D01*
X1053446Y958946D01*
X1053279Y958660D01*
X1053106Y958378D01*
X1052925Y958100D01*
X1052737Y957827D01*
X1052543Y957558D01*
X1052343Y957294D01*
X1052136Y957036D01*
X1051922Y956782D01*
X1051703Y956534D01*
X1051477Y956291D01*
X1051246Y956054D01*
X1051009Y955823D01*
X1050766Y955597D01*
X1050518Y955378D01*
X1050264Y955164D01*
X1050006Y954957D01*
X1049742Y954757D01*
X1049473Y954563D01*
X1049200Y954375D01*
X1048922Y954194D01*
X1048640Y954021D01*
X1048354Y953854D01*
X1048064Y953694D01*
X1047770Y953541D01*
X1047472Y953396D01*
X1047171Y953258D01*
X1046866Y953128D01*
X1046559Y953005D01*
X1046248Y952889D01*
X1045935Y952781D01*
X1045619Y952681D01*
X1045301Y952589D01*
X1044980Y952505D01*
X1044658Y952428D01*
X1044334Y952359D01*
X1044008Y952299D01*
X1043681Y952246D01*
X1043353Y952202D01*
X1043023Y952165D01*
X1042693Y952137D01*
X1042362Y952116D01*
X1042031Y952104D01*
X1041700Y952100D01*
X1041369Y952104D01*
X1041038Y952116D01*
X1040707Y952137D01*
X1040377Y952165D01*
X1040047Y952202D01*
X1039719Y952246D01*
X1039392Y952299D01*
X1039066Y952359D01*
X1038742Y952428D01*
X1038420Y952505D01*
X1038099Y952589D01*
X1037781Y952681D01*
X1037465Y952781D01*
X1037152Y952889D01*
X1036841Y953005D01*
X1036534Y953128D01*
X1036229Y953258D01*
X1035928Y953396D01*
X1035630Y953541D01*
X1035336Y953694D01*
X1035046Y953854D01*
X1034760Y954021D01*
X1034478Y954194D01*
X1034200Y954375D01*
X1033927Y954563D01*
X1033658Y954757D01*
X1033394Y954957D01*
X1033136Y955164D01*
X1032882Y955378D01*
X1032634Y955597D01*
X1032391Y955823D01*
X1032154Y956054D01*
X1031923Y956291D01*
X1031697Y956534D01*
X1031478Y956782D01*
X1031264Y957036D01*
X1031057Y957294D01*
X1030857Y957558D01*
X1030663Y957827D01*
X1030475Y958100D01*
X1030294Y958378D01*
X1030121Y958660D01*
X1029954Y958946D01*
X1029794Y959236D01*
X1029641Y959530D01*
X1029496Y959828D01*
X1029358Y960129D01*
X1029228Y960434D01*
X1029105Y960741D01*
X1028989Y961052D01*
X1028881Y961365D01*
X1028781Y961681D01*
X1028689Y961999D01*
X1028605Y962320D01*
X1028528Y962642D01*
X1028459Y962966D01*
X1028399Y963292D01*
X1028346Y963619D01*
X1028302Y963947D01*
X1028265Y964277D01*
X1028237Y964607D01*
X1028216Y964938D01*
X1028204Y965269D01*
X1028200Y965600D01*
X278200Y965600D02*
X278204Y965931D01*
X278216Y966262D01*
X278237Y966593D01*
X278265Y966923D01*
X278302Y967253D01*
X278346Y967581D01*
X278399Y967908D01*
X278459Y968234D01*
X278528Y968558D01*
X278605Y968880D01*
X278689Y969201D01*
X278781Y969519D01*
X278881Y969835D01*
X278989Y970148D01*
X279105Y970459D01*
X279228Y970766D01*
X279358Y971071D01*
X279496Y971372D01*
X279641Y971670D01*
X279794Y971964D01*
X279954Y972254D01*
X280121Y972540D01*
X280294Y972822D01*
X280475Y973100D01*
X280663Y973373D01*
X280857Y973642D01*
X281057Y973906D01*
X281264Y974164D01*
X281478Y974418D01*
X281697Y974666D01*
X281923Y974909D01*
X282154Y975146D01*
X282391Y975377D01*
X282634Y975603D01*
X282882Y975822D01*
X283136Y976036D01*
X283394Y976243D01*
X283658Y976443D01*
X283927Y976637D01*
X284200Y976825D01*
X284478Y977006D01*
X284760Y977179D01*
X285046Y977346D01*
X285336Y977506D01*
X285630Y977659D01*
X285928Y977804D01*
X286229Y977942D01*
X286534Y978072D01*
X286841Y978195D01*
X287152Y978311D01*
X287465Y978419D01*
X287781Y978519D01*
X288099Y978611D01*
X288420Y978695D01*
X288742Y978772D01*
X289066Y978841D01*
X289392Y978901D01*
X289719Y978954D01*
X290047Y978998D01*
X290377Y979035D01*
X290707Y979063D01*
X291038Y979084D01*
X291369Y979096D01*
X291700Y979100D01*
X292031Y979096D01*
X292362Y979084D01*
X292693Y979063D01*
X293023Y979035D01*
X293353Y978998D01*
X293681Y978954D01*
X294008Y978901D01*
X294334Y978841D01*
X294658Y978772D01*
X294980Y978695D01*
X295301Y978611D01*
X295619Y978519D01*
X295935Y978419D01*
X296248Y978311D01*
X296559Y978195D01*
X296866Y978072D01*
X297171Y977942D01*
X297472Y977804D01*
X297770Y977659D01*
X298064Y977506D01*
X298354Y977346D01*
X298640Y977179D01*
X298922Y977006D01*
X299200Y976825D01*
X299473Y976637D01*
X299742Y976443D01*
X300006Y976243D01*
X300264Y976036D01*
X300518Y975822D01*
X300766Y975603D01*
X301009Y975377D01*
X301246Y975146D01*
X301477Y974909D01*
X301703Y974666D01*
X301922Y974418D01*
X302136Y974164D01*
X302343Y973906D01*
X302543Y973642D01*
X302737Y973373D01*
X302925Y973100D01*
X303106Y972822D01*
X303279Y972540D01*
X303446Y972254D01*
X303606Y971964D01*
X303759Y971670D01*
X303904Y971372D01*
X304042Y971071D01*
X304172Y970766D01*
X304295Y970459D01*
X304411Y970148D01*
X304519Y969835D01*
X304619Y969519D01*
X304711Y969201D01*
X304795Y968880D01*
X304872Y968558D01*
X304941Y968234D01*
X305001Y967908D01*
X305054Y967581D01*
X305098Y967253D01*
X305135Y966923D01*
X305163Y966593D01*
X305184Y966262D01*
X305196Y965931D01*
X305200Y965600D01*
X305196Y965269D01*
X305184Y964938D01*
X305163Y964607D01*
X305135Y964277D01*
X305098Y963947D01*
X305054Y963619D01*
X305001Y963292D01*
X304941Y962966D01*
X304872Y962642D01*
X304795Y962320D01*
X304711Y961999D01*
X304619Y961681D01*
X304519Y961365D01*
X304411Y961052D01*
X304295Y960741D01*
X304172Y960434D01*
X304042Y960129D01*
X303904Y959828D01*
X303759Y959530D01*
X303606Y959236D01*
X303446Y958946D01*
X303279Y958660D01*
X303106Y958378D01*
X302925Y958100D01*
X302737Y957827D01*
X302543Y957558D01*
X302343Y957294D01*
X302136Y957036D01*
X301922Y956782D01*
X301703Y956534D01*
X301477Y956291D01*
X301246Y956054D01*
X301009Y955823D01*
X300766Y955597D01*
X300518Y955378D01*
X300264Y955164D01*
X300006Y954957D01*
X299742Y954757D01*
X299473Y954563D01*
X299200Y954375D01*
X298922Y954194D01*
X298640Y954021D01*
X298354Y953854D01*
X298064Y953694D01*
X297770Y953541D01*
X297472Y953396D01*
X297171Y953258D01*
X296866Y953128D01*
X296559Y953005D01*
X296248Y952889D01*
X295935Y952781D01*
X295619Y952681D01*
X295301Y952589D01*
X294980Y952505D01*
X294658Y952428D01*
X294334Y952359D01*
X294008Y952299D01*
X293681Y952246D01*
X293353Y952202D01*
X293023Y952165D01*
X292693Y952137D01*
X292362Y952116D01*
X292031Y952104D01*
X291700Y952100D01*
X291369Y952104D01*
X291038Y952116D01*
X290707Y952137D01*
X290377Y952165D01*
X290047Y952202D01*
X289719Y952246D01*
X289392Y952299D01*
X289066Y952359D01*
X288742Y952428D01*
X288420Y952505D01*
X288099Y952589D01*
X287781Y952681D01*
X287465Y952781D01*
X287152Y952889D01*
X286841Y953005D01*
X286534Y953128D01*
X286229Y953258D01*
X285928Y953396D01*
X285630Y953541D01*
X285336Y953694D01*
X285046Y953854D01*
X284760Y954021D01*
X284478Y954194D01*
X284200Y954375D01*
X283927Y954563D01*
X283658Y954757D01*
X283394Y954957D01*
X283136Y955164D01*
X282882Y955378D01*
X282634Y955597D01*
X282391Y955823D01*
X282154Y956054D01*
X281923Y956291D01*
X281697Y956534D01*
X281478Y956782D01*
X281264Y957036D01*
X281057Y957294D01*
X280857Y957558D01*
X280663Y957827D01*
X280475Y958100D01*
X280294Y958378D01*
X280121Y958660D01*
X279954Y958946D01*
X279794Y959236D01*
X279641Y959530D01*
X279496Y959828D01*
X279358Y960129D01*
X279228Y960434D01*
X279105Y960741D01*
X278989Y961052D01*
X278881Y961365D01*
X278781Y961681D01*
X278689Y961999D01*
X278605Y962320D01*
X278528Y962642D01*
X278459Y962966D01*
X278399Y963292D01*
X278346Y963619D01*
X278302Y963947D01*
X278265Y964277D01*
X278237Y964607D01*
X278216Y964938D01*
X278204Y965269D01*
X278200Y965600D01*
X1028200Y655600D02*
X1028204Y655931D01*
X1028216Y656262D01*
X1028237Y656593D01*
X1028265Y656923D01*
X1028302Y657253D01*
X1028346Y657581D01*
X1028399Y657908D01*
X1028459Y658234D01*
X1028528Y658558D01*
X1028605Y658880D01*
X1028689Y659201D01*
X1028781Y659519D01*
X1028881Y659835D01*
X1028989Y660148D01*
X1029105Y660459D01*
X1029228Y660766D01*
X1029358Y661071D01*
X1029496Y661372D01*
X1029641Y661670D01*
X1029794Y661964D01*
X1029954Y662254D01*
X1030121Y662540D01*
X1030294Y662822D01*
X1030475Y663100D01*
X1030663Y663373D01*
X1030857Y663642D01*
X1031057Y663906D01*
X1031264Y664164D01*
X1031478Y664418D01*
X1031697Y664666D01*
X1031923Y664909D01*
X1032154Y665146D01*
X1032391Y665377D01*
X1032634Y665603D01*
X1032882Y665822D01*
X1033136Y666036D01*
X1033394Y666243D01*
X1033658Y666443D01*
X1033927Y666637D01*
X1034200Y666825D01*
X1034478Y667006D01*
X1034760Y667179D01*
X1035046Y667346D01*
X1035336Y667506D01*
X1035630Y667659D01*
X1035928Y667804D01*
X1036229Y667942D01*
X1036534Y668072D01*
X1036841Y668195D01*
X1037152Y668311D01*
X1037465Y668419D01*
X1037781Y668519D01*
X1038099Y668611D01*
X1038420Y668695D01*
X1038742Y668772D01*
X1039066Y668841D01*
X1039392Y668901D01*
X1039719Y668954D01*
X1040047Y668998D01*
X1040377Y669035D01*
X1040707Y669063D01*
X1041038Y669084D01*
X1041369Y669096D01*
X1041700Y669100D01*
X1042031Y669096D01*
X1042362Y669084D01*
X1042693Y669063D01*
X1043023Y669035D01*
X1043353Y668998D01*
X1043681Y668954D01*
X1044008Y668901D01*
X1044334Y668841D01*
X1044658Y668772D01*
X1044980Y668695D01*
X1045301Y668611D01*
X1045619Y668519D01*
X1045935Y668419D01*
X1046248Y668311D01*
X1046559Y668195D01*
X1046866Y668072D01*
X1047171Y667942D01*
X1047472Y667804D01*
X1047770Y667659D01*
X1048064Y667506D01*
X1048354Y667346D01*
X1048640Y667179D01*
X1048922Y667006D01*
X1049200Y666825D01*
X1049473Y666637D01*
X1049742Y666443D01*
X1050006Y666243D01*
X1050264Y666036D01*
X1050518Y665822D01*
X1050766Y665603D01*
X1051009Y665377D01*
X1051246Y665146D01*
X1051477Y664909D01*
X1051703Y664666D01*
X1051922Y664418D01*
X1052136Y664164D01*
X1052343Y663906D01*
X1052543Y663642D01*
X1052737Y663373D01*
X1052925Y663100D01*
X1053106Y662822D01*
X1053279Y662540D01*
X1053446Y662254D01*
X1053606Y661964D01*
X1053759Y661670D01*
X1053904Y661372D01*
X1054042Y661071D01*
X1054172Y660766D01*
X1054295Y660459D01*
X1054411Y660148D01*
X1054519Y659835D01*
X1054619Y659519D01*
X1054711Y659201D01*
X1054795Y658880D01*
X1054872Y658558D01*
X1054941Y658234D01*
X1055001Y657908D01*
X1055054Y657581D01*
X1055098Y657253D01*
X1055135Y656923D01*
X1055163Y656593D01*
X1055184Y656262D01*
X1055196Y655931D01*
X1055200Y655600D01*
X1055196Y655269D01*
X1055184Y654938D01*
X1055163Y654607D01*
X1055135Y654277D01*
X1055098Y653947D01*
X1055054Y653619D01*
X1055001Y653292D01*
X1054941Y652966D01*
X1054872Y652642D01*
X1054795Y652320D01*
X1054711Y651999D01*
X1054619Y651681D01*
X1054519Y651365D01*
X1054411Y651052D01*
X1054295Y650741D01*
X1054172Y650434D01*
X1054042Y650129D01*
X1053904Y649828D01*
X1053759Y649530D01*
X1053606Y649236D01*
X1053446Y648946D01*
X1053279Y648660D01*
X1053106Y648378D01*
X1052925Y648100D01*
X1052737Y647827D01*
X1052543Y647558D01*
X1052343Y647294D01*
X1052136Y647036D01*
X1051922Y646782D01*
X1051703Y646534D01*
X1051477Y646291D01*
X1051246Y646054D01*
X1051009Y645823D01*
X1050766Y645597D01*
X1050518Y645378D01*
X1050264Y645164D01*
X1050006Y644957D01*
X1049742Y644757D01*
X1049473Y644563D01*
X1049200Y644375D01*
X1048922Y644194D01*
X1048640Y644021D01*
X1048354Y643854D01*
X1048064Y643694D01*
X1047770Y643541D01*
X1047472Y643396D01*
X1047171Y643258D01*
X1046866Y643128D01*
X1046559Y643005D01*
X1046248Y642889D01*
X1045935Y642781D01*
X1045619Y642681D01*
X1045301Y642589D01*
X1044980Y642505D01*
X1044658Y642428D01*
X1044334Y642359D01*
X1044008Y642299D01*
X1043681Y642246D01*
X1043353Y642202D01*
X1043023Y642165D01*
X1042693Y642137D01*
X1042362Y642116D01*
X1042031Y642104D01*
X1041700Y642100D01*
X1041369Y642104D01*
X1041038Y642116D01*
X1040707Y642137D01*
X1040377Y642165D01*
X1040047Y642202D01*
X1039719Y642246D01*
X1039392Y642299D01*
X1039066Y642359D01*
X1038742Y642428D01*
X1038420Y642505D01*
X1038099Y642589D01*
X1037781Y642681D01*
X1037465Y642781D01*
X1037152Y642889D01*
X1036841Y643005D01*
X1036534Y643128D01*
X1036229Y643258D01*
X1035928Y643396D01*
X1035630Y643541D01*
X1035336Y643694D01*
X1035046Y643854D01*
X1034760Y644021D01*
X1034478Y644194D01*
X1034200Y644375D01*
X1033927Y644563D01*
X1033658Y644757D01*
X1033394Y644957D01*
X1033136Y645164D01*
X1032882Y645378D01*
X1032634Y645597D01*
X1032391Y645823D01*
X1032154Y646054D01*
X1031923Y646291D01*
X1031697Y646534D01*
X1031478Y646782D01*
X1031264Y647036D01*
X1031057Y647294D01*
X1030857Y647558D01*
X1030663Y647827D01*
X1030475Y648100D01*
X1030294Y648378D01*
X1030121Y648660D01*
X1029954Y648946D01*
X1029794Y649236D01*
X1029641Y649530D01*
X1029496Y649828D01*
X1029358Y650129D01*
X1029228Y650434D01*
X1029105Y650741D01*
X1028989Y651052D01*
X1028881Y651365D01*
X1028781Y651681D01*
X1028689Y651999D01*
X1028605Y652320D01*
X1028528Y652642D01*
X1028459Y652966D01*
X1028399Y653292D01*
X1028346Y653619D01*
X1028302Y653947D01*
X1028265Y654277D01*
X1028237Y654607D01*
X1028216Y654938D01*
X1028204Y655269D01*
X1028200Y655600D01*
X278200Y655600D02*
X278204Y655931D01*
X278216Y656262D01*
X278237Y656593D01*
X278265Y656923D01*
X278302Y657253D01*
X278346Y657581D01*
X278399Y657908D01*
X278459Y658234D01*
X278528Y658558D01*
X278605Y658880D01*
X278689Y659201D01*
X278781Y659519D01*
X278881Y659835D01*
X278989Y660148D01*
X279105Y660459D01*
X279228Y660766D01*
X279358Y661071D01*
X279496Y661372D01*
X279641Y661670D01*
X279794Y661964D01*
X279954Y662254D01*
X280121Y662540D01*
X280294Y662822D01*
X280475Y663100D01*
X280663Y663373D01*
X280857Y663642D01*
X281057Y663906D01*
X281264Y664164D01*
X281478Y664418D01*
X281697Y664666D01*
X281923Y664909D01*
X282154Y665146D01*
X282391Y665377D01*
X282634Y665603D01*
X282882Y665822D01*
X283136Y666036D01*
X283394Y666243D01*
X283658Y666443D01*
X283927Y666637D01*
X284200Y666825D01*
X284478Y667006D01*
X284760Y667179D01*
X285046Y667346D01*
X285336Y667506D01*
X285630Y667659D01*
X285928Y667804D01*
X286229Y667942D01*
X286534Y668072D01*
X286841Y668195D01*
X287152Y668311D01*
X287465Y668419D01*
X287781Y668519D01*
X288099Y668611D01*
X288420Y668695D01*
X288742Y668772D01*
X289066Y668841D01*
X289392Y668901D01*
X289719Y668954D01*
X290047Y668998D01*
X290377Y669035D01*
X290707Y669063D01*
X291038Y669084D01*
X291369Y669096D01*
X291700Y669100D01*
X292031Y669096D01*
X292362Y669084D01*
X292693Y669063D01*
X293023Y669035D01*
X293353Y668998D01*
X293681Y668954D01*
X294008Y668901D01*
X294334Y668841D01*
X294658Y668772D01*
X294980Y668695D01*
X295301Y668611D01*
X295619Y668519D01*
X295935Y668419D01*
X296248Y668311D01*
X296559Y668195D01*
X296866Y668072D01*
X297171Y667942D01*
X297472Y667804D01*
X297770Y667659D01*
X298064Y667506D01*
X298354Y667346D01*
X298640Y667179D01*
X298922Y667006D01*
X299200Y666825D01*
X299473Y666637D01*
X299742Y666443D01*
X300006Y666243D01*
X300264Y666036D01*
X300518Y665822D01*
X300766Y665603D01*
X301009Y665377D01*
X301246Y665146D01*
X301477Y664909D01*
X301703Y664666D01*
X301922Y664418D01*
X302136Y664164D01*
X302343Y663906D01*
X302543Y663642D01*
X302737Y663373D01*
X302925Y663100D01*
X303106Y662822D01*
X303279Y662540D01*
X303446Y662254D01*
X303606Y661964D01*
X303759Y661670D01*
X303904Y661372D01*
X304042Y661071D01*
X304172Y660766D01*
X304295Y660459D01*
X304411Y660148D01*
X304519Y659835D01*
X304619Y659519D01*
X304711Y659201D01*
X304795Y658880D01*
X304872Y658558D01*
X304941Y658234D01*
X305001Y657908D01*
X305054Y657581D01*
X305098Y657253D01*
X305135Y656923D01*
X305163Y656593D01*
X305184Y656262D01*
X305196Y655931D01*
X305200Y655600D01*
X305196Y655269D01*
X305184Y654938D01*
X305163Y654607D01*
X305135Y654277D01*
X305098Y653947D01*
X305054Y653619D01*
X305001Y653292D01*
X304941Y652966D01*
X304872Y652642D01*
X304795Y652320D01*
X304711Y651999D01*
X304619Y651681D01*
X304519Y651365D01*
X304411Y651052D01*
X304295Y650741D01*
X304172Y650434D01*
X304042Y650129D01*
X303904Y649828D01*
X303759Y649530D01*
X303606Y649236D01*
X303446Y648946D01*
X303279Y648660D01*
X303106Y648378D01*
X302925Y648100D01*
X302737Y647827D01*
X302543Y647558D01*
X302343Y647294D01*
X302136Y647036D01*
X301922Y646782D01*
X301703Y646534D01*
X301477Y646291D01*
X301246Y646054D01*
X301009Y645823D01*
X300766Y645597D01*
X300518Y645378D01*
X300264Y645164D01*
X300006Y644957D01*
X299742Y644757D01*
X299473Y644563D01*
X299200Y644375D01*
X298922Y644194D01*
X298640Y644021D01*
X298354Y643854D01*
X298064Y643694D01*
X297770Y643541D01*
X297472Y643396D01*
X297171Y643258D01*
X296866Y643128D01*
X296559Y643005D01*
X296248Y642889D01*
X295935Y642781D01*
X295619Y642681D01*
X295301Y642589D01*
X294980Y642505D01*
X294658Y642428D01*
X294334Y642359D01*
X294008Y642299D01*
X293681Y642246D01*
X293353Y642202D01*
X293023Y642165D01*
X292693Y642137D01*
X292362Y642116D01*
X292031Y642104D01*
X291700Y642100D01*
X291369Y642104D01*
X291038Y642116D01*
X290707Y642137D01*
X290377Y642165D01*
X290047Y642202D01*
X289719Y642246D01*
X289392Y642299D01*
X289066Y642359D01*
X288742Y642428D01*
X288420Y642505D01*
X288099Y642589D01*
X287781Y642681D01*
X287465Y642781D01*
X287152Y642889D01*
X286841Y643005D01*
X286534Y643128D01*
X286229Y643258D01*
X285928Y643396D01*
X285630Y643541D01*
X285336Y643694D01*
X285046Y643854D01*
X284760Y644021D01*
X284478Y644194D01*
X284200Y644375D01*
X283927Y644563D01*
X283658Y644757D01*
X283394Y644957D01*
X283136Y645164D01*
X282882Y645378D01*
X282634Y645597D01*
X282391Y645823D01*
X282154Y646054D01*
X281923Y646291D01*
X281697Y646534D01*
X281478Y646782D01*
X281264Y647036D01*
X281057Y647294D01*
X280857Y647558D01*
X280663Y647827D01*
X280475Y648100D01*
X280294Y648378D01*
X280121Y648660D01*
X279954Y648946D01*
X279794Y649236D01*
X279641Y649530D01*
X279496Y649828D01*
X279358Y650129D01*
X279228Y650434D01*
X279105Y650741D01*
X278989Y651052D01*
X278881Y651365D01*
X278781Y651681D01*
X278689Y651999D01*
X278605Y652320D01*
X278528Y652642D01*
X278459Y652966D01*
X278399Y653292D01*
X278346Y653619D01*
X278302Y653947D01*
X278265Y654277D01*
X278237Y654607D01*
X278216Y654938D01*
X278204Y655269D01*
X278200Y655600D01*
X174500Y1503910D02*
X174505Y1504303D01*
X174519Y1504695D01*
X174543Y1505087D01*
X174577Y1505478D01*
X174620Y1505869D01*
X174673Y1506258D01*
X174736Y1506645D01*
X174807Y1507031D01*
X174889Y1507416D01*
X174979Y1507798D01*
X175080Y1508177D01*
X175189Y1508555D01*
X175308Y1508929D01*
X175435Y1509300D01*
X175572Y1509668D01*
X175718Y1510033D01*
X175873Y1510394D01*
X176036Y1510751D01*
X176208Y1511104D01*
X176389Y1511452D01*
X176579Y1511796D01*
X176776Y1512136D01*
X176982Y1512470D01*
X177196Y1512799D01*
X177419Y1513123D01*
X177649Y1513441D01*
X177886Y1513754D01*
X178132Y1514060D01*
X178385Y1514361D01*
X178645Y1514655D01*
X178912Y1514943D01*
X179186Y1515224D01*
X179467Y1515498D01*
X179755Y1515765D01*
X180049Y1516025D01*
X180350Y1516278D01*
X180656Y1516524D01*
X180969Y1516761D01*
X181287Y1516991D01*
X181611Y1517214D01*
X181940Y1517428D01*
X182274Y1517634D01*
X182614Y1517831D01*
X182958Y1518021D01*
X183306Y1518202D01*
X183659Y1518374D01*
X184016Y1518537D01*
X184377Y1518692D01*
X184742Y1518838D01*
X185110Y1518975D01*
X185481Y1519102D01*
X185855Y1519221D01*
X186233Y1519330D01*
X186612Y1519431D01*
X186994Y1519521D01*
X187379Y1519603D01*
X187765Y1519674D01*
X188152Y1519737D01*
X188541Y1519790D01*
X188932Y1519833D01*
X189323Y1519867D01*
X189715Y1519891D01*
X190107Y1519905D01*
X190500Y1519910D01*
X190893Y1519905D01*
X191285Y1519891D01*
X191677Y1519867D01*
X192068Y1519833D01*
X192459Y1519790D01*
X192848Y1519737D01*
X193235Y1519674D01*
X193621Y1519603D01*
X194006Y1519521D01*
X194388Y1519431D01*
X194767Y1519330D01*
X195145Y1519221D01*
X195519Y1519102D01*
X195890Y1518975D01*
X196258Y1518838D01*
X196623Y1518692D01*
X196984Y1518537D01*
X197341Y1518374D01*
X197694Y1518202D01*
X198042Y1518021D01*
X198386Y1517831D01*
X198726Y1517634D01*
X199060Y1517428D01*
X199389Y1517214D01*
X199713Y1516991D01*
X200031Y1516761D01*
X200344Y1516524D01*
X200650Y1516278D01*
X200951Y1516025D01*
X201245Y1515765D01*
X201533Y1515498D01*
X201814Y1515224D01*
X202088Y1514943D01*
X202355Y1514655D01*
X202615Y1514361D01*
X202868Y1514060D01*
X203114Y1513754D01*
X203351Y1513441D01*
X203581Y1513123D01*
X203804Y1512799D01*
X204018Y1512470D01*
X204224Y1512136D01*
X204421Y1511796D01*
X204611Y1511452D01*
X204792Y1511104D01*
X204964Y1510751D01*
X205127Y1510394D01*
X205282Y1510033D01*
X205428Y1509668D01*
X205565Y1509300D01*
X205692Y1508929D01*
X205811Y1508555D01*
X205920Y1508177D01*
X206021Y1507798D01*
X206111Y1507416D01*
X206193Y1507031D01*
X206264Y1506645D01*
X206327Y1506258D01*
X206380Y1505869D01*
X206423Y1505478D01*
X206457Y1505087D01*
X206481Y1504695D01*
X206495Y1504303D01*
X206500Y1503910D01*
X206495Y1503517D01*
X206481Y1503125D01*
X206457Y1502733D01*
X206423Y1502342D01*
X206380Y1501951D01*
X206327Y1501562D01*
X206264Y1501175D01*
X206193Y1500789D01*
X206111Y1500404D01*
X206021Y1500022D01*
X205920Y1499643D01*
X205811Y1499265D01*
X205692Y1498891D01*
X205565Y1498520D01*
X205428Y1498152D01*
X205282Y1497787D01*
X205127Y1497426D01*
X204964Y1497069D01*
X204792Y1496716D01*
X204611Y1496368D01*
X204421Y1496024D01*
X204224Y1495684D01*
X204018Y1495350D01*
X203804Y1495021D01*
X203581Y1494697D01*
X203351Y1494379D01*
X203114Y1494066D01*
X202868Y1493760D01*
X202615Y1493459D01*
X202355Y1493165D01*
X202088Y1492877D01*
X201814Y1492596D01*
X201533Y1492322D01*
X201245Y1492055D01*
X200951Y1491795D01*
X200650Y1491542D01*
X200344Y1491296D01*
X200031Y1491059D01*
X199713Y1490829D01*
X199389Y1490606D01*
X199060Y1490392D01*
X198726Y1490186D01*
X198386Y1489989D01*
X198042Y1489799D01*
X197694Y1489618D01*
X197341Y1489446D01*
X196984Y1489283D01*
X196623Y1489128D01*
X196258Y1488982D01*
X195890Y1488845D01*
X195519Y1488718D01*
X195145Y1488599D01*
X194767Y1488490D01*
X194388Y1488389D01*
X194006Y1488299D01*
X193621Y1488217D01*
X193235Y1488146D01*
X192848Y1488083D01*
X192459Y1488030D01*
X192068Y1487987D01*
X191677Y1487953D01*
X191285Y1487929D01*
X190893Y1487915D01*
X190500Y1487910D01*
X190107Y1487915D01*
X189715Y1487929D01*
X189323Y1487953D01*
X188932Y1487987D01*
X188541Y1488030D01*
X188152Y1488083D01*
X187765Y1488146D01*
X187379Y1488217D01*
X186994Y1488299D01*
X186612Y1488389D01*
X186233Y1488490D01*
X185855Y1488599D01*
X185481Y1488718D01*
X185110Y1488845D01*
X184742Y1488982D01*
X184377Y1489128D01*
X184016Y1489283D01*
X183659Y1489446D01*
X183306Y1489618D01*
X182958Y1489799D01*
X182614Y1489989D01*
X182274Y1490186D01*
X181940Y1490392D01*
X181611Y1490606D01*
X181287Y1490829D01*
X180969Y1491059D01*
X180656Y1491296D01*
X180350Y1491542D01*
X180049Y1491795D01*
X179755Y1492055D01*
X179467Y1492322D01*
X179186Y1492596D01*
X178912Y1492877D01*
X178645Y1493165D01*
X178385Y1493459D01*
X178132Y1493760D01*
X177886Y1494066D01*
X177649Y1494379D01*
X177419Y1494697D01*
X177196Y1495021D01*
X176982Y1495350D01*
X176776Y1495684D01*
X176579Y1496024D01*
X176389Y1496368D01*
X176208Y1496716D01*
X176036Y1497069D01*
X175873Y1497426D01*
X175718Y1497787D01*
X175572Y1498152D01*
X175435Y1498520D01*
X175308Y1498891D01*
X175189Y1499265D01*
X175080Y1499643D01*
X174979Y1500022D01*
X174889Y1500404D01*
X174807Y1500789D01*
X174736Y1501175D01*
X174673Y1501562D01*
X174620Y1501951D01*
X174577Y1502342D01*
X174543Y1502733D01*
X174519Y1503125D01*
X174505Y1503517D01*
X174500Y1503910D01*
X809500Y1503910D02*
X809505Y1504303D01*
X809519Y1504695D01*
X809543Y1505087D01*
X809577Y1505478D01*
X809620Y1505869D01*
X809673Y1506258D01*
X809736Y1506645D01*
X809807Y1507031D01*
X809889Y1507416D01*
X809979Y1507798D01*
X810080Y1508177D01*
X810189Y1508555D01*
X810308Y1508929D01*
X810435Y1509300D01*
X810572Y1509668D01*
X810718Y1510033D01*
X810873Y1510394D01*
X811036Y1510751D01*
X811208Y1511104D01*
X811389Y1511452D01*
X811579Y1511796D01*
X811776Y1512136D01*
X811982Y1512470D01*
X812196Y1512799D01*
X812419Y1513123D01*
X812649Y1513441D01*
X812886Y1513754D01*
X813132Y1514060D01*
X813385Y1514361D01*
X813645Y1514655D01*
X813912Y1514943D01*
X814186Y1515224D01*
X814467Y1515498D01*
X814755Y1515765D01*
X815049Y1516025D01*
X815350Y1516278D01*
X815656Y1516524D01*
X815969Y1516761D01*
X816287Y1516991D01*
X816611Y1517214D01*
X816940Y1517428D01*
X817274Y1517634D01*
X817614Y1517831D01*
X817958Y1518021D01*
X818306Y1518202D01*
X818659Y1518374D01*
X819016Y1518537D01*
X819377Y1518692D01*
X819742Y1518838D01*
X820110Y1518975D01*
X820481Y1519102D01*
X820855Y1519221D01*
X821233Y1519330D01*
X821612Y1519431D01*
X821994Y1519521D01*
X822379Y1519603D01*
X822765Y1519674D01*
X823152Y1519737D01*
X823541Y1519790D01*
X823932Y1519833D01*
X824323Y1519867D01*
X824715Y1519891D01*
X825107Y1519905D01*
X825500Y1519910D01*
X825893Y1519905D01*
X826285Y1519891D01*
X826677Y1519867D01*
X827068Y1519833D01*
X827459Y1519790D01*
X827848Y1519737D01*
X828235Y1519674D01*
X828621Y1519603D01*
X829006Y1519521D01*
X829388Y1519431D01*
X829767Y1519330D01*
X830145Y1519221D01*
X830519Y1519102D01*
X830890Y1518975D01*
X831258Y1518838D01*
X831623Y1518692D01*
X831984Y1518537D01*
X832341Y1518374D01*
X832694Y1518202D01*
X833042Y1518021D01*
X833386Y1517831D01*
X833726Y1517634D01*
X834060Y1517428D01*
X834389Y1517214D01*
X834713Y1516991D01*
X835031Y1516761D01*
X835344Y1516524D01*
X835650Y1516278D01*
X835951Y1516025D01*
X836245Y1515765D01*
X836533Y1515498D01*
X836814Y1515224D01*
X837088Y1514943D01*
X837355Y1514655D01*
X837615Y1514361D01*
X837868Y1514060D01*
X838114Y1513754D01*
X838351Y1513441D01*
X838581Y1513123D01*
X838804Y1512799D01*
X839018Y1512470D01*
X839224Y1512136D01*
X839421Y1511796D01*
X839611Y1511452D01*
X839792Y1511104D01*
X839964Y1510751D01*
X840127Y1510394D01*
X840282Y1510033D01*
X840428Y1509668D01*
X840565Y1509300D01*
X840692Y1508929D01*
X840811Y1508555D01*
X840920Y1508177D01*
X841021Y1507798D01*
X841111Y1507416D01*
X841193Y1507031D01*
X841264Y1506645D01*
X841327Y1506258D01*
X841380Y1505869D01*
X841423Y1505478D01*
X841457Y1505087D01*
X841481Y1504695D01*
X841495Y1504303D01*
X841500Y1503910D01*
X841495Y1503517D01*
X841481Y1503125D01*
X841457Y1502733D01*
X841423Y1502342D01*
X841380Y1501951D01*
X841327Y1501562D01*
X841264Y1501175D01*
X841193Y1500789D01*
X841111Y1500404D01*
X841021Y1500022D01*
X840920Y1499643D01*
X840811Y1499265D01*
X840692Y1498891D01*
X840565Y1498520D01*
X840428Y1498152D01*
X840282Y1497787D01*
X840127Y1497426D01*
X839964Y1497069D01*
X839792Y1496716D01*
X839611Y1496368D01*
X839421Y1496024D01*
X839224Y1495684D01*
X839018Y1495350D01*
X838804Y1495021D01*
X838581Y1494697D01*
X838351Y1494379D01*
X838114Y1494066D01*
X837868Y1493760D01*
X837615Y1493459D01*
X837355Y1493165D01*
X837088Y1492877D01*
X836814Y1492596D01*
X836533Y1492322D01*
X836245Y1492055D01*
X835951Y1491795D01*
X835650Y1491542D01*
X835344Y1491296D01*
X835031Y1491059D01*
X834713Y1490829D01*
X834389Y1490606D01*
X834060Y1490392D01*
X833726Y1490186D01*
X833386Y1489989D01*
X833042Y1489799D01*
X832694Y1489618D01*
X832341Y1489446D01*
X831984Y1489283D01*
X831623Y1489128D01*
X831258Y1488982D01*
X830890Y1488845D01*
X830519Y1488718D01*
X830145Y1488599D01*
X829767Y1488490D01*
X829388Y1488389D01*
X829006Y1488299D01*
X828621Y1488217D01*
X828235Y1488146D01*
X827848Y1488083D01*
X827459Y1488030D01*
X827068Y1487987D01*
X826677Y1487953D01*
X826285Y1487929D01*
X825893Y1487915D01*
X825500Y1487910D01*
X825107Y1487915D01*
X824715Y1487929D01*
X824323Y1487953D01*
X823932Y1487987D01*
X823541Y1488030D01*
X823152Y1488083D01*
X822765Y1488146D01*
X822379Y1488217D01*
X821994Y1488299D01*
X821612Y1488389D01*
X821233Y1488490D01*
X820855Y1488599D01*
X820481Y1488718D01*
X820110Y1488845D01*
X819742Y1488982D01*
X819377Y1489128D01*
X819016Y1489283D01*
X818659Y1489446D01*
X818306Y1489618D01*
X817958Y1489799D01*
X817614Y1489989D01*
X817274Y1490186D01*
X816940Y1490392D01*
X816611Y1490606D01*
X816287Y1490829D01*
X815969Y1491059D01*
X815656Y1491296D01*
X815350Y1491542D01*
X815049Y1491795D01*
X814755Y1492055D01*
X814467Y1492322D01*
X814186Y1492596D01*
X813912Y1492877D01*
X813645Y1493165D01*
X813385Y1493459D01*
X813132Y1493760D01*
X812886Y1494066D01*
X812649Y1494379D01*
X812419Y1494697D01*
X812196Y1495021D01*
X811982Y1495350D01*
X811776Y1495684D01*
X811579Y1496024D01*
X811389Y1496368D01*
X811208Y1496716D01*
X811036Y1497069D01*
X810873Y1497426D01*
X810718Y1497787D01*
X810572Y1498152D01*
X810435Y1498520D01*
X810308Y1498891D01*
X810189Y1499265D01*
X810080Y1499643D01*
X809979Y1500022D01*
X809889Y1500404D01*
X809807Y1500789D01*
X809736Y1501175D01*
X809673Y1501562D01*
X809620Y1501951D01*
X809577Y1502342D01*
X809543Y1502733D01*
X809519Y1503125D01*
X809505Y1503517D01*
X809500Y1503910D01*
X1277460Y812800D02*
X1277463Y813009D01*
X1277470Y813217D01*
X1277483Y813425D01*
X1277501Y813633D01*
X1277524Y813840D01*
X1277552Y814047D01*
X1277585Y814253D01*
X1277623Y814458D01*
X1277667Y814662D01*
X1277715Y814865D01*
X1277768Y815067D01*
X1277826Y815267D01*
X1277889Y815466D01*
X1277957Y815664D01*
X1278030Y815859D01*
X1278107Y816053D01*
X1278189Y816245D01*
X1278276Y816434D01*
X1278368Y816622D01*
X1278464Y816807D01*
X1278564Y816990D01*
X1278669Y817170D01*
X1278779Y817347D01*
X1278893Y817522D01*
X1279011Y817694D01*
X1279133Y817863D01*
X1279259Y818029D01*
X1279389Y818192D01*
X1279524Y818352D01*
X1279662Y818508D01*
X1279804Y818661D01*
X1279950Y818810D01*
X1280099Y818956D01*
X1280252Y819098D01*
X1280408Y819236D01*
X1280568Y819371D01*
X1280731Y819501D01*
X1280897Y819627D01*
X1281066Y819749D01*
X1281238Y819867D01*
X1281413Y819981D01*
X1281590Y820091D01*
X1281770Y820196D01*
X1281953Y820296D01*
X1282138Y820392D01*
X1282326Y820484D01*
X1282515Y820571D01*
X1282707Y820653D01*
X1282901Y820730D01*
X1283096Y820803D01*
X1283294Y820871D01*
X1283493Y820934D01*
X1283693Y820992D01*
X1283895Y821045D01*
X1284098Y821093D01*
X1284302Y821137D01*
X1284507Y821175D01*
X1284713Y821208D01*
X1284920Y821236D01*
X1285127Y821259D01*
X1285335Y821277D01*
X1285543Y821290D01*
X1285751Y821297D01*
X1285960Y821300D01*
X1286169Y821297D01*
X1286377Y821290D01*
X1286585Y821277D01*
X1286793Y821259D01*
X1287000Y821236D01*
X1287207Y821208D01*
X1287413Y821175D01*
X1287618Y821137D01*
X1287822Y821093D01*
X1288025Y821045D01*
X1288227Y820992D01*
X1288427Y820934D01*
X1288626Y820871D01*
X1288824Y820803D01*
X1289019Y820730D01*
X1289213Y820653D01*
X1289405Y820571D01*
X1289594Y820484D01*
X1289782Y820392D01*
X1289967Y820296D01*
X1290150Y820196D01*
X1290330Y820091D01*
X1290507Y819981D01*
X1290682Y819867D01*
X1290854Y819749D01*
X1291023Y819627D01*
X1291189Y819501D01*
X1291352Y819371D01*
X1291512Y819236D01*
X1291668Y819098D01*
X1291821Y818956D01*
X1291970Y818810D01*
X1292116Y818661D01*
X1292258Y818508D01*
X1292396Y818352D01*
X1292531Y818192D01*
X1292661Y818029D01*
X1292787Y817863D01*
X1292909Y817694D01*
X1293027Y817522D01*
X1293141Y817347D01*
X1293251Y817170D01*
X1293356Y816990D01*
X1293456Y816807D01*
X1293552Y816622D01*
X1293644Y816434D01*
X1293731Y816245D01*
X1293813Y816053D01*
X1293890Y815859D01*
X1293963Y815664D01*
X1294031Y815466D01*
X1294094Y815267D01*
X1294152Y815067D01*
X1294205Y814865D01*
X1294253Y814662D01*
X1294297Y814458D01*
X1294335Y814253D01*
X1294368Y814047D01*
X1294396Y813840D01*
X1294419Y813633D01*
X1294437Y813425D01*
X1294450Y813217D01*
X1294457Y813009D01*
X1294460Y812800D01*
X1294457Y812591D01*
X1294450Y812383D01*
X1294437Y812175D01*
X1294419Y811967D01*
X1294396Y811760D01*
X1294368Y811553D01*
X1294335Y811347D01*
X1294297Y811142D01*
X1294253Y810938D01*
X1294205Y810735D01*
X1294152Y810533D01*
X1294094Y810333D01*
X1294031Y810134D01*
X1293963Y809936D01*
X1293890Y809741D01*
X1293813Y809547D01*
X1293731Y809355D01*
X1293644Y809166D01*
X1293552Y808978D01*
X1293456Y808793D01*
X1293356Y808610D01*
X1293251Y808430D01*
X1293141Y808253D01*
X1293027Y808078D01*
X1292909Y807906D01*
X1292787Y807737D01*
X1292661Y807571D01*
X1292531Y807408D01*
X1292396Y807248D01*
X1292258Y807092D01*
X1292116Y806939D01*
X1291970Y806790D01*
X1291821Y806644D01*
X1291668Y806502D01*
X1291512Y806364D01*
X1291352Y806229D01*
X1291189Y806099D01*
X1291023Y805973D01*
X1290854Y805851D01*
X1290682Y805733D01*
X1290507Y805619D01*
X1290330Y805509D01*
X1290150Y805404D01*
X1289967Y805304D01*
X1289782Y805208D01*
X1289594Y805116D01*
X1289405Y805029D01*
X1289213Y804947D01*
X1289019Y804870D01*
X1288824Y804797D01*
X1288626Y804729D01*
X1288427Y804666D01*
X1288227Y804608D01*
X1288025Y804555D01*
X1287822Y804507D01*
X1287618Y804463D01*
X1287413Y804425D01*
X1287207Y804392D01*
X1287000Y804364D01*
X1286793Y804341D01*
X1286585Y804323D01*
X1286377Y804310D01*
X1286169Y804303D01*
X1285960Y804300D01*
X1285751Y804303D01*
X1285543Y804310D01*
X1285335Y804323D01*
X1285127Y804341D01*
X1284920Y804364D01*
X1284713Y804392D01*
X1284507Y804425D01*
X1284302Y804463D01*
X1284098Y804507D01*
X1283895Y804555D01*
X1283693Y804608D01*
X1283493Y804666D01*
X1283294Y804729D01*
X1283096Y804797D01*
X1282901Y804870D01*
X1282707Y804947D01*
X1282515Y805029D01*
X1282326Y805116D01*
X1282138Y805208D01*
X1281953Y805304D01*
X1281770Y805404D01*
X1281590Y805509D01*
X1281413Y805619D01*
X1281238Y805733D01*
X1281066Y805851D01*
X1280897Y805973D01*
X1280731Y806099D01*
X1280568Y806229D01*
X1280408Y806364D01*
X1280252Y806502D01*
X1280099Y806644D01*
X1279950Y806790D01*
X1279804Y806939D01*
X1279662Y807092D01*
X1279524Y807248D01*
X1279389Y807408D01*
X1279259Y807571D01*
X1279133Y807737D01*
X1279011Y807906D01*
X1278893Y808078D01*
X1278779Y808253D01*
X1278669Y808430D01*
X1278564Y808610D01*
X1278464Y808793D01*
X1278368Y808978D01*
X1278276Y809166D01*
X1278189Y809355D01*
X1278107Y809547D01*
X1278030Y809741D01*
X1277957Y809936D01*
X1277889Y810134D01*
X1277826Y810333D01*
X1277768Y810533D01*
X1277715Y810735D01*
X1277667Y810938D01*
X1277623Y811142D01*
X1277585Y811347D01*
X1277552Y811553D01*
X1277524Y811760D01*
X1277501Y811967D01*
X1277483Y812175D01*
X1277470Y812383D01*
X1277463Y812591D01*
X1277460Y812800D01*
X1207460Y812800D02*
X1207463Y813009D01*
X1207470Y813217D01*
X1207483Y813425D01*
X1207501Y813633D01*
X1207524Y813840D01*
X1207552Y814047D01*
X1207585Y814253D01*
X1207623Y814458D01*
X1207667Y814662D01*
X1207715Y814865D01*
X1207768Y815067D01*
X1207826Y815267D01*
X1207889Y815466D01*
X1207957Y815664D01*
X1208030Y815859D01*
X1208107Y816053D01*
X1208189Y816245D01*
X1208276Y816434D01*
X1208368Y816622D01*
X1208464Y816807D01*
X1208564Y816990D01*
X1208669Y817170D01*
X1208779Y817347D01*
X1208893Y817522D01*
X1209011Y817694D01*
X1209133Y817863D01*
X1209259Y818029D01*
X1209389Y818192D01*
X1209524Y818352D01*
X1209662Y818508D01*
X1209804Y818661D01*
X1209950Y818810D01*
X1210099Y818956D01*
X1210252Y819098D01*
X1210408Y819236D01*
X1210568Y819371D01*
X1210731Y819501D01*
X1210897Y819627D01*
X1211066Y819749D01*
X1211238Y819867D01*
X1211413Y819981D01*
X1211590Y820091D01*
X1211770Y820196D01*
X1211953Y820296D01*
X1212138Y820392D01*
X1212326Y820484D01*
X1212515Y820571D01*
X1212707Y820653D01*
X1212901Y820730D01*
X1213096Y820803D01*
X1213294Y820871D01*
X1213493Y820934D01*
X1213693Y820992D01*
X1213895Y821045D01*
X1214098Y821093D01*
X1214302Y821137D01*
X1214507Y821175D01*
X1214713Y821208D01*
X1214920Y821236D01*
X1215127Y821259D01*
X1215335Y821277D01*
X1215543Y821290D01*
X1215751Y821297D01*
X1215960Y821300D01*
X1216169Y821297D01*
X1216377Y821290D01*
X1216585Y821277D01*
X1216793Y821259D01*
X1217000Y821236D01*
X1217207Y821208D01*
X1217413Y821175D01*
X1217618Y821137D01*
X1217822Y821093D01*
X1218025Y821045D01*
X1218227Y820992D01*
X1218427Y820934D01*
X1218626Y820871D01*
X1218824Y820803D01*
X1219019Y820730D01*
X1219213Y820653D01*
X1219405Y820571D01*
X1219594Y820484D01*
X1219782Y820392D01*
X1219967Y820296D01*
X1220150Y820196D01*
X1220330Y820091D01*
X1220507Y819981D01*
X1220682Y819867D01*
X1220854Y819749D01*
X1221023Y819627D01*
X1221189Y819501D01*
X1221352Y819371D01*
X1221512Y819236D01*
X1221668Y819098D01*
X1221821Y818956D01*
X1221970Y818810D01*
X1222116Y818661D01*
X1222258Y818508D01*
X1222396Y818352D01*
X1222531Y818192D01*
X1222661Y818029D01*
X1222787Y817863D01*
X1222909Y817694D01*
X1223027Y817522D01*
X1223141Y817347D01*
X1223251Y817170D01*
X1223356Y816990D01*
X1223456Y816807D01*
X1223552Y816622D01*
X1223644Y816434D01*
X1223731Y816245D01*
X1223813Y816053D01*
X1223890Y815859D01*
X1223963Y815664D01*
X1224031Y815466D01*
X1224094Y815267D01*
X1224152Y815067D01*
X1224205Y814865D01*
X1224253Y814662D01*
X1224297Y814458D01*
X1224335Y814253D01*
X1224368Y814047D01*
X1224396Y813840D01*
X1224419Y813633D01*
X1224437Y813425D01*
X1224450Y813217D01*
X1224457Y813009D01*
X1224460Y812800D01*
X1224457Y812591D01*
X1224450Y812383D01*
X1224437Y812175D01*
X1224419Y811967D01*
X1224396Y811760D01*
X1224368Y811553D01*
X1224335Y811347D01*
X1224297Y811142D01*
X1224253Y810938D01*
X1224205Y810735D01*
X1224152Y810533D01*
X1224094Y810333D01*
X1224031Y810134D01*
X1223963Y809936D01*
X1223890Y809741D01*
X1223813Y809547D01*
X1223731Y809355D01*
X1223644Y809166D01*
X1223552Y808978D01*
X1223456Y808793D01*
X1223356Y808610D01*
X1223251Y808430D01*
X1223141Y808253D01*
X1223027Y808078D01*
X1222909Y807906D01*
X1222787Y807737D01*
X1222661Y807571D01*
X1222531Y807408D01*
X1222396Y807248D01*
X1222258Y807092D01*
X1222116Y806939D01*
X1221970Y806790D01*
X1221821Y806644D01*
X1221668Y806502D01*
X1221512Y806364D01*
X1221352Y806229D01*
X1221189Y806099D01*
X1221023Y805973D01*
X1220854Y805851D01*
X1220682Y805733D01*
X1220507Y805619D01*
X1220330Y805509D01*
X1220150Y805404D01*
X1219967Y805304D01*
X1219782Y805208D01*
X1219594Y805116D01*
X1219405Y805029D01*
X1219213Y804947D01*
X1219019Y804870D01*
X1218824Y804797D01*
X1218626Y804729D01*
X1218427Y804666D01*
X1218227Y804608D01*
X1218025Y804555D01*
X1217822Y804507D01*
X1217618Y804463D01*
X1217413Y804425D01*
X1217207Y804392D01*
X1217000Y804364D01*
X1216793Y804341D01*
X1216585Y804323D01*
X1216377Y804310D01*
X1216169Y804303D01*
X1215960Y804300D01*
X1215751Y804303D01*
X1215543Y804310D01*
X1215335Y804323D01*
X1215127Y804341D01*
X1214920Y804364D01*
X1214713Y804392D01*
X1214507Y804425D01*
X1214302Y804463D01*
X1214098Y804507D01*
X1213895Y804555D01*
X1213693Y804608D01*
X1213493Y804666D01*
X1213294Y804729D01*
X1213096Y804797D01*
X1212901Y804870D01*
X1212707Y804947D01*
X1212515Y805029D01*
X1212326Y805116D01*
X1212138Y805208D01*
X1211953Y805304D01*
X1211770Y805404D01*
X1211590Y805509D01*
X1211413Y805619D01*
X1211238Y805733D01*
X1211066Y805851D01*
X1210897Y805973D01*
X1210731Y806099D01*
X1210568Y806229D01*
X1210408Y806364D01*
X1210252Y806502D01*
X1210099Y806644D01*
X1209950Y806790D01*
X1209804Y806939D01*
X1209662Y807092D01*
X1209524Y807248D01*
X1209389Y807408D01*
X1209259Y807571D01*
X1209133Y807737D01*
X1209011Y807906D01*
X1208893Y808078D01*
X1208779Y808253D01*
X1208669Y808430D01*
X1208564Y808610D01*
X1208464Y808793D01*
X1208368Y808978D01*
X1208276Y809166D01*
X1208189Y809355D01*
X1208107Y809547D01*
X1208030Y809741D01*
X1207957Y809936D01*
X1207889Y810134D01*
X1207826Y810333D01*
X1207768Y810533D01*
X1207715Y810735D01*
X1207667Y810938D01*
X1207623Y811142D01*
X1207585Y811347D01*
X1207552Y811553D01*
X1207524Y811760D01*
X1207501Y811967D01*
X1207483Y812175D01*
X1207470Y812383D01*
X1207463Y812591D01*
X1207460Y812800D01*
X1287220Y1012190D02*
X1287225Y1012558D01*
X1287238Y1012926D01*
X1287261Y1013293D01*
X1287292Y1013660D01*
X1287333Y1014026D01*
X1287382Y1014391D01*
X1287441Y1014754D01*
X1287508Y1015116D01*
X1287584Y1015477D01*
X1287670Y1015835D01*
X1287763Y1016191D01*
X1287866Y1016544D01*
X1287977Y1016895D01*
X1288097Y1017243D01*
X1288225Y1017588D01*
X1288362Y1017930D01*
X1288507Y1018269D01*
X1288660Y1018603D01*
X1288822Y1018934D01*
X1288991Y1019261D01*
X1289169Y1019583D01*
X1289354Y1019902D01*
X1289547Y1020215D01*
X1289748Y1020524D01*
X1289956Y1020827D01*
X1290172Y1021125D01*
X1290395Y1021418D01*
X1290625Y1021706D01*
X1290862Y1021988D01*
X1291106Y1022263D01*
X1291356Y1022533D01*
X1291613Y1022797D01*
X1291877Y1023054D01*
X1292147Y1023304D01*
X1292422Y1023548D01*
X1292704Y1023785D01*
X1292992Y1024015D01*
X1293285Y1024238D01*
X1293583Y1024454D01*
X1293886Y1024662D01*
X1294195Y1024863D01*
X1294508Y1025056D01*
X1294827Y1025241D01*
X1295149Y1025419D01*
X1295476Y1025588D01*
X1295807Y1025750D01*
X1296141Y1025903D01*
X1296480Y1026048D01*
X1296822Y1026185D01*
X1297167Y1026313D01*
X1297515Y1026433D01*
X1297866Y1026544D01*
X1298219Y1026647D01*
X1298575Y1026740D01*
X1298933Y1026826D01*
X1299294Y1026902D01*
X1299656Y1026969D01*
X1300019Y1027028D01*
X1300384Y1027077D01*
X1300750Y1027118D01*
X1301117Y1027149D01*
X1301484Y1027172D01*
X1301852Y1027185D01*
X1302220Y1027190D01*
X1302588Y1027185D01*
X1302956Y1027172D01*
X1303323Y1027149D01*
X1303690Y1027118D01*
X1304056Y1027077D01*
X1304421Y1027028D01*
X1304784Y1026969D01*
X1305146Y1026902D01*
X1305507Y1026826D01*
X1305865Y1026740D01*
X1306221Y1026647D01*
X1306574Y1026544D01*
X1306925Y1026433D01*
X1307273Y1026313D01*
X1307618Y1026185D01*
X1307960Y1026048D01*
X1308299Y1025903D01*
X1308633Y1025750D01*
X1308964Y1025588D01*
X1309291Y1025419D01*
X1309613Y1025241D01*
X1309932Y1025056D01*
X1310245Y1024863D01*
X1310554Y1024662D01*
X1310857Y1024454D01*
X1311155Y1024238D01*
X1311448Y1024015D01*
X1311736Y1023785D01*
X1312018Y1023548D01*
X1312293Y1023304D01*
X1312563Y1023054D01*
X1312827Y1022797D01*
X1313084Y1022533D01*
X1313334Y1022263D01*
X1313578Y1021988D01*
X1313815Y1021706D01*
X1314045Y1021418D01*
X1314268Y1021125D01*
X1314484Y1020827D01*
X1314692Y1020524D01*
X1314893Y1020215D01*
X1315086Y1019902D01*
X1315271Y1019583D01*
X1315449Y1019261D01*
X1315618Y1018934D01*
X1315780Y1018603D01*
X1315933Y1018269D01*
X1316078Y1017930D01*
X1316215Y1017588D01*
X1316343Y1017243D01*
X1316463Y1016895D01*
X1316574Y1016544D01*
X1316677Y1016191D01*
X1316770Y1015835D01*
X1316856Y1015477D01*
X1316932Y1015116D01*
X1316999Y1014754D01*
X1317058Y1014391D01*
X1317107Y1014026D01*
X1317148Y1013660D01*
X1317179Y1013293D01*
X1317202Y1012926D01*
X1317215Y1012558D01*
X1317220Y1012190D01*
X1317215Y1011822D01*
X1317202Y1011454D01*
X1317179Y1011087D01*
X1317148Y1010720D01*
X1317107Y1010354D01*
X1317058Y1009989D01*
X1316999Y1009626D01*
X1316932Y1009264D01*
X1316856Y1008903D01*
X1316770Y1008545D01*
X1316677Y1008189D01*
X1316574Y1007836D01*
X1316463Y1007485D01*
X1316343Y1007137D01*
X1316215Y1006792D01*
X1316078Y1006450D01*
X1315933Y1006111D01*
X1315780Y1005777D01*
X1315618Y1005446D01*
X1315449Y1005119D01*
X1315271Y1004797D01*
X1315086Y1004478D01*
X1314893Y1004165D01*
X1314692Y1003856D01*
X1314484Y1003553D01*
X1314268Y1003255D01*
X1314045Y1002962D01*
X1313815Y1002674D01*
X1313578Y1002392D01*
X1313334Y1002117D01*
X1313084Y1001847D01*
X1312827Y1001583D01*
X1312563Y1001326D01*
X1312293Y1001076D01*
X1312018Y1000832D01*
X1311736Y1000595D01*
X1311448Y1000365D01*
X1311155Y1000142D01*
X1310857Y999926D01*
X1310554Y999718D01*
X1310245Y999517D01*
X1309932Y999324D01*
X1309613Y999139D01*
X1309291Y998961D01*
X1308964Y998792D01*
X1308633Y998630D01*
X1308299Y998477D01*
X1307960Y998332D01*
X1307618Y998195D01*
X1307273Y998067D01*
X1306925Y997947D01*
X1306574Y997836D01*
X1306221Y997733D01*
X1305865Y997640D01*
X1305507Y997554D01*
X1305146Y997478D01*
X1304784Y997411D01*
X1304421Y997352D01*
X1304056Y997303D01*
X1303690Y997262D01*
X1303323Y997231D01*
X1302956Y997208D01*
X1302588Y997195D01*
X1302220Y997190D01*
X1301852Y997195D01*
X1301484Y997208D01*
X1301117Y997231D01*
X1300750Y997262D01*
X1300384Y997303D01*
X1300019Y997352D01*
X1299656Y997411D01*
X1299294Y997478D01*
X1298933Y997554D01*
X1298575Y997640D01*
X1298219Y997733D01*
X1297866Y997836D01*
X1297515Y997947D01*
X1297167Y998067D01*
X1296822Y998195D01*
X1296480Y998332D01*
X1296141Y998477D01*
X1295807Y998630D01*
X1295476Y998792D01*
X1295149Y998961D01*
X1294827Y999139D01*
X1294508Y999324D01*
X1294195Y999517D01*
X1293886Y999718D01*
X1293583Y999926D01*
X1293285Y1000142D01*
X1292992Y1000365D01*
X1292704Y1000595D01*
X1292422Y1000832D01*
X1292147Y1001076D01*
X1291877Y1001326D01*
X1291613Y1001583D01*
X1291356Y1001847D01*
X1291106Y1002117D01*
X1290862Y1002392D01*
X1290625Y1002674D01*
X1290395Y1002962D01*
X1290172Y1003255D01*
X1289956Y1003553D01*
X1289748Y1003856D01*
X1289547Y1004165D01*
X1289354Y1004478D01*
X1289169Y1004797D01*
X1288991Y1005119D01*
X1288822Y1005446D01*
X1288660Y1005777D01*
X1288507Y1006111D01*
X1288362Y1006450D01*
X1288225Y1006792D01*
X1288097Y1007137D01*
X1287977Y1007485D01*
X1287866Y1007836D01*
X1287763Y1008189D01*
X1287670Y1008545D01*
X1287584Y1008903D01*
X1287508Y1009264D01*
X1287441Y1009626D01*
X1287382Y1009989D01*
X1287333Y1010354D01*
X1287292Y1010720D01*
X1287261Y1011087D01*
X1287238Y1011454D01*
X1287225Y1011822D01*
X1287220Y1012190D01*
X335600Y165100D02*
X335606Y165591D01*
X335624Y166081D01*
X335654Y166571D01*
X335696Y167060D01*
X335750Y167548D01*
X335816Y168035D01*
X335894Y168519D01*
X335984Y169002D01*
X336086Y169482D01*
X336199Y169960D01*
X336324Y170434D01*
X336461Y170906D01*
X336609Y171374D01*
X336769Y171838D01*
X336940Y172298D01*
X337122Y172754D01*
X337316Y173205D01*
X337520Y173651D01*
X337736Y174092D01*
X337962Y174528D01*
X338198Y174958D01*
X338445Y175382D01*
X338703Y175800D01*
X338971Y176211D01*
X339248Y176616D01*
X339536Y177014D01*
X339833Y177405D01*
X340140Y177788D01*
X340456Y178163D01*
X340781Y178531D01*
X341115Y178891D01*
X341458Y179242D01*
X341809Y179585D01*
X342169Y179919D01*
X342537Y180244D01*
X342912Y180560D01*
X343295Y180867D01*
X343686Y181164D01*
X344084Y181452D01*
X344489Y181729D01*
X344900Y181997D01*
X345318Y182255D01*
X345742Y182502D01*
X346172Y182738D01*
X346608Y182964D01*
X347049Y183180D01*
X347495Y183384D01*
X347946Y183578D01*
X348402Y183760D01*
X348862Y183931D01*
X349326Y184091D01*
X349794Y184239D01*
X350266Y184376D01*
X350740Y184501D01*
X351218Y184614D01*
X351698Y184716D01*
X352181Y184806D01*
X352665Y184884D01*
X353152Y184950D01*
X353640Y185004D01*
X354129Y185046D01*
X354619Y185076D01*
X355109Y185094D01*
X355600Y185100D01*
X356091Y185094D01*
X356581Y185076D01*
X357071Y185046D01*
X357560Y185004D01*
X358048Y184950D01*
X358535Y184884D01*
X359019Y184806D01*
X359502Y184716D01*
X359982Y184614D01*
X360460Y184501D01*
X360934Y184376D01*
X361406Y184239D01*
X361874Y184091D01*
X362338Y183931D01*
X362798Y183760D01*
X363254Y183578D01*
X363705Y183384D01*
X364151Y183180D01*
X364592Y182964D01*
X365028Y182738D01*
X365458Y182502D01*
X365882Y182255D01*
X366300Y181997D01*
X366711Y181729D01*
X367116Y181452D01*
X367514Y181164D01*
X367905Y180867D01*
X368288Y180560D01*
X368663Y180244D01*
X369031Y179919D01*
X369391Y179585D01*
X369742Y179242D01*
X370085Y178891D01*
X370419Y178531D01*
X370744Y178163D01*
X371060Y177788D01*
X371367Y177405D01*
X371664Y177014D01*
X371952Y176616D01*
X372229Y176211D01*
X372497Y175800D01*
X372755Y175382D01*
X373002Y174958D01*
X373238Y174528D01*
X373464Y174092D01*
X373680Y173651D01*
X373884Y173205D01*
X374078Y172754D01*
X374260Y172298D01*
X374431Y171838D01*
X374591Y171374D01*
X374739Y170906D01*
X374876Y170434D01*
X375001Y169960D01*
X375114Y169482D01*
X375216Y169002D01*
X375306Y168519D01*
X375384Y168035D01*
X375450Y167548D01*
X375504Y167060D01*
X375546Y166571D01*
X375576Y166081D01*
X375594Y165591D01*
X375600Y165100D01*
X375594Y164609D01*
X375576Y164119D01*
X375546Y163629D01*
X375504Y163140D01*
X375450Y162652D01*
X375384Y162165D01*
X375306Y161681D01*
X375216Y161198D01*
X375114Y160718D01*
X375001Y160240D01*
X374876Y159766D01*
X374739Y159294D01*
X374591Y158826D01*
X374431Y158362D01*
X374260Y157902D01*
X374078Y157446D01*
X373884Y156995D01*
X373680Y156549D01*
X373464Y156108D01*
X373238Y155672D01*
X373002Y155242D01*
X372755Y154818D01*
X372497Y154400D01*
X372229Y153989D01*
X371952Y153584D01*
X371664Y153186D01*
X371367Y152795D01*
X371060Y152412D01*
X370744Y152037D01*
X370419Y151669D01*
X370085Y151309D01*
X369742Y150958D01*
X369391Y150615D01*
X369031Y150281D01*
X368663Y149956D01*
X368288Y149640D01*
X367905Y149333D01*
X367514Y149036D01*
X367116Y148748D01*
X366711Y148471D01*
X366300Y148203D01*
X365882Y147945D01*
X365458Y147698D01*
X365028Y147462D01*
X364592Y147236D01*
X364151Y147020D01*
X363705Y146816D01*
X363254Y146622D01*
X362798Y146440D01*
X362338Y146269D01*
X361874Y146109D01*
X361406Y145961D01*
X360934Y145824D01*
X360460Y145699D01*
X359982Y145586D01*
X359502Y145484D01*
X359019Y145394D01*
X358535Y145316D01*
X358048Y145250D01*
X357560Y145196D01*
X357071Y145154D01*
X356581Y145124D01*
X356091Y145106D01*
X355600Y145100D01*
X355109Y145106D01*
X354619Y145124D01*
X354129Y145154D01*
X353640Y145196D01*
X353152Y145250D01*
X352665Y145316D01*
X352181Y145394D01*
X351698Y145484D01*
X351218Y145586D01*
X350740Y145699D01*
X350266Y145824D01*
X349794Y145961D01*
X349326Y146109D01*
X348862Y146269D01*
X348402Y146440D01*
X347946Y146622D01*
X347495Y146816D01*
X347049Y147020D01*
X346608Y147236D01*
X346172Y147462D01*
X345742Y147698D01*
X345318Y147945D01*
X344900Y148203D01*
X344489Y148471D01*
X344084Y148748D01*
X343686Y149036D01*
X343295Y149333D01*
X342912Y149640D01*
X342537Y149956D01*
X342169Y150281D01*
X341809Y150615D01*
X341458Y150958D01*
X341115Y151309D01*
X340781Y151669D01*
X340456Y152037D01*
X340140Y152412D01*
X339833Y152795D01*
X339536Y153186D01*
X339248Y153584D01*
X338971Y153989D01*
X338703Y154400D01*
X338445Y154818D01*
X338198Y155242D01*
X337962Y155672D01*
X337736Y156108D01*
X337520Y156549D01*
X337316Y156995D01*
X337122Y157446D01*
X336940Y157902D01*
X336769Y158362D01*
X336609Y158826D01*
X336461Y159294D01*
X336324Y159766D01*
X336199Y160240D01*
X336086Y160718D01*
X335984Y161198D01*
X335894Y161681D01*
X335816Y162165D01*
X335750Y162652D01*
X335696Y163140D01*
X335654Y163629D01*
X335624Y164119D01*
X335606Y164609D01*
X335600Y165100D01*
X208600Y165100D02*
X208606Y165591D01*
X208624Y166081D01*
X208654Y166571D01*
X208696Y167060D01*
X208750Y167548D01*
X208816Y168035D01*
X208894Y168519D01*
X208984Y169002D01*
X209086Y169482D01*
X209199Y169960D01*
X209324Y170434D01*
X209461Y170906D01*
X209609Y171374D01*
X209769Y171838D01*
X209940Y172298D01*
X210122Y172754D01*
X210316Y173205D01*
X210520Y173651D01*
X210736Y174092D01*
X210962Y174528D01*
X211198Y174958D01*
X211445Y175382D01*
X211703Y175800D01*
X211971Y176211D01*
X212248Y176616D01*
X212536Y177014D01*
X212833Y177405D01*
X213140Y177788D01*
X213456Y178163D01*
X213781Y178531D01*
X214115Y178891D01*
X214458Y179242D01*
X214809Y179585D01*
X215169Y179919D01*
X215537Y180244D01*
X215912Y180560D01*
X216295Y180867D01*
X216686Y181164D01*
X217084Y181452D01*
X217489Y181729D01*
X217900Y181997D01*
X218318Y182255D01*
X218742Y182502D01*
X219172Y182738D01*
X219608Y182964D01*
X220049Y183180D01*
X220495Y183384D01*
X220946Y183578D01*
X221402Y183760D01*
X221862Y183931D01*
X222326Y184091D01*
X222794Y184239D01*
X223266Y184376D01*
X223740Y184501D01*
X224218Y184614D01*
X224698Y184716D01*
X225181Y184806D01*
X225665Y184884D01*
X226152Y184950D01*
X226640Y185004D01*
X227129Y185046D01*
X227619Y185076D01*
X228109Y185094D01*
X228600Y185100D01*
X229091Y185094D01*
X229581Y185076D01*
X230071Y185046D01*
X230560Y185004D01*
X231048Y184950D01*
X231535Y184884D01*
X232019Y184806D01*
X232502Y184716D01*
X232982Y184614D01*
X233460Y184501D01*
X233934Y184376D01*
X234406Y184239D01*
X234874Y184091D01*
X235338Y183931D01*
X235798Y183760D01*
X236254Y183578D01*
X236705Y183384D01*
X237151Y183180D01*
X237592Y182964D01*
X238028Y182738D01*
X238458Y182502D01*
X238882Y182255D01*
X239300Y181997D01*
X239711Y181729D01*
X240116Y181452D01*
X240514Y181164D01*
X240905Y180867D01*
X241288Y180560D01*
X241663Y180244D01*
X242031Y179919D01*
X242391Y179585D01*
X242742Y179242D01*
X243085Y178891D01*
X243419Y178531D01*
X243744Y178163D01*
X244060Y177788D01*
X244367Y177405D01*
X244664Y177014D01*
X244952Y176616D01*
X245229Y176211D01*
X245497Y175800D01*
X245755Y175382D01*
X246002Y174958D01*
X246238Y174528D01*
X246464Y174092D01*
X246680Y173651D01*
X246884Y173205D01*
X247078Y172754D01*
X247260Y172298D01*
X247431Y171838D01*
X247591Y171374D01*
X247739Y170906D01*
X247876Y170434D01*
X248001Y169960D01*
X248114Y169482D01*
X248216Y169002D01*
X248306Y168519D01*
X248384Y168035D01*
X248450Y167548D01*
X248504Y167060D01*
X248546Y166571D01*
X248576Y166081D01*
X248594Y165591D01*
X248600Y165100D01*
X248594Y164609D01*
X248576Y164119D01*
X248546Y163629D01*
X248504Y163140D01*
X248450Y162652D01*
X248384Y162165D01*
X248306Y161681D01*
X248216Y161198D01*
X248114Y160718D01*
X248001Y160240D01*
X247876Y159766D01*
X247739Y159294D01*
X247591Y158826D01*
X247431Y158362D01*
X247260Y157902D01*
X247078Y157446D01*
X246884Y156995D01*
X246680Y156549D01*
X246464Y156108D01*
X246238Y155672D01*
X246002Y155242D01*
X245755Y154818D01*
X245497Y154400D01*
X245229Y153989D01*
X244952Y153584D01*
X244664Y153186D01*
X244367Y152795D01*
X244060Y152412D01*
X243744Y152037D01*
X243419Y151669D01*
X243085Y151309D01*
X242742Y150958D01*
X242391Y150615D01*
X242031Y150281D01*
X241663Y149956D01*
X241288Y149640D01*
X240905Y149333D01*
X240514Y149036D01*
X240116Y148748D01*
X239711Y148471D01*
X239300Y148203D01*
X238882Y147945D01*
X238458Y147698D01*
X238028Y147462D01*
X237592Y147236D01*
X237151Y147020D01*
X236705Y146816D01*
X236254Y146622D01*
X235798Y146440D01*
X235338Y146269D01*
X234874Y146109D01*
X234406Y145961D01*
X233934Y145824D01*
X233460Y145699D01*
X232982Y145586D01*
X232502Y145484D01*
X232019Y145394D01*
X231535Y145316D01*
X231048Y145250D01*
X230560Y145196D01*
X230071Y145154D01*
X229581Y145124D01*
X229091Y145106D01*
X228600Y145100D01*
X228109Y145106D01*
X227619Y145124D01*
X227129Y145154D01*
X226640Y145196D01*
X226152Y145250D01*
X225665Y145316D01*
X225181Y145394D01*
X224698Y145484D01*
X224218Y145586D01*
X223740Y145699D01*
X223266Y145824D01*
X222794Y145961D01*
X222326Y146109D01*
X221862Y146269D01*
X221402Y146440D01*
X220946Y146622D01*
X220495Y146816D01*
X220049Y147020D01*
X219608Y147236D01*
X219172Y147462D01*
X218742Y147698D01*
X218318Y147945D01*
X217900Y148203D01*
X217489Y148471D01*
X217084Y148748D01*
X216686Y149036D01*
X216295Y149333D01*
X215912Y149640D01*
X215537Y149956D01*
X215169Y150281D01*
X214809Y150615D01*
X214458Y150958D01*
X214115Y151309D01*
X213781Y151669D01*
X213456Y152037D01*
X213140Y152412D01*
X212833Y152795D01*
X212536Y153186D01*
X212248Y153584D01*
X211971Y153989D01*
X211703Y154400D01*
X211445Y154818D01*
X211198Y155242D01*
X210962Y155672D01*
X210736Y156108D01*
X210520Y156549D01*
X210316Y156995D01*
X210122Y157446D01*
X209940Y157902D01*
X209769Y158362D01*
X209609Y158826D01*
X209461Y159294D01*
X209324Y159766D01*
X209199Y160240D01*
X209086Y160718D01*
X208984Y161198D01*
X208894Y161681D01*
X208816Y162165D01*
X208750Y162652D01*
X208696Y163140D01*
X208654Y163629D01*
X208624Y164119D01*
X208606Y164609D01*
X208600Y165100D01*
D13*
X25400Y101600D02*
X101600Y25400D01*
X749300Y25400D01*
X901700Y177800D01*
X1168400Y177800D01*
X1346200Y355600D01*
X1346200Y1460500D01*
X1219200Y1587500D01*
X152400Y1587500D01*
X25400Y1460500D01*
X25400Y101600D01*
M02*
