G04 EAGLE Gerber RS-274X export*
G75*
%MOMM*%
%FSLAX34Y34*%
%LPD*%
%INSolderpaste Bottom*%
%IPPOS*%
%AMOC8*
5,1,8,0,0,1.08239X$1,22.5*%
G01*
G04 Define Apertures*
%ADD10R,1.164600X2.715300*%
%ADD11R,2.715300X1.164600*%
%ADD12R,2.230000X2.370000*%
%ADD13R,3.200000X3.000000*%
%ADD14R,3.370200X1.231200*%
%ADD15R,1.800000X0.601500*%
%ADD16R,2.620000X3.400000*%
%ADD17R,1.800000X0.425000*%
%ADD18R,1.340000X0.620000*%
%ADD19R,1.231400X1.771900*%
%ADD20R,1.771900X1.231400*%
%ADD21R,1.815300X1.164600*%
%ADD22R,1.164600X1.815300*%
%ADD23R,0.624800X1.223500*%
D10*
X258594Y1169670D03*
X229086Y1169670D03*
X497354Y1153160D03*
X467846Y1153160D03*
X1151404Y857250D03*
X1121896Y857250D03*
X434826Y699770D03*
X464334Y699770D03*
D11*
X546100Y818664D03*
X546100Y789156D03*
X506730Y818664D03*
X506730Y789156D03*
D10*
X258594Y1129030D03*
X229086Y1129030D03*
D12*
X542290Y725970D03*
X542290Y686270D03*
D13*
X622300Y725720D03*
X622300Y808440D03*
D14*
X241300Y1358415D03*
X241300Y1417805D03*
X393700Y1358415D03*
X393700Y1417805D03*
X546100Y1358415D03*
X546100Y1417805D03*
X698500Y1358415D03*
X698500Y1417805D03*
X215900Y1277135D03*
X215900Y1336525D03*
X368300Y1277135D03*
X368300Y1336525D03*
X520700Y1275865D03*
X520700Y1335255D03*
X673100Y1275865D03*
X673100Y1335255D03*
D15*
X424080Y726440D03*
X424080Y739140D03*
X424080Y751840D03*
X424080Y764540D03*
X475080Y764540D03*
X475080Y751840D03*
X475080Y739140D03*
X475080Y726440D03*
D16*
X449580Y745490D03*
D17*
X342122Y1091750D03*
X342122Y1098250D03*
X342122Y1104750D03*
X342122Y1111250D03*
X342122Y1117750D03*
X342122Y1124250D03*
X342122Y1130750D03*
X399558Y1130750D03*
X399558Y1124250D03*
X399558Y1117750D03*
X399558Y1111250D03*
X399558Y1104750D03*
X399558Y1098250D03*
X399558Y1091750D03*
X593582Y1098100D03*
X593582Y1104600D03*
X593582Y1111100D03*
X593582Y1117600D03*
X593582Y1124100D03*
X593582Y1130600D03*
X593582Y1137100D03*
X651018Y1137100D03*
X651018Y1130600D03*
X651018Y1124100D03*
X651018Y1117600D03*
X651018Y1111100D03*
X651018Y1104600D03*
X651018Y1098100D03*
D18*
X1152994Y1057250D03*
X1152994Y1047750D03*
X1152994Y1038250D03*
X1127926Y1038250D03*
X1127926Y1057250D03*
D19*
X440000Y798830D03*
X469320Y798830D03*
X423600Y798830D03*
X394280Y798830D03*
D20*
X394970Y775390D03*
X394970Y746070D03*
D21*
X1159510Y1279674D03*
X1159510Y1250166D03*
D22*
X1108224Y1247140D03*
X1078716Y1247140D03*
X1171426Y1079500D03*
X1200934Y1079500D03*
X1152674Y1079500D03*
X1123166Y1079500D03*
X1232684Y756920D03*
X1203176Y756920D03*
D21*
X1173480Y832634D03*
X1173480Y803126D03*
X1301750Y737384D03*
X1301750Y707876D03*
X1271270Y707876D03*
X1271270Y737384D03*
X1132840Y796776D03*
X1132840Y826284D03*
D22*
X1232684Y786130D03*
X1203176Y786130D03*
D21*
X955040Y284966D03*
X955040Y314474D03*
X980440Y284966D03*
X980440Y314474D03*
D10*
X952986Y259080D03*
X982494Y259080D03*
X497354Y1193800D03*
X467846Y1193800D03*
X502434Y340360D03*
X472926Y340360D03*
X807234Y341630D03*
X777726Y341630D03*
X654834Y340360D03*
X625326Y340360D03*
D23*
X817270Y1137130D03*
X836270Y1137130D03*
X826770Y1115850D03*
M02*
